<?xml version="1.0" encoding="UTF-8"?>
<svg id="Layer_1" data-name="Layer 1" xmlns="http://www.w3.org/2000/svg" viewBox="0 0 144 198">
  <defs>
    <style>
      .cls-1 {
        fill: none;
        stroke: #000;
        stroke-linecap: round;
        stroke-linejoin: round;
        stroke-width: 2px;
      }
    </style>
  </defs>
  <path class="cls-1" d="M136.58,163.01c-9.99-20.88-19.98-41.76-30.05-62.8h-63.11c-2.94,4.9-6.02,10.03-9.09,15.16"/>
  <path class="cls-1" d="M6.02,186v5.13c3.88.18,7.77.48,11.66.51,9.55.07,19.1-.02,28.64.04,9.88.06,19.76.2,29.64.32,7.66.1,15.32.17,22.98.34,12.54.29,25.09.65,37.97.99v-21.32"/>
  <path class="cls-1" d="M138.24,28.09v65.3"/>
  <path class="cls-1" d="M137.58,100.05v66.63"/>
  <path class="cls-1" d="M44.32,8.1c-13.21-.32-26.42-.65-39.97-.98v20.97"/>
  <path class="cls-1" d="M5.02,43.41v54.64"/>
  <path class="cls-1" d="M33.66,116.71c-4.88,8.22-9.72,16.47-14.67,24.64-4.14,6.82-8.45,13.54-12.6,20.36-.5.83-.67,1.97-.67,2.98-.06,6.44-.03,12.88-.03,19.32"/>
  <path class="cls-1" d="M46.98,7.43c4,.22,7.99.61,11.99.64,14.65.08,29.31-.03,43.96.06,5.33.03,10.66.41,15.99.64"/>
  <path class="cls-1" d="M5.68,128.03c0,10.11-.01,20.21.01,30.32,0,1.11.21,2.22.32,3.33"/>
  <path class="cls-1" d="M138.91,23.42v-14.48c-5.77-.28-11.54-.56-17.32-.84"/>
  <path class="cls-1" d="M45.65,76.73c.16,1.68.33,3.36.48,4.95,2.79.82,5.28.62,6.02-1.67.72-2.21.46-4.9-.01-7.24-.16-.81-2.3-1.21-3.8-1.93-.9,2.02-1.46,3.29-2.02,4.56"/>
  <path class="cls-1" d="M117.59,177.34h-25.31"/>
  <path class="cls-1" d="M88.28,176.67h-25.31"/>
  <path class="cls-1" d="M58.98,176h-24.65"/>
  <path class="cls-1" d="M6.35,175.34h23.98"/>
  <path class="cls-1" d="M56.31,60.07c1.13,1.94,4.02,1.77,5.66-.33,1.92-2.47,1.16-6.28-1.97-8.55-.17,1.54-2.94,2.1-1.03,4.22"/>
  <path class="cls-1" d="M67.63,17.76h15.32v16.99"/>
  <path class="cls-1" d="M81.96,17.09c-.78-.78-1.55-1.56-2.33-2.34-.02.24-.04.49-.05.73-3.09-.26-6.18-.52-9.2-.77-3.31,1.92-4.5,4.61-4.15,8.38.34,3.63.07,7.32.07,10.99"/>
  <path class="cls-1" d="M136.25,178h-14.65"/>
  <path class="cls-1" d="M86.29,46.74v7.7c-.24.26-.98,1.07-1.72,1.89-.3-.04-.61-.09-.91-.13-.23-1.48-.46-2.97-.7-4.45"/>
  <path class="cls-1" d="M82.29,36.08c-1.89.22-3.77.54-5.66.64-2.1.11-4.22.03-6.33.03"/>
  <path class="cls-1" d="M5.68,114.04v11.99"/>
  <path class="cls-1" d="M5.02,100.71v11.33"/>
  <path class="cls-1" d="M84.95,131.36c.22,3.78.44,7.55.67,11.33"/>
  <path class="cls-1" d="M104.27,76.06c-.92.61-1.85,1.23-3.15,2.1,1.78.87,3.22,1.56,5.37,2.61-2.13.85-3.51,1.4-4.89,1.96"/>
  <path class="cls-1" d="M5.02,30.09c-.11,3.55-.22,7.11-.33,10.66"/>
  <path class="cls-1" d="M58.31,78.73l-.73-1.47c-.31-.02-.61-.05-.92-.07-.42,1.34-.85,2.68-1.27,4.02.34.17.69.33,1.03.5l1.88-2.64"/>
  <path class="cls-1" d="M84.95,113.37c-3.54,1.66-6.1,4.22-7.33,8"/>
  <path class="cls-1" d="M46.32,57.41c-.6-1.58-1.2-3.16-2.14-5.64-1.09,1.86-1.8,3.08-2.52,4.3"/>
  <path class="cls-1" d="M29.67,49.41c-.22,2.44-.44,4.89-.67,7.33"/>
  <path class="cls-1" d="M93.61,53.74c-.1,3.58,2.51,2.93,4.66,3"/>
  <path class="cls-1" d="M90.28,115.37v6"/>
  <path class="cls-1" d="M87.29,52.41c.33-.33.67-.67,1-1,.89,1.55,1.78,3.11,2.66,4.66"/>
  <path class="cls-1" d="M73.63,8.77v8"/>
  <path class="cls-1" d="M33.66,48.08c-.31-.93-.63-1.86-1.23-3.66-1,1.74-1.55,2.7-2.1,3.66"/>
  <path class="cls-1" d="M83.62,45.41c-.22,1.89-.44,3.78-.67,5.66"/>
  <path class="cls-1" d="M38.33,50.74c.22,1,.59,2,.62,3,.02.77-.4,1.55-.62,2.33"/>
  <path class="cls-1" d="M72.96,133.36c-1.57,1.44-2.79,3.44-5.33,3.33"/>
  <path class="cls-1" d="M60.31,72.73v5.33"/>
  <path class="cls-1" d="M84.29,141.36l1,4c.11-.11.25-.21.32-.34.05-.08,0-.22,0-.33"/>
  <path class="cls-1" d="M34.33,50.08c.56,2.67,1.11,5.33,1.67,8"/>
  <path class="cls-1" d="M77.63,140.03c-1.55,1.11-3.11,2.22-4.66,3.33"/>
  <path class="cls-1" d="M80.96,72.73c.33-.44.62-1.22,1.01-1.27,1.2-.17,2.43-.06,3.66-.06"/>
  <path class="cls-1" d="M91.62,52.74c2.9,1.8,3.81-.96,5.46-2.02-.21-.28-.42-.57-.62-.85-.73.85-1.45,1.69-2.18,2.54"/>
  <path class="cls-1" d="M65.64,35.42c-.37,2.34,1.26,2.02,2.66,2"/>
  <path class="cls-1" d="M89.62,77.06c-1.33.11-2.66.22-4,.33"/>
  <path class="cls-1" d="M87.62,126.7c-.22,1.11-.44,2.22-.67,3.33"/>
  <path class="cls-1" d="M54.98,51.41c-.89,1.33-1.78,2.67-2.66,4"/>
  <path class="cls-1" d="M59.64,137.36c-1.11.89-2.22,1.78-3.33,2.67"/>
  <path class="cls-1" d="M64.97,137.36h-3.33"/>
  <path class="cls-1" d="M78.96,72.06h-3.33"/>
  <path class="cls-1" d="M64.97,145.36h-3.33"/>
  <path class="cls-1" d="M80.96,78.06c.22,1.11.44,2.22.67,3.33"/>
  <path class="cls-1" d="M92.28,76.73c-.62.71-1.25,1.41-1.99,2.25-.62-1.19-1.74-2.31.66-2.25"/>
  <path class="cls-1" d="M98.94,76.73c-1.22.67-2.44,1.33-3.66,2"/>
  <path class="cls-1" d="M34.66,52.74h-3"/>
  <path class="cls-1" d="M62.64,78.73c.78.89,1.55,1.78,2.33,2.67"/>
  <path class="cls-1" d="M86.29,132.7v2.67"/>
  <path class="cls-1" d="M74.96,129.36c-.44.89-.89,1.78-1.33,2.67"/>
  <path class="cls-1" d="M80.29,74.06v2.67"/>
  <path class="cls-1" d="M84.95,122.7l-2,2"/>
  <path class="cls-1" d="M84.95,51.41h-4.66"/>
  <path class="cls-1" d="M64.3,77.39c-1.11,1.11-2.22,2.22-3.33,3.33"/>
  <path class="cls-1" d="M89.28,78.39c.11.78.22,1.55.33,2.33"/>
  <path class="cls-1" d="M84.95,76.06v4"/>
  <path class="cls-1" d="M61.97,53.74c-.56.56-1.11,1.11-1.67,1.67"/>
  <path class="cls-1" d="M92.95,80.73c-.67.22-1.33.44-2,.67"/>
  <path class="cls-1" d="M40.99,53.41c-.56-.11-1.11-.22-1.67-.33"/>
  <path class="cls-1" d="M96.28,76.73c-.22.56-.44,1.11-.67,1.67"/>
  <path class="cls-1" d="M55.64,141.36c-.44.44-.89.89-1.33,1.33"/>
  <path class="cls-1" d="M58.64,79.39c.33.22.67.44,1,.67"/>
  <path class="cls-1" d="M55.31,52.41c.11.33.22.67.33,1"/>
  <path class="cls-1" d="M73.3,20.76c-5.63,3.11-6.6,7.58-3.07,12.05,2.08,2.62,4.63,2.06,7.06,1.84,2.09-.19,4.19-3.52,4.34-5.9.34-5.44-2.22-8-7.99-8"/>
  <path class="cls-1" d="M49.65,52.74c-.46.31-.92.62-1.52,1.01.31.59.6,1.11.84,1.65.2.45.33.93.51,1.45.39-.22.69-.28.81-.47.84-1.29,1.45-2.59-.32-3.66"/>
</svg>