<?xml version="1.0" encoding="UTF-8"?>
<svg id="Layer_1" data-name="Layer 1" xmlns="http://www.w3.org/2000/svg" viewBox="0 0 144 198">
  <defs>
    <style>
      .cls-1 {
        fill: none;
        stroke: #000;
        stroke-linecap: round;
        stroke-linejoin: round;
        stroke-width: 2px;
      }
    </style>
  </defs>
  <path class="cls-1" d="M61.49,71.38h-18c-12.1,19.87-24.2,39.75-36.29,59.63"/>
  <path class="cls-1" d="M45.5,7.42c-13.43-.32-26.86-.65-40.63-.98v34.96"/>
  <path class="cls-1" d="M119.44,8.08c-13.66-.22-27.31-.46-40.97-.66-9.1-.14-18.21-.22-27.31-.35-1-.01-2-.21-3-.32"/>
  <path class="cls-1" d="M5.54,56.72v69.29"/>
  <path class="cls-1" d="M138.76,61.39v67.3"/>
  <path class="cls-1" d="M139.43,56.06V8.27c-5.54-.28-11.1-.57-16.65-.85"/>
  <path class="cls-1" d="M106.46,72.38c10.21,21.1,20.43,42.2,30.64,63.3"/>
  <path class="cls-1" d="M6.2,141.34v49.31h35.97"/>
  <path class="cls-1" d="M88.14,191.31c-13.21-.11-26.42-.24-39.63-.32-1.66-.01-3.33.21-5,.32"/>
  <path class="cls-1" d="M77.48,164h-39.97"/>
  <path class="cls-1" d="M119.44,164.66h-38.64"/>
  <path class="cls-1" d="M137.43,191.98h-47.96"/>
  <path class="cls-1" d="M106.12,71.38c-1,.22-2,.63-3,.64-11.21.05-22.43.03-33.64.03"/>
  <path class="cls-1" d="M84.81,26.07c-1.93-4.87-3.73-5.7-7.66-5.32-2.74.26-5.06,2.88-5.66,6.32-.47,2.68,2.35,7.01,5,7.66,3.98.99,7.22-1.08,8.33-5.33"/>
  <path class="cls-1" d="M138.1,134.01v56.63"/>
  <path class="cls-1" d="M6.87,163.33h27.31"/>
  <path class="cls-1" d="M67.15,153.67c-.11.89-.44,1.82-.28,2.65.21,1.05.59,2.53,1.34,2.87.84.38,2.42.02,3.21-.6,1.22-.97,2.04-2.44,3.04-3.72-.72-1.28-1.27-2.28-1.9-3.41-2.07-.22-4.06-.63-5.08,1.87"/>
  <path class="cls-1" d="M86.14,27.41v9.33h-12.66"/>
  <path class="cls-1" d="M20.86,140.68c-.44-.11-1.27-.21-1.28-.33-.06-3.26-.27-6.59,2.76-9.25,2.39,4.09,2.92,8.56,3.84,12.91"/>
  <path class="cls-1" d="M69.49,22.74v14.66h2"/>
  <path class="cls-1" d="M86.8,26.07v-8h-15.65"/>
  <path class="cls-1" d="M137.43,165.33h-13.99"/>
  <path class="cls-1" d="M121.44,154.67c-1.14.34-2.29.67-3.8,1.12,1.38,1.08,2.36,1.85,3.35,2.62-.03.27-.07.54-.1.8-1.59.26-3.18.53-4.77.79"/>
  <path class="cls-1" d="M5.54,44.06c-.22,3.55-.44,7.11-.67,10.66"/>
  <path class="cls-1" d="M75.48,98.7c-1.16,3.87-2.49,7.61-6.66,9.33"/>
  <path class="cls-1" d="M84.81,102.7c.22,3.55.44,7.11.67,10.66"/>
  <path class="cls-1" d="M76.81,128.68c-.22,2.67-.66,5.34-.59,7.99.04,1.84.77,3.66,1.23,5.63,1.38-.49,2.04-.73,2.7-.96"/>
  <path class="cls-1" d="M77.48,15.41h5.41l-.08-.67c.78.78,1.55,1.55,2.33,2.33"/>
  <path class="cls-1" d="M104.12,150.67c-2.44.22-4.88.44-7.33.67"/>
  <path class="cls-1" d="M82.14,151.34v6.42c-1.05-.77-2.3-1.68-4.31-3.13-.36.71-.69,1.38-1.02,2.05"/>
  <path class="cls-1" d="M54.16,143.34c-.14-2.01-.28-4.02-.42-6.04-1.86,1.07-3.42,1.98-2.21,4.49.67-1.14,1.15-1.96,1.63-2.79"/>
  <path class="cls-1" d="M84.14,85.37l-6,6"/>
  <path class="cls-1" d="M38.84,139.34h2.11c-.27,1-.52,1.88-.76,2.76-.26.04-.52.08-.78.11-.41-.85-.82-1.7-1.24-2.54"/>
  <path class="cls-1" d="M35.51,141.34c-.26-1.15-.53-2.31-.79-3.46-.36-.05-.71-.11-1.07-.16-.49.99-.98,1.97-1.47,2.96"/>
  <path class="cls-1" d="M87.8,138.68c.85-.68,1.71-1.37,3.01-2.41-3.77.41-4.67,2.98-2.68,5.74"/>
  <path class="cls-1" d="M53.5,144.67c-1.33,2.67-3.28,3.5-6,2"/>
  <path class="cls-1" d="M76.81,15.08c-3.25-1.4-4.76.87-6.33,3"/>
  <path class="cls-1" d="M77.48,8.75v8"/>
  <path class="cls-1" d="M57.49,110.69c-1.57,1.84-4.04,3.08-4,6"/>
  <path class="cls-1" d="M114.45,156c1.3-.05,3.15.36,1.58-2.4-.86.91-1.55,1.66-2.25,2.4"/>
  <path class="cls-1" d="M60.83,117.35h-6"/>
  <path class="cls-1" d="M90.14,87.37v5.33"/>
  <path class="cls-1" d="M84.14,112.69c0,1-.13,2.02.06,2.99.08.4.83.68,1.27,1.01"/>
  <path class="cls-1" d="M67.49,116.69h-4.66"/>
  <path class="cls-1" d="M104.12,153.33v4.66"/>
  <path class="cls-1" d="M84.14,140.68c-.54-1.12-1.08-2.23-1.95-4.01-.6,1.17-.99,1.93-1.38,2.68"/>
  <path class="cls-1" d="M47.5,142.01c-.23-1.57-.22-3.29-2.33-3.66"/>
  <path class="cls-1" d="M110.45,155.67c-1.78-.4-3.55-2.27-5.33,0"/>
  <path class="cls-1" d="M6.2,128.02c-.11,3.78-.22,7.55-.33,11.33"/>
  <path class="cls-1" d="M80.14,135.01c-1.22.11-2.44.22-3.66.33"/>
  <path class="cls-1" d="M89.47,86.04c-.89-.67-1.78-1.33-2.66-2"/>
  <path class="cls-1" d="M86.14,102.7v3.33"/>
  <path class="cls-1" d="M28.85,138.01c.11,1.11.22,2.22.33,3.33"/>
  <path class="cls-1" d="M92.8,142.67h-3.33"/>
  <path class="cls-1" d="M80.81,132.01c.11,1.89.22,3.78.33,5.66"/>
  <path class="cls-1" d="M82.81,96.03c.36-.9.38-2.32,2-1.33"/>
  <path class="cls-1" d="M84.81,155.67c.67.78,1.33,1.55,2,2.33"/>
  <path class="cls-1" d="M87.47,98.03c-.22.89-.44,1.78-.67,2.67"/>
  <path class="cls-1" d="M74.15,136.01h-2.66"/>
  <path class="cls-1" d="M66.82,108.69h-2.66"/>
  <path class="cls-1" d="M78.81,108.69c-.44.89-.89,1.78-1.33,2.67"/>
  <path class="cls-1" d="M61.49,109.36h-2.66"/>
  <path class="cls-1" d="M44.51,139.01c-.11.78-.22,1.55-.33,2.33"/>
  <path class="cls-1" d="M31.85,139.01c-.22-.33-.44-.67-1.21-1.81-.32.73-.56,1.27-.79,1.81"/>
  <path class="cls-1" d="M19.53,143.34c.22.67.44,1.33.67,2"/>
  <path class="cls-1" d="M73.48,114.69c-.67.22-1.33.44-2,.67"/>
  <path class="cls-1" d="M79.81,157c-.56.33-1.11.67-1.67,1"/>
  <path class="cls-1" d="M86.14,154.67c-1,.56-2,1.11-3,1.67"/>
  <path class="cls-1" d="M86.14,137.34c.11.33.22.67.33,1"/>
</svg>