<?xml version="1.0" encoding="UTF-8"?>
<svg id="Layer_1" data-name="Layer 1" xmlns="http://www.w3.org/2000/svg" viewBox="0 0 144 198">
  <defs>
    <style>
      .cls-1 {
        fill: none;
        stroke: #000;
        stroke-linecap: round;
        stroke-linejoin: round;
        stroke-width: 2px;
      }
    </style>
  </defs>
  <path class="cls-1" d="M100.64,8.23h-7.66c-9.33,0-18.65.08-27.98-.02-12.77-.14-25.53-.47-38.3-.63-7.44-.09-14.88-.02-22.65-.02v63.3"/>
  <path class="cls-1" d="M137.95,55.54c-.22,37.76-.44,75.51-.67,113.27"/>
  <path class="cls-1" d="M5.39,157.48v33.98h3.66c8.44,0,16.88-.08,25.31.02,13.1.15,26.2.45,39.3.64,16.65.25,33.31.46,49.96.66,4.33.05,8.66,0,12.99,0"/>
  <path class="cls-1" d="M138.61,52.21V8.56h-15.99"/>
  <path class="cls-1" d="M4.72,85.52v69.29"/>
  <path class="cls-1" d="M101.31,138.16c-2.11-.44-4.21-1.23-6.33-1.27-7.77-.15-15.55-.19-23.31,0-3.45.09-6.88.93-10.33,1.23-1.64.14-3.33-.18-4.99-.29"/>
  <path class="cls-1" d="M39.36,136.82c-7.22.22-14.45.26-21.64.74-4.13.27-8.22,1.26-12.33,1.93"/>
  <path class="cls-1" d="M44.36,112.5c.56,2.22,1.05,4.46,1.68,6.66.51,1.75,1.18,3.45,1.89,5.48-.29,6.18-.6,12.85-.91,19.51"/>
  <path class="cls-1" d="M113.3,140.16c6.72,0,12.87,2.04,18.65,5.33"/>
  <path class="cls-1" d="M119.96,8.9c-5.77-.22-11.55-.44-17.32-.67"/>
  <path class="cls-1" d="M57.01,120.83c-4.06,5.07-6.57,10.92-8.66,16.99"/>
  <path class="cls-1" d="M136.61,174.8v16.66"/>
  <path class="cls-1" d="M75,87.52c2.23-2.31,2.29-3.32.17-5.86-.66,1.22-1.27,2.36-1.97,3.66.58,1.03,1.19,2.11,2.11,3.75-2.66,4.51-5.48,9.31-8.31,14.1"/>
  <path class="cls-1" d="M33.36,114.84c-.12-.78-.24-1.57-.35-2.3-1.69.49-3.11.9-4.81,1.4-.2.67-.53,1.78-.94,3.13,3.98,5.3,8.04,10.7,12.12,16.08.18.23.65.24.98.35"/>
  <path class="cls-1" d="M80.99,31.55c-.94-4.37-1.87-8.74-2.86-13.34-4.12,3.04-6.31,10.65-4.8,15.34"/>
  <path class="cls-1" d="M35.7,96.51c-5.44-5.77-10.93-11.51-16.27-17.37-.74-.81-.94-1.29-1.72-.28"/>
  <path class="cls-1" d="M75.33,122.83c-3.11,2.11-6.22,4.22-9.33,6.33-.99.67-2,1.33-3,2"/>
  <path class="cls-1" d="M54.35,66.2c.26.31.51.61,1.03,1.24,1.31-.9,2.76-1.89,3.8-2.6v-4.82c-4.59,1.2-4.99,5.34-6.43,8.54-1.02,2.28-1.4,4.86-2.07,7.3"/>
  <path class="cls-1" d="M106.64,28.55c1.05,4.36.27,7.48-4.67,8.29-.4.07-.88-.41-1.33-.63"/>
  <path class="cls-1" d="M61.68,75.19c-1.04-.65-2.09-1.31-3.28-2.05-.5,4.02-.27,4.34,2.95,5.07,1.02.23,2,.65,3,.98"/>
  <path class="cls-1" d="M108.64,140.82c.4-.69.8-1.39,1.2-2.08.27.01.53.03.8.04v9.37"/>
  <path class="cls-1" d="M61.01,128.83c3.35-.05,1.68,2.54,1.21,3.25-1.05,1.59-2.69,2.84-4.22,4.06-4.2,3.36-8.07,6.94-9.65,12.34"/>
  <path class="cls-1" d="M4.72,72.19c-.22,3.55-.44,7.11-.67,10.66"/>
  <path class="cls-1" d="M41.69,132.16c-2.35-.09-1.18,1.62-.93,2.31.68,1.85,1.4,3.84,2.65,5.31,3.97,4.64,3.99,10.13,3.94,15.71"/>
  <path class="cls-1" d="M89.32,61.87c-.48-2.42-1.42-4.49-4.88-5.33-.4,1.02-1.24,2.31-1.37,3.67-.2,2.05-.83,4.56,2.88,5.48.97-1,2.17-2.24,3.37-3.48"/>
  <path class="cls-1" d="M88.32,111.51c.36.6.72,1.21,1.43,2.39.75-1.7,1.25-2.84,1.78-4.04-.72-1.12-1.36-2.13-1.88-2.93-2.06-.49-2.89,1.28-4.22,1.84-1.83.77-.94,2.79.89,3.75"/>
  <path class="cls-1" d="M42.36,77.52c.84.93,1.68,1.86,2.93,3.24.17-1.77.29-3,.42-4.25,1.09-.66,2.2-1.32,3.67-2.2,2.53,4.35.77,8.84.85,13.62,1.5.56,3.31,1.24,5.13,1.92"/>
  <path class="cls-1" d="M79.66,98.85c-3.15,1.55-6.23,3.4-9.99,2.33"/>
  <path class="cls-1" d="M58.01,128.5c-.36-.64-.72-1.28-1.11-1.98-1.52,1.77-2.49,2.9-3.58,4.16.6,3.69,3.53,3.5,6.36,3.48"/>
  <path class="cls-1" d="M35.7,87.52c.54.24,1.08.47,1.81.79-3.48,3.7-6.14,1.66-8.84.32q-.66-4.51,1.7-4.78"/>
  <path class="cls-1" d="M76.66,93.52c-.65-.07-1.29-.14-2.19-.23,1.94,5.72,4.53,6.6,9.18,3.55,1.93-1.26,3.78-2.65,5.67-3.99"/>
  <path class="cls-1" d="M43.36,138.16c3.6-1.54,1.63-4.86,3.08-7.23q-4.32-.56-3.75,2.57"/>
  <path class="cls-1" d="M65.34,106.18c-1.44,2.89-2.89,5.77-4.33,8.66"/>
  <path class="cls-1" d="M49.68,119.83h2.88c.23,2.64-.86,4.3-2.57,5.62-.23.17-.86-.18-1.3-.29"/>
  <path class="cls-1" d="M106.31,27.89c-.17-.73-.33-1.46-.5-2.19-.32,0-.64.01-.97.02-.47,1.21-.95,2.42-1.42,3.62l.66.37c.74-.5,1.49-.99,2.23-1.49"/>
  <path class="cls-1" d="M30.7,51.54c1.19,5.66,3.82,10.72,6.69,15.64,2.39,4.08,4.17,8.34,4.96,13.01"/>
  <path class="cls-1" d="M48.69,96.85c.5-.74,1-1.49,1.54-2.3-.63-1.11-1.2-2.1-1.93-3.38-1.12.24-2.23.48-3.48.74.36,1.07.38,2.12.91,2.56,3.89,3.21,3.73,7.35,2.99,11.71-.11.63.19,1.33.3,1.99"/>
  <path class="cls-1" d="M49.35,111.17c.55-.82,1.09-1.64,1.89-2.83h-2.34c-.3,5.06-.59,9.94-.88,14.82"/>
  <path class="cls-1" d="M89.65,109.17c-2,2.11-3.93,4.29-6.01,6.31-2.25,2.19-4.71,4.17-6.96,6.37-1.89,1.84-2.29,4.01-.63,6.64.73-.45,1.36-.84,1.96-1.21.47.31,1.01.67,2.22,1.48-.3-2.22-.51-3.76-.75-5.53,1.99-.43,2.81.98,3.64,2.88-.89.14-1.68.26-2.47.38"/>
  <path class="cls-1" d="M109.97,56.87c.22,2.44.44,4.89.67,7.33"/>
  <path class="cls-1" d="M35.36,117.17c.22.67.44,1.33.67,2-1.33.44-2.64,1.1-4.01,1.25-.84.09-1.77-.59-2.66-.92"/>
  <path class="cls-1" d="M91.32,152.15h-4.02c-.98.99-2.15,2.16-3.31,3.33"/>
  <path class="cls-1" d="M60.01,104.51v2.63c2.42-.54,4.4-.98,6.61-1.47-.08-2.78,1.04-5.6-2.64-8.12-.31.63-.64,1.3-.97,1.96"/>
  <path class="cls-1" d="M71,68.86c-2.85,5.79-6.41,11.08-10.99,15.66"/>
  <path class="cls-1" d="M38.69,100.51c2.4-2.97,2.32-3.47-1.25-6.54-.49.88-.99,1.7-1.41,2.55-.37.76-.65,1.56-1.2,2.91.77.33,1.65.71,2.52,1.08"/>
  <path class="cls-1" d="M73.67,65.53c.96,2.08-.28,2.7-2.36,3.15.11-1.46-.63-2.99,1.7-3.15"/>
  <path class="cls-1" d="M41.02,66.53c.53-.68,1.06-1.37,1.96-2.53.62,1.73,1.11,3.09,1.85,5.16-1.59.72-3.04,1.37-4.48,2.03"/>
  <path class="cls-1" d="M99.98,38.88c-2.05,2.63-.94,5.53-.6,8.32.09.75,1.11.79,2.6.34"/>
  <path class="cls-1" d="M16.38,81.86c.14.81.27,1.62.5,2.98,1.82-1.01,3-1.67,4.17-2.32"/>
  <path class="cls-1" d="M112.63,42.88c-1.33,1.33-2.66,2.67-4.61,4.61-.68-.98-1.37-1.97-2.13-3.07-.52.26-1.05.52-1.58.79"/>
  <path class="cls-1" d="M36.36,98.18c1.78,3,3.6,5.97,5.31,9.01.88,1.56,1.54,3.23,2.37,4.99h3.98"/>
  <path class="cls-1" d="M109.97,130.83c-1.78,1.78-3.55,3.55-5.33,5.33"/>
  <path class="cls-1" d="M109.97,153.48c.42,1.78-1.04,4.04,1.33,5.33"/>
  <path class="cls-1" d="M60.68,49.21c1.93,1.77.78,2.96-.63,4.36-2.1,2.09-4.11,4.34-4.03,7.63"/>
  <path class="cls-1" d="M24.04,110.84c1,1.89,2,3.78,3,5.66"/>
  <path class="cls-1" d="M57.68,83.52c2.16-.51,2.58,1.48,1.9,2.24-2.87,3.21-6.12,6.09-9.23,9.08"/>
  <path class="cls-1" d="M117.63,61.2c-1.92.04-4.23-.7-4.66,2.33"/>
  <path class="cls-1" d="M58.34,116.17c.78-.22,2.19-.73,2.24-.62.59,1.33.99,2.74,1.44,4.14-.27.27-.53.53-.8.8-1.29-.33-2.58-.66-3.88-.98"/>
  <path class="cls-1" d="M54.35,83.52c-.65-.27-1.3-.53-1.94-.8-.23.14-.45.27-.68.41.54,1.13,1.08,2.26,1.62,3.39"/>
  <path class="cls-1" d="M79.33,120.17c1.4.63,2.8,1.26,4.48,2.01-.81.54-1.15.76-1.48.99"/>
  <path class="cls-1" d="M80.33,92.85c-.55-.67-1.11-1.33-1.87-2.25-.54,1.06-1.02,2-1.3,2.57.57,1.14,1.04,2.08,1.51,3.01"/>
  <path class="cls-1" d="M99.31,25.55c.2,1.8.39,3.6.62,5.68.98-.49,1.51-.75,2.05-1.02"/>
  <path class="cls-1" d="M85.32,28.22c.6-.84,1.2-1.69,1.81-2.53.3.13.6.26.89.38.65,1.6,1.31,3.21,1.96,4.81"/>
  <path class="cls-1" d="M103.97,40.21c-.11,2.44-.22,4.89-.33,7.33"/>
  <path class="cls-1" d="M115.3,132.83v4.66"/>
  <path class="cls-1" d="M45.35,80.52c1.44,2.22,2.89,4.44,4.33,6.66"/>
  <path class="cls-1" d="M88.65,159.48h-4.66"/>
  <path class="cls-1" d="M61.01,101.51h-2.34c-.11.35-.21.69-.32,1.04,1.45.65,2.9,1.3,4.35,1.96.15-.25.3-.51.44-.76-.49-.75-.99-1.49-1.48-2.24"/>
  <path class="cls-1" d="M78.99,25.22c-1.55.11-3.11.22-4.66.33"/>
  <path class="cls-1" d="M93.98,42.88h7.99"/>
  <path class="cls-1" d="M94.98,59.53c.11,1.55.22,3.11.33,4.66"/>
  <path class="cls-1" d="M92.32,62.2c-.59,1.31-1.17,2.63-2.08,4.66-.87-1.45-1.23-2.05-1.59-2.66"/>
  <path class="cls-1" d="M127.95,61.53c1.38.39,2.76.78,4.14,1.17.01.31.02.61.03.92-1.17.41-2.33.82-3.5,1.24"/>
  <path class="cls-1" d="M119.3,60.2c-.91.76-1.82,1.52-2.67,2.23,1.56,1.98,2.78,1.66,4,.43"/>
  <path class="cls-1" d="M57.01,55.2c-1.36-.42-2.44-1.54-1.94-2.3,1.17-1.77,2.49-3.56,5.11-4.17-.47,1.92-.82,3.36-1.17,4.8"/>
  <path class="cls-1" d="M78.99,123.83c-1.96.51-1.17,2.11-1.33,3.33"/>
  <path class="cls-1" d="M113.3,56.2h-7.33"/>
  <path class="cls-1" d="M57.01,87.19c-.12-1.68-.24-3.36-.36-5.04-.37-.02-.73-.05-1.1-.07-.4,1.59-.8,3.19-1.2,4.78"/>
  <path class="cls-1" d="M98.98,27.55c-.56,1.11-1.11,2.22-1.67,3.33"/>
  <path class="cls-1" d="M111.3,149.48v4"/>
  <path class="cls-1" d="M130.62,58.2c-1.55,1.33-3,2.83-4.7,3.93-.96.62-2.33.6-3.52.87l-.44-.75c.67-.8,1.33-1.59,2-2.39"/>
  <path class="cls-1" d="M83.32,25.55c-.11,2-.22,4-.33,6"/>
  <path class="cls-1" d="M56.35,51.54c.67,1.11,1.33,2.22,2,3.33"/>
  <path class="cls-1" d="M58.01,119.17c.38-.75.77-1.51,1.26-2.48-.88-.24-1.56-.43-2.67-.74.16,1.14.29,2.01.41,2.88"/>
  <path class="cls-1" d="M31.03,84.19c.36,1.36.72,2.72,1.2,4.54,1.58-.95,2.82-1.69,4.61-2.76-1.46-.4-2.13-.59-2.81-.78"/>
  <path class="cls-1" d="M50.02,88.19c-.33,1.22-.67,2.44-1,3.66"/>
  <path class="cls-1" d="M43.69,110.17l1.66-1.33.03.5c.99-.06,1.98-.11,2.97-.17"/>
  <path class="cls-1" d="M38.36,68.53c.44-.84.88-1.68,1.76-3.36.97,2.33,1.6,3.84,2.23,5.35"/>
  <path class="cls-1" d="M60.68,76.53c1.15-1.39,2.31-2.78,3.52-4.24,1.46,2.43.98,3.27-2.19,4.24"/>
  <path class="cls-1" d="M40.69,75.53c-2.93,1.39-3.8,3.44-2.56,6.6,1.85-.76,3.7-1.51,5.56-2.27"/>
  <path class="cls-1" d="M94.65,158.81h-3.33"/>
  <path class="cls-1" d="M30.37,114.17c.1.89.2,1.78.32,2.76,1.42-.81,2.79-1.6,4.82-2.77-.18,1.48-.27,2.25-.39,3.18-1.18.17-2.3.33-3.42.49"/>
  <path class="cls-1" d="M19.71,80.86c-1.1,1.45-2.35,1.27-4.08.04.66-.52,1.21-.94,1.75-1.37"/>
  <path class="cls-1" d="M57.68,131.16c-.41.38-.83.76-1.24,1.13-.11-.13-.22-.27-.33-.4,1-1.44,2.01-2.88,3.1-4.46,3.17,1.38-.18,3.18.13,4.72"/>
  <path class="cls-1" d="M92.65,63.53c.43.57.85,1.14,1.33,1.77,1.81-1.05,3.57-2.08,5.34-3.1"/>
  <path class="cls-1" d="M84.32,95.85c-.56-.67-1.11-1.33-1.67-2"/>
  <path class="cls-1" d="M61.34,101.18v-2.17c2.47.76,3.21,2.06,2.33,4.17"/>
  <path class="cls-1" d="M45.69,108.17c1.76-1.79-.49-2.49-.76-3.73-.34.03-.67.06-1.01.1.14,1.21.29,2.42.43,3.63"/>
  <path class="cls-1" d="M79.33,95.85c2.95-.8,3.08-1,2.19-4.16-.97,1.34-1.75,2.42-2.53,3.5"/>
  <path class="cls-1" d="M101.98,156.15c-.89.44-1.78.89-2.66,1.33"/>
  <path class="cls-1" d="M91.98,60.87c-.78.33-1.55.67-2.33,1"/>
  <path class="cls-1" d="M32.03,54.54h3.41c.16.26.31.53.47.79-1.76,1.11,1.52,3.39-1.54,4.21"/>
  <path class="cls-1" d="M38.69,77.86c.44,1.11.89,2.22,1.33,3.33"/>
  <path class="cls-1" d="M77.66,94.85c0,.44-.04.9.04,1.32.01.06.62,0,.95,0"/>
  <path class="cls-1" d="M83.32,156.81c-.22.67-.44,1.33-.67,2"/>
  <path class="cls-1" d="M55.68,63.2c.44,1,.89,2,1.33,3"/>
  <path class="cls-1" d="M63.01,73.19c-.53-.68-1.06-1.37-1.75-2.25-.36.87-.64,1.56-.92,2.25"/>
  <path class="cls-1" d="M31.7,83.85c.2-.58.4-1.15.65-1.89,2.34,2.72.78,3.74-.32,4.88"/>
  <path class="cls-1" d="M121.96,61.53c-.56-.11-1.11-.22-1.67-.33"/>
  <path class="cls-1" d="M113.3,46.21c-1,.86-2,1.3-3,0"/>
  <path class="cls-1" d="M48.35,105.84c-.44.22-.89.44-1.33.67"/>
  <path class="cls-1" d="M113.97,130.16c.22.44.44.89.67,1.33"/>
  <path class="cls-1" d="M60.34,74.86c-.11.22-.26.44-.31.67-.02.08.2.22.31.33"/>
  <path class="cls-1" d="M93.32,27.22q-1.05,1.67.6,3.65c.69-.86,1.33-1.66,2.33-2.91-1.18-.34-1.89-.54-2.59-.74"/>
</svg>