<?xml version="1.0" encoding="UTF-8"?>
<svg id="Layer_1" data-name="Layer 1" xmlns="http://www.w3.org/2000/svg" viewBox="0 0 144 198">
  <defs>
    <style>
      .cls-1 {
        fill: none;
        stroke: #000;
        stroke-linecap: round;
        stroke-linejoin: round;
        stroke-width: 2px;
      }
    </style>
  </defs>
  <path class="cls-1" d="M54.28,40.02c.33,2.89,1.3,5.88.85,8.64-.65,3.98.12,7.8.15,11.63.55.14,1.1.29,1.88.49.16-.63.37-1.19.43-1.78.57-5.55.95-11.13,1.77-16.64.28-1.87,2.25-3.52,2.42-5.36.19-2.16-.3-4.67-1.36-6.55-.56-1-2.97-1.44-4.48-1.33-2.43.18-4.7,1.18-6.01,3.56-2.32,4.23-4.97,8.3-6.91,12.7-2.59,5.86-6.19,8.13-12.94,6.86-1.65,2.11-3.47,4.41-5.28,6.72.16.35.32.7.48,1.05,2,0,4,.04,6-.01,2.22-.06,4.44-.32,6.66-.3,4.2.04,7.36-1.76,9.28-5.38,1.77-3.33,3.12-6.88,4.72-10.3.8-1.71,1.76-3.34,2.65-5"/>
  <path class="cls-1" d="M30.97,105.99c-3.32.62-3.92,3.64-4.94,6.02-3.2,7.55-3.75,15.32-.34,22.94,2.16,4.81,5.75,6.28,10.93,3.68,7.51-3.76,12.9-9.12,14.06-17.97.45-3.39-.36-6.32-2.11-8.98-2.89-4.37-7.41-6.52-12.31-7.54-1.46-.3-3.3,1.18-4.96,1.85"/>
  <path class="cls-1" d="M4.66,56.35v69.29"/>
  <path class="cls-1" d="M137.88,60.34v67.3"/>
  <path class="cls-1" d="M137.22,191.6c-7.55,0-15.1.11-22.65-.02-13.55-.25-27.09-.76-40.63-.95-16.65-.23-33.31-.26-49.96-.36-4.88-.03-9.77,0-14.65,0"/>
  <path class="cls-1" d="M137.22,132.97v57.3"/>
  <path class="cls-1" d="M63.28,6.38H7.99"/>
  <path class="cls-1" d="M130.22,18.04c2.78-3.44,5.56-6.87,8.75-10.82-18.18-.17-35.95-.34-53.72-.51"/>
  <path class="cls-1" d="M5.32,140.97v48.64h2.66"/>
  <path class="cls-1" d="M138.22,9.04c.11,1.11.32,2.22.32,3.33.02,14.44.01,28.87.01,43.31"/>
  <path class="cls-1" d="M5.99,6.38h-2v34.65"/>
  <path class="cls-1" d="M127.89,161.62c-3.52-1.99-5.58-1.06-6.76,3.36,1.55,1.32,3.22,2.74,4.87,4.15-2.76,3.64-6.1,4.51-10.44,2.82"/>
  <path class="cls-1" d="M126.89,18.7c-2.18-1.19-4.36-2.38-7.05-3.85-2.19,2.94-4.27,5.74-6.5,8.73,4.95,3.18,9.46,6.08,14.34,9.22,2.31-2.92,4.76-6,7.39-9.32-1.9-1.75-3.8-3.5-5.56-5.12-4.75,1.27-10.75.6-10.28,8.01"/>
  <path class="cls-1" d="M105.24,50.02c-1.35,1.62-2.7,3.23-4.14,4.96-2.63-3.16-1.27-7.82,1.82-8.21.82-.1,2.36.62,2.56,1.28,1.55,4.98,1.72,10.12-.32,14.93-1.83,4.32-6.73,5.41-9.91,2.7"/>
  <path class="cls-1" d="M71.94,151.63c-.33,1.11-.97,2.23-.95,3.33.11,5.33.42,10.66.59,15.99.04,1.11-.2,2.22-.31,3.33"/>
  <path class="cls-1" d="M92.25,165.62c2.22-.11,4.45-.11,6.66-.37,2-.24,2.35-1.57,1.68-3.54-.53-.13-1.12-.24-1.67-.43-.46-.16-.89-.44-1.33-.66-4.64,1.94-7.4,6.08-6.01,9,1.26,2.65,3.87,3.4,6.99,2"/>
  <path class="cls-1" d="M107.24,165.62c1.67,0,3.45.37,4.95-.12,1.1-.36,2.27-1.77,2.55-2.91.19-.78-1.12-1.92-2.18-3.54-2.08,2.05-3.94,3.47-5.25,5.3-.97,1.35-1.73,3.1-.44,4.96,1.42,2.05,3.58,2.36,5.7,2.57,1.07.1,2.21-.59,3.32-.92"/>
  <path class="cls-1" d="M81.93,149.29c-6.44.78-12.88,1.55-19.32,2.33"/>
  <path class="cls-1" d="M79.93,55.68c4.23-2.72,4.77-4.79,1.86-7.81-.92.3-1.92.63-3.22,1.06.29,2.34-2.59,4.87,1.03,6.75"/>
  <path class="cls-1" d="M83.93,7.04c-6.22-.22-12.43-.44-18.65-.67"/>
  <path class="cls-1" d="M69.27,114.31c.44,6.44.89,12.88,1.33,19.32"/>
  <path class="cls-1" d="M93.92,55.01c-.11-1.11-.13-2.24-.36-3.33-.26-1.19-.71-2.35-1.07-3.51-2.9.68-3.81,2.36-4.26,4.5-.15.71-.64,1.34-.97,2"/>
  <path class="cls-1" d="M58.95,72.34c-.22,5.66-.49,11.33-.63,16.99-.03,1.33.25,2.71.66,3.99,1.15,3.62,2.17,4,5.63,2.34"/>
  <path class="cls-1" d="M65.94,76.34c.56,3.33,1.1,6.66,1.67,9.99.19,1.12.44,2.22.66,3.33"/>
  <path class="cls-1" d="M126.89,19.37c3.54,3.61,3.62,7.03-.04,8.58-1.45.62-3.3.3-4.96.42"/>
  <path class="cls-1" d="M62.94,132.3c.33.67.67,1.33,1,2,.16-.17.31-.35.47-.52,1.62,1.28,3.53,2.34,4.77,3.92,1.24,1.57,2.39,1.91,4.08,1.27"/>
  <path class="cls-1" d="M91.25,160.95c-4.9-1.36-8.26.92-10.99,4.66"/>
  <path class="cls-1" d="M127.23,38.36c-.67,3.78-1.33,7.55-2,11.33"/>
  <path class="cls-1" d="M5.32,127.64c-.22,3.78-.44,7.55-.67,11.33"/>
  <path class="cls-1" d="M73.93,54.35c-.42-2.05-.84-4.1-1.27-6.15l-.98.04c-1.5,1.99-3.17,3.92-2.75,6.77"/>
  <path class="cls-1" d="M111.24,25.03c-3.55,1.33-7.11,2.67-10.66,4"/>
  <path class="cls-1" d="M4.66,43.69c-.22,3.55-.44,7.11-.67,10.66"/>
  <path class="cls-1" d="M74.6,95.32c-.78-.89-1.81-1.66-2.27-2.69-.61-1.35-.76-2.91-1.14-4.5-4.6,1.27-2.9,4.82-3.25,7.53"/>
  <path class="cls-1" d="M60.28,128.31c-.48-1.5-.95-3.01-1.49-4.68-3.6,2.48-4.96,4.83-3.82,6.33,1.21,1.59,2.64,1.52,3.97.02"/>
  <path class="cls-1" d="M58.28,85c-2.78.22-5.55.44-8.33.67"/>
  <path class="cls-1" d="M79.26,88.99c-.08-2.67,1.61-4.13,4.25-5.82.29,1.36.86,2.49.68,3.48-.42,2.32-2.53,2.1-4.26,2.35-.34.05-.67.21-1,.32"/>
  <path class="cls-1" d="M60.61,128.31c.89.76,1.78,1.52,3.3,2.81-1.56.45-2.82.94-2.88.81-.53-1.02-2.21-1.74-1.09-3.29"/>
  <path class="cls-1" d="M75.27,127.31c1.78,2.11,3.55,4.22,5.33,6.33"/>
  <path class="cls-1" d="M68.61,53.02c-1.09-1.57-2.17-3.14-3.33-4.81-3.49,1.51-2.81,4.76-3.33,7.48"/>
  <path class="cls-1" d="M64.61,84.33c-1.89.22-3.77.44-5.66.67"/>
  <path class="cls-1" d="M79.93,160.29c-.11,3.33-.22,6.66-.33,9.99"/>
  <path class="cls-1" d="M79.93,125.31c-4.09-.3-6.22,2.92-8.99,5"/>
  <path class="cls-1" d="M49.62,50.35c1.44.22,2.89.44,4.33.67"/>
  <path class="cls-1" d="M89.26,45.69c-.11,1.11-.22,2.22-.33,3.33"/>
</svg>