<?xml version="1.0" encoding="UTF-8"?>
<svg id="Layer_1" data-name="Layer 1" xmlns="http://www.w3.org/2000/svg" viewBox="0 0 144 198">
  <defs>
    <style>
      .cls-1 {
        fill: none;
        stroke: #000;
        stroke-linecap: round;
        stroke-linejoin: round;
        stroke-width: 2px;
      }
    </style>
  </defs>
  <path class="cls-1" d="M80.83,116.6c4.66.89,9.34,2.56,13.99,2.47,6.17-.11,12.19-1.99,17.64-5.17.79-.46,1.7-1.19,1.96-1.99,2.69-8.31,5.81-16.51,6.73-25.3.57-5.45,1.56-10.87,1.93-16.33.6-8.8-2.36-16.49-8.29-22.96-3.76-4.11-7.62-8.15-11.7-11.95-1.62-1.51-3.85-2.5-5.95-3.35-3.93-1.6-7.97-2.94-11.97-4.37-4.01-1.44-7.95-2.13-12.35-1.14-3.96.89-8.2.94-12.29.74-12.62-.63-20.99,8.64-25.24,17.1-1.19,2.38-1.01,5.18-.85,7.96.37,6.3.66,12.7-3.2,18.33-.83,1.22-1.36,2.65-2.02,3.98"/>
  <path class="cls-1" d="M135.12,160.58c-4.28-.39-8.2.87-11.99,2.68-4.44,2.12-5.04,4.2-2.71,8.34.52.93.59,2.11.82,3.01-5.67,4.71-12.59.96-18.14,3.65-.04,2.85,1.83,3.46,3.7,3.6,4.65.36,9.32.67,13.99.66,4.77,0,9.55-.4,14.32-.62"/>
  <path class="cls-1" d="M43.19,138.59c-3.83-.19-6.47,1.81-9.05,5.17,1.97.43,3.68.81,5.98,1.32-.46,2.05-.92,4.13-1.4,6.3,4.69,3.41,21.79,2.58,27.67-1.89-1.69-.83-3.05-1.82-4.56-2.19-4.16-1.02-7.43-3.58-11.01-5.66-1.91-1.11-4.18-1.61-6.29-2.39"/>
  <path class="cls-1" d="M5.89,127.93v63.3c4.99,0,9.66-.03,14.32.02,2.22.02,4.44.28,6.66.31,10.99.14,21.98.25,32.97.34,4.88.04,9.77,0,14.65,0"/>
  <path class="cls-1" d="M138.45,27.99v65.3"/>
  <path class="cls-1" d="M5.22,43.98v68.63"/>
  <path class="cls-1" d="M139.11,23.32v-14.66c-4.55,0-9.1.08-13.66-.02-7.22-.15-14.43-.43-21.65-.65"/>
  <path class="cls-1" d="M137.78,98.61v67.3"/>
  <path class="cls-1" d="M29.2,89.95c1.67,2.78,3.14,5.69,5.04,8.3,3.06,4.22,6.55,8.14,9.57,12.39,2.52,3.56,6.31,4.3,10.05,5.28,2.97.77,5.98,1.8,8.99,1.88,2.31.06,4.66-1.19,6.99-1.85"/>
  <path class="cls-1" d="M47.85,9.33c-2.89,1.55-6.06,2.74-8.61,4.73-7.59,5.92-14.96,12.11-22.35,18.27-3.74,3.12-7.34,6.42-11.01,9.64"/>
  <path class="cls-1" d="M25.2,8c-6.77-.29-13.53-.59-20.65-.9v21.55"/>
  <path class="cls-1" d="M27.87,7.33c3.22.22,6.44.62,9.66.64,17.32.06,34.64,0,51.96.06,3.89.02,7.77.41,11.66.64"/>
  <path class="cls-1" d="M137.11,171.91v21.54c-4.23-.31-8.11-.69-11.99-.84-1.54-.06-3.11.4-4.66.62"/>
  <path class="cls-1" d="M40.53,113.94c-3.11,0-6.22.08-9.33-.02-4.44-.15-8.88-.63-13.32-.59-3.89.04-7.77.6-11.66.94"/>
  <path class="cls-1" d="M63.17,8.67c-12,6.79-23.03,14.99-33.97,23.32"/>
  <path class="cls-1" d="M75.83,192.56c12.88.11,25.76.23,38.64.32,1.55,0,3.11-.21,4.66-.32"/>
  <path class="cls-1" d="M34.86,8.33c-4.44,3.22-9.05,6.23-13.28,9.71-5.76,4.74-11.24,9.84-16.58,14.56-.16,3.39-.3,6.38-.45,9.38"/>
  <path class="cls-1" d="M71.17,109.27c-.44,8.66-.89,17.32-1.33,25.99"/>
  <path class="cls-1" d="M28.54,33.32c-7.66,6.77-15.32,13.55-22.98,20.32"/>
  <path class="cls-1" d="M139.78,116.6c-5.11-.89-10.21-1.8-15.32-2.66-2.88-.49-5.77-.9-8.66-1.34"/>
  <path class="cls-1" d="M76.5,55.31c-.27.53-.55,1.06-.95,1.83h3.18c2.46-2.77,2.22-5.58.81-8.64-1.27.95-3.2,1.46-1.17,3.71.41-.68.77-1.29,1.13-1.89"/>
  <path class="cls-1" d="M54.51,53.31c-.96-3.38-1.93-6.75-2.89-10.13-.32-.02-.64-.05-.97-.07-2.58,3.6-3.74,7.75-4.14,12.2"/>
  <path class="cls-1" d="M80.49,109.27c-.05,7.88.32,15.71,2.66,23.32"/>
  <path class="cls-1" d="M5.22,125.93c.22-3.66.43-7.33.68-11.39-1.39.25-2.7.49-4.01.73"/>
  <path class="cls-1" d="M103.47,82.29c-2.06,1.09-4.12,2.18-6.59,3.49-.83-1.15-1.53-2.1-2.23-3.07,1.19-.71,2.22-1.32,3.39-2-1.66-1.27-2.27-.84-2.23.91"/>
  <path class="cls-1" d="M89.15,58.64c-1.94,3.27-1.6,6.62-.77,9.98.33.17.67.35,1,.52,1.52-1.69,3.04-3.38,4.66-5.18.55.82,1.16,1.75,1.78,2.67"/>
  <path class="cls-1" d="M103.47,80.96c1.11,1.11,2.22,2.22,3.67,3.67-1.01.73-2.34,1.69-3.68,2.64-.02.02-.24-.19-.31-.32-.05-.08,0-.22,0-.33"/>
  <path class="cls-1" d="M59.84,81.29c-2.89.1-2.64,2.03-2.67,3.8.34.29.68.58,1.01.87.44-.78.88-1.56,1.32-2.34"/>
  <path class="cls-1" d="M98.48,64.3c.71-.39,1.41-.77,2.12-1.16l.92,1.19c-.79.66-1.59,1.31-2.63,2.17-.4-1.21-.64-1.92-.87-2.62-.19.04-.38.07-.56.11.12,1.22-.03,2.54.41,3.62.81,1.94,2.43,2.82,4.6,2.36"/>
  <path class="cls-1" d="M92.48,59.3c-.11,2.11-.22,4.22-.33,6.33"/>
  <path class="cls-1" d="M92.48,83.96c-.77.47-1.53.94-2.54,1.55-.53-.87-1.03-1.69-1.54-2.51,1.22-.54,2.41-1.07,3.6-1.6-.15-.37-.29-.73-.44-1.1-2.03.89-4.06,1.78-6.08,2.66"/>
  <path class="cls-1" d="M63.17,78.63c.22,2,.44,4,.67,6"/>
  <path class="cls-1" d="M55.85,53.97c.78-1.45,1.57-2.91,2.64-4.9.97,1.34,1.39,1.91,1.81,2.5.89-.47,1.9-1,2.93-1.55.4.83.84,1.72,1.28,2.61"/>
  <path class="cls-1" d="M27.87,79.29v5.33"/>
  <path class="cls-1" d="M53.18,50.64c-1.78.22-3.55.44-5.33.67"/>
  <path class="cls-1" d="M82.49,77.96c-.11,1.67-.22,3.33-.33,5"/>
  <path class="cls-1" d="M80.16,116.6c-1.44-.22-2.89-.44-4.33-.67"/>
  <path class="cls-1" d="M85.82,76.63c-2.66.44-5.33.89-7.99,1.33"/>
  <path class="cls-1" d="M84.49,80.62c.11,1.33.22,2.67.33,4"/>
  <path class="cls-1" d="M59.84,82.62c1,.56,2,1.11,3,1.67"/>
  <path class="cls-1" d="M68.5,81.29c-1.44.78-2.89,1.55-4.33,2.33"/>
  <path class="cls-1" d="M73.83,52.64c-.1-.9-.2-1.8-.29-2.7-.3-.04-.6-.07-.9-.11l-.8,2.82"/>
  <path class="cls-1" d="M90.49,63.97h-6"/>
  <path class="cls-1" d="M65.51,82.96c.78.56,1.55,1.11,2.33,1.67"/>
  <path class="cls-1" d="M55.85,49.31c.11.78.22,1.55.33,2.33"/>
  <path class="cls-1" d="M50.85,75.96c-3.24.7-3.57,3.67-4.24,6.02-.93,3.26,1.07,4.82,4.9,4.3,2.5-3.68,2.38-7.38-.33-10.33"/>
  <path class="cls-1" d="M68.5,49.98c-.77.79-1.54,1.58-2.32,2.37l.53,1.05c.82-.25,1.81-.3,2.41-.81.99-.84,1.38-1.93-.29-2.62"/>
</svg>