<?xml version="1.0" encoding="UTF-8"?>
<svg id="Layer_1" data-name="Layer 1" xmlns="http://www.w3.org/2000/svg" viewBox="0 0 144 198">
  <defs>
    <style>
      .cls-1 {
        fill: none;
        stroke: #000;
        stroke-linecap: round;
        stroke-linejoin: round;
        stroke-width: 2px;
      }
    </style>
  </defs>
  <path class="cls-1" d="M5.88,55.2v69.34c1.93-.27,3.63-.13,4.97-.77,10.36-4.9,21.36-7.02,32.66-8.33,15.08-1.75,30.21-1.55,45.3-1.13,12.67.35,25.25,2.11,37.32,6.49,3.69,1.34,7.54,2.26,11.31,3.37"/>
  <path class="cls-1" d="M139.77,54.53V5.89h-3.66c-11.66,0-23.32.09-34.97-.02-11.55-.11-23.09-.42-34.64-.64"/>
  <path class="cls-1" d="M64.5,5.23H5.22v34.65"/>
  <path class="cls-1" d="M139.11,59.86v67.3"/>
  <path class="cls-1" d="M138.44,190.45c-7.44,0-14.88.07-22.32-.01-15.21-.17-30.42-.43-45.63-.65-15.32-.22-30.64-.46-45.96-.66-4.66-.06-9.33,0-13.99,0"/>
  <path class="cls-1" d="M138.44,132.49v56.63"/>
  <path class="cls-1" d="M6.55,139.82v48.64h2.66"/>
  <path class="cls-1" d="M66.5,67.19c-.68-.55-1.37-1.1-2.34-1.88-.45,1.98-.77,3.45-1.04,4.62,1.7,3.77,3.34,7.42,4.73,10.51-.34,15.61-.68,30.83-1.01,46.05"/>
  <path class="cls-1" d="M80.82,88.85c-5.45,2.59-9.91,6.34-13.32,11.33"/>
  <path class="cls-1" d="M32.86,147.81c-.61-3.81-.52-7.84-3.25-11.46-3.45,4.01-4.45,8.49-5.15,13.34.51.04.96.08,1.41.11"/>
  <path class="cls-1" d="M99.14,79.52c-5.85,2.73-11.69,5.46-17.54,8.19l.22.4c-1-.09-2-.18-3-.26"/>
  <path class="cls-1" d="M60.17,147.15c1.28,2.66,1.08,5.15-1.01,7.32-1.85,1.92-3.92,1.37-5.32-1.32"/>
  <path class="cls-1" d="M78.16,78.19c-3.93,3.61-7.11,7.78-9.33,12.66"/>
  <path class="cls-1" d="M46.85,77.52c3.89,3.33,7.77,6.66,11.66,9.99"/>
  <path class="cls-1" d="M87.15,166.14c-.11,3-.25,6-.31,9-.02.66.2,1.33.31,2"/>
  <path class="cls-1" d="M5.88,42.54c-.22,3.55-.44,7.11-.67,10.66"/>
  <path class="cls-1" d="M109.13,173.13l-3.57,1.42c-.14.42-.28.83-.42,1.25,1.14.65,2.27,1.3,3.41,1.95l-.2.86c-1.07.4-2.14.79-3.21,1.19"/>
  <path class="cls-1" d="M6.55,126.49c-.11,3.55-.22,7.11-.33,10.66"/>
  <path class="cls-1" d="M68.83,81.52c2.65.71,3.63-1.19,4.8-3.1-.72-.64-1.42-1.27-2.12-1.89-.22-.23-.45-.45-.67-.68-.89,1.22-1.78,2.44-2.66,3.67"/>
  <path class="cls-1" d="M111.46,70.86c-.4-.8-.81-1.61-1.2-2.38,2.01-.67,3.48-1.16,5.33-1.77.56.43,1.48,1.16,2.63,2.05-.78,1.21-1.4,2.18-2.6,4.06-.61-1.08-1.06-1.85-1.56-2.74-4.77,3.02-9.53,6.03-14.46,9.15-.06,1.62-1.85,3.93,2.23,3.99.1-.9.2-1.8.29-2.7"/>
  <path class="cls-1" d="M80.49,41.21c-.44.33-.89.67-1.33,1,.95,2.19,2.5,3.28,5,3.04.86-.08,1.77.4,2.66.62"/>
  <path class="cls-1" d="M99.14,52.2c2.65-1.06,2.93-2.62,1.02-4.68q-3.15,2.24-.54,5.54c-4.11,3.75-5.93,9.65-11.85,12.27.12.68.25,1.44.42,2.46-2.94,3.05-5.99,6.22-9.04,9.39"/>
  <path class="cls-1" d="M48.52,25.22c1.54,4.64,4.65,8.3,7.67,11.99,3.21,3.92,3.84,3.97,8.14.9-.9-1.19-.35-4.34-3.48-2.22"/>
  <path class="cls-1" d="M69.17,59.53c1.93-1.97.8-3.23-1.11-4.4-1.03.3-2.14.63-4.1,1.2,2.01,1.5,3.52,2.63,5.21,3.89,0-.25,0-.14,0-.03h-1.67"/>
  <path class="cls-1" d="M31.86,48.54c.46-.77.92-1.53,1.71-2.86.88.36,2.04.61,2.93,1.23,1.54,1.09,3.11,2.24,4.32,3.66,2.58,3.04,6.4,3.25,9.72,4.58,1.61.64,3.85-.75,4.31-2.28"/>
  <path class="cls-1" d="M80.82,23.22c1.38,2.01-.41,3.78-1.15,4.9-3.18,4.81-6.24,9.63-8.18,15.09"/>
  <path class="cls-1" d="M57.84,148.15c-2.86,1.4-2.97-2.01-5.1-3.04-.45,1.47-.84,2.75-1.23,4.04"/>
  <path class="cls-1" d="M95.48,35.54c-3.13,7.73-10.45,11.52-16.52,17.82-.33-.75-.57-1.29-.8-1.83"/>
  <path class="cls-1" d="M102.14,58.86c-.13-.53-.26-1.05-.51-2.03-.45-.06-1.44-.2-2.44-.34-.14.25-.29.49-.43.74,1.2,1.37,2.41,2.73,4.2,4.77-3.92.21-7.03.37-10.15.54"/>
  <path class="cls-1" d="M59.51,173.46c-3.39-.52-2.45,1.55-2.32,3.14.27.23.53.45.8.68.74-.93,1.47-1.86,2.2-2.79.97.87,1.97,1.76,2.41,2.16,2.46-.82,4.51-1.5,6.57-2.19"/>
  <path class="cls-1" d="M53.84,50.53c.14.44.27.87.48,1.52-1.29.47-2.51.91-3.93,1.43-.66-.98-1.22-1.83-1.89-2.83-.32.61-.56,1.04-1.23,2.3,2.13-.87,3.53-1.44,4.95-2.02-.23-.63-.43-1.19-.74-2.05-1.05.51-1.99.96-2.88,1.39-.54-.38-1-.7-1.45-1.02-2.76,1.28-.85,3.47-.97,5.36,2.54,1.63,5.1,3.28,7.66,4.93"/>
  <path class="cls-1" d="M62.84,91.51c3.24-.7,2.59-3.46,3.74-5.56-1.5-.41-2.28-.62-2.99-.82-1.42.71-2.75,1.38-4.36,2.19,2.56,3.31,5.08,6.58,7.61,9.85"/>
  <path class="cls-1" d="M54.84,76.19c-3.01,2.58-7.62,2.19-10.64-1.02-1.35-1.44-2.46-3.09-3.69-4.64"/>
  <path class="cls-1" d="M43.19,149.14c-.41-1.48-.82-2.96-1.23-4.44-.3-.07-.59-.14-.89-.21-.74,1.11-1.47,2.21-2.21,3.32"/>
  <path class="cls-1" d="M83.15,142.48c1.07,1.62-.89,4.39,2.27,5.42.57-.3,1.32-.7,2.06-1.09"/>
  <path class="cls-1" d="M99.81,175.13q2.31-.54,2.33-2.84c-2.47,1.28-3.43,3.2-3.32,6.47,1.69-.38,3-.67,4.32-.96"/>
  <path class="cls-1" d="M80.49,26.88c1.21-.73,2.43-1.46,3.74-2.24q-2.62-2.68-6.48.21c.83.82,1.62,1.59,2.4,2.36"/>
  <path class="cls-1" d="M71.16,43.87v7.33"/>
  <path class="cls-1" d="M115.79,56.53c-4.44,1.55-8.88,3.11-13.32,4.66"/>
  <path class="cls-1" d="M82.15,65.53c-.11.33-.22.67-.33,1,1.33.22,3.29,1.09,3.87.53,1.25-1.2,4.56,1.01,4.12-2.53"/>
  <path class="cls-1" d="M63.84,168.47c.11,2.22.22,4.44.33,6.66"/>
  <path class="cls-1" d="M49.85,74.85l3.5-1.17c.11.44.22.88.33,1.32-1.27.17-2.55.35-3.82.52"/>
  <path class="cls-1" d="M68.83,71.86v6.33"/>
  <path class="cls-1" d="M89.82,63.86c-1-3.76-1.6-4.08-4.33-2.33"/>
  <path class="cls-1" d="M89.82,177.8c.18-3.67,3.34-2.56,5.33-3.33.96-.37,1.93-.69,2.89-1.04-.19-.39-.39-.77-.58-1.16-.77.62-1.54,1.24-2.31,1.86"/>
  <path class="cls-1" d="M74.49,85.18c.92,1.06,1.85,2.11,3.2,3.65.92-1.98,1.44-3.11,1.97-4.24.17-.25.33-.5.5-.75-.92-.41-1.84-.82-2.8-1.25-1.53,1.74.02,2.77,1.13,3.91"/>
  <path class="cls-1" d="M78.49,52.87c-2.5,1.92-4.25,5.05-7.99,5"/>
  <path class="cls-1" d="M59.84,43.54c-3.32.92-3.99,2.03-2.35,5.3.45-.99.9-1.98,1.35-2.97"/>
  <path class="cls-1" d="M84.15,135.82c-.22,2-.44,4-.67,6"/>
  <path class="cls-1" d="M69.17,60.53v10.62c-1.78.14-3.22.26-4.66.37"/>
  <path class="cls-1" d="M51.18,73.52v-2.1c-1.71,1.14-4.7,1.03-2,3.77"/>
  <path class="cls-1" d="M76.83,54.2c-2.14-.57-4.27-1.13-6.76-1.79,2.63-3.04,7.07,2.12,8.92-2.62-.29-.43-.48-.97-.86-1.21-.32-.2-.86-.04-1.56-.04-.24.96-.49,1.98-.75,3"/>
  <path class="cls-1" d="M61.5,38.87c-.41-.9-.82-1.81-1.3-2.86-1.08.54-2.05,1.04-3.03,1.53"/>
  <path class="cls-1" d="M75.49,35.88c2.31,2.5,3.54-.74,5.4-.86.09-1.25.17-2.35.28-3.81-1.38.28-2.37.47-3.35.67"/>
  <path class="cls-1" d="M47.52,72.85c-.64-.13-1.28-.27-2.03-.42-.27,1.3-.45,2.19-.63,3.09"/>
  <path class="cls-1" d="M97.14,34.88c-.15-1.22-.52-1.93-1.94-.36,1,.54,1.91,1.04,2.82,1.53-.05.39-.11.78-.16,1.16h-3.04"/>
  <path class="cls-1" d="M33.86,143.81h-6.66"/>
  <path class="cls-1" d="M91.81,165.14c-2.89.11-5.77.22-8.66.33"/>
  <path class="cls-1" d="M86.48,141.82c-2.66.22-5.33.44-7.99.67"/>
  <path class="cls-1" d="M96.48,143.15c-.53.79-1.06,1.59-2.04,3.05,1.39.55,2.71,1.09,4.04,1.62"/>
  <path class="cls-1" d="M88.15,139.15v4.66"/>
  <path class="cls-1" d="M104.8,56.2c-.49-.61-.97-1.22-1.58-1.99-.71.94-1.23,1.63-1.75,2.33"/>
  <path class="cls-1" d="M85.49,41.21c-.62-.5-1.24-1.01-2.66-2.16v3.5"/>
  <path class="cls-1" d="M83.49,73.85c.22.89.44,1.78.83,3.33h-4.16"/>
  <path class="cls-1" d="M95.14,34.54c-1.44-.99-2.74-1.18-3.74.82.7.29,1.39.57,2.07.85"/>
  <path class="cls-1" d="M59.17,40.54c.68,1.28,1.35,2.55,2.26,4.28-.04.28-.15,1.17-.27,2.05"/>
  <path class="cls-1" d="M107.47,80.18c.33.33.67.67,1,1q-2.46.94-4.26-1.33h2.6"/>
  <path class="cls-1" d="M54.51,59.86c-.39.51-.77,1.03-1.6,2.13,1.3.24,2.11.39,2.93.54"/>
  <path class="cls-1" d="M89.82,171.13c.11,1.33.22,2.67.33,4"/>
  <path class="cls-1" d="M62.17,44.87c2.66,2.44,5.33,4.89,7.99,7.33"/>
  <path class="cls-1" d="M36.19,47.2c-.22.44-.44.89-.72,1.45-.74-.15-1.5-.3-2.27-.45"/>
  <path class="cls-1" d="M88.15,42.21c-1.22.44-2.44.89-3.66,1.33"/>
  <path class="cls-1" d="M83.49,62.86c-.89.22-1.78.44-2.66.67-.06.23-.11.46-.17.7,1.28.21,2.55.42,3.83.64"/>
  <path class="cls-1" d="M109.8,58.2c-1.17-.85-2.34-1.71-3.85-2.8-1.37,1.6-2.59,3.03-3.82,4.46"/>
  <path class="cls-1" d="M105.14,82.18c-.89,2.08-1.78.87-2.66,0"/>
  <path class="cls-1" d="M93.81,175.46c.34,2.61.82,2.85,3.33,1.67"/>
  <path class="cls-1" d="M85.15,85.51c-.23-.6-.47-1.19-.96-2.44-1.27,1.44-2.15,2.44-3.04,3.44"/>
  <path class="cls-1" d="M75.83,49.53c-.78-.33-1.55-.67-2.66-1.14v2.47"/>
  <path class="cls-1" d="M89.82,42.87c-.84-.7-1.68-1.4-2.76-2.29-1.1.74-2.5,1.68-3.91,2.63"/>
  <path class="cls-1" d="M107.13,79.85c.44-.33.89-.67,1.6-1.2-.62-.31-1.11-.55-1.6-.8"/>
  <path class="cls-1" d="M68.83,66.53c-1.11.67-2.21,1.36-3.34,1.99-.52.29-1.1.46-1.66.68"/>
  <path class="cls-1" d="M86.82,64.19c-.29-2.17-1.32-3.32-4.14-2.8.89,1.03,1.52,1.75,2.14,2.47"/>
  <path class="cls-1" d="M57.51,62.86c.73-1.1,1.47-2.2,2.35-3.54-1.64-.69-2.64-1.12-3.84-1.63-.41.52-.79,1.01-1.18,1.5"/>
  <path class="cls-1" d="M35.86,142.48c.11,2,.22,4,.33,6"/>
  <path class="cls-1" d="M107.47,57.2c-.78.67-1.55,1.33-2.33,2"/>
  <path class="cls-1" d="M65.5,43.87v3.66"/>
  <path class="cls-1" d="M70.83,43.21c-.89-.11-1.78-.22-2.66-.33"/>
  <path class="cls-1" d="M66.83,175.13c.78.89,1.55,1.78,2.33,2.67"/>
  <path class="cls-1" d="M89.15,144.15c.44,0,1.11-.18,1.29.04.46.56.71,1.3,1.04,1.96"/>
  <path class="cls-1" d="M38.86,145.81c-.66-.91-1.34-1.7-2.33-.33"/>
  <path class="cls-1" d="M49.85,27.55h4.68c-.56,1.11-.79,1.56-1.01,2"/>
  <path class="cls-1" d="M68.5,68.86c-.78.22-1.55.44-2.33.67"/>
  <path class="cls-1" d="M101.14,49.87c-.78.11-1.55.22-2.33.33"/>
  <path class="cls-1" d="M81.49,49.53h-2.33"/>
  <path class="cls-1" d="M67.83,44.54c-.56-.33-1.11-.67-1.67-1"/>
  <path class="cls-1" d="M32.53,46.87h-1.33c.11.44.22.89.33,1.33"/>
  <path class="cls-1" d="M63.17,46.54c-1.44.33-2.89.67-4.33,1"/>
  <path class="cls-1" d="M77.82,24.88c-.58.29-1.16.58-2.24,1.12,1.1.66,1.84,1.1,2.57,1.55"/>
  <path class="cls-1" d="M52.18,30.21c.64-.13,1.28-.26,1.92-.38.08.21.15.42.23.63-.6.36-1.21.72-1.81,1.08"/>
  <path class="cls-1" d="M104.14,76.85c.56.11,1.11.22,1.67.33"/>
  <path class="cls-1" d="M82.82,84.18c-.37-.5-.75-1-1.71-2.28-.56,1-.93,1.64-1.29,2.28"/>
  <path class="cls-1" d="M60.84,45.2c-1-.11-2-.22-3-.33"/>
  <path class="cls-1" d="M76.83,33.54c.56.67,1.11,1.33,1.67,2"/>
  <path class="cls-1" d="M49.85,166.8c-3.33,3.45-3.91,7.14-1.58,10.8,3.07-.98,5.22-2.9,5.88-6.14.67-3.28-.48-4.53-3.97-4.66"/>
  <path class="cls-1" d="M47.18,145.81c-1.93,1.18-.94,2.61-.54,4.12,2.78-1.65,2.89-2.31.87-4.12"/>
</svg>