<?xml version="1.0" encoding="UTF-8"?>
<svg id="Layer_1" data-name="Layer 1" xmlns="http://www.w3.org/2000/svg" viewBox="0 0 144 198">
  <defs>
    <style>
      .cls-1 {
        fill: none;
        stroke: #000;
        stroke-linecap: round;
        stroke-linejoin: round;
        stroke-width: 2px;
      }
    </style>
  </defs>
  <path class="cls-1" d="M105.97,96.02c-4.11,6.89-8.17,13.8-12.33,20.65-14.86,24.44-29.75,48.87-44.62,73.3"/>
  <path class="cls-1" d="M64.67,93.35c-7.22,6.44-14.36,12.97-21.67,19.3-9.58,8.3-19.33,16.42-28.94,24.69-2.85,2.46-5.49,5.16-7.84,7.39v44.46c14.37.26,28.59.52,42.8.77"/>
  <path class="cls-1" d="M49.68,189.96c7.99,0,15.99-.07,23.98.02,15.1.17,30.2.44,45.3.64,4.11.05,8.22,0,12.32,0"/>
  <path class="cls-1" d="M137.95,98.02v66.63"/>
  <path class="cls-1" d="M100.64,6.73c-2.78-.22-5.55-.63-8.33-.64-17.76-.06-35.53-.03-53.29-.03"/>
  <path class="cls-1" d="M121.29,92.02c-14.85,1.21-29.73,1.57-44.63,1.33"/>
  <path class="cls-1" d="M25.37,5.74H4.72v20.99"/>
  <path class="cls-1" d="M5.39,41.38v68.63"/>
  <path class="cls-1" d="M103.31,6.07c11.88.29,23.76.58,35.97.89v14.44"/>
  <path class="cls-1" d="M138.61,26.06c0,11.55,0,23.1.01,34.65,0,1.11.21,2.22.32,3.33"/>
  <path class="cls-1" d="M62.01,92.02c-7.22-.67-14.43-1.31-21.65-2.01-4.11-.4-8.22-.88-12.32-1.32"/>
  <path class="cls-1" d="M112.97,7.07c-.11,3.44-.3,6.88-.32,10.33-.05,8.88-.02,17.77-.02,26.65"/>
  <path class="cls-1" d="M35.36,30.72c0,3.33.17,6.67-.04,9.99-.43,6.89-1.05,13.77-1.6,20.75-3.44-2.38-6.81-4.71-10.15-7.02-1.45,1.35-2.8,2.36-3.84,3.62-2.35,2.85-5.9,1.41-8.69,2.63-1.26.55-2.6.94-3.9,1.4l.16.93c.47.12.94.23,1.42.35"/>
  <path class="cls-1" d="M140.61,63.37c-1.33.89-2.59,1.92-4.01,2.63-2.06,1.02-4.23,1.81-6,2.55-1.86-1.52-3.21-2.4-4.29-3.54-3.02-3.21-6.52-2.87-9.99-1.25-2.52,1.17-4.81,2.86-7.85,4.71.64-3.07,1.24-5.91,1.82-8.76.34-1.66.67-3.33,1-5"/>
  <path class="cls-1" d="M137.28,169.98v20.96c-1.78.14-3.22.25-4.66.36"/>
  <path class="cls-1" d="M88.32,78.36c-1.09,1.02-2.18,2.03-3.24,3.02,2.93,3.71,5.89,4.36,8.86,1.92.94-.77,2.14-2.45,1.86-3.21-.42-1.14-1.93-2.08-3.19-2.64-.79-.35-1.96.14-2.96.25"/>
  <path class="cls-1" d="M6.05,81.36c4.51,3.84,10.23,4.55,15.66,5.97,1.61.42,3.32.47,4.99.7"/>
  <path class="cls-1" d="M138.61,65.7v25.65"/>
  <path class="cls-1" d="M6.05,126c.11,6.11.22,12.22.33,18.32"/>
  <path class="cls-1" d="M137.61,87.69c-4.7,2.45-9.7,3.64-14.99,3.66"/>
  <path class="cls-1" d="M27.37,5.4h11.22c-.69,5.34-1.29,10-1.89,14.66"/>
  <path class="cls-1" d="M5.39,28.72c-.22,3.55-.44,7.11-.67,10.66"/>
  <path class="cls-1" d="M6.05,112.67c-.11,3.55-.22,7.11-.33,10.66"/>
  <path class="cls-1" d="M36.03,21.39v8"/>
  <path class="cls-1" d="M88.32,65.7v8"/>
  <path class="cls-1" d="M111.97,45.38v8"/>
  <path class="cls-1" d="M87.99,61.37c-.11,2.55-.22,5.11-.33,7.66"/>
  <path class="cls-1" d="M88.99,71.03v6.33c0,.11,0,.32,0,.32.22.02.44.01.66.01"/>
  <path class="cls-1" d="M86.99,63.7c-.11-3.22-.31-6.44-.27-9.66.01-.78.91-1.52,1.24-2.34.37-.92.57-1.91.85-2.87-.39-.05-.77-.1-1.16-.15v3.03"/>
  <path class="cls-1" d="M66.34,92.69h8.99"/>
  <path class="cls-1" d="M89.65,75.03c.33,1.67.67,3.33,1,5"/>
  <path class="cls-1" d="M68.67,92.35v-1.44c-2.13.71-3.73,1.24-5.33,1.78"/>
  <path class="cls-1" d="M111.63,11.73c-.11.56-.22,1.11-.33,1.67"/>
</svg>