<?xml version="1.0" encoding="UTF-8"?>
<svg id="Layer_1" data-name="Layer 1" xmlns="http://www.w3.org/2000/svg" viewBox="0 0 144 198">
  <defs>
    <style>
      .cls-1 {
        fill: none;
        stroke: #000;
        stroke-linecap: round;
        stroke-linejoin: round;
        stroke-width: 2px;
      }
    </style>
  </defs>
  <path class="cls-1" d="M139.76,55.63V7.66c-4.77,0-9.55.08-14.32-.02-6.77-.14-13.55-.42-20.32-.65"/>
  <path class="cls-1" d="M125.77,191.56h-12.66c-9.33,0-18.65.08-27.98-.03-5.66-.06-11.32-.54-16.99-.61-9.1-.11-18.21.05-27.31-.06-6.22-.07-12.43-.49-18.65-.62-5.1-.11-10.21-.02-15.65-.02v-35.31"/>
  <path class="cls-1" d="M5.87,56.97v69.29"/>
  <path class="cls-1" d="M139.1,60.96v67.3"/>
  <path class="cls-1" d="M28.52,6.33c13.99.32,27.97.64,42.28.97,1.81,3.68.38,9.74-4,14.33-2.16,2.27-4.52,4.36-6.76,6.49-.55,10.82-6.11,18.31-15.25,23.1-5.48,2.87-8.55,7.42-10.55,12.02.94,5.32,1.77,10.02,2.6,14.71"/>
  <path class="cls-1" d="M138.43,133.59c0,18.1,0,36.2-.01,54.3,0,1.11-.21,2.22-.32,3.33"/>
  <path class="cls-1" d="M25.85,6.99c-6.77-.31-13.54-.61-20.65-.93v35.58"/>
  <path class="cls-1" d="M43.17,90.28c-2.68,2.28-3.52,5.28-3.33,8.66.19,3.32,2.19,4.56,5.32,3.33,6.32-2.48,7.21-8.11,1.94-12.71-2.81.73-3.5,2.77-3.27,5.38"/>
  <path class="cls-1" d="M71.48,6.99c10.33.22,20.65.44,30.98.67"/>
  <path class="cls-1" d="M111.78,88.95c-2.75,1.22-4.64,2.95-3.83,6.27,1.29.47,2.41.88,4,1.46-.29,1.01-.29,2.23-.89,2.89-1.73,1.89-3.91,3.01-6.61,2.71"/>
  <path class="cls-1" d="M33.51,62.63c-.67-1.07-1.35-2.15-2.35-3.75-4.54,3.47-4.83,8.32-5.97,12.75"/>
  <path class="cls-1" d="M33.51,65.29c-1.85,4.65-2.91,9.9-8.66,11.66"/>
  <path class="cls-1" d="M23.86,77.62c-4.67,1.85-9.39,2.9-14.32,1"/>
  <path class="cls-1" d="M81.14,90.95c0,2.78,0,5.55,0,8.33,0,1.58-.1,3.23,2,3.66"/>
  <path class="cls-1" d="M74.81,68.63c1.41,5.34-1.29,8.81-5.52,12.08-.07-.85-.11-1.3-.14-1.75"/>
  <path class="cls-1" d="M6.54,141.58v11.99"/>
  <path class="cls-1" d="M115.78,138.25c.22,2.55.55,5.11.62,7.66.04,1.21-.4,2.44-.62,3.66"/>
  <path class="cls-1" d="M5.87,127.59v11.33"/>
  <path class="cls-1" d="M5.2,43.64v11.33"/>
  <path class="cls-1" d="M137.43,191.89c-3.44.11-6.88.22-10.33.33"/>
  <path class="cls-1" d="M58.49,89.61c.33,3.44.67,6.89,1,10.33"/>
  <path class="cls-1" d="M115.11,118.26c-3.18,2.15-6.01,4.57-6.66,8.66"/>
  <path class="cls-1" d="M99.46,94.94c1.59-.86,3.24-1.68,2.47-4.34-3.02,1.87-3.47,4.44-3.5,8.33,2.18-.81,3.77-1.4,5.36-1.98"/>
  <path class="cls-1" d="M52.5,72.29c-1.05-1.29-2.1-2.59-3.37-4.16-.74,1.24-1.52,2.53-2.29,3.82"/>
  <path class="cls-1" d="M91.47,96.94l3.92-3c-.27-.29-.54-.59-.81-.88-3.4-.74-2.02,3.31-4.47,4.06,1.66,1.33,2.46,1.97,3.39,2.72,1.04-.78,2.01-1.5,2.97-2.22"/>
  <path class="cls-1" d="M115.78,126.93c.22,2.67.44,5.33.67,8"/>
  <path class="cls-1" d="M74.15,67.96c-.74,1.52-1.48,3.04-2.22,4.56-.38-.2-.76-.39-1.14-.59.9-1.43,1.8-2.87,2.69-4.3"/>
  <path class="cls-1" d="M105.12,70.63c.63,3.53,2.64,4.09,6,1.67"/>
  <path class="cls-1" d="M85.14,147.58c1.55-1.78,3.05-3.61,4.71-5.28.33-.33,1.28-.05,1.95-.05"/>
  <path class="cls-1" d="M58.16,68.29c1.74,2.02,1.37,3.14-1.52,4.06-.16-1.15-.32-2.26-.5-3.53.54-.27,1.11-.57,1.69-.86"/>
  <path class="cls-1" d="M58.49,101.61c-1.48-.7-2.95-1.41-4.77-2.28-1,1.07-2.24,2.39-3.89,4.15,2.98.33,2.94-1.49,3.33-2.87"/>
  <path class="cls-1" d="M46.17,72.62c-.45-1.22-.91-2.43-1.5-4-.68,1.23-1.26,2.28-1.83,3.34"/>
  <path class="cls-1" d="M94.47,62.96c.22,2.89.35,5.79.7,8.66.22,1.79,1.22,2.56,2.96,1.34"/>
  <path class="cls-1" d="M87.8,88.95c-2.11.44-4.22.89-6.33,1.33"/>
  <path class="cls-1" d="M67.49,71.62c-.45-1.33-.89-2.66-1.37-4.1-3.07,1.05-2.39,3.89-2.96,6.1"/>
  <path class="cls-1" d="M91.47,94.61c-.22-.33-.44-.67-.74-1.11-2.3,1.8-5.33,3-4.92,6.77"/>
  <path class="cls-1" d="M105.79,134.26c-1.11,1.78-2.22,3.55-3.33,5.33"/>
  <path class="cls-1" d="M91.8,150.25h-5.33"/>
  <path class="cls-1" d="M94.13,69.63c-1.67.22-3.33.44-5,.67"/>
  <path class="cls-1" d="M64.49,97.61c-1.75-.46-2.65.35-3,2"/>
  <path class="cls-1" d="M109.79,142.25c-.89,1.33-1.78,2.67-2.66,4"/>
  <path class="cls-1" d="M98.46,62.96v4"/>
  <path class="cls-1" d="M98.46,149.58h-4"/>
  <path class="cls-1" d="M24.52,72.96c-.11,1.55-.3,3.11-.26,4.66,0,.25.34,2.17,1.59.67"/>
  <path class="cls-1" d="M41.84,68.96c.11,1.22.22,2.44.33,3.66"/>
  <path class="cls-1" d="M121.44,122.93c-.11,1.11-.22,2.22-.33,3.33"/>
  <path class="cls-1" d="M96.46,141.58h-3.33"/>
  <path class="cls-1" d="M62.16,99.94c1,.78,2,1.55,3,2.33"/>
  <path class="cls-1" d="M103.12,148.25c-1.11.22-2.22.44-3.33.67"/>
  <path class="cls-1" d="M100.79,70.63c.56.78,1.11,1.55,1.67,2.33"/>
  <path class="cls-1" d="M120.44,117.6c-.89-.22-1.78-.44-2.66-.67"/>
  <path class="cls-1" d="M113.12,132.26c-.22.89-.44,1.78-.67,2.67"/>
  <path class="cls-1" d="M117.78,133.59v2.67"/>
  <path class="cls-1" d="M117.11,137.59v2.67"/>
  <path class="cls-1" d="M101.13,140.25c-.67.22-1.33.44-2,.67"/>
  <path class="cls-1" d="M111.12,138.92c-.22.67-.44,1.33-.67,2"/>
  <path class="cls-1" d="M107.12,130.92c-.22.67-.44,1.33-.67,2"/>
  <path class="cls-1" d="M98.79,70.96c-.11,1.11-.22,2.22-.33,3.33"/>
  <path class="cls-1" d="M36.51,67.63c-1-.11-2-.22-3-.33"/>
  <path class="cls-1" d="M100.46,69.63l-1,1"/>
  <path class="cls-1" d="M119.78,128.93l-.67,1.33"/>
  <path class="cls-1" d="M105.79,146.92c-.44.22-.89.44-1.33.67"/>
</svg>