<?xml version="1.0" encoding="UTF-8"?>
<svg id="Layer_1" data-name="Layer 1" xmlns="http://www.w3.org/2000/svg" viewBox="0 0 144 198">
  <defs>
    <style>
      .cls-1 {
        fill: none;
        stroke: #000;
        stroke-linecap: round;
        stroke-linejoin: round;
        stroke-width: 2px;
      }
    </style>
  </defs>
  <path class="cls-1" d="M125.21,193.1c-12.66-.11-25.31-.25-37.97-.31-3.22-.02-6.44.27-9.66.29-2.22.01-4.44-.26-6.66-.3-7.66-.14-15.32-.27-22.98-.33-5.99-.05-11.99-.01-17.99-.01"/>
  <path class="cls-1" d="M121.88,65.84c-19.81,8.76-38.19,19.8-54.63,33.97-12.75,10.99-26.28,21.1-37.96,33.32"/>
  <path class="cls-1" d="M63.92,19.2c-1.02-4.61-3.38-6.75-8.32-6.61-9.27.28-18.11,1.91-25.35,8.57-5.7,5.25-11.37,10.47-14.61,17.7-3.87,8.64-3.24,12.26,2.73,19.92,2.8,3.6,7.28,3.88,11.58,3.7,2-.08,4-.42,6-.64"/>
  <path class="cls-1" d="M137.86,100.49v66.63"/>
  <path class="cls-1" d="M138.53,29.2v64.63"/>
  <path class="cls-1" d="M5.97,128.47v56.63"/>
  <path class="cls-1" d="M139.2,23.87v-14.66c-4.1,0-8.21.07-12.32-.02-7.66-.17-15.32-.43-22.98-.65"/>
  <path class="cls-1" d="M137.86,25.87c-4,2-7.92,4.18-12,5.97-17.35,7.59-34.51,15.56-50.95,25.01-1.64.94-3.33,1.78-4.99,2.67"/>
  <path class="cls-1" d="M58.26,18.2c-9.15-3.8-16.68-.08-23.22,5.77-4.46,3.99-7.99,8.99-9.09,15.22-.43,2.45-.89,4.89-1.33,7.33"/>
  <path class="cls-1" d="M5.3,43.86c0,13.33-.02,26.65.06,39.98,0,.9-1.19,2.79,1.28,2.67"/>
  <path class="cls-1" d="M25.29,8.54c-6.77-.29-13.53-.59-20.48-.89v21.07c12.53-7.22,26.15-11.41,37.8-19.51"/>
  <path class="cls-1" d="M64.26,22.87c5.26,7.32,6.15,15.7,5.54,24.31-.11,1.51-1.6,3.23-2.92,4.28-5.27,4.2-10.6,8.19-17.59,9.49-6.01,1.12-11.52,1.54-16.38-3.06-1.43-1.36-3.52-2.04-4.9-3.43-1.74-1.74-3.15-3.86-2.72-6.61"/>
  <path class="cls-1" d="M27.95,7.88c8.66.22,17.32.56,25.98.64,12.21.11,24.42-.02,36.64.06,3.55.02,7.11.41,10.66.64"/>
  <path class="cls-1" d="M137.2,173.12v20.65h-10.66"/>
  <path class="cls-1" d="M33.95,82.83c-8.22,6.11-16.43,12.21-24.64,18.33-1.14.85-2.22,1.77-3.33,2.66"/>
  <path class="cls-1" d="M52.27,70.17c-5.88,3.89-11.77,7.77-17.65,11.66"/>
  <path class="cls-1" d="M28.62,192.11H6.3v-5.66"/>
  <path class="cls-1" d="M68.92,60.18c-5.11,3.11-10.21,6.22-15.32,9.33"/>
  <path class="cls-1" d="M83.91,21.87c1.11,4.66,2.22,9.33,3.33,13.99"/>
  <path class="cls-1" d="M5.3,86.83v12.33"/>
  <path class="cls-1" d="M5.97,115.15v11.33"/>
  <path class="cls-1" d="M5.3,31.2c-.11,3.55-.22,7.11-.33,10.66"/>
  <path class="cls-1" d="M87.9,37.19c.89,3.44,1.78,6.88,2.66,10.33"/>
  <path class="cls-1" d="M27.29,83.17l-9.99,2"/>
  <path class="cls-1" d="M49.27,63.18c1.55,3.33,3.11,6.66,4.66,9.99"/>
  <path class="cls-1" d="M5.3,101.16v11.33"/>
  <path class="cls-1" d="M66.25,52.85c1.44,2.89,2.89,5.77,4.33,8.66"/>
  <path class="cls-1" d="M81.91,14.54c.44,2,.89,4,1.33,6"/>
  <path class="cls-1" d="M58.93,18.87c1.67,1.11,3.33,2.22,5,3.33"/>
  <path class="cls-1" d="M32.95,81.83c-1.44.22-2.89.44-4.33.67"/>
  <path class="cls-1" d="M12.63,86.5h-3.33"/>
  <path class="cls-1" d="M62.92,22.54c-.33.89-.67,1.78-1,2.67"/>
  <path class="cls-1" d="M65.26,50.52c.22.33.44.67.67,1"/>
</svg>