<?xml version="1.0" encoding="UTF-8"?>
<svg id="Layer_1" data-name="Layer 1" xmlns="http://www.w3.org/2000/svg" viewBox="0 0 144 198">
  <defs>
    <style>
      .cls-1 {
        fill: none;
        stroke: #000;
        stroke-linecap: round;
        stroke-linejoin: round;
        stroke-width: 2px;
      }
    </style>
  </defs>
  <path class="cls-1" d="M9.72,105.14c2.55,3.78,5.5,7.35,7.56,11.38,2.58,5.04,5.13,8.56,11.7,9.6,8.21,1.31,16.23,4.55,23.96,7.83,5.02,2.13,9.64.88,14-.35,8.34-2.35,16.42-5.34,22.87-11.98,3.45-3.55,7.79-6.18,10.23-10.79.66-1.24,2.04-2.21,3.28-3.01,7.09-4.52,7.49-8.58,5.29-17.35-.65-2.59-1.52-5.12-2.31-7.67-2.44-7.85-7.16-13.8-15.02-16.56-3.33-1.17-6.94-1.84-10.67-.56-1.16.4-3.32-.32-4.21-1.28-4.51-4.85-9.84-3.06-15.07-2.24-3.01.47-6,1.09-9,1.65"/>
  <path class="cls-1" d="M63.67,7.2c-19.65-.33-39.3-.66-58.95-.98v32.96"/>
  <path class="cls-1" d="M138.95,7.86c-.22,28.87-.44,57.74-.67,86.62"/>
  <path class="cls-1" d="M5.72,156.44v33.98h42.63"/>
  <path class="cls-1" d="M136.95,7.86c-23.54-.44-47.07-.89-70.61-1.33"/>
  <path class="cls-1" d="M137.61,101.14v65.96"/>
  <path class="cls-1" d="M5.05,84.48v69.96"/>
  <path class="cls-1" d="M136.95,191.76c-9.55,0-19.1.08-28.64-.02-15.1-.15-30.2-.44-45.3-.64-4.44-.06-8.88,0-13.32,0"/>
  <path class="cls-1" d="M137.61,168.44c-5.11-2.17-10.33-3.88-15.98-3.3-2.46.25-4.93.68-7.32,1.33-6.91,1.88-13.78,1.75-21.17-.11-3.65,1.61-7.71,3.4-11.79,5.21q.39,3.07-5.44,2.53c-.33-.96-.67-1.96-1.06-3.07,1.32-.66,2.57-1.29,3.82-1.92.66.33,1.32.66,1.99,1"/>
  <path class="cls-1" d="M58.01,42.51c-1.44-.78-2.92-1.51-4.32-2.34-3.63-2.15-7.18-2.2-11.38-1.21-3.63.86-7.74-.04-11.6-.49-3.58-.42-7.09-1.53-10.67-1.89-5.45-.55-10.69.61-15.65,3.03v30.23"/>
  <path class="cls-1" d="M47.02,63.83c-3.33-.44-6.65-.96-9.99-1.31-3.45-.36-6.38.9-7.94,4-2.63,5.23-4.89,10.65-7.4,15.95-.98,2.06-2.2,4.01-3.31,6.01"/>
  <path class="cls-1" d="M136.95,173.1v17.32"/>
  <path class="cls-1" d="M97.98,46.17c1.74.94,3.49,1.89,6.04,3.26.37-2.28,1.17-4.23.75-5.88-.24-.94-2.46-1.38-3.78-2.05l-.27.62c-.33-.56-.66-1.12-1.21-2.05-.42,2.36-3.58,3.37-1.86,6.1"/>
  <path class="cls-1" d="M73,159.78c-5.66.67-11.31,1.61-16.99,1.92-5.98.33-11.99.11-17.98.04-1.22-.01-2.44-.41-3.66-.64"/>
  <path class="cls-1" d="M62.67,33.18c.78.33,1.53.75,2.34.98.9.25,1.84.33,3.66.64-1.8,2-2.97,3.28-4.27,4.72-1.04-1.15-1.88-2.08-2.72-3.01"/>
  <path class="cls-1" d="M67,31.85c-4,1.11-8.02,2.15-11.98,3.36-1.94.6-3.78,1.52-5.67,2.3"/>
  <path class="cls-1" d="M98.65,32.85c.13-.76.26-1.51.4-2.33h-1.38c-1-1.95-1.93-3.77-2.86-5.59-.38.08-.77.16-1.15.24v4.68"/>
  <path class="cls-1" d="M55.35,162.44c-4.04,7-9.78,12.03-17.96,15.24-.61-1.62-1.22-3.22-1.98-5.23,1.9-.07,2.5-3.31,5.07-1.35.3-.5.62-1.06,1.18-2,.94,1.52,1.82,2.93,2.69,4.34"/>
  <path class="cls-1" d="M85.66,33.85c3.25,4.17,5.93,8.91,10.99,11.33"/>
  <path class="cls-1" d="M74.33,160.44c3.55,1,7.13,1.92,10.65,3.03,2.38.75,4.67,1.75,7,2.64"/>
  <path class="cls-1" d="M94.32,160.44c.88.35,1.76.7,3.24,1.29-1.37,1.27-2.57,2.39-3.78,3.52q-2.08-2.67-.79-4.82"/>
  <path class="cls-1" d="M5.05,71.83c-.22,3.55-.44,7.11-.67,10.66"/>
  <path class="cls-1" d="M16.38,91.15c-1.89-.22-3.77-.61-5.66-.62-1.66-.01-3.33.4-5,.62"/>
  <path class="cls-1" d="M106.97,32.51c-8.44.22-16.87.5-25.31.63-1.99.03-4-.41-5.99-.63"/>
  <path class="cls-1" d="M116.63,30.85c2.64-2.49-.76-3.98-.79-6.67-2.51.71-4.64,1.32-7.24,2.06-1.08,2.03.01,3.28,2.61,4.53-.97.36-1.94.72-2.91,1.08"/>
  <path class="cls-1" d="M47.69,163.11c3.21-3.25.57-6.07-.75-9.83-1.53,3.18-4.34,4.81-4.24,8.16"/>
  <path class="cls-1" d="M67.34,158.44c.13-.87.25-1.74.38-2.62-.21-.08-.42-.15-.63-.23-.58.84-1.16,1.68-1.89,2.74-2.46-.84-4.98-1.7-7.51-2.56"/>
  <path class="cls-1" d="M14.38,98.48c-2.66.22-5.33.44-7.99.67"/>
  <path class="cls-1" d="M73.67,164.77c1.06,1.06,2.12,2.12,3.24,3.25.91-1.1,1.66-2.01,2.42-2.92"/>
  <path class="cls-1" d="M30.7,154.78c-1.57-.67-3.15-1.35-5.4-2.31.34,3.02-3.5,4.44-.59,6.98"/>
  <path class="cls-1" d="M57.68,44.51v-2.25c2.63,1.27,5.06,2.45,8.14,3.95-.21-1.85-.33-2.96-.45-4.03-.48,0-.67-.03-.68,0-.13.32-.24.66-.35.99"/>
  <path class="cls-1" d="M48.69,32.18c-1.46.14-2.92.29-4.38.43-.13.24-.27.48-.4.72,1.22,1.1,2.44,2.2,3.84,3.46.6-1.23,1.11-2.25,1.61-3.28"/>
  <path class="cls-1" d="M31.37,154.11c.72.96,1.41,3.21.98,3.64-1.16,1.17-2.28,2.52-3.69,3.26-.96.5-2.4.1-3.63.1-.22-.33-.44-.67-.66-1,.45-.11.89-.22,1.34-.33"/>
  <path class="cls-1" d="M115.63,31.18v1.33c-1.44-.33-2.89-.67-4.33-1"/>
  <path class="cls-1" d="M92.98,27.85c-.93,2.34-1.55,4.64.67,6.66"/>
  <path class="cls-1" d="M64.01,41.51c-2.4-2.53-3.25.38-4.66,1.33"/>
  <path class="cls-1" d="M78,162.11c-.67.22-1.36.38-1.99.68-.81.38-1.56.87-2.34,1.32"/>
  <path class="cls-1" d="M75.33,29.18c-.35-.72-.7-1.45-1.05-2.17-.32.05-.63.1-.95.15v2.36"/>
  <path class="cls-1" d="M60.01,43.84c.07,2.24.16,2.29,3,1.67"/>
  <path class="cls-1" d="M65.34,156.78c-1.11-1.18-2.22-1.76-3.33,0"/>
  <path class="cls-1" d="M79.33,28.52c-2.66.89-5.33,1.78-7.99,2.67"/>
  <path class="cls-1" d="M80.99,28.85c-.75,1.74-2,2.11-3.66,1.33"/>
  <path class="cls-1" d="M60.34,157.44c.75,1.74,2,2.11,3.66,1.33"/>
  <path class="cls-1" d="M106.97,48.51c-.37,2.23-1.76,1.37-3,1"/>
  <path class="cls-1" d="M81.33,27.85c-.22-.44-.44-.89-.79-1.58-.49.68-.91,1.26-1.48,2.04.83-.05,1.38-.09,1.93-.13"/>
  <path class="cls-1" d="M34.36,177.76c1,.11,2,.22,3,.33"/>
  <path class="cls-1" d="M74.33,31.85c-2-.22-4-.44-6-.67"/>
  <path class="cls-1" d="M51.02,64.5h-2.66"/>
  <path class="cls-1" d="M78.66,27.52c-.89.22-1.78.44-2.66.67"/>
  <path class="cls-1" d="M80.66,172.1c-.89.44-1.78.89-2.66,1.33"/>
  <path class="cls-1" d="M83.66,27.18c-.67.22-1.33.44-2,.67"/>
  <path class="cls-1" d="M30.7,159.78c.78.22,1.55.44,2.33.67"/>
  <path class="cls-1" d="M66.34,158.11c1.22.56,2.44,1.11,3.66,1.67"/>
  <path class="cls-1" d="M80.66,164.77v1c-.22-.11-.63-.21-.63-.33-.02-.55.06-1.1.11-1.66h-1.14"/>
  <path class="cls-1" d="M60.34,30.52c.33.56.67,1.11,1,1.67"/>
  <path class="cls-1" d="M59.34,41.51h-1.33"/>
  <path class="cls-1" d="M83.32,170.1h-1.33"/>
  <path class="cls-1" d="M61.68,35.18c-.65.35-1.29.71-1.94,1.06.32.3.65.59.97.89.21-.32.42-.64.64-.95"/>
  <path class="cls-1" d="M76.33,171.1c-.11.33-.22.67-.33,1"/>
</svg>