<?xml version="1.0" encoding="UTF-8"?>
<svg id="Layer_1" data-name="Layer 1" xmlns="http://www.w3.org/2000/svg" viewBox="0 0 144 198">
  <defs>
    <style>
      .cls-1 {
        fill: none;
        stroke: #000;
        stroke-linecap: round;
        stroke-linejoin: round;
        stroke-width: 2px;
      }
    </style>
  </defs>
  <path class="cls-1" d="M102.8,7.88c-11.1-.22-22.2-.46-33.31-.66-13.54-.24-27.09-.45-40.63-.67"/>
  <path class="cls-1" d="M6.88,57.18v68.63"/>
  <path class="cls-1" d="M140.11,61.18v67.3"/>
  <path class="cls-1" d="M36.86,15.87v63.96"/>
  <path class="cls-1" d="M106.14,7.21c11.43.3,22.87.6,34.64.91v48.4"/>
  <path class="cls-1" d="M7.55,141.14v49.64c4.44,0,8.55.04,12.66-.01,3.33-.05,6.66-.21,9.99-.32"/>
  <path class="cls-1" d="M44.19,9.88v51.3"/>
  <path class="cls-1" d="M26.2,7.21c-6.55-.31-13.09-.62-19.98-.95v35.6"/>
  <path class="cls-1" d="M43.52,63.85v43.98"/>
  <path class="cls-1" d="M126.12,8.21v40.98"/>
  <path class="cls-1" d="M139.44,150.8c0,12.44,0,24.87-.01,37.31,0,1.11-.21,2.22-.32,3.33"/>
  <path class="cls-1" d="M8.88,147.8c11.32,7.43,23.97,11.48,36.98,14.64.73.18,1.55.02,2.33.02"/>
  <path class="cls-1" d="M36.19,81.84v35.98"/>
  <path class="cls-1" d="M132.78,192.11c-13.99-.11-27.98-.14-41.97-.35-16.1-.24-32.2-.68-48.3-.95-3.66-.06-7.33.2-10.99.31"/>
  <path class="cls-1" d="M30.86,36.53v33.31"/>
  <path class="cls-1" d="M114.13,93.83v32.65"/>
  <path class="cls-1" d="M30.2,85.83v30.65"/>
  <path class="cls-1" d="M138.78,147.13c-7.76,4.09-15.43,8.35-23.98,10.67-2.24.61-4.44,1.32-6.66,1.99"/>
  <path class="cls-1" d="M90.15,163.79c-10.21.22-20.43.44-30.64.67"/>
  <path class="cls-1" d="M22.87,104.49v28.65"/>
  <path class="cls-1" d="M24.87,23.87v28.65"/>
  <path class="cls-1" d="M101.47,73.84v27.32"/>
  <path class="cls-1" d="M73.5,138.47c-2.33.67-4.82,1.01-6.96,2.08-2.9,1.44-3.32,5.32-1.02,7.57,3.33,3.26,7.51,4,11.97,3.68"/>
  <path class="cls-1" d="M73.5,95.16v26.65"/>
  <path class="cls-1" d="M53.51,109.15h-9.74c.59,5.6,1.2,11.12,1.73,16.66.3,3.1.43,6.22.71,9.32.04.46.42.89.64,1.33"/>
  <path class="cls-1" d="M44.19,131.81c-.93.96-1.86,1.91-3.51,3.6-.85-1.57-1.56-2.87-2.5-4.6-2.89,1.71-5.4,2.7-7.23,4.42-2.12,1.99-4.24,3.02-7.6,2.39-3.45-3.13-6.59-8.34-13.13-5.8"/>
  <path class="cls-1" d="M113.46,164.46c-.44,7.55-.87,15.1-1.35,22.65-.07,1.12-.42,2.22-.65,3.33"/>
  <path class="cls-1" d="M122.79,132.14c-3.05.95-6.11,1.9-9.9,3.08-1.75-2.09-3.35-4.15-5.11-6.06-3.33-3.61-4.84-3.63-8.64-.35"/>
  <path class="cls-1" d="M29.53,163.79c0,6.77-.01,13.55.01,20.32,0,1.11.21,2.22.32,3.33"/>
  <path class="cls-1" d="M139.44,133.81v16.43c-12.23,10.85-27.52,14.16-43.3,16.22"/>
  <path class="cls-1" d="M113.46,62.51v22.65"/>
  <path class="cls-1" d="M75.49,99.16v32.65"/>
  <path class="cls-1" d="M88.82,167.79c-7.33.22-14.65.44-21.98.67"/>
  <path class="cls-1" d="M91.48,167.79v21.99"/>
  <path class="cls-1" d="M7.88,151.46c8.48,7.25,18.73,10.5,29.31,12.97,2.52.59,5.1.91,7.66,1.35"/>
  <path class="cls-1" d="M126.12,163.79v20.65"/>
  <path class="cls-1" d="M40.19,165.79v20.65"/>
  <path class="cls-1" d="M56.84,27.2c-.71-3.59-1.42-7.18-2.17-10.97-2.5.9-2.7,2.56-3.24,4.28-1.03,3.29-2.58,6.42-1.92,10.02"/>
  <path class="cls-1" d="M78.82,151.13c3.9-.91,4.67-1.6,6.72-6.13-1.49-4.2-5.12-5.58-9.05-6.53"/>
  <path class="cls-1" d="M112.8,42.52v17.99"/>
  <path class="cls-1" d="M124.79,65.84v17.99"/>
  <path class="cls-1" d="M100.81,55.85v16.66"/>
  <path class="cls-1" d="M112.13,23.87v16.66"/>
  <path class="cls-1" d="M98.14,9.21v16.66"/>
  <path class="cls-1" d="M123.45,101.82v15.99"/>
  <path class="cls-1" d="M46.18,166.45c6.32.57,12.63,1.15,19.32,1.76v5.57"/>
  <path class="cls-1" d="M30.2,16.54v15.32"/>
  <path class="cls-1" d="M24.87,60.51v15.32"/>
  <path class="cls-1" d="M18.21,158.79v14.99"/>
  <path class="cls-1" d="M124.12,85.83v14.66"/>
  <path class="cls-1" d="M102.14,177.11v14.33"/>
  <path class="cls-1" d="M79.49,173.78v13.99"/>
  <path class="cls-1" d="M64.84,175.12v13.99"/>
  <path class="cls-1" d="M98.81,27.2c.22,4.66.44,9.33.67,13.99"/>
  <path class="cls-1" d="M74.16,124.48v18.66"/>
  <path class="cls-1" d="M23.54,89.83v13.33"/>
  <path class="cls-1" d="M125.45,50.52v13.33"/>
  <path class="cls-1" d="M100.47,108.49h-12.99"/>
  <path class="cls-1" d="M99.47,117.15c-.67,5.11-1.33,10.22-2,15.32"/>
  <path class="cls-1" d="M110.8,10.54c.22,4,.44,8,.67,11.99"/>
  <path class="cls-1" d="M36.86,119.81v11.66"/>
  <path class="cls-1" d="M68.17,109.82h-11.32"/>
  <path class="cls-1" d="M7.55,127.81c-.11,3.78-.22,7.55-.33,11.33"/>
  <path class="cls-1" d="M6.88,43.86c-.22,3.78-.44,7.55-.67,11.33"/>
  <path class="cls-1" d="M24.2,77.17v11.33"/>
  <path class="cls-1" d="M100.14,42.52v11.33"/>
  <path class="cls-1" d="M122.79,119.81v12.66h6"/>
  <path class="cls-1" d="M76.16,75.17c-.67-.89-1.53-2.61-1.96-2.51-1.31.31-2.45,1.33-4.24,2.43,1.53,1.33,2.53,2.21,3.53,3.08"/>
  <path class="cls-1" d="M29.53,119.81v10.66"/>
  <path class="cls-1" d="M80.16,24.87c-.71.83-1.42,1.67-2.14,2.5-.25-.14-.5-.27-.76-.41.48-1.09.97-2.18,1.56-3.51,2.98,3.74,2.51,7.99-.68,9.03-.54.18-1.31-.39-1.98-.61"/>
  <path class="cls-1" d="M138.78,129.14c-.6,1.25-1.2,2.51-1.91,4h-6.75"/>
  <path class="cls-1" d="M75.49,82.5c-.22,4.89-.44,9.77-.67,14.66"/>
  <path class="cls-1" d="M55.18,167.79c-.11,3.11-.22,6.22-.33,9.33"/>
  <path class="cls-1" d="M51.51,54.52c.25,1.37.49,2.75.74,4.12.43.07.86.15,1.28.22.66-1.45,1.31-2.89,1.97-4.34"/>
  <path class="cls-1" d="M102.8,166.45v8.66"/>
  <path class="cls-1" d="M58.17,163.79c-2.89-.22-5.77-.44-8.66-.67"/>
  <path class="cls-1" d="M24.2,12.54v8.66"/>
  <path class="cls-1" d="M94.15,54.52c-.72.36-1.45.72-2.49,1.25,1.36.9,2.33,1.55,3.89,2.57-1.23.68-1.98,1.1-2.73,1.51"/>
  <path class="cls-1" d="M76.16,109.15h7.99"/>
  <path class="cls-1" d="M100.81,102.49c-.22,4.44-.44,8.88-.67,13.33"/>
  <path class="cls-1" d="M98.14,162.46c-2.22.22-4.44.44-6.66.67"/>
  <path class="cls-1" d="M75.49,28.53c-.35-1.22-.69-2.43-1.21-4.23-.68.47-1.24.85-1.79,1.23"/>
  <path class="cls-1" d="M73.5,79.84c.46-.98.93-1.97,1.39-2.95.31.08.63.15.94.23v4.05h-3v10.66"/>
  <path class="cls-1" d="M58.17,21.87c.33,1.78.67,3.55,1,5.33"/>
  <path class="cls-1" d="M65.5,52.52c-1.65,1.32-3.29,2.64-4.94,3.95-1.27.7-.74-3.14-3.05-1.29"/>
  <path class="cls-1" d="M81.49,36.53c.11,1.78.22,3.55.33,5.33"/>
  <path class="cls-1" d="M36.19,9.21v5.33"/>
  <path class="cls-1" d="M76.16,133.14v9.99"/>
  <path class="cls-1" d="M138.78,192.11c-1.55.11-3.11.22-4.66.33"/>
  <path class="cls-1" d="M29.53,9.88v4.66"/>
  <path class="cls-1" d="M83.15,55.85c-.08.88-.15,1.75-.23,2.63.23.07.47.14.7.21.62-.5,1.24-1,1.86-1.51"/>
  <path class="cls-1" d="M78.16,35.86c-.92,3.19-1.66,6.37.67,9.33"/>
  <path class="cls-1" d="M104.14,161.12c-1.55.22-3.11.44-4.66.67"/>
  <path class="cls-1" d="M79.82,56.18c1.21-1.6,2.59-1.13,4.34-.14.48-.48,1.03-1.03,1.59-1.59l-.36-.66c-.53.13-1.05.26-1.58.39"/>
  <path class="cls-1" d="M84.15,44.52c-.28-1.12-.56-2.25-1-3.98-1.21,1.61-2.11,2.79-3,3.98"/>
  <path class="cls-1" d="M61.84,27.53c-.25-1.02-.51-2.04-.85-3.41-.56.68-.85,1.05-1.15,1.41"/>
  <path class="cls-1" d="M80.16,40.53h-7.33"/>
  <path class="cls-1" d="M91.81,56.85c-1.27,1.09-2.57,2.03-4.33,1"/>
  <path class="cls-1" d="M55.51,52.52c-1.11-1.35-2.22-2.16-3.33,0"/>
  <path class="cls-1" d="M88.48,40.19c-.85.81-1.71,1.62-2.96,2.81,1.08.9,1.85,1.55,2.63,2.19"/>
  <path class="cls-1" d="M62.5,26.87c.53-.91,1.06-1.82,1.6-2.73.47.24.93.49,1.4.73v3.67"/>
  <path class="cls-1" d="M78.82,54.52c.22,1.11.44,2.22.67,3.33"/>
  <path class="cls-1" d="M125.45,185.78v3.33"/>
  <path class="cls-1" d="M90.15,167.12h4.66"/>
  <path class="cls-1" d="M126.79,159.46v3"/>
  <path class="cls-1" d="M71.5,27.87c.1-.56.21-1.11.4-2.12-1.19-.24-2.41-.48-4.43-.89.7,1.35.97,1.88,1.35,2.61.65-.49,1.17-.88,1.68-1.26"/>
  <path class="cls-1" d="M78.82,51.19h-4.66"/>
  <path class="cls-1" d="M76.83,51.85v2.67"/>
  <path class="cls-1" d="M23.54,8.54v2.67"/>
  <path class="cls-1" d="M90.15,54.52c.26-.31.51-.61.77-.92-.15-.13-.3-.26-.45-.38-.22.32-.43.65-.65.97"/>
  <path class="cls-1" d="M63.17,54.85c.78.78,1.55,1.55,2.33,2.33"/>
  <path class="cls-1" d="M113.46,127.81c-.22.67-.44,1.33-.67,2"/>
  <path class="cls-1" d="M76.16,57.18c.22.67.44,1.33.67,2"/>
  <path class="cls-1" d="M89.15,53.85c-.64.36-1.28.72-1.92,1.08l1.14,1.03c.48-.59.96-1.19,1.44-1.78"/>
  <path class="cls-1" d="M72.16,23.2c.11.33.22.67.33,1"/>
</svg>