<?xml version="1.0" encoding="UTF-8"?>
<svg id="Layer_1" data-name="Layer 1" xmlns="http://www.w3.org/2000/svg" viewBox="0 0 144 198">
  <defs>
    <style>
      .cls-1 {
        fill: none;
        stroke: #000;
        stroke-linecap: round;
        stroke-linejoin: round;
        stroke-width: 2px;
      }
    </style>
  </defs>
  <path class="cls-1" d="M44.47,13.21c.19-2.11.38-4.21.62-6.83H3.84v62.13"/>
  <path class="cls-1" d="M137.73,57.85c0,8.66.04,17.32,0,25.99-.07,12.55-.19,25.1-.33,37.65-.04,4-.14,8-.38,11.99-.06.91-.64,1.96-1.3,2.64-5.93,6.1-13.4,9.65-21.3,12.31-4.13,1.38-8.42,2.27-12.64,3.38"/>
  <path class="cls-1" d="M95.1,79.17c.19,5.3-1.98,10.06-4.1,14.61-4.89,10.48-10.47,20.64-15.5,31.06-2.89,5.98-5.08,12.26-5.71,18.96"/>
  <path class="cls-1" d="M138.4,52.52V7.43c-5.55-.29-11.1-.59-16.65-.88"/>
  <path class="cls-1" d="M47.14,5.88c3.55.22,7.1.62,10.66.64,14.21.07,28.42.03,42.63.03h3.5c3.19,6.47,3.87,13.16,3.83,19.99"/>
  <path class="cls-1" d="M4.5,83.84v55.97"/>
  <path class="cls-1" d="M5.17,155.79v34.31c6.21,0,12.43-.04,18.65.01,6.33.06,12.66.26,18.98.31,6.99.06,13.99.01,20.98.01,7.44,0,14.88-.11,22.31.02,13.44.25,26.87.68,40.3.95,3.33.07,6.66-.2,9.99-.31"/>
  <path class="cls-1" d="M49.14,94.5c1.55,6.66,3.01,13.35,4.7,19.98,1.05,4.12,2.44,8.15,3.89,12.91-5.65.63-10.79,1.19-15.92,1.76"/>
  <path class="cls-1" d="M89.1,29.87c-2.35-4.19-7.23-5.27-12.31-2.65-1.06.55-2.06,1.25-3,1.99-4.78,3.75-4.67,8.72,0,12.51,5.03,11.95,9.62,22.86,14.28,33.92,3.54-.71,6.31-1.26,8.92-1.79-.44-2.89-.84-5.45-1.23-8.02"/>
  <path class="cls-1" d="M63.12,155.13c-10.14.27-20.11-1.07-29.98-3.32-.42-.1-.89-.01-1.33-.01"/>
  <path class="cls-1" d="M136.73,135.81c.11,5.89.25,11.77.32,17.66.05,4.55.01,9.11.01,13.66"/>
  <path class="cls-1" d="M97.1,153.13c-4.66.67-9.31,1.52-13.99,1.94-3.52.31-7.1.06-10.65.06"/>
  <path class="cls-1" d="M108.42,27.87v24.65"/>
  <path class="cls-1" d="M4.5,153.13v-11.85c7.84,4.04,15.19,7.68,23.31,9.18"/>
  <path class="cls-1" d="M89.77,31.2c.45,4.87-.16,9.35-5.68,10.92-2.76.78-5.75.74-8.64,1.08"/>
  <path class="cls-1" d="M107.09,64.51c-.89,6.11-1.78,12.21-2.65,18.32-.08.54-.01,1.11-.01,1.66"/>
  <path class="cls-1" d="M43.81,14.54c-.44,6.44-.89,12.88-1.33,19.32"/>
  <path class="cls-1" d="M43.81,60.52c.67,5.11,1.36,10.21,1.98,15.33.13,1.09.02,2.22.02,3.33"/>
  <path class="cls-1" d="M97.1,111.15c-2,6-4,11.99-6,17.99"/>
  <path class="cls-1" d="M42.47,41.86c.22,5.77.44,11.55.67,17.32"/>
  <path class="cls-1" d="M90.1,37.53c1,5.44,2,10.88,3,16.32"/>
  <path class="cls-1" d="M25.15,129.14c-5.33-.22-10.66-.44-15.99-.67"/>
  <path class="cls-1" d="M136.4,131.81c-5.11-.44-10.21-.89-15.32-1.33"/>
  <path class="cls-1" d="M101.76,94.5c-1.33,5.11-2.66,10.22-4,15.32"/>
  <path class="cls-1" d="M136.4,175.12v14.66"/>
  <path class="cls-1" d="M119.08,7.21c-4.88-.11-9.77-.22-14.65-.33"/>
  <path class="cls-1" d="M23.16,170.12c-.14-2.56-.28-5.13-.42-7.69-.42-.1-.84-.19-1.26-.29-1,2.33-1.99,4.65-2.99,6.98"/>
  <path class="cls-1" d="M40.48,129.81h-13.99"/>
  <path class="cls-1" d="M86.44,168.45c-.04-.45-.07-.9-.13-1.6-2.48,3.2-2.53,4.18-.03,7.63,1.05-1.5,1.93-2.77,2.82-4.03"/>
  <path class="cls-1" d="M61.79,166.45v8.78c1.5-.23,2.61-.39,3.58-.54.41-1.24.75-2.24,1.08-3.24"/>
  <path class="cls-1" d="M4.5,70.51c-.11,3.55-.22,7.11-.33,10.66"/>
  <path class="cls-1" d="M109.09,129.14h-9.99"/>
  <path class="cls-1" d="M50.13,171.12c.66,3.46.62,6.73-2.69,8.95-.33.22-1.08-.18-1.64-.29"/>
  <path class="cls-1" d="M34.81,172.12c.27,1.07.53,2.13.8,3.2.31,0,.62-.02.93-.02.52-1.24,1.03-2.48,1.8-4.33-1.35.23-2.1.36-2.86.49"/>
  <path class="cls-1" d="M68.12,171.79c.56,3.11,1.11,6.22,1.67,9.33"/>
  <path class="cls-1" d="M69.12,145.13c-.22,3.11-.44,6.22-.67,9.33"/>
  <path class="cls-1" d="M93.77,55.18c.44,3.11.89,6.22,1.33,9.33"/>
  <path class="cls-1" d="M107.75,54.52v8.66"/>
  <path class="cls-1" d="M47.14,84.5c.44,2.89.89,5.77,1.33,8.66"/>
  <path class="cls-1" d="M119.75,129.81h-8.66"/>
  <path class="cls-1" d="M124.41,170.45c.81,1.17,1.61,2.34,2.61,3.79-1.22.27-2.58.57-3.94.88"/>
  <path class="cls-1" d="M70.45,182.45c.67,2.55,1.33,5.11,2,7.66"/>
  <path class="cls-1" d="M109.09,165.79c-.22,2.11-.48,4.22-.63,6.33-.02.32.41.66.63,1"/>
  <path class="cls-1" d="M103.76,85.83c-.44,2.22-.89,4.44-1.33,6.66"/>
  <path class="cls-1" d="M48.47,171.12c-.51,1.03-1.03,2.06-1.54,3.09.27.16.54.31.81.47l2.06-2.56"/>
  <path class="cls-1" d="M71.45,171.45c.61-.4,1.22-.81,1.82-1.21.17.24.33.49.5.73-.69.87-1.16,2.09-2.99,1.15v.33q.33,2.67,4.33,2.67"/>
  <path class="cls-1" d="M122.41,169.12c-1.06,1.29-2.13,2.57-3.19,3.86.21.32.42.63.63.95,1.3-.27,2.6-.54,3.9-.81"/>
  <path class="cls-1" d="M95.1,171.79c-.74-.5-1.49-1-2.49-1.67-.37.74-.64,1.27-.91,1.8.24.19.48.37.71.56.34-.34.68-.68,1.02-1.02"/>
  <path class="cls-1" d="M66.45,165.79v5.14c.79.25,1.23.39,1.69.53.1-.56.21-1.12.31-1.67"/>
  <path class="cls-1" d="M97.1,165.79c.11,1.67.22,3.33.33,5"/>
  <path class="cls-1" d="M32.48,173.78c-.26-.92-.52-1.83-.78-2.75-.29-.19-.59-.39-.88-.58-.33.67-.67,1.33-1,2"/>
  <path class="cls-1" d="M43.81,175.12c0-.78.19-1.63-.07-2.3-.15-.38-1.04-.47-1.59-.69"/>
  <path class="cls-1" d="M73.45,28.87c-1.9-.25-2.52.58-2,2.67"/>
  <path class="cls-1" d="M115.42,171.45c-.13.64-.27,1.28-.56,2.68,1.43-.5,2.16-.76,2.89-1.01"/>
  <path class="cls-1" d="M86.77,167.12c1.43.03,3.12-.36,3,2"/>
  <path class="cls-1" d="M112.42,165.12h-7.33"/>
  <path class="cls-1" d="M100.43,173.12c-.59-.85-1.17-1.7-2.24-3.25-.66,1.47-1.21,2.69-1.76,3.92"/>
  <path class="cls-1" d="M95.76,129.81h-3.33"/>
  <path class="cls-1" d="M23.82,172.45v3.33"/>
  <path class="cls-1" d="M17.83,170.45c-.22,1.11-.44,2.22-.67,3.33"/>
  <path class="cls-1" d="M95.43,74.51c.11,1.11.22,2.22.33,3.33"/>
  <path class="cls-1" d="M24.49,170.45h-4.66"/>
  <path class="cls-1" d="M46.47,80.5v2.67"/>
  <path class="cls-1" d="M69.12,155.79h-2.66"/>
  <path class="cls-1" d="M5.84,127.14c.67.22,1.33.44,2,.67"/>
  <path class="cls-1" d="M63.79,169.79h-4.66"/>
  <path class="cls-1" d="M111.09,169.12c.11.78.22,1.55.33,2.33"/>
  <path class="cls-1" d="M29.48,171.45c-2.65-1.09-2.3.81-2.33,2.33"/>
  <path class="cls-1" d="M119.41,171.12c-.78-.45-1.55-.89-2.45-1.41-.27.22-.59.47-.9.71.03.14.06.28.09.42.53-.13,1.06-.26,1.59-.39"/>
  <path class="cls-1" d="M41.14,171.79v2.67"/>
  <path class="cls-1" d="M113.08,170.45c-.33.11-.67.22-1,.33"/>
  <path class="cls-1" d="M115.42,170.12c-.33-.11-.67-.22-1-.33"/>
  <path class="cls-1" d="M100.43,169.79c-.33.11-.67.22-1,.33"/>
</svg>