<?xml version="1.0" encoding="UTF-8"?>
<svg id="Layer_1" data-name="Layer 1" xmlns="http://www.w3.org/2000/svg" viewBox="0 0 144 198">
  <defs>
    <style>
      .cls-1 {
        fill: none;
        stroke: #000;
        stroke-linecap: round;
        stroke-linejoin: round;
        stroke-width: 2px;
      }
    </style>
  </defs>
  <path class="cls-1" d="M138.73,54.04c-.22,37.76-.44,75.51-.67,113.27"/>
  <path class="cls-1" d="M46.47,42.38c2.66-.78,5.28-1.83,8-2.28,5.89-.97,10.52,1.73,14.65,5.6,2.07,1.93,4.07,3.97,6.35,5.63,3.15,2.28,6.61,3.77,10.63,2.05,7.36-3.14,13.44-.7,18.99,4.31,5.64,5.08,9,11.45,10.99,18.67.87,3.15,2.4,6.06,5.34,7.61,5.93,3.13,7.34,7.4,4.95,15.04-2,6.36-4.58,12.57-6.21,19.02-2.4,9.48-9.15,13.71-17.75,15.93-6.31,1.63-12.69,2.98-19.31,2.75-2.54-.09-5.11.39-7.66.62"/>
  <path class="cls-1" d="M24.82,6.73c-6.55-.31-13.09-.62-19.98-.95v63.58"/>
  <path class="cls-1" d="M139.4,50.71V7.65c-11.77-.3-23.54-.61-35.3-.91"/>
  <path class="cls-1" d="M101.43,7.4c-11.1-.22-22.2-.46-33.31-.66-13.54-.24-27.09-.45-40.63-.67"/>
  <path class="cls-1" d="M5.5,84.69v69.29"/>
  <path class="cls-1" d="M45.47,79.36v-36.48c-5.62,2.52-10.79,6.16-14.35,11.8-.57.91-1.45,1.67-2.31,2.33-9.38,7.17-13.28,17.46-15.88,28.35-.82,3.41-.96,7.12-.65,10.63.41,4.57,2.67,8.46,6.91,10.62,3.06,1.56,4,3.77,3.68,7.05-.56,5.79,3.16,9.5,7.36,12.21,6.23,4.03,12.81,7.73,20.26,9.03,4.26.74,8.65.74,12.98,1.07"/>
  <path class="cls-1" d="M30.15,190.63c12.66,0,25.31-.08,37.97.02,16.65.14,33.31.43,49.96.64,2.44.03,4.88,0,7.33,0"/>
  <path class="cls-1" d="M6.17,155.98v33.98h22.65"/>
  <path class="cls-1" d="M74.78,139.33c-.11,2.67-.45,5.34-.29,7.99.43,7.03.33,14.13,2.29,20.99.22.77.5,1.52.86,2.6-1.39.68-2.73,1.34-3.86,1.89h-10.36c.72-4.79,1.38-9.14,2.03-13.49"/>
  <path class="cls-1" d="M40.14,60.7v25.99"/>
  <path class="cls-1" d="M106.76,152.65h-24.65"/>
  <path class="cls-1" d="M137.4,173.31v18.41c-1.77.1-3.22.17-4.66.25"/>
  <path class="cls-1" d="M35.48,78.69c.11,7.11.22,14.21.33,21.32"/>
  <path class="cls-1" d="M26.15,155.98c-6.92.82-13.63,2.41-19.98,5.33"/>
  <path class="cls-1" d="M69.45,84.69v20.65"/>
  <path class="cls-1" d="M45.47,153.98c-5.77.44-11.55.89-17.32,1.33"/>
  <path class="cls-1" d="M67.45,60.37v16.99"/>
  <path class="cls-1" d="M62.12,153.32h-15.32"/>
  <path class="cls-1" d="M57.46,124h-3.33v9.99"/>
  <path class="cls-1" d="M30.15,86.02v11.99"/>
  <path class="cls-1" d="M75.45,188.63h-11.99"/>
  <path class="cls-1" d="M62.12,187.97h-11.32"/>
  <path class="cls-1" d="M104.76,75.36v11.33"/>
  <path class="cls-1" d="M68.79,57.37c-1.55.9-1.85,2.37-.65,2.53,2.08.29,1.3,1.59,1.27,2.46-.11,3-.4,6-.62,9"/>
  <path class="cls-1" d="M105.42,62.7v10.66"/>
  <path class="cls-1" d="M68.12,91.35v13.99"/>
  <path class="cls-1" d="M106.76,121.34c.11,3.55.22,7.11.33,10.66"/>
  <path class="cls-1" d="M72.12,122h-10.66"/>
  <path class="cls-1" d="M68.12,132.66c-.33,3.78-.73,7.55-.94,11.33-.04.76.61,1.55.94,2.33"/>
  <path class="cls-1" d="M89.44,125.33v9.99"/>
  <path class="cls-1" d="M5.5,71.36c-.22,3.33-.44,6.66-.67,9.99"/>
  <path class="cls-1" d="M30.82,71.36v9.99"/>
  <path class="cls-1" d="M97.43,53.38v9.33"/>
  <path class="cls-1" d="M26.82,98.02c1.65,1.35,3.3,2.7,5.47,4.47,1.44-1,2.98-2.07,4.52-3.14"/>
  <path class="cls-1" d="M72.12,130.66v8.66"/>
  <path class="cls-1" d="M81.44,123.34v8.66"/>
  <path class="cls-1" d="M31.15,55.37c.11,2.89.22,5.77.33,8.66"/>
  <path class="cls-1" d="M122.74,154.65c-2.89-.22-5.77-.44-8.66-.67"/>
  <path class="cls-1" d="M97.43,122v7.33"/>
  <path class="cls-1" d="M71.45,112.01c-2.22-.22-4.44-.44-6.66-.67"/>
  <path class="cls-1" d="M73.45,132c.33,2.22.67,4.44,1,6.66"/>
  <path class="cls-1" d="M46.14,86.69v-6h6.66"/>
  <path class="cls-1" d="M79.44,124h-6"/>
  <path class="cls-1" d="M61.46,129.33v6"/>
  <path class="cls-1" d="M75.45,80.69h-6"/>
  <path class="cls-1" d="M40.14,48.71c-.22,2-.44,4-.67,6"/>
  <path class="cls-1" d="M67.12,146.66c-.11,1.78-.22,3.55-.33,5.33"/>
  <path class="cls-1" d="M80.78,153.32c-1.78.11-3.55.22-5.33.33"/>
  <path class="cls-1" d="M23.49,111.34c1.78.89,3.55,1.78,5.33,2.67"/>
  <path class="cls-1" d="M102.76,98.02h6.66"/>
  <path class="cls-1" d="M35.48,123.34v5"/>
  <path class="cls-1" d="M59.46,121.34h-4.66"/>
  <path class="cls-1" d="M26.82,117.67c-.11,1.55-.22,3.11-.33,4.66"/>
  <path class="cls-1" d="M46.8,90.02v4.66"/>
  <path class="cls-1" d="M131.4,191.3c-1.55.22-3.11.44-4.66.67"/>
  <path class="cls-1" d="M114.75,109.34c-1.55.89-3.11,1.78-4.66,2.67"/>
  <path class="cls-1" d="M112.75,153.32h-4.66"/>
  <path class="cls-1" d="M128.74,155.32h-4.66"/>
  <path class="cls-1" d="M63.46,103.35c-1.51.92-2.83,1.96-2.66,4"/>
  <path class="cls-1" d="M135.4,157.32c-.75-2.18-2.61-1.05-4-1.33"/>
  <path class="cls-1" d="M80.78,189.3h-4"/>
  <path class="cls-1" d="M95.43,98.02c1.33.44,2.66.89,4,1.33"/>
  <path class="cls-1" d="M76.11,108.68c-1.11.89-2.22,1.78-3.33,2.67"/>
  <path class="cls-1" d="M66.12,153.98v4"/>
  <path class="cls-1" d="M88.1,76.03c-.11,1.33-.22,2.67-.33,4"/>
  <path class="cls-1" d="M78.11,121.34h-4"/>
  <path class="cls-1" d="M70.12,102.68c1.33.44,2.66.89,4,1.33"/>
  <path class="cls-1" d="M35.48,50.38c.11,1.22.22,2.44.33,3.66"/>
  <path class="cls-1" d="M107.42,113.34c-1.11.44-2.22.89-3.33,1.33"/>
  <path class="cls-1" d="M87.44,84.02v3.33"/>
  <path class="cls-1" d="M110.75,115.34c-1,.56-2,1.11-3,1.67"/>
  <path class="cls-1" d="M24.16,115.34c1.78.89,3.55,1.78,5.33,2.67"/>
  <path class="cls-1" d="M67.45,135.66c-.89-.11-1.78-.22-2.66-.33"/>
  <path class="cls-1" d="M66.79,54.04c-.22.89-.44,1.78-.67,2.67"/>
  <path class="cls-1" d="M85.44,123.34h-2.66"/>
  <path class="cls-1" d="M52.13,123.34h-2.66"/>
  <path class="cls-1" d="M83.44,120.67h-2.66"/>
  <path class="cls-1" d="M52.8,120.67h-2.66"/>
  <path class="cls-1" d="M116.75,110.68c-.89.89-1.78,1.78-2.66,2.67"/>
  <path class="cls-1" d="M42.81,98.68c-.89-.44-1.78-.89-2.66-1.33"/>
  <path class="cls-1" d="M86.77,88.69v2.67"/>
  <path class="cls-1" d="M104.09,95.35v2.33"/>
  <path class="cls-1" d="M70.12,56.04l-1,4"/>
  <path class="cls-1" d="M43.47,122.67c-.67-.22-1.33-.44-2-.67"/>
  <path class="cls-1" d="M106.76,117.34c.22.67.44,1.33.67,2"/>
  <path class="cls-1" d="M61.46,108.68l2,2"/>
  <path class="cls-1" d="M100.76,116.01c-.67.22-1.33.44-2,.67"/>
  <path class="cls-1" d="M32.82,119.34c-.67-.22-1.33-.44-2-.67"/>
  <path class="cls-1" d="M104.09,118.67c-.67.22-1.33.44-2,.67"/>
  <path class="cls-1" d="M46.14,97.35l-2,2"/>
  <path class="cls-1" d="M92.77,94.69c.44.67.89,1.33,1.33,2"/>
  <path class="cls-1" d="M86.11,93.35v3.33"/>
  <path class="cls-1" d="M88.1,94.02c-.44.44-.89.89-1.33,1.33"/>
  <path class="cls-1" d="M69.45,54.04c-.44-.22-.89-.44-1.33-.67"/>
</svg>