<?xml version="1.0" encoding="UTF-8"?>
<svg id="Layer_1" data-name="Layer 1" xmlns="http://www.w3.org/2000/svg" viewBox="0 0 144 198">
  <defs>
    <style>
      .cls-1 {
        fill: none;
        stroke: #000;
        stroke-linecap: round;
        stroke-linejoin: round;
        stroke-width: 2px;
      }
    </style>
  </defs>
  <path class="cls-1" d="M138.31,94.77V7.79c-10.88-.31-22.43-.64-33.97-.97"/>
  <path class="cls-1" d="M27.74,6.16c3.33.22,6.66.62,9.99.64,16.99.07,33.97-.01,50.96.06,4.33.02,8.66.41,12.99.64"/>
  <path class="cls-1" d="M5.09,84.78v69.29"/>
  <path class="cls-1" d="M137.65,101.43v65.3"/>
  <path class="cls-1" d="M74.37,190.72H23.07"/>
  <path class="cls-1" d="M5.75,156.07v33.98h15.99"/>
  <path class="cls-1" d="M9.08,30.81c-1.7.58-3.41,1.15-4.66,1.58v49.72"/>
  <path class="cls-1" d="M25.74,6.82c-6.99-.29-13.98-.58-20.98-.87v26.19"/>
  <path class="cls-1" d="M136.98,161.07c-5.07-2.41-10.41-3.46-15.98-2.97-2.9.26-5.98.35-8.62,1.4-5.59,2.22-11.12.79-16.7.59-1.88-.07-3.85-.1-5.64.38-2.09.56-4.02,1.7-6.02,2.59"/>
  <path class="cls-1" d="M59.38,35.47c.94-.75,1.87-1.5,2.93-2.35,1.14.68,2.07,1.24,3.23,1.94v3.58c-3.02-1.42-5.6-2.62-8.16-3.85-.8-.39-1.54-.92-2.34-1.32-3.69-1.8-7.39-3.16-11.66-2.04-5.13,1.34-10.23,1.03-15.32-.6-5.78-1.84-11.71-1.8-17.64-.7"/>
  <path class="cls-1" d="M75.7,191.38h43.3"/>
  <path class="cls-1" d="M70.37,80.78c1.11-.44,2.34-.71,3.31-1.36,4.73-3.19,5.36-8.4,1.69-13.3q-2.65,1.51-1.51,5.18c.39-1.28.78-2.57,1.17-3.85"/>
  <path class="cls-1" d="M110.67,23.15c0,.33.06.95,0,.96-3.54.71-7.08,1.54-10.66,1.98-2.41.3-4.88.06-7.32.06"/>
  <path class="cls-1" d="M30.4,147.74c-1.18-.84-2.35-1.68-3.5-2.5-3.35,3.47-3.47,4.22-1.49,8.5,4.9.66,7.84-2.59,6.23-7.28-.37.52-.63.9-.9,1.29"/>
  <path class="cls-1" d="M103.67,107.43c-2.28.88-3.51,2.47-3.34,5,1.24.41,2.47.82,3.66,1.22.36,3.59-.68,4.77-4.99,5.77"/>
  <path class="cls-1" d="M136.98,173.39v17.32"/>
  <path class="cls-1" d="M40.39,75.45c-1.08-5.62-1.69-11.4-5.62-16.48-4.52,2.97-5.01,7.44-5.7,11.82"/>
  <path class="cls-1" d="M136.98,192.05c-5.11-.11-10.21-.23-15.32-.32-.44,0-.89.21-1.33.32"/>
  <path class="cls-1" d="M73.7,120.09c-2.16-4-1.38-8.17-.88-12.8-.77.25-1.61.53-2.45.8"/>
  <path class="cls-1" d="M69.37,153.07c-6.59,1.4-13.25,2.04-19.98,1.67"/>
  <path class="cls-1" d="M111.34,24.48c1.5.42,2.99.85,4.23,1.2.95-1.89,1.6-3.17,2.21-4.4-1-1.66-1.91-3.16-3.02-4.99-1.67,1.21-3.05,2.2-4.42,3.19"/>
  <path class="cls-1" d="M25.07,115.43c.44,1.11.6,2.57,1.4,3.25,1.17.99,2.92,2.12,4.24,1.92,2.09-.31,3.33-2.11,3.02-4.5"/>
  <path class="cls-1" d="M92.68,159.4c-4.22-1.67-8.44-3.33-12.66-5"/>
  <path class="cls-1" d="M61.38,25.81c-4.22,1.67-8.44,3.33-12.66,5"/>
  <path class="cls-1" d="M55.71,155.4c-3.49,3.84-5.99,8.66-10.99,10.99"/>
  <path class="cls-1" d="M85.69,26.81c4.19,6.04,9.07,11.32,16.45,14.25.53-.07,1.53-.21,3.18-.43-.62-2.2-1.23-4.41-1.93-6.89-1.1.62-1.74.98-2.54,1.43-.27-.54-.55-1.11-1.15-2.3-1.01,1.86-1.85,3.4-2.69,4.94"/>
  <path class="cls-1" d="M47.72,150.74v-4.01c-.32-.07-.64-.14-.96-.21-1.17,1.76-2.34,3.52-3.52,5.28-.3-.11-.6-.23-.89-.34.13.87.25,1.74.38,2.62"/>
  <path class="cls-1" d="M41.39,113.76c-.64-.13-1.28-.27-2.2-.46-.35,2.07-.62,3.7-.89,5.33.41.14.82.27,1.22.41.89-1.51,1.78-3.01,2.67-4.53,1.08.69,2.3,1.46,3.53,2.24"/>
  <path class="cls-1" d="M78.03,155.07c-1.21.19-2.42.37-3.97.61-1.92,3.05,1.7,3.47,2.97,5.05.89-.89,1.78-1.78,2.67-2.67"/>
  <path class="cls-1" d="M49.39,26.48c-.41-.85-.82-1.69-1.04-2.14-1.77.65-3.02,1.11-4.81,1.77,1.48,1.15,2.78,2.16,4.15,3.23.63-.94,1.16-1.74,1.7-2.53"/>
  <path class="cls-1" d="M30.73,152.74c4.35,1.27,8.67,2.55,13.33,1.72,1.49-.26,3.1.16,4.65.27"/>
  <path class="cls-1" d="M58.71,66.79q-2.05.62-2.37,3.73c1,.1,2,.21,2.94.3.38-1.16.64-1.96.9-2.76.26-.17.53-.35.79-.52-.64-.36-1.28-.72-1.92-1.08"/>
  <path class="cls-1" d="M33.73,114.09c.23-2.11-.27-4.05-2.04-5.27-.73-.5-2.09-.64-2.92-.32-1.53.58-1.41,1.79-.36,2.92"/>
  <path class="cls-1" d="M75.03,22.48c-3.89.89-7.77,1.78-11.66,2.67"/>
  <path class="cls-1" d="M92.68,153.41c-1.67,1.65-.1,2.76.73,4.4,1.4-.93,2.65-1.77,3.91-2.61-.08-.29-.16-.58-.24-.88-.8-.08-1.6-.17-2.4-.25"/>
  <path class="cls-1" d="M63.37,26.48c.56.22,1.1.57,1.67.64.87.11,1.77.03,2.66.03l.39.99c-1.15,1.41-2.3,2.82-3.34,4.1-1.8-.54-1.62-3.53-4.04-2.42"/>
  <path class="cls-1" d="M100.34,90.77c-1.76.31-3.52.63-5.44.97-.77-1.03-1.44-1.92-2.44-3.25,2.24-1.5,4.24-2.83,6.24-4.17-2.92-1.41-4.02.27-5.02,2.13"/>
  <path class="cls-1" d="M81.03,151.41c-.62,1.03-1.24,2.05-1.69,2.79-3.94-.86-7.62-1.66-11.3-2.46"/>
  <path class="cls-1" d="M51.72,71.45l-.94-4.68-.75-.32-2.31,5.01"/>
  <path class="cls-1" d="M79.69,80.78q0,11.6,2.02,13.7c.68-.82,1.33-1.59,1.97-2.37"/>
  <path class="cls-1" d="M47.39,69.79c-.21-.56-.42-1.12-.66-1.77-3.8,1.07-2.9,4.14-3.01,6.77"/>
  <path class="cls-1" d="M86.36,79.45v11.33"/>
  <path class="cls-1" d="M30.4,67.45h7.66"/>
  <path class="cls-1" d="M44.06,165.73c-.7-1.26-1.4-2.53-2.29-4.12-.59.94-.97,1.54-1.34,2.13-.57-.38-1.11-.73-1.65-1.09.26.3.53.59.79.89-.8,1.09-1.59,2.19-2.39,3.28-.44-.49-.88-.98-1.32-1.47.21,1.08.42,2.15.62,3.23-.27.13-.54.26-.81.38,1.12.28,2.24.56,3.45.86,1.64-.92,3.29-1.84,4.94-2.76"/>
  <path class="cls-1" d="M66.04,150.41c.27-.8.53-1.6.8-2.4.22.01.45.02.67.04.07,1.11.15,2.22.19,2.94-2.58.16-4.78.3-7.19.45-.06-1.25-.11-2.14-.15-3.08,1.6.79,3.93-1.25,5.01,1.38"/>
  <path class="cls-1" d="M47.72,107.43c.22,3.11.44,6.22.67,9.33"/>
  <path class="cls-1" d="M67.7,71.45c-.6-1.8-1.2-3.6-1.89-5.66-.75.56-1.26.95-1.78,1.33"/>
  <path class="cls-1" d="M110,18.48c-.62.32-1.24.65-2.11,1.11.73,1.31,1.25,2.27,1.79,3.22.03.05.28.05.31,0,.14-.2.23-.44.34-.66"/>
  <path class="cls-1" d="M80.36,26.14h11.66"/>
  <path class="cls-1" d="M81.36,163.07c-2.36-2.18-4.3-.35-6.33,1.02.23.68.58,1.68,1.02,2.96,2.07-1,4.03-1.95,5.65-2.73v-1.24c.44-.44.56-.56.67-.67.44,1.22.89,2.44,1.33,3.66"/>
  <path class="cls-1" d="M48.39,149.41c.11,1.78.22,3.55.33,5.33"/>
  <path class="cls-1" d="M50.72,112.43c1.44,1.22,2.89,2.44,4.33,3.66"/>
  <path class="cls-1" d="M85.69,110.1c-.67,1.22-1.81,2.41-1.9,3.67-.21,2.99.68,3.41,3.9,2.33"/>
  <path class="cls-1" d="M81.69,165.07c-.39,2.2-1.64,2.8-3.66,2"/>
  <path class="cls-1" d="M59.71,36.47c.48,2.18,1.56,3.05,3.66,1.67"/>
  <path class="cls-1" d="M77.7,106.1c-1.44.33-2.89.67-4.33,1"/>
  <path class="cls-1" d="M78.03,114.09c1.44-.44,2.89-.89,4.33-1.33"/>
  <path class="cls-1" d="M25.07,110.1c-.22,1.33-.44,2.67-.67,4"/>
  <path class="cls-1" d="M87.02,110.76c-1,1.11-2,2.22-3,3.33"/>
  <path class="cls-1" d="M77.7,22.48c-2.59.65-2.25-1.97-3.49-3.35-.46.93-.82,1.64-1.18,2.35"/>
  <path class="cls-1" d="M81.03,21.15c-1,.67-2,1.33-3,2"/>
  <path class="cls-1" d="M83.69,86.78c-1.22.22-2.44.44-3.66.67"/>
  <path class="cls-1" d="M87.02,87.44h1.81c.27.63.56,1.31.85,2"/>
  <path class="cls-1" d="M28.4,72.78v3.33"/>
  <path class="cls-1" d="M60.38,22.81c.78,1,1.55,2,2.33,3"/>
  <path class="cls-1" d="M63.04,65.46v5.33"/>
  <path class="cls-1" d="M53.05,110.1c-1.22,1.22-2.44,2.44-3.66,3.66"/>
  <path class="cls-1" d="M75.03,24.81h-2.66"/>
  <path class="cls-1" d="M79.03,25.48h-2.66"/>
  <path class="cls-1" d="M60.71,149.74c.89.22,1.78.44,2.66.67"/>
  <path class="cls-1" d="M38.73,170.06c-.78.22-1.55.44-2.33.67"/>
  <path class="cls-1" d="M79.36,87.44h-2.33"/>
  <path class="cls-1" d="M83.69,20.15c-.66.24-1.32.47-1.98.71,0-.15.02-.3.03-.45-.79-.09-1.58-.17-2.38-.26"/>
  <path class="cls-1" d="M105.01,42.14c-.78-.11-1.55-.22-2.33-.33"/>
  <path class="cls-1" d="M77.7,112.76c-.11,1.33-.22,2.67-.33,4"/>
  <path class="cls-1" d="M60.04,149.41c-.78-.22-1.55-.44-2.33-.67"/>
  <path class="cls-1" d="M94.35,153.74c-.08-.34-.15-.68-.23-1.02-.24.1-.47.2-.71.3.2.35.4.7.6,1.05"/>
  <path class="cls-1" d="M61.71,28.14c-.56.78-1.11,1.55-1.67,2.33"/>
  <path class="cls-1" d="M88.35,113.43c.56.22,1.11.44,1.67.67"/>
  <path class="cls-1" d="M59.38,34.47h-1.33"/>
  <path class="cls-1" d="M107.01,41.47c-.22.22-.44.44-.67.67"/>
  <path class="cls-1" d="M79.69,156.74c.65.35,1.29.71,1.94,1.06-.32.3-.65.59-.97.89-.21-.32-.42-.64-.64-.95"/>
  <path class="cls-1" d="M80.36,20.81c-.33.22-.67.44-1,.67"/>
</svg>