<?xml version="1.0" encoding="UTF-8"?>
<svg id="Layer_1" data-name="Layer 1" xmlns="http://www.w3.org/2000/svg" viewBox="0 0 144 198">
  <defs>
    <style>
      .cls-1 {
        fill: none;
        stroke: #000;
        stroke-linecap: round;
        stroke-linejoin: round;
        stroke-width: 2px;
      }
    </style>
  </defs>
  <path class="cls-1" d="M138.61,56.36c-.22,36.42-.44,72.85-.67,109.27"/>
  <path class="cls-1" d="M119.96,62.35c-1.56-7.07-5.09-11.84-11.97-15.68-1.89,1.79-4.02,3.67-6.01,5.7-8.23,8.44-12.56,19.18-17.31,29.65-5.05,11.12-8.69,22.72-11.37,34.63-.73,3.26-1.78,6.44-2.63,9.67-1.08,4.06-4.26,6.32-7.37,8.62-.43.32-1.3.04-1.97.04"/>
  <path class="cls-1" d="M25.37,5.05c-6.77-.3-13.54-.6-20.65-.91v62.87"/>
  <path class="cls-1" d="M139.28,50.36V5.72c-4.77,0-9.55.08-14.32-.02-6.77-.14-13.55-.42-20.32-.65"/>
  <path class="cls-1" d="M101.98,5.72c-21.54-.22-43.08-.42-64.61-.69-3.11-.04-6.22-.42-9.33-.64"/>
  <path class="cls-1" d="M119.3,189.62c-11.77,0-23.54.07-35.3-.03-5.44-.05-10.88-.55-16.32-.61-9.99-.1-19.98-.03-29.98-.03h-14.32"/>
  <path class="cls-1" d="M60.01,135.65c-5.55-.44-11.1-.94-16.66-1.3-1.63-.1-3.09,0-4.75,1.18-4.53,3.23-9.57,5.73-14.2,8.84-2.91,1.96-5.42,4.5-8.24,6.89,3.23,5.29,7.93,5.04,12.53,5.04"/>
  <path class="cls-1" d="M5.39,82.34v55.97"/>
  <path class="cls-1" d="M93.32,115.66c-.1,7.16-2.64,13.74-5.05,20.3-2.2,5.98-5.02,11.71-9.6,16.35-2.61,2.65-5.36,5.05-9.33,5.33"/>
  <path class="cls-1" d="M6.05,154.3v33.98h15.99"/>
  <path class="cls-1" d="M109.97,124.32c0,3.22-.07,6.44.01,9.66.18,7.11.42,14.21.68,21.32.01.34.42.67.64,1"/>
  <path class="cls-1" d="M120.63,63.69c-.27,7.52-2.32,14.42-6.6,20.7-1.09,1.6-1.41,3.73-2.06,5.62-.26.76-.45,1.55-.67,2.33"/>
  <path class="cls-1" d="M111.3,93.67v23.32"/>
  <path class="cls-1" d="M108.64,102.33c.22,6.66.44,13.33.67,19.99"/>
  <path class="cls-1" d="M137.28,173.62v15.32"/>
  <path class="cls-1" d="M113.3,142.31c.22,4.11.47,8.22.63,12.33.02.55-.41,1.11-.63,1.66"/>
  <path class="cls-1" d="M18.04,19.05c0,1.55-.33,3.2.07,4.65.9,3.26,2.95,3.73,5.23,1.32.65-.69.92-1.75,1.36-2.63"/>
  <path class="cls-1" d="M67.34,158.3h-13.99"/>
  <path class="cls-1" d="M38.69,62.35c-1.18-.84-2.36-1.68-3.6-2.57-.31,1.26-.57,2.27-.95,3.8-1.35-1.57-2.38-2.76-3.91-4.53-.72,1.43-1.27,2.54-1.83,3.65.26.18.53.36.79.54.61-.41,1.23-.82,1.84-1.23"/>
  <path class="cls-1" d="M96.65,96.34c-.67,4.44-1.33,8.88-2,13.33"/>
  <path class="cls-1" d="M103.97,84.34c-5.21,1.68-5.89,6.2-6.66,10.66"/>
  <path class="cls-1" d="M41.36,156.97h-11.32"/>
  <path class="cls-1" d="M112.63,128.98v11.33"/>
  <path class="cls-1" d="M5.39,69.02c-.11,3.55-.22,7.11-.33,10.66"/>
  <path class="cls-1" d="M6.05,140.98c-.22,3.55-.44,7.11-.67,10.66"/>
  <path class="cls-1" d="M137.28,190.28h-10.66"/>
  <path class="cls-1" d="M46.02,22.38c.24-.49.49-.98.75-1.5,2.86,1.95,3.31,3.58,1.91,6.17-1.1,2.03-2.56,2.81-4.66,1.33"/>
  <path class="cls-1" d="M111.97,118.32v9.33"/>
  <path class="cls-1" d="M25.37,21.04c-.37-1.49-.75-2.98-1.33-5.3-2.15.8-3.74,1.38-5.33,1.97"/>
  <path class="cls-1" d="M52.02,157.63h-9.33"/>
  <path class="cls-1" d="M105.31,85.01c3.12,2.58,1.67,6.15,2,9.33"/>
  <path class="cls-1" d="M70.67,62.35c.91-.39,1.82-.78,3.23-1.38-1.37-.7-2.31-1.18-3.26-1.66-.04-.19-.07-.37-.11-.56.94-.13,1.87-.27,2.81-.4"/>
  <path class="cls-1" d="M58.34,42.03c.89.22,1.98.88,2.62.57,1.22-.57,1.64-1.75.19-3.09-.7.61-1.42,1.23-2.14,1.85"/>
  <path class="cls-1" d="M50.02,35.04c.55,3.33-1.31,7.07,1.8,10.61,1.22-2.09,2.21-3.78,3.19-5.47.24.03.48.07.71.1.32,1.59.63,3.17.95,4.76"/>
  <path class="cls-1" d="M65.67,61.02c1.07-.54,2.14-1.07,3.64-1.82q-2.69-.76-3.97,1.49"/>
  <path class="cls-1" d="M61.34,60.36c.75-.37,1.51-.75,2.26-1.12-.28-.37-.56-.75-.84-1.12-.58.75-1.27,1.44-1.73,2.25-1.03,1.8.17,2.34,1.65,2.65"/>
  <path class="cls-1" d="M107.97,95.67v5.33"/>
  <path class="cls-1" d="M30.37,22.04c-.66-.07-1.32-.14-1.97-.21-.14,1.21-.25,2.21-.36,3.21"/>
  <path class="cls-1" d="M59.34,59.02c-2.58-.24-2.87,1.34-2.66,3.33"/>
  <path class="cls-1" d="M125.29,189.62c-1.55.22-3.11.44-4.66.67"/>
  <path class="cls-1" d="M58.68,43.37c.29,3.08,1.93,1.63,3.33,1"/>
  <path class="cls-1" d="M44.02,24.38c-.6-.96-.1-3.01-2.33-2.33"/>
  <path class="cls-1" d="M52.68,38.7c-2.22.11-4.44.22-6.66.33"/>
  <path class="cls-1" d="M53.35,59.69v3.33"/>
  <path class="cls-1" d="M34.03,23.71c-.45-1.01-.4-2.72-2.33-1.67"/>
  <path class="cls-1" d="M93.98,110.99v3.33"/>
  <path class="cls-1" d="M48.35,22.38c-.98,2.09-1.17,2.2-2.33,1.33"/>
  <path class="cls-1" d="M53.35,35.7c.11,1.89.22,3.78.33,5.66"/>
  <path class="cls-1" d="M52.68,55.69v2.67"/>
  <path class="cls-1" d="M55.35,55.03h-5.33"/>
  <path class="cls-1" d="M38.03,57.69c-.78.56-1.55,1.11-2.33,1.67"/>
  <path class="cls-1" d="M40.69,21.71v3.33"/>
  <path class="cls-1" d="M23.71,55.03c-3.39,2.48-3.71,3.45-2.33,7,3.37.46,5.41-.45,6-2.67.46-1.75-.97-3.6-3.33-4.33"/>
  <path class="cls-1" d="M37.03,21.38q2.06,1.82,0,3.66-1-1.57-.33-3.33"/>
</svg>