<?xml version="1.0" encoding="UTF-8"?>
<svg id="Layer_1" data-name="Layer 1" xmlns="http://www.w3.org/2000/svg" viewBox="0 0 144 198">
  <defs>
    <style>
      .cls-1 {
        fill: none;
        stroke: #000;
        stroke-linecap: round;
        stroke-linejoin: round;
        stroke-width: 2px;
      }
    </style>
  </defs>
  <path class="cls-1" d="M137.95,64.93c-.56-2-.81-4.15-1.74-5.96-1.27-2.48-2.64-5.15-4.67-6.94-5.23-4.62-7.58-10.44-9-17.06-1.27-5.93-4.39-10.92-9.92-13.98-.99-.55-2.22-1.03-3.31-.97-4.12.22-7.57-1.4-11.01-3.36-2.58-1.47-5.22-2.95-7.99-3.98-10.32-3.82-18.66.06-23.92,7-7.89-2.95-16.22-5.7-23.97.35-5.17,4.04-8.97,9.28-10.38,15.92"/>
  <path class="cls-1" d="M6.05,126.56v63.42c6.54.19,12.76.46,18.98.52,9.77.09,19.54-.06,29.31.04,15.21.15,30.42.43,45.63.64,2.22.03,4.44,0,6.66,0"/>
  <path class="cls-1" d="M53.02,52.27c.23,3.05.46,6.11.69,9.25.6.27,1.26.57,2.11.95.21-.61.48-1.07.52-1.54.36-5.33.51-10.68,1.11-15.98.22-1.95,1.37-3.83,2.26-5.66,1.54-3.16,1.07-6.41-1.35-8.34-1.58-1.26-6.13-.76-7.98,1.01-4.26,4.06-6.67,9.22-8.69,14.64-1.96,5.25-5.02,7.3-10.64,7.33-.56,0-1.11,0-2.28,0-1.48,1.89-3.19,4.07-4.9,6.26.17.25.33.49.5.74,4.23,0,8.45-.03,12.68,0,6.99.07,8.71-5.44,10.98-10.34,1.5-3.24,2.91-6.53,4.48-10.07,2.71,3.93.73,7.73.85,11.4"/>
  <path class="cls-1" d="M135.95,93.91c.25,3.2-.47,6.12-1.93,9.03-1.72,3.41-2.65,7.24-4.49,10.58-1.55,2.8-3.63,5.46-5.99,7.62-1.99,1.83-3.74,3.48-5.03,6.03-2.97,5.87-8.45,8.89-14.55,10.69-5.79,1.71-11.35,3.84-16.31,7.36-.45.32-1.06.57-1.31,1.01-2.81,5.07-7.54,4.86-12.35,4.69-1.54-.05-3.12.34-4.65.69-.23.05-.24,1.04-.35,1.6"/>
  <path class="cls-1" d="M139.28,21.95V6.96h-53.29"/>
  <path class="cls-1" d="M137.95,98.58v66.63"/>
  <path class="cls-1" d="M23.37,131.22c.4,6.24,4.31,10.83,8.97,9.57,2.58-.7,5.14-2.04,7.31-3.63,6.44-4.73,10.49-10.73,9.39-19.27-.85-6.64-5.82-9.28-11.03-11.62-3.88-1.74-7.82-.71-10.2,2.38-5.01,6.51-6.54,14.1-4.77,22.23"/>
  <path class="cls-1" d="M64.01,6.63H8.72"/>
  <path class="cls-1" d="M5.39,42.61v68.63"/>
  <path class="cls-1" d="M138.61,26.62v65.3"/>
  <path class="cls-1" d="M31.37,44.61v2.47c-2.55.18-5.17.04-7.65.59-6.05,1.35-9.4,6.13-12.23,10.99-2.21,3.79-3.44,8.15-5.1,12.26"/>
  <path class="cls-1" d="M125.96,162.54c-3.28-.98-4.15-.57-6.61,3.46,1.65,1.42,3.37,2.89,5.08,4.36-3.05,4.19-7.52,5-11.12,2.18-4.7.88-7.28.06-8.33-2.67-.85-2.22,1.49-6.69,4.34-7.97,1.86-.83,3.58-.76,4.38,1.48-1.47,3.7-3.58,4.67-8.06,3.83"/>
  <path class="cls-1" d="M66,149.88c-3.2-.63-6.11-1.46-8.43-4.24-1.85-2.22-4.84-2.98-7.89-3.12-4.06-.19-8.03-.98-11.66-2.96"/>
  <path class="cls-1" d="M74.66,151.55c-.78,5.55-1.55,11.11-2.33,16.66-.33,2.33-.64,4.67-1.02,6.99-.11.68-.43,1.34-.65,2"/>
  <path class="cls-1" d="M104.31,51.27c1.29,4.88,1.11,9.65-1.7,13.97-2.43,3.75-5.44,4.29-9.29,2.02"/>
  <path class="cls-1" d="M137.28,191.86h-23.31"/>
  <path class="cls-1" d="M70,152.21c-1.95,3.67-.64,7.54-.64,11.33,0,3.89.2,7.77.31,11.66"/>
  <path class="cls-1" d="M6.72,6.63h-2v20.65"/>
  <path class="cls-1" d="M90.65,167.2c3.47.72,6.66.46,9.06-2.45-1.04-2.83-3.28-2.86-5.39-2.48-1.96.35-4.73,4.62-4.63,6.93.08,1.88.95,3.57,2.97,3.94,1.5.28,3.1.06,4.65.06"/>
  <path class="cls-1" d="M137.28,171.2v19.32"/>
  <path class="cls-1" d="M83.99,7.29c-6.22-.22-12.43-.44-18.65-.67"/>
  <path class="cls-1" d="M8.72,119.9c.86,4.73,2.98,8.2,8.32,8.69,1.68.15,3.33.64,5,.97"/>
  <path class="cls-1" d="M67.67,115.9c.22,4.78.41,9.55.71,14.32.04.57.63,1.11.96,1.67"/>
  <path class="cls-1" d="M72,139.89c-.78.22-1.55.44-2.69.77-1.07-1.26-2.24-2.63-3.71-4.36-.67-.2-1.78-.53-3.46-1.04-.24-.79-.6-2-.96-3.22.23-.12.45-.25.68-.37-.96-.82-1.93-1.64-3.17-2.69-.4-.92-1.01-2.33-1.86-4.29-1.51,1.37-2.67,1.97-3.06,2.9-.56,1.33-1.46,3.12.28,4.25,1.64,1.07,2.99.24,3.98-1.28.17-.26.44-.45.66-.67"/>
  <path class="cls-1" d="M101.64,47.6c-3.3,1.56-4.17,4.28-3.97,7.69,4.44,1.32,4.35-3.27,6.58-4.5.39-1.9-.59-2.81-2.28-3.19"/>
  <path class="cls-1" d="M57.35,73.26c-.11,6.55-.53,13.12-.23,19.65.21,4.61,2.63,6.06,6.22,3.67"/>
  <path class="cls-1" d="M75.33,89.91c.43.46.86.92,1.27,1.36,7.47-3.27,7.52-3.32,4.94-6.5-2.23,1.15-4.1,2.45-3.21,5.48"/>
  <path class="cls-1" d="M68.34,164.87c-.38,3.79-.76,7.58-1.17,11.66h2.17"/>
  <path class="cls-1" d="M64.67,77.25c.33,2.89.58,5.79,1.03,8.66.25,1.59.85,3.11,1.3,4.67"/>
  <path class="cls-1" d="M66.34,53.6c-.83-1.37-1.65-2.74-2.61-4.32-3.63,2.17-2.98,5.54-3.05,8.65"/>
  <path class="cls-1" d="M89.32,161.87c-5.14-.64-10.02,1.47-11.32,8.66"/>
  <path class="cls-1" d="M23.71,131.22c2.55,1.55,5.11,3.1,7.66,4.67,1.23.76,2.44,1.55,3.67,2.33"/>
  <path class="cls-1" d="M6.05,113.23c-.11,3.78-.22,7.55-.33,11.33"/>
  <path class="cls-1" d="M77.33,91.58c.54,5.18,2.56,6.35,8.66,5"/>
  <path class="cls-1" d="M5.39,29.28c-.22,3.55-.44,7.11-.67,10.66"/>
  <path class="cls-1" d="M137.95,69.59c-.44,2.33-.87,4.67-1.34,6.99-.18.9-.44,1.78-.66,2.67"/>
  <path class="cls-1" d="M92.32,55.93c-.23-2.13-.46-4.27-.77-7.1-1.8,1.13-2.85,1.78-3.89,2.44"/>
  <path class="cls-1" d="M66.34,96.58c.06-2.67-.44-5.52,2.75-7.49,1.08,2.6,2.16,5.21,3.25,7.82"/>
  <path class="cls-1" d="M68.67,151.88c-2.44.44-4.88.89-7.33,1.33"/>
  <path class="cls-1" d="M56.68,86.25c-2.33.22-4.66.44-6.99.67"/>
  <path class="cls-1" d="M72,55.27c-.18-1.79-.37-3.59-.6-5.83-2.98,1.34-3.98,3.27-4.07,5.83"/>
  <path class="cls-1" d="M73.67,128.89c1.89,1.89,3.77,3.78,5.66,5.66"/>
  <path class="cls-1" d="M63.34,85.92c-2,.11-4,.22-6,.33"/>
  <path class="cls-1" d="M8.72,112.57c-.22,2-.44,4-.67,6"/>
  <path class="cls-1" d="M78.66,126.23c-5.22.77-9.1,4.12-9.66,8.33"/>
  <path class="cls-1" d="M78.66,161.21c-.11,1.78-.22,3.55-.33,5.33"/>
  <path class="cls-1" d="M87.32,47.27c-.33,3.11-.67,6.22-1,9.33"/>
  <path class="cls-1" d="M112.63,191.19c-1.55.22-3.11.44-4.66.67"/>
  <path class="cls-1" d="M48.35,51.6c1.44.22,2.89.44,4.33.67"/>
  <path class="cls-1" d="M31.37,37.28v3.33"/>
  <path class="cls-1" d="M60.68,47.94c.11.89.22,1.78.33,2.67"/>
  <path class="cls-1" d="M78.66,49.6c-3.08,3-3.23,4.67-.53,7.47,2.42-1.02,4.13-2.71,4.14-5.47,0-2.05-1.71-2.09-3.28-2"/>
</svg>