<?xml version="1.0" encoding="UTF-8"?>
<svg id="Layer_1" data-name="Layer 1" xmlns="http://www.w3.org/2000/svg" viewBox="0 0 144 198">
  <defs>
    <style>
      .cls-1 {
        fill: none;
        stroke: #000;
        stroke-linecap: round;
        stroke-linejoin: round;
        stroke-width: 2px;
      }
    </style>
  </defs>
  <path class="cls-1" d="M140.52,58.38V9.74c-4.77,0-9.55.08-14.32-.02-6.77-.14-13.55-.42-20.32-.65"/>
  <path class="cls-1" d="M126.53,193.64h-12.66c-9.33,0-18.65.08-27.98-.03-5.66-.06-11.32-.55-16.99-.61-9.77-.11-19.54-.03-29.31-.03-4.44,0-8.89.11-13.32-.03-6.22-.2-12.44-.58-18.99-.9v-62.37"/>
  <path class="cls-1" d="M103.22,9.74c-21.54-.22-43.08-.42-64.61-.69-3.11-.04-6.22-.42-9.33-.64"/>
  <path class="cls-1" d="M6.63,58.38v69.29"/>
  <path class="cls-1" d="M103.88,65.04c-4.46.33-8.32,2.19-11.63,5.03-7.57,6.47-13.48,14.29-18.36,22.95-3.03,5.38-6.08,10.74-9.35,15.98-3.16,5.06-7.26,9.11-13.29,10.67-1.09.28-2.22.45-3.33.67"/>
  <path class="cls-1" d="M139.85,65.04v65.96"/>
  <path class="cls-1" d="M139.19,135.67v58.63h-11.32"/>
  <path class="cls-1" d="M26.61,9.07c-6.77-.3-13.54-.6-20.65-.92v35.56"/>
  <path class="cls-1" d="M88.56,109.02c-2.69-3.73-7.06-3.63-9.97.35-2.92,3.98-4.42,8.58-5.72,13.3-2.18,7.93-4.68,15.76-6.9,23.68-.4,1.44-.06,3.09-.06,4.65"/>
  <path class="cls-1" d="M109.88,82.37c-1.78,5.33-2.93,10.99-5.49,15.91-3.14,6.04-4.13,12.17-3.84,18.74"/>
  <path class="cls-1" d="M97.89,154.32v13.16h-3.33v-9.16"/>
  <path class="cls-1" d="M89.23,110.35c.89,6.66,1.78,13.33,2.66,19.99"/>
  <path class="cls-1" d="M19.95,66.37c.16,1.7-.71,3.76,2.46,4.99.85-1.09,2.29-2.24,2.76-3.69.61-1.89.06-3.83-2.78-4.82-.51.63-1.14,1.41-1.78,2.19"/>
  <path class="cls-1" d="M93.23,137.67c.22,6.22.44,12.44.67,18.66"/>
  <path class="cls-1" d="M40.6,152.99c.26,3.89.52,7.79.81,12.07,1.74.65,3.46,1.29,5.18,1.92"/>
  <path class="cls-1" d="M98.55,139.67v13.33"/>
  <path class="cls-1" d="M99.22,126.34v11.99"/>
  <path class="cls-1" d="M38.6,130.34c.22,4,.44,8,.67,11.99"/>
  <path class="cls-1" d="M6.63,45.72c-.22,3.55-.44,7.11-.67,10.66"/>
  <path class="cls-1" d="M109.88,74.37c-.27-3.75-1.55-7-4.66-9.33"/>
  <path class="cls-1" d="M63.92,87.03c-.49.24-.98.49-2.16,1.08,1.16.59,1.83.92,2.49,1.26-.17.37-.34.73-.5,1.1-1.86-.46-3.71-.91-6.25-1.53,1.06-1.06,1.61-1.61,2.17-2.17.22.14.44.28.66.41-.13.4-.26.79-.4,1.19"/>
  <path class="cls-1" d="M45.26,121.01c-3.03.23-6.75-1.2-7.99,3.33"/>
  <path class="cls-1" d="M65.25,152.33v8.66"/>
  <path class="cls-1" d="M39.93,144.33v7.33"/>
  <path class="cls-1" d="M49.26,83.7v6.66"/>
  <path class="cls-1" d="M99.89,118.34v6.66"/>
  <path class="cls-1" d="M28.94,67.71q-2.07-.4-1.57,2.55c.68-.95,1.13-1.58,1.57-2.21"/>
  <path class="cls-1" d="M25.28,23.73c-.26-.69-.53-1.38-1.08-2.82-1.19,2.05-2.03,3.52-3.17,5.49h4.26"/>
  <path class="cls-1" d="M49.26,42.39c-.22,1.22-.58,2.44-.63,3.67-.06,1.62-.61,3.54,2.41,4.6.08-.19.32-.73.56-1.27"/>
  <path class="cls-1" d="M57.25,90.36h-2.46c.06-1,.09-1.67.13-2.33-1.61-.28-3.55-1.31-3.67,1.67"/>
  <path class="cls-1" d="M57.25,168.32h-5.33"/>
  <path class="cls-1" d="M64.58,162.32c-.22,1.78-.44,3.55-.67,5.33"/>
  <path class="cls-1" d="M46.93,28.4c.58,1.95.86,3.84-1,5.33"/>
  <path class="cls-1" d="M31.61,29.06c-.44-.74-.89-1.47-1.8-2.98-.61,1.53-.9,2.26-1.2,2.98"/>
  <path class="cls-1" d="M110.54,75.7v5.33"/>
  <path class="cls-1" d="M42.6,29.06c-.25-.74-.5-1.47-.75-2.21l-.93.14c-.1.69-.21,1.38-.31,2.07"/>
  <path class="cls-1" d="M92.56,131.67v4.66"/>
  <path class="cls-1" d="M46.93,28.06c-.08-.58-.16-1.15-.3-2.17q-1.38,1.91-.03,2.17"/>
  <path class="cls-1" d="M58.59,47.72c-.04-.45-.07-.9-.11-1.35-.26-.08-.52-.15-.79-.23-.43,1-.86,2.01-1.53,3.57h3.09"/>
  <path class="cls-1" d="M35.94,69.71c-1-.67-2-1.33-3-2,.19-.25.39-.51.58-.76l-.92.76"/>
  <path class="cls-1" d="M62.58,167.65h-4"/>
  <path class="cls-1" d="M32.27,27.4c.33-.33.67-.67,1.34-1.34.13,1.2.23,2.1.33,3.01"/>
  <path class="cls-1" d="M31.94,64.38v5.33"/>
  <path class="cls-1" d="M37.94,125.67v3.33"/>
  <path class="cls-1" d="M51.92,43.72c.11,1.78.22,3.55.33,5.33"/>
  <path class="cls-1" d="M47.26,83.03h5.33"/>
  <path class="cls-1" d="M50.59,167.65h-2.66"/>
  <path class="cls-1" d="M25.95,25.06v4"/>
  <path class="cls-1" d="M54.26,47.39c.11.78.22,1.55.33,2.33"/>
  <path class="cls-1" d="M56.59,88.36c-.44.11-.89.22-1.33.33"/>
  <path class="cls-1" d="M56.59,87.03c-.33.11-.67.22-1,.33"/>
  <path class="cls-1" d="M30.61,69.04c-.33-.11-.67-.22-1-.33"/>
  <path class="cls-1" d="M35.27,66.37c-.33.11-.67.22-1,.33"/>
  <path class="cls-1" d="M36.94,27.06c-.33.33-.9.64-.94,1.01-.07.55.23,1.14.4,1.83,2.07-.65,1.92-1.63.87-2.84"/>
</svg>