<?xml version="1.0" encoding="UTF-8"?>
<svg id="Layer_1" data-name="Layer 1" xmlns="http://www.w3.org/2000/svg" viewBox="0 0 144 198">
  <defs>
    <style>
      .cls-1 {
        fill: none;
        stroke: #000;
        stroke-linecap: round;
        stroke-linejoin: round;
        stroke-width: 2px;
      }
    </style>
  </defs>
  <path class="cls-1" d="M139.86,51.24V5.26h-7.33c-9.66,0-19.32.08-28.98-.03-5.66-.06-11.32-.42-16.99-.64"/>
  <path class="cls-1" d="M139.2,55.9c-.21,30.76-.42,61.52-.62,92.32-12.43,11.5-27.99,14.82-44.01,16.95"/>
  <path class="cls-1" d="M34.61,7.93c.22,10.11.57,20.21.64,30.32.11,16.55.03,33.09.03,49.64"/>
  <path class="cls-1" d="M29.29,21.92v79.29"/>
  <path class="cls-1" d="M83.24,5.26c-20.87-.22-41.74-.42-62.62-.69-3.78-.05-7.55-.42-11.32-.64"/>
  <path class="cls-1" d="M5.97,4.6c-.22.67-.64,1.33-.64,2-.04,15.66-.03,31.32-.03,46.97v12.99"/>
  <path class="cls-1" d="M5.97,81.89v55.97"/>
  <path class="cls-1" d="M42.61,8.59v52.64"/>
  <path class="cls-1" d="M124.54,9.93v45.31"/>
  <path class="cls-1" d="M51.27,161.84c-7.48-.54-14.58-2.67-21.66-4.98-8.01-2.61-15.33-6.62-22.64-10.68"/>
  <path class="cls-1" d="M6.64,153.84v34.1c8.1.18,16.2.45,24.31.53,10.1.09,20.21-.06,30.31.05,9.88.11,19.76.48,29.64.62,7.33.1,14.66-.07,21.98.04,8.33.12,16.65.42,24.98.64"/>
  <path class="cls-1" d="M41.94,63.9v41.98"/>
  <path class="cls-1" d="M112.55,83.88v41.31"/>
  <path class="cls-1" d="M99.9,65.23v38.64"/>
  <path class="cls-1" d="M28.62,103.87c0,8.99-.01,17.99.01,26.98,0,1,.21,2,.32,3"/>
  <path class="cls-1" d="M16.63,157.51c0,8.99.01,17.99-.01,26.98,0,1-.21,2-.32,3"/>
  <path class="cls-1" d="M23.96,37.91v29.32"/>
  <path class="cls-1" d="M43.27,123.2c-.24-5-.49-9.99-.75-15.32h28.73"/>
  <path class="cls-1" d="M74.58,107.2h24.31"/>
  <path class="cls-1" d="M82.58,163.17h-23.98"/>
  <path class="cls-1" d="M71.92,137.19c-3.24-.06-6.1.9-8.31,3.34-1.66,1.83-1.45,3.97.04,5.61,2.33,2.57,5.3,4.08,8.94,3.71"/>
  <path class="cls-1" d="M137.2,127.86c-.96,3.7-4.08,5.12-8.66,4-3.84-.94-7.59-1.49-11.37.58-1.39.76-3.26.65-5.07.96-1.99-1.99-3.92-3.96-5.89-5.88-3.17-3.1-4.72-3.15-8.32-.34"/>
  <path class="cls-1" d="M53.93,166.5v21.65"/>
  <path class="cls-1" d="M73.92,95.88v32.65"/>
  <path class="cls-1" d="M124.54,167.84c0,5.11.03,10.22-.02,15.32-.02,1.89-.21,3.78-.32,5.66"/>
  <path class="cls-1" d="M39.94,163.84c-2.41-.09-1.26,1.75-1.28,2.67-.1,6.22-.05,12.44-.05,18.66"/>
  <path class="cls-1" d="M39.28,132.52c-4.04-2.88-5.1-2.65-10.03,1.29-1.75,1.4-3.9,2.3-5.68,3.31-4.86-3.88-8.26-9.14-14.94-6.6"/>
  <path class="cls-1" d="M34.61,89.21v19.99"/>
  <path class="cls-1" d="M23.29,15.26v19.99"/>
  <path class="cls-1" d="M28.62,167.17v19.32"/>
  <path class="cls-1" d="M111.89,59.9v19.32"/>
  <path class="cls-1" d="M35.28,111.2v18.99"/>
  <path class="cls-1" d="M75.25,149.85c1.89-.56,3.94-.81,5.63-1.73,3.9-2.11,4.25-5.17.32-8.55-1.04-.9-2.62-1.16-3.95-1.72"/>
  <path class="cls-1" d="M123.21,72.56v18.66"/>
  <path class="cls-1" d="M21.29,113.87v17.32"/>
  <path class="cls-1" d="M111.22,40.58v17.32"/>
  <path class="cls-1" d="M71.92,90.55v27.98"/>
  <path class="cls-1" d="M137.86,145.18c-5.77,2.89-11.55,5.77-17.32,8.66"/>
  <path class="cls-1" d="M121.88,107.87v16.66"/>
  <path class="cls-1" d="M138.53,148.85v16.32"/>
  <path class="cls-1" d="M99.23,47.24v15.99"/>
  <path class="cls-1" d="M101.23,166.5v15.99"/>
  <path class="cls-1" d="M110.55,21.92v15.99"/>
  <path class="cls-1" d="M72.58,121.86v19.32"/>
  <path class="cls-1" d="M21.96,95.21v15.32"/>
  <path class="cls-1" d="M137.86,173.17v15.32"/>
  <path class="cls-1" d="M123.88,56.57v13.99"/>
  <path class="cls-1" d="M98.56,112.53c-.44,4.66-.89,9.33-1.33,13.99"/>
  <path class="cls-1" d="M122.54,92.55v13.33"/>
  <path class="cls-1" d="M63.92,177.16v-10.32c-3.11-.34-6.22-.69-9.33-1.01-4.44-.46-8.88-.89-13.32-1.34"/>
  <path class="cls-1" d="M22.62,81.22v12.66"/>
  <path class="cls-1" d="M28.62,7.26v12.66"/>
  <path class="cls-1" d="M96.56,7.93v12.66"/>
  <path class="cls-1" d="M119.21,154.51c-4.22,1.33-8.44,2.67-12.66,4"/>
  <path class="cls-1" d="M50.6,52.57c.3-1.04.59-2.08.89-3.11,4.02,1,4.33,3.3-.3,8.21-.47-1.41-.86-2.59-1.25-3.77"/>
  <path class="cls-1" d="M77.91,175.17v11.33"/>
  <path class="cls-1" d="M23.29,68.56v11.33"/>
  <path class="cls-1" d="M111.22,175.17c-.22,3.78-.44,7.55-.67,11.33"/>
  <path class="cls-1" d="M111.89,163.17v10.66"/>
  <path class="cls-1" d="M90.57,166.5v10.66"/>
  <path class="cls-1" d="M6.64,140.52c-.26,3.1-.52,6.2-.75,8.96,8.69,7.81,18.98,10.9,29.39,13.68.41.11.88.01,1.33.01"/>
  <path class="cls-1" d="M5.97,69.23v10.66"/>
  <path class="cls-1" d="M43.94,124.53c.44,3.55.89,7.11,1.33,10.66"/>
  <path class="cls-1" d="M63.26,178.5c-.22,3.33-.44,6.66-.67,9.99"/>
  <path class="cls-1" d="M76.58,167.17h-9.99"/>
  <path class="cls-1" d="M78.58,23.59l-2.14,2.5c-.25-.13-.49-.25-.74-.38.43-1.12.86-2.23,1.39-3.63,2.36,2.51,2.88,5.55,1.45,7.48-.95,1.29-2.16,2.57-3.96,1.02"/>
  <path class="cls-1" d="M89.9,179.83v8.99"/>
  <path class="cls-1" d="M75.25,74.56c-.33,1.65-.66,3.29-1.03,5.16h-2.3v-3.16"/>
  <path class="cls-1" d="M78.58,168.5v-2h8.66"/>
  <path class="cls-1" d="M73.92,81.89c-.22,3.78-.44,7.55-.67,11.33"/>
  <path class="cls-1" d="M98.56,37.24v8"/>
  <path class="cls-1" d="M124.88,158.18c.11,2.55.22,5.11.33,7.66"/>
  <path class="cls-1" d="M87.24,53.57c.75-.33,1.49-.66,2.24-.99-2.98.47-3.34.89-3.62,4.3,1.61-.48,3-.9,4.38-1.32"/>
  <path class="cls-1" d="M64.59,27.25c-.25-1.35-.49-2.7-.74-4.05-.26-.15-.51-.31-.77-.46-.83,1.06-1.66,2.12-2.66,3.4-.34-1.19-.64-2.22-1.15-4.01-.61,1.73-.98,2.76-1.34,3.79"/>
  <path class="cls-1" d="M93.9,52.57c-1.18.51-2.37,1.02-3.84,1.65,1.39,1.03,2.28,1.69,3.17,2.35"/>
  <path class="cls-1" d="M74.58,130.52c0,1.89-.07,3.78.06,5.66.02.36.83.67,1.27,1"/>
  <path class="cls-1" d="M97.23,21.92v6.66"/>
  <path class="cls-1" d="M96.56,161.17c-2.22.22-4.44.44-6.66.67"/>
  <path class="cls-1" d="M74.58,73.22v-1.91c-2.08,0-4.09-.91-4.66,1.91"/>
  <path class="cls-1" d="M75.91,35.91v7.84c1.39-.7,2.2-1.11,3-1.51"/>
  <path class="cls-1" d="M97.9,29.91v6"/>
  <path class="cls-1" d="M48.6,23.92c.66-3.23,1.21-6.5,3.61-9.44,3.05,3.52,2.27,7.85,3.72,11.44"/>
  <path class="cls-1" d="M83.91,39.91c.43.35.86.7,1.31,1.05-.24.48-.5,1.01-.77,1.55.08.29.17.57.25.86,1.29-.26,2.58-.53,3.87-.79"/>
  <path class="cls-1" d="M22.62,8.59v5.33"/>
  <path class="cls-1" d="M109.89,14.59v5.33"/>
  <path class="cls-1" d="M70.25,25.58c.67-1.06,1.35-2.11,2.33-3.65.56,1.95.95,3.3,1.34,4.65"/>
  <path class="cls-1" d="M79.91,35.25c.11,1.78.22,3.55.33,5.33"/>
  <path class="cls-1" d="M57.26,23.25v-3.09c-2.55-.21-4.77-.39-6.99-.57"/>
  <path class="cls-1" d="M102.56,159.84c-1.55.22-3.11.44-4.66.67"/>
  <path class="cls-1" d="M88.57,162.51h-4.66"/>
  <path class="cls-1" d="M57.26,162.51h-4.66"/>
  <path class="cls-1" d="M72.92,84.55c-2.65.46-1.35,2.56-1.67,4"/>
  <path class="cls-1" d="M75.91,39.24h-4.66"/>
  <path class="cls-1" d="M80.58,53.23c.37.94.74,1.89,1.31,3.33.35-.11,1.19-.39,2.02-.66"/>
  <path class="cls-1" d="M47.94,25.25v4"/>
  <path class="cls-1" d="M75.25,50.57v4"/>
  <path class="cls-1" d="M109.22,9.26v4"/>
  <path class="cls-1" d="M121.21,126.53v4"/>
  <path class="cls-1" d="M81.91,54.23c.44-.11.93-.14,1.32-.36.32-.18.52-.59,1.33-1.55-1.26.32-1.79.45-2.31.58"/>
  <path class="cls-1" d="M99.23,105.21v6"/>
  <path class="cls-1" d="M100.56,185.16v6"/>
  <path class="cls-1" d="M74.58,137.52v3.66"/>
  <path class="cls-1" d="M93.23,57.9c-1.11.22-2.22.44-3.33.67"/>
  <path class="cls-1" d="M69.25,24.58c-.53-.53-1.06-1.06-1.59-1.59l-.81.72c.25.76.51,1.52.89,2.65.59-.73.89-1.09,1.18-1.45"/>
  <path class="cls-1" d="M87.9,38.58l-3,2"/>
  <path class="cls-1" d="M59.93,50.57v3c.25-.2.5-.4.75-.6l3.24,2.27"/>
  <path class="cls-1" d="M77.25,49.9h-4.66"/>
  <path class="cls-1" d="M69.92,74.56c.64,2.53,2.66.9,4,1.33"/>
  <path class="cls-1" d="M42.61,130.52l-2,2"/>
  <path class="cls-1" d="M60.26,53.9c-.22.44-.44.89-1.14,2.29-.38-.88-.62-1.42-.86-1.96"/>
  <path class="cls-1" d="M27.95,161.84v2.67"/>
  <path class="cls-1" d="M88.57,165.84h4.66"/>
  <path class="cls-1" d="M77.25,53.23c.22,1.11.44,2.22.67,3.33"/>
  <path class="cls-1" d="M81.91,40.58c-.11-.22-.22-.44-.74-1.49-.63.99-1.11,1.74-1.59,2.49"/>
  <path class="cls-1" d="M63.92,51.24c-.56.33-1.11.67-1.67,1"/>
  <path class="cls-1" d="M56.6,55.57c-.22.33-.44.67-.67,1"/>
  <path class="cls-1" d="M79.25,53.9l-1,1"/>
  <path class="cls-1" d="M82.58,41.91c.22.22.44.44.67.67"/>
</svg>