<?xml version="1.0" encoding="UTF-8"?>
<svg id="Layer_1" data-name="Layer 1" xmlns="http://www.w3.org/2000/svg" viewBox="0 0 144 198">
  <defs>
    <style>
      .cls-1 {
        fill: none;
        stroke: #000;
        stroke-linecap: round;
        stroke-linejoin: round;
        stroke-width: 2px;
      }
    </style>
  </defs>
  <path class="cls-1" d="M5.9,127.53v62.49c1.21.06,2.11.13,3,.13,8.55,0,17.1-.11,25.65.03,14.1.24,28.2.74,42.3.95,15.65.23,31.31.26,46.96.36,4.44.03,8.88,0,13.32,0"/>
  <path class="cls-1" d="M45.21,6.93c-13.43-.32-26.86-.64-40.63-.97v34.95"/>
  <path class="cls-1" d="M47.87,6.26c3.55.22,7.1.62,10.66.64,16.88.07,33.75,0,50.63.06,3.55.01,7.11.41,10.66.64"/>
  <path class="cls-1" d="M5.24,56.23v68.63"/>
  <path class="cls-1" d="M138.46,62.9v65.3"/>
  <path class="cls-1" d="M139.13,56.23V7.8c-5.54-.29-11.1-.58-16.65-.88"/>
  <path class="cls-1" d="M137.8,133.52v56.63"/>
  <path class="cls-1" d="M53.53,94.54c-1.7,1.64-3.4,3.28-5.15,4.96-1.27-.95-1.91-1.42-2.43-1.81.89-1.78,1.74-3.47,2.62-5.22-1.38-2.59-3.41-1.55-5.37-.93"/>
  <path class="cls-1" d="M71.85,114.2c-2.83,2.21-5.67,4.41-8.91,6.93-.7-1.31-1.05-1.97-1.4-2.63.95-1.53,2.16-3.46,3.47-5.56-2.23-1.11-3.81-1.11-5.16.6"/>
  <path class="cls-1" d="M65.19,75.56c-.33-2-.67-4-.99-5.9-2.99.63-6,1.27-9,1.9"/>
  <path class="cls-1" d="M41.54,117.86c-1.33,1.34-2.67,2.67-4,4.01-.35-.15-.7-.3-1.05-.45.36-1.87.71-3.74,1.16-6.09-.94-1.59-2.27-1.73-3.77.21"/>
  <path class="cls-1" d="M29.88,99.54c-1.84.98-3.69,1.97-6,3.2,0-2.52.08-4.53-.06-6.53-.03-.47-.83-.89-1.27-1.34"/>
  <path class="cls-1" d="M23.89,66.56c.94-1.41,1.88-2.81,3.32-4.98-1.8-.22-3.03-.37-5.05-.62.67,3.35,1.2,5.97,1.73,8.6"/>
  <path class="cls-1" d="M5.24,42.91c-.22,3.78-.44,7.55-.67,11.33"/>
  <path class="cls-1" d="M42.54,65.56c.18,2.24.36,4.49.54,6.73.31.03.62.06.93.09,1.51-1.27,3.01-2.55,4.52-3.82"/>
  <path class="cls-1" d="M25.22,97.54c-.2-2.49.73-5.18-1.51-7.53-1.21.49-2.52,1.01-3.82,1.53"/>
  <path class="cls-1" d="M37.21,100.21c-.52-2.45,1.29-5.43-1.48-7.39-2.31.74-1.81,2.51-1.85,4.05"/>
  <path class="cls-1" d="M61.19,62.23c-2.12.27-4.25.53-6.49.81v4.24c-1.66,1.21-3.08,2.24-4.5,3.27"/>
  <path class="cls-1" d="M20.56,118.2c.31,1.39.63,2.78.94,4.17.45.06.91.13,1.36.19.56-1.01,1.13-2.02,1.69-3.03"/>
  <path class="cls-1" d="M36.55,65.56c-.78.89-1.58,1.76-2.32,2.67-.39.48-.67,1.05-1,1.59l.81.67c-1.38.8-2.77,1.6-4.15,2.4"/>
  <path class="cls-1" d="M27.89,122.86c.59,1.15,1.17,2.3,1.97,3.85,1.3-1.49,2.33-2.67,3.36-3.85"/>
  <path class="cls-1" d="M34.55,74.89c-.15,2.18,1.07,2.82,3.32,2.64.58-.76,1.29-1.7,2-2.64"/>
  <path class="cls-1" d="M29.88,71.56v-6.34c-1.02.52-1.51.77-2,1.01"/>
  <path class="cls-1" d="M83.84,114.2c.31-1.56.62-3.12.93-4.66h7.73"/>
  <path class="cls-1" d="M40.54,90.21v6.66"/>
  <path class="cls-1" d="M79.18,111.54c.11,2,.22,4,.33,6"/>
  <path class="cls-1" d="M58.53,120.2c-2,.22-4,.44-6,.67"/>
  <path class="cls-1" d="M36.55,67.23c.22,1.89.44,3.78.67,5.66"/>
  <path class="cls-1" d="M51.2,115.53c1.09,2.08,2.56,2.79,4.66,1.33"/>
  <path class="cls-1" d="M24.56,115.53c.16.78.33,1.55.52,2.47-.72.25-1.62.56-2.52.86"/>
  <path class="cls-1" d="M29.22,114.2v4.66"/>
  <path class="cls-1" d="M25.22,72.22c-1.77-.88-2.89.21-4,1.33"/>
  <path class="cls-1" d="M72.52,110.2c.22,2.44.44,4.89.67,7.33"/>
  <path class="cls-1" d="M80.51,117.53c-1.78.44-3.55.89-5.33,1.33"/>
  <path class="cls-1" d="M61.86,65.56c-2,.89-4,1.78-6,2.67"/>
  <path class="cls-1" d="M54.53,90.21c.22,2.44.44,4.89.67,7.33"/>
  <path class="cls-1" d="M33.55,93.88c-1,.11-2,.22-3,.33"/>
  <path class="cls-1" d="M48.54,64.23c.33,1.89.67,3.78,1,5.66"/>
  <path class="cls-1" d="M42.54,114.2c.22,2.22.44,4.44.67,6.66"/>
  <path class="cls-1" d="M89.17,110.87c-.44,1.11-.89,2.22-1.33,3.33"/>
  <path class="cls-1" d="M88.17,117.86c-1,.11-2,.22-3,.33"/>
  <path class="cls-1" d="M90.5,112.2v2.67"/>
  <path class="cls-1" d="M25.22,76.22v2.67"/>
  <path class="cls-1" d="M94.5,116.87h-2.66"/>
  <path class="cls-1" d="M61.19,63.56c-.44.78-.89,1.55-1.33,2.33"/>
  <path class="cls-1" d="M68.52,114.2c.11.78.22,1.55.33,2.33"/>
  <path class="cls-1" d="M51.2,111.54c.33.11.66.23.85.29-.06.81-.12,1.6-.18,2.38"/>
  <path class="cls-1" d="M78.51,110.2c-.67-.22-1.33-.44-2-.67"/>
  <path class="cls-1" d="M23.56,102.54c-.56.11-1.11.22-1.67.33"/>
  <path class="cls-1" d="M87.84,116.87c.44.22.89.45,1.63.83.14-.55.25-1.02.37-1.49"/>
  <path class="cls-1" d="M75.18,110.2c-.44.22-.89.44-1.33.67"/>
  <path class="cls-1" d="M20.56,94.88c.22.22.44.44.67.67"/>
  <path class="cls-1" d="M36.21,69.23l-1,1"/>
</svg>