<?xml version="1.0" encoding="UTF-8"?>
<svg id="Layer_1" data-name="Layer 1" xmlns="http://www.w3.org/2000/svg" viewBox="0 0 144 198">
  <defs>
    <style>
      .cls-1 {
        fill: none;
        stroke: #000;
        stroke-linecap: round;
        stroke-linejoin: round;
        stroke-width: 2px;
      }
    </style>
  </defs>
  <path class="cls-1" d="M64.12,6.79H4.84v62.63"/>
  <path class="cls-1" d="M139.4,51.44V7.46h-3.66c-11.66,0-23.32.09-34.97-.02-11.55-.11-23.09-.42-34.64-.64"/>
  <path class="cls-1" d="M138.73,54.1c-.22,37.76-.44,75.51-.67,113.27"/>
  <path class="cls-1" d="M6.17,156.04v34.17c6.2.16,12.43.42,18.65.46,12.21.07,24.43-.07,36.64.05,12.32.11,24.65.43,36.97.64,2.77.05,5.55,0,8.33,0"/>
  <path class="cls-1" d="M5.5,84.75v69.29"/>
  <path class="cls-1" d="M92.1,151.05c-4.22,2.89-8.69,5.47-12.6,8.73-5.78,4.83-11.45,9.87-16.62,15.34-3.87,4.09-6.1,9.27-5.42,15.24"/>
  <path class="cls-1" d="M137.4,192.02h-23.31"/>
  <path class="cls-1" d="M48.47,23.12c-.82-2.64-1.23-5.49-3.81-7.74-3.1,4.41-5.18,8.74-3.85,14.07"/>
  <path class="cls-1" d="M69.12,148.71c-4.15,6.09-7.97,12.35-9.69,19.65-.07.28-.63.45-.97.67"/>
  <path class="cls-1" d="M109.42,114.73c-5.32,4.19-11.35,7.08-17.69,9.22-2.33.78-5.07.33-7.62.44"/>
  <path class="cls-1" d="M137.4,173.37v17.32"/>
  <path class="cls-1" d="M37.81,145.05c1.34-.13,2.68-.27,4.14-.42.36-1.08.66-1.98.96-2.87-.13-.23-.26-.47-.4-.7-1.82.82-3.63,1.65-5.36,2.44-.56-1.32-1.21-2.82-1.85-4.32-.31,0-.62.01-.94.02-.59,1.47-1.18,2.95-1.94,4.85,8.06,10.88,17.64,20.78,23.38,33.31"/>
  <path class="cls-1" d="M59.79,132.72c.58.29,1.15.58,2.26,1.13-1.09,1.58-2.05,2.98-3.18,4.63.98,5.19-2.18,11.13.57,16.61.43.1.86.2,1.3.3,1.18-2.13,2.37-4.26,3.59-6.48-1.22-1-2.02-1.64-2.84-2.31-.84.63-1.61,1.21-2.37,1.78"/>
  <path class="cls-1" d="M89.44,105.41c.8,1.21,1.6,2.41,2.45,3.7-2.49,4.66-4.85,9.38-7.49,13.92-1.39,2.38-3.28,4.47-4.95,6.69"/>
  <path class="cls-1" d="M42.81,107.74c1.09.45,1.98,1.07.98,2.32-1.4,1.75-3.21,2.17-5.31,1.35-5.43-2.12-9.35-5.97-12.72-10.62-1.19-1.63-1.68-4.66-4.94-3.71"/>
  <path class="cls-1" d="M78.45,125.73c-.82-1.24-1.65-2.47-2.91-4.36-.74,1.73-1.1,2.56-1.48,3.45-.83.21-1.74.44-2.64.67-.19.28-.38.56-.56.84.98.69,1.95,1.38,2.41,1.7,1.55.31,2.53.51,3.52.7"/>
  <path class="cls-1" d="M58.46,154.71c-.22,4.22-.43,8.44-.67,12.66-.19,3.33-.44,6.66-.66,9.99"/>
  <path class="cls-1" d="M42.47,120.73c.33,1.28.66,2.56,1,3.89,6.35-2.18,6.39-2.41,1.71-8.97-.75,1.5-1.39,2.79-2.04,4.07"/>
  <path class="cls-1" d="M86.44,84.75c-2.22,5.74-5.89,10.57-9.68,15.31-3.79,4.74-7.69,9.4-11.68,13.97-1.09,1.26-2.01,3.18-4.29,2.7"/>
  <path class="cls-1" d="M79.44,91.75c-.1-.9-.2-1.8-.29-2.7-.3-.11-.59-.21-.89-.32-1.35,1.93-2.7,3.86-4.38,6.26-.22-1.29-.35-2.06-.58-3.38-.35-.27-1.22-.95-2.11-1.65-1.69,3.06-.56,5.75,2.59,6.46,1.55.35,3.11.67,4.66,1"/>
  <path class="cls-1" d="M53.8,138.39c.78,3.22,1.48,6.46,2.37,9.65.33,1.17,1.07,2.23,1.63,3.34"/>
  <path class="cls-1" d="M41.14,74.09c.79-.67,1.59-1.33,2.38-2-2.51-2.43-2.01,1.38-3.71.26,3.54,5.82,4.42,12.45,10.31,16.04,1.39-1.24,2.62-2.34,3.88-3.46-.47-1.89-.89-3.57-1.32-5.29-3.05,1.53-3.28,3.06-1.22,6.77"/>
  <path class="cls-1" d="M68.79,79.09q3.84-2.22,2.33-5c-5.22,1.81-5.65,6.87-7.26,11.02-1.02,2.64-1.4,5.53-2.07,8.3"/>
  <path class="cls-1" d="M121.41,46.77h-2.66c-.07.28-.14.56-.21.85.73.83,1.47,1.66,2.8,3.17-2.47.49-4.53.91-6.59,1.32"/>
  <path class="cls-1" d="M73.12,129.06c-.16.66-.31,1.31-.66,2.74,2.86-.47,5.28-.87,8.55-1.4-3.13,4.92-6.01,9.46-8.9,13.99"/>
  <path class="cls-1" d="M42.81,144.38c1.42,1.17,1.28,2-.3,3.05-1.72,1.14-3.27,1.24-5.04.3-.83-.44-1.77-.68-2.66-1.02"/>
  <path class="cls-1" d="M112.08,24.12c-.94.7-1.89,1.41-2.95,2.2,1.34,3.71,4.4,2.86,6.95,3.14"/>
  <path class="cls-1" d="M5.5,71.42c-.22,3.55-.44,7.11-.67,10.66"/>
  <path class="cls-1" d="M70.12,162.04c-.26.52-.52,1.05-.77,1.57-.28-.07-.56-.15-.84-.22,0-2.49-.72-4.1-3.38-3.26-.17,2.83-.08,2.97,2.84,4.91h4.16"/>
  <path class="cls-1" d="M110.09,133.72c-4.22,4.11-8.5,8.16-12.63,12.35-1.93,1.96-3.85,4.03-5.28,6.35-1.48,2.42-1.06,3.24,1.34,5.7.51-.35,1.05-.72,1.58-1.09"/>
  <path class="cls-1" d="M59.46,120.4c0,4.22.23,8.46-.17,12.64-.09,1-2.28,1.79-3.5,2.68"/>
  <path class="cls-1" d="M105.09,47.11c.64-.13,1.28-.27,2.61-.54-2.05,2.94-3.5.62-4.94.54-1.11.32-2.23.64-3.41.98-.2.67-.39,1.34-.59,2.02"/>
  <path class="cls-1" d="M60.46,42.77c2.56-.06,4.12,1.6,3.25,3.97-.72,1.95-2.18,3.62-3.59,5.87-2.38-3-1.85-5.4-.99-7.84"/>
  <path class="cls-1" d="M52.47,170.04c.79-.2,1.57-.39,2.37-.59.37-2.62.74-5.17,1.12-7.84-1.08-.5-2.07-.97-3.2-1.49-.62.73-1.12,1.33-1.62,1.93"/>
  <path class="cls-1" d="M87.77,80.42c-.4,1.08-.81,2.17-1.36,3.66,1.12,0,2.5.21,2.59-.04.36-1.02.33-2.18.44-3.29"/>
  <path class="cls-1" d="M36.48,103.07c-.64-.13-1.28-.27-2.33-.49v7.83c2.66,2.65,5.49,5.48,8.33,8.31"/>
  <path class="cls-1" d="M63.46,24.45c-1.32,1.11-1.45,2.33-.4,3.7q2.56-1.52.73-3.7"/>
  <path class="cls-1" d="M81.44,127.06c-.33-1.44-.6-2.91-1.01-4.33-.65-2.23-1.81-2.41-3.32-.67"/>
  <path class="cls-1" d="M95.76,42.44c0,2.11-.08,4.22.05,6.33.04.68.62,1.34.95,2"/>
  <path class="cls-1" d="M77.78,25.45c-.44.22-.89.45-1.83.93v-4.27c3.1,1.88,2.82,4.46,2.34,6.29-.51,1.91-1.94,4.09-4.83,3.04"/>
  <path class="cls-1" d="M106.42,134.72c-.34-.66-.68-1.32-1.06-2.06-2.74,3.29-2.57,4.16.4,5.72"/>
  <path class="cls-1" d="M61.46,94.08c-.22,4.44-.44,8.88-.67,13.33"/>
  <path class="cls-1" d="M49.8,93.41c-4.23.73-5.64,3.43-3.96,7.77,2.19-.72,4.4-1.45,6.62-2.18.18-3.24,0-3.38-4-2.88v3.62"/>
  <path class="cls-1" d="M28.82,136.05c1.22,2.44,2.44,4.89,3.66,7.33"/>
  <path class="cls-1" d="M70.12,61.76c-1.15,1.07-2.29,2.14-3.49,3.26.42,1.24.81,2.37,1.27,3.71,2.97-1.68,6.2-2.46,7.3-5.84-2.18-3.61-2.73-3.76-4.74-1.46"/>
  <path class="cls-1" d="M107.75,137.72c.44.67.88,1.34,1.69,2.57.91-1.68,1.67-3.07,2.53-4.66-.9-1.48-1.79-2.93-2.95-4.82-1.04,1.03-1.82,1.81-2.6,2.58"/>
  <path class="cls-1" d="M96.1,148.05c1.44.44,2.91.82,4.32,1.35,1.91.71,1.01,1.54,0,2.32"/>
  <path class="cls-1" d="M70.45,68.09c-.56,1.44-1.16,2.87-1.65,4.34-.32.97-.46,1.99-.68,2.99"/>
  <path class="cls-1" d="M46.47,124.73c1.22,2.22,2.56,4.39,3.61,6.69.44.96.27,2.2.38,3.38.76.12,1.53.24,2.49.39-.24.44-.41.86-.47.84-.68-.17-1.34-.41-2.01-.64"/>
  <path class="cls-1" d="M70.12,161.37c.62-2.18.69-4.14-2.43-5.27-.09,1.46-.16,2.7-.24,3.94"/>
  <path class="cls-1" d="M103.76,48.44c-.11.56-.22,1.11-.33,1.67h4"/>
  <path class="cls-1" d="M57.79,94.41c-.62-.41-1.24-.83-1.9-1.27-2.66,7.7,3.29,15.88,10.9,17.6"/>
  <path class="cls-1" d="M111.75,48.1c2.15.81,2.36.07,1.23-2.22-1,1.39-1.78,2.47-2.56,3.55"/>
  <path class="cls-1" d="M56.13,178.03c.33,1.89.67,3.78,1,5.66"/>
  <path class="cls-1" d="M102.76,19.45c.22,1.89.44,3.78.67,5.66"/>
  <path class="cls-1" d="M48.14,87.75c1,2.55,2,5.11,3,7.66"/>
  <path class="cls-1" d="M108.75,48.77c2,1.52,3.98,3.19,6.66,1.33"/>
  <path class="cls-1" d="M49.8,27.45c-.27-1.35-.54-2.7-.83-4.12-2.18.16-4.17.31-6.17.45"/>
  <path class="cls-1" d="M100.76,18.79c-.56,1.55-1.11,3.11-1.67,4.66"/>
  <path class="cls-1" d="M69.79,146.72c.76-.54,1.52-1.08,2.49-1.76-.85-1.05-1.4-1.73-1.81-2.23-1.28,0-1.34.45-.99,5.7,1.92-.27,3.82-.53,5.79-.81-.33-2.01-.57-3.45-.81-4.89"/>
  <path class="cls-1" d="M42.81,71.09c.04-.89.08-1.77.13-2.72-1.13-.61-2.18-1.18-3.28-1.78q-2.06,2.14.49,6.17"/>
  <path class="cls-1" d="M112.75,191.36c-1.55.22-3.11.44-4.66.67"/>
  <path class="cls-1" d="M25.15,101.74c-3.81,2.62-3.99,2.62-6.66,0q2.1-2.72,1.33-4.33c-.27,0-.54-.01-.81-.02.05.89.1,1.79.14,2.68"/>
  <path class="cls-1" d="M59.13,130.72c-2.32-.62-2.5,1.69-3.66,2.67-.78.66-1.56,1.33-2.33,2"/>
  <path class="cls-1" d="M93.1,101.07c-.56-.11-1.45-.49-1.61-.29-.69.9-1.17,1.95-1.72,2.95"/>
  <path class="cls-1" d="M40.81,104.74c-.07-1.01-.14-2.02-.25-3.54-1.99,1.44-3.83,2.14-3.41,4.54"/>
  <path class="cls-1" d="M87.1,79.09c-.88-.13-1.77-.25-3.19-.46-.2,1.14-.4,2.26-.64,3.65,1.06-.42,1.62-.64,2.17-.86"/>
  <path class="cls-1" d="M73.45,44.11c.22,1.55.44,3.11.67,4.66"/>
  <path class="cls-1" d="M73.78,159.04c-.22-.67-.44-1.33-.79-2.37-.8.62-1.51,1.16-2.21,1.7"/>
  <path class="cls-1" d="M73.78,61.1c-1.78,1.34-2.53,3.13-2.33,5.33"/>
  <path class="cls-1" d="M76.78,161.04c-.34-.83-.68-1.65-1.3-3.18-1.55,1.81-2.68,3.11-3.93,4.56-.36-.18-.9-.45-1.43-.72"/>
  <path class="cls-1" d="M66.12,103.07c-.83-.37-1.66-.74-2.49-1.1-.29.28-.57.55-.86.83.89,1.55,1.78,3.11,2.67,4.66.22-.12.45-.24.67-.35.46-1.96.92-3.91,1.38-5.87.27,0,.55.01.82.02.53.69,1.06,1.37,1.34,1.73-.2,1.84-.37,3.29-.53,4.74"/>
  <path class="cls-1" d="M58.46,138.39c-2.08-.65-4.59.31-6.33-1.67"/>
  <path class="cls-1" d="M38.14,107.07c-.53.27-1.07.53-1.62.81-.18-.58-.32-1.01-.61-1.95.99.25,1.64.41,2.91.73.98-.31,2.18-2.95,4.29-.96.39,3.4-3.31,1.95-4.3,3.71"/>
  <path class="cls-1" d="M100.76,116.07c-.27-.8-.53-1.6-1.05-3.15-1.46,1.68-2.53,2.91-3.61,4.15"/>
  <path class="cls-1" d="M49.8,82.09c-2.16-1.09-2.62.67-3.33,2"/>
  <path class="cls-1" d="M65.79,81.09c.44.67.88,1.34,1.32,2.01q4.33-2.8,4.68-5.01"/>
  <path class="cls-1" d="M36.81,63.43c.56,1.22,1.11,2.44,1.67,3.66"/>
  <path class="cls-1" d="M98.76,24.12c.39,1.38.78,2.76,1.17,4.14l1.34.72c.95-1.83,1.91-3.66,2.86-5.48.28.36.56.71.84,1.07.82.96,1.64,1.93,2.46,2.89"/>
  <path class="cls-1" d="M96.76,152.71c.37,1.61.75,3.21,1.12,4.82-.4.11-.81.22-1.21.33-2.01-1.27-2.69-3.04-1.58-5.49"/>
  <path class="cls-1" d="M51.13,164.04c-.14-.57-.29-1.15-.43-1.72-.28-.18-.56-.37-.84-.55-.35.65-.71,1.29-1.06,1.94"/>
  <path class="cls-1" d="M62.12,40.11c-2.77.08-1.86,2.61-2.66,4"/>
  <path class="cls-1" d="M92.1,41.44c2.44.22,4.88.44,7.33.67"/>
  <path class="cls-1" d="M103.09,118.4c-.2-.79-.39-1.57-.67-2.68-1.87.94-3.6,1.81-5.33,2.68"/>
  <path class="cls-1" d="M60.79,108.4c-.33,1.22-.67,2.44-1,3.66"/>
  <path class="cls-1" d="M70.78,48.77c.65.47,1.31.94,1.99,1.44,1.7-1.28,3.35-2.52,5-3.77"/>
  <path class="cls-1" d="M93.77,101.74c-.24,2.21.51,4.8-2.33,6"/>
  <path class="cls-1" d="M60.79,27.45c-.51-1.02-1.02-2.04-1.69-3.38-.67.82-1.16,1.43-1.79,2.2-.95-.54-1.35-3.23-3.18-1.16"/>
  <path class="cls-1" d="M100.76,23.45c-1.78.22-3.55.44-5.33.67"/>
  <path class="cls-1" d="M68.79,22.79c.14.44.27.87.44,1.41.28-.22.59-.47.81-.64.91.85,1.83,1.71,2.74,2.56"/>
  <path class="cls-1" d="M56.46,131.72c-.57-.95-1.14-1.89-2.03-3.36-.71,1.61-1.17,2.65-1.63,3.7"/>
  <path class="cls-1" d="M97.76,114.4c-.75-.91-1.49-1.83-2.44-2.98-.46,1.39-.84,2.52-1.22,3.65"/>
  <path class="cls-1" d="M93.1,104.07c-1.33.11-2.66.22-4,.33"/>
  <path class="cls-1" d="M76.45,90.41c-.47-.93-.94-1.85-1.76-3.48-.7,1.84-1.13,2.99-1.57,4.15"/>
  <path class="cls-1" d="M50.8,96.08v3.33"/>
  <path class="cls-1" d="M81.78,92.41c-2.98-2.04-3.53,1.12-5,2.33"/>
  <path class="cls-1" d="M68.45,64.1c.44.89.89,1.78,1.33,2.67"/>
  <path class="cls-1" d="M61.13,93.41c-.29-.57-.59-1.15-1.04-2.04-1.08.75-2.02,1.39-2.96,2.04"/>
  <path class="cls-1" d="M43.81,120.73c.56.89,1.11,1.78,1.67,2.67"/>
  <path class="cls-1" d="M76.45,48.1c.56.89,1.11,1.78,1.67,2.67"/>
  <path class="cls-1" d="M40.14,141.39c-.18-1.03-.36-2.05-.6-3.43-1.33,1.05-2.2,1.74-3.06,2.43"/>
  <path class="cls-1" d="M53.47,23.45c.11,1.55.22,3.11.33,4.66"/>
  <path class="cls-1" d="M40.48,68.09c-.44.67-.89,1.33-1.33,2"/>
  <path class="cls-1" d="M88.44,78.42l1.15,1.66c-.26.2-.53.4-.79.6-.45-.53-.91-1.06-1.35-1.61-.05-.07-.05-.26,0-.32.06-.06.21-.01.32-.01"/>
  <path class="cls-1" d="M73.12,142.05l-2,1"/>
  <path class="cls-1" d="M54.13,133.72c-1.11-.67-2.22-1.33-3.33-2"/>
  <path class="cls-1" d="M72.78,103.74c-.44-.44-.89-.89-1.33-1.33-.44.22-.89.44-1.33.67"/>
</svg>