<?xml version="1.0" encoding="UTF-8"?>
<svg id="Layer_1" data-name="Layer 1" xmlns="http://www.w3.org/2000/svg" viewBox="0 0 144 198">
  <defs>
    <style>
      .cls-1 {
        fill: none;
        stroke: #000;
        stroke-linecap: round;
        stroke-linejoin: round;
        stroke-width: 2px;
      }
    </style>
  </defs>
  <path class="cls-1" d="M117.88,49.71c-18.65.22-37.31.16-55.95.81-7.36.25-14.66,2.08-21.99,3.19-3,.45-6,1.28-8.99,1.21-2.34-.05-4.67-1.21-7-1.88"/>
  <path class="cls-1" d="M138.53,56.37V8.62c-11.99-.3-23.98-.59-35.97-.89"/>
  <path class="cls-1" d="M124.55,126.33c.52,8.48-.83,16.75-2.61,25-.37,1.7-.05,3.54-.05,5.76-2.47-.26-4.9-.73-7.33-.74-12.32-.08-24.65.03-36.97-.07-4.78-.04-9.55-.38-14.32-.65-2.67-.15-5.33-.43-7.99-.65"/>
  <path class="cls-1" d="M119.22,49.71c.67,6.89,1.37,13.77,1.98,20.66.31,3.43.52,6.88.67,10.33.27,6.22.21,12.46.74,18.65.61,7.13,1.74,14.22,2.58,21.33.17,1.42.02,2.88.02,4.33"/>
  <path class="cls-1" d="M99.9,8.4c-2.78-.22-5.55-.63-8.33-.64-16.43-.06-32.86.02-49.29-.06-5.22-.03-10.44-.41-15.65-.64"/>
  <path class="cls-1" d="M5.31,142.32v48.64h22.65"/>
  <path class="cls-1" d="M4.64,57.71v69.29"/>
  <path class="cls-1" d="M137.87,61.7v67.3"/>
  <path class="cls-1" d="M137.2,134.33c0,18.1,0,36.2-.01,54.3,0,1.11-.21,2.22-.32,3.33"/>
  <path class="cls-1" d="M20.63,79.03v59.97"/>
  <path class="cls-1" d="M23.96,7.4H3.98v34.98"/>
  <path class="cls-1" d="M29.29,191.63c13.43.11,26.87.25,40.3.31,3.66.02,7.33-.2,10.99-.31"/>
  <path class="cls-1" d="M81.91,192.3h48.63"/>
  <path class="cls-1" d="M99.23,134.33c-7.88-.22-15.76-.53-23.65-.62-2.99-.04-5.99.4-8.99.62"/>
  <path class="cls-1" d="M51.94,42.38q0,3.49,2.33,5.33c5.07-4.47,6.05-10.67,1.83-12.74-1.95.97-2.32,2.29-.83,4.08"/>
  <path class="cls-1" d="M21.3,55.71v20.65"/>
  <path class="cls-1" d="M52.6,154.32h-19.98"/>
  <path class="cls-1" d="M47.94,133.66c-6.44.22-12.88.44-19.32.67"/>
  <path class="cls-1" d="M110.56,36.72c-1.73,1.14-2.37,2.66-1.82,4.62,2.06.43,3.99.83,5.92,1.23.06.33.13.67.19,1-1.43.71-2.86,1.43-4.29,2.14"/>
  <path class="cls-1" d="M62.93,120.34c-2.55,4.78-5.11,9.55-7.66,14.33"/>
  <path class="cls-1" d="M21.3,140.33c0,4.11-.03,8.22.03,12.33,0,.56.41,1.11.64,1.67"/>
  <path class="cls-1" d="M19.96,28.39c.31.26.61.51.92.77.19-.08.38-.16.57-.24-1.51-5.09-3.02-10.18-4.53-15.27-.23-.01-.46-.02-.69-.04-.56,2.14-1.11,4.28-1.74,6.66.57.05,1.02.08,1.47.12"/>
  <path class="cls-1" d="M88.91,113.01c.24.54.47,1.08.71,1.62l.89-.48c.51-1.02,1.02-2.04,1.54-3.08-.76-.98-1.45-1.85-2.06-2.63-1.36.87-2.71,1.74-4.36,2.8.66.71,1.3,1.4,1.95,2.1"/>
  <path class="cls-1" d="M33.62,23.06c-1.45,2.27-1.42,2.67.94,5.35.67-2.25,1.2-4.03,1.73-5.82-.26-.12-.53-.24-.79-.36-.51.39-1.03.77-1.54,1.16"/>
  <path class="cls-1" d="M110.89,136.33c5.36.38,10.34,1.98,14.99,4.66"/>
  <path class="cls-1" d="M67.92,44.38c-1.26-.79-2.52-1.57-4.39-2.74-.48,1.94-.81,3.27-1.15,4.61.27.1.53.2.8.3.58-1.05,1.16-2.11,1.74-3.16"/>
  <path class="cls-1" d="M76.58,90.69c.55.67,1.11,1.33,1.86,2.24-2.02,3.84-4.1,7.8-6.19,11.76"/>
  <path class="cls-1" d="M4.64,45.05c-.22,3.55-.44,7.11-.67,10.66"/>
  <path class="cls-1" d="M5.31,129c-.22,3.55-.44,7.11-.67,10.66"/>
  <path class="cls-1" d="M48.27,22.73c1.28,4.44-.1,7.69-4.33,9.66"/>
  <path class="cls-1" d="M35.28,111.68c1.53,5.8,6.12,9.61,9.34,14.32.94,1.37,1.99,2.67,2.99,4"/>
  <path class="cls-1" d="M14.63,20.73c-.22,3.22-.44,6.44-.67,9.66"/>
  <path class="cls-1" d="M68.59,35.05c.33,3.11.67,6.22,1.01,9.42,1.47-1.61,2.89-3.18,4.32-4.75"/>
  <path class="cls-1" d="M67.26,14.4v11.33"/>
  <path class="cls-1" d="M90.24,110.68c-5.34,5.63-10.96,10.93-17.63,15.03-2.69,1.66-5.13,3.74-7.68,5.63"/>
  <path class="cls-1" d="M65.93,127.33c-.41.69-.83,1.37-1.31,2.18-1.29-.65-2.49-1.25-4.06-2.03-.22.77-.76,1.98-.57,2.11,1.34.89,2.83,1.56,4.57,2.46-3.1,3.18-7.33,6.25-8.95,11.28"/>
  <path class="cls-1" d="M31.29,85.02c2.73,3.98,5.66,7.79,10.34,9.62,1.81.71,3.86,1.13,3.98-1.96"/>
  <path class="cls-1" d="M59.6,75.36c-1.89,5.39-2.31,11.02-2.96,16.87-1.21-1.75-2.42-3.5-3.67-5.32.16-1.34.33-2.79.53-4.47,1.31-.15,2.54-.28,3.77-.42"/>
  <path class="cls-1" d="M54.27,131.66c.11,2.11.29,4.22.32,6.33.05,3.89.01,7.77.01,11.66"/>
  <path class="cls-1" d="M51.6,134.66c2.81-.76,1.81-3.64,2.9-5.39.84-1.35.76-3.27,1.09-4.92,2.82.11,2.98-2.2,3.95-4.68h-3.27"/>
  <path class="cls-1" d="M89.91,97.02c-4.81,3.75-9.84,6.98-16.32,6.66"/>
  <path class="cls-1" d="M55.6,124v-10.88c.82-.97,1.58-1.87,2.51-2.98-.69-.17-1.34-.56-1.83-.42-1.44.42-2.81,1.04-4.46,1.68.76,3.07,1.6,6.5,2.45,9.93"/>
  <path class="cls-1" d="M80.58,25.72c-2.56-.93-5.55-1.48-4.66-5.3,1.16-1.21,2.46-2.58,3.77-3.95-.3-.26-.6-.51-.9-.77-.99.84-2.3,1.42-1.87,3.35"/>
  <path class="cls-1" d="M96.9,41.72q1.84-1.87,2.01-4.17c-2.71,1.93-2.52,4.5-2.18,7.39,1.86.25,3.31.2,3.84-1.88"/>
  <path class="cls-1" d="M29.29,27.06c-.37-1.58-.75-3.16-1.21-5.12-1.01.88-1.73,1.5-2.45,2.12"/>
  <path class="cls-1" d="M49.61,74.7c.37-.5.75-1,1.55-2.07.56,1.72.93,2.86,1.47,4.49-1.31.56-2.5,1.07-3.68,1.58"/>
  <path class="cls-1" d="M44.61,117.34c1.03,1.13,1.16,2.1-.67,2.3-1.32.15-2.66.03-3.99.03"/>
  <path class="cls-1" d="M97.23,39.05c-.33-.44-.67-.89-1.27-1.69-1.51,1.84-2.95,3.6-4.39,5.36"/>
  <path class="cls-1" d="M79.25,97.02c-.44.33-1.31.9-1.27.96.58,1.05,1.19,2.1,1.97,3,.35.4,1.08.47,1.63.7"/>
  <path class="cls-1" d="M41.28,63.7c1.12.55,2.23,1.09,3.83,1.87-.41,1.26-.83,2.57-1.42,4.39.7,1.46,1.64,3.43,2.59,5.4"/>
  <path class="cls-1" d="M41.95,91.69c.95-.52,1.9-1.05,2.85-1.57.22.26.44.53.65.79-.97.8-1.94,1.6-3.18,2.63-.75-1.8-1.32-3.18-1.87-4.49-2.47-.24-1.64,1.51-1.79,2.65"/>
  <path class="cls-1" d="M63.26,81.69c.89,2.77,3.52,2.83,5.66,3.66"/>
  <path class="cls-1" d="M56.27,101.35v5.29c-1.22,1.38-2.11,2.37-3,3.37"/>
  <path class="cls-1" d="M39.28,94.02c1.79,2.09,3.58,4.18,5.64,6.59.64-1.03,1.02-1.63,1.4-2.25,3.09.16,2.18,2.52,2.29,4.61-1.2.14-2.42.28-4.08.48.09-1.22.15-1.99.21-2.77.18-.07.36-.13.54-.2,1.44,2.51,2.87,5.03,4.31,7.54"/>
  <path class="cls-1" d="M103.9,39.72c.25-.61.49-1.23.74-1.84-.32-.1-.65-.19-.97-.29-.43,1.89-.86,3.78-1.28,5.67.27.28.54.55.8.83,1.13-.57,2.25-1.14,3.38-1.7"/>
  <path class="cls-1" d="M67.92,102.68c-1.12.66-2.23,1.32-3.8,2.24,1.28.68,2.29,1.21,3.77,1.99.43-2.32.76-4.13,1.24-6.71,1.1,2.04,1.83,3.4,2.57,4.79-.62.94-1.2,1.81-1.78,2.68"/>
  <path class="cls-1" d="M54.27,129.33c-.67-.33-1.33-.67-2.21-1.1-1.1.87-2.28,1.8-3.3,2.6,1.75,3.32,3.46,6.58,5.17,9.83"/>
  <path class="cls-1" d="M56.27,99.68c1.54-1.88.24-3.1-1.13-4.46-.76.51-1.56,1.04-2.98,1.99,2.6.39,1.09,3.99,4.27,3.12-.49-.21-.99-.43-1.48-.64"/>
  <path class="cls-1" d="M29.29,154.98h-6"/>
  <path class="cls-1" d="M43.28,25.72c-.78-1.56-1.55-3.11-2.8-5.63-.38.88-.62,1.42-.86,1.96"/>
  <path class="cls-1" d="M71.25,25.72c-.44-1.11-.79-2.28-1.39-3.3-.19-.33-1.05-.26-1.61-.37"/>
  <path class="cls-1" d="M74.25,74.7c-.56-.21-1.12-.42-1.71-.63.34-3.1,2.13-1.17,3.45-1.03-1.36,3.06-2.72,6.1-4.27,9.59-.98-1.23-1.62-2.03-2.45-3.07-.71.65-1.53,1.4-2.35,2.14"/>
  <path class="cls-1" d="M63.93,13.4v5.66"/>
  <path class="cls-1" d="M85.91,99.68c-.69-1.53-2.31-2.83-3.33-2.67"/>
  <path class="cls-1" d="M65.59,106.68c-.14.43-.29.87-.64,1.93,1.8-.36,3.22-.65,4.64-.93"/>
  <path class="cls-1" d="M26.62,135c-1.78.22-3.55.44-5.33.67"/>
  <path class="cls-1" d="M71.59,82.36c-4.22,5.11-8.42,10.23-12.68,15.3-.34.4-1.08.47-1.64.69"/>
  <path class="cls-1" d="M21.96,21.73c.22,1.78.44,3.55.67,5.33"/>
  <path class="cls-1" d="M64.59,63.7c1.73.14,2.31-.94,1.92-2.31-.22-.77-1.21-1.32-2.11-2.23.8,6.1-2.95,9.94-3.82,15.39-.03-.03.52.52,1.12,1.12,1.39-1.55,1.38-2.67-.11-3.64"/>
  <path class="cls-1" d="M81.25,120c1,.2,2.01.39,3.46.68-.3.76-.55,1.37-.79,1.99"/>
  <path class="cls-1" d="M29.29,85.69c-.23,1-.47,1.99-.9,3.87,1.57-.35,2.74-.61,3.9-.87"/>
  <path class="cls-1" d="M89.91,38.38c.22,2.22.44,4.44.67,6.66"/>
  <path class="cls-1" d="M136.54,192.63c-1.55.11-3.11.22-4.66.33"/>
  <path class="cls-1" d="M62.93,64.04l-.68-1.99-.52-.12c-.18.9-.37,1.79-.67,3.29,1.25-.25,1.89-.38,2.54-.51"/>
  <path class="cls-1" d="M65.59,81.03c.2-.79.39-1.57.68-2.73.79.68,1.38,1.21,1.98,1.73"/>
  <path class="cls-1" d="M38.61,20.39v4.66"/>
  <path class="cls-1" d="M66.26,116.34c.25.88.5,1.76.77,2.69-1.32.76-2.54,1.78-3.76-.03"/>
  <path class="cls-1" d="M63.26,21.39c.44,1.44.89,2.89,1.33,4.33"/>
  <path class="cls-1" d="M52.6,110.34l-1.73-2.6c-.39.32-.78.63-1.17.95.63.88,1.27,1.77,1.9,2.65"/>
  <path class="cls-1" d="M72.25,42.38l3,4"/>
  <path class="cls-1" d="M78.25,122.67c.13,1.35.25,2.7.38,4.06.42.01.84.02,1.26.04.26-1.38.53-2.76.87-4.54,1.45.98,1.43,3.92,4.59,1.99-1.42-.77-2.43-1.32-3.44-1.87"/>
  <path class="cls-1" d="M54.27,108.34c-.33-.33-.64-.7-1.01-.99-.27-.21-.62-.31-.98-.48-.25.79-.46,1.46-.67,2.13"/>
  <path class="cls-1" d="M60.93,91.02c-.49-.99-.98-1.98-1.47-2.97-.36.2-.72.39-1.07.59.52.9,1.03,1.81,1.55,2.71"/>
  <path class="cls-1" d="M43.61,90.35c-.21-.67-.42-1.34-.63-2.01-.26-.24-.51-.48-.77-.72-.2.58-.4,1.15-.6,1.73"/>
  <path class="cls-1" d="M53.6,37.38c-.33,1.22-.67,2.44-1,3.66"/>
  <path class="cls-1" d="M87.24,33.39v3.66"/>
  <path class="cls-1" d="M89.91,32.39c-2.22.44-4.44.89-6.66,1.33"/>
  <path class="cls-1" d="M40.61,115.01v2.17h4.43c-1.29-1.52-2.17-2.56-3.5-4.14-.2.36-.56,1-.93,1.64"/>
  <path class="cls-1" d="M64.59,116.34c-1.4-.03-2.65.05-1.67,2"/>
  <path class="cls-1" d="M68.26,128.33c-1.07-.84-2.15-1.67-3.64-2.83-.54,1.26-.95,2.21-1.35,3.17"/>
  <path class="cls-1" d="M65.93,19.73c-2.22.67-4.44,1.33-6.66,2"/>
  <path class="cls-1" d="M76.92,74.03c.9,1.88-.07,2.2-1.67,2"/>
  <path class="cls-1" d="M46.94,76.03c1.22,2.78,2.44,5.55,3.66,8.33"/>
  <path class="cls-1" d="M70.26,81.36c-1,.44-2,.89-3,1.33"/>
  <path class="cls-1" d="M45.61,23.39c-.13.53-.26,1.05-.39,1.58.2.08.39.16.59.24.27-.38.54-.76.8-1.15"/>
  <path class="cls-1" d="M56.93,93.02c-.22,1-.44,2-.67,3"/>
  <path class="cls-1" d="M22.96,24.06c.33-.33.67-.67,1.11-1.11.31.62.6,1.2.89,1.78"/>
  <path class="cls-1" d="M107.23,149.65c.22.89.44,1.78.67,2.67"/>
  <path class="cls-1" d="M105.89,129.67c-.89.89-1.78,1.78-2.66,2.67"/>
  <path class="cls-1" d="M75.92,90.35c.9-.9,1.8-1.8,2.67-2.67,1.17,1.14,1.04,3-.67,4.34"/>
  <path class="cls-1" d="M49.27,82.03c-2.6,1.14-3.29,3.06-2.33,6.15,1.36-.92,2.51-1.71,3.66-2.49"/>
  <path class="cls-1" d="M47.61,75.36l1.39-1.39c.48,1.27.88,2.33,1.27,3.39"/>
  <path class="cls-1" d="M63.26,89.69c-.11.78-.22,1.55-.33,2.33"/>
  <path class="cls-1" d="M82.58,125.33c-.08.34-.15.68-.22,1h-1.44"/>
  <path class="cls-1" d="M64.59,69.7c-.3,1.75.91,4-1.67,5"/>
  <path class="cls-1" d="M52.94,113.01h2.33"/>
  <path class="cls-1" d="M41.95,65.04c.56,1.11,1.11,2.22,1.67,3.33"/>
  <path class="cls-1" d="M65.93,115.67l-2,3"/>
  <path class="cls-1" d="M80.91,95.35c1.68.67,1.34,1.8.67,3"/>
  <path class="cls-1" d="M60.6,91.69c.11.56.22,1.11.33,1.67"/>
  <path class="cls-1" d="M60.93,89.35c.44-.33.93-.99,1.32-.94,1.03.15,2.01.6,3.01.94"/>
  <path class="cls-1" d="M47.61,84.36c1.78.56,3.55,1.11,5.33,1.67"/>
  <path class="cls-1" d="M83.58,98.68c-.56.22-1.11.44-1.67.67"/>
  <path class="cls-1" d="M101.9,148.99c-.44.44-.89.89-1.33,1.33"/>
  <path class="cls-1" d="M97.23,144.99c-.44.22-.89.44-1.33.67"/>
  <path class="cls-1" d="M107.89,135.66c-.44.22-.89.44-1.33.67"/>
  <path class="cls-1" d="M62.93,126c-.22-.12-.43-.24-.65-.36-.12.25-.24.47-.35.69"/>
  <path class="cls-1" d="M66.26,81.69c-.78-.44-1.55-.89-2.33-1.33"/>
  <path class="cls-1" d="M80.25,96.02v2.33"/>
</svg>