<?xml version="1.0" encoding="UTF-8"?>
<svg id="Layer_1" data-name="Layer 1" xmlns="http://www.w3.org/2000/svg" viewBox="0 0 144 198">
  <defs>
    <style>
      .cls-1 {
        fill: none;
        stroke: #000;
        stroke-linecap: round;
        stroke-linejoin: round;
        stroke-width: 2px;
      }
    </style>
  </defs>
  <path class="cls-1" d="M130.93,155.82c-4.91-1.51-8.02-5.46-11.62-8.7-2.21-1.99-3.86-4.59-6.07-6.58-4.31-3.89-2.95-8.44-1.97-13.03,1.59-7.47,3.26-14.9,3.08-22.65-.14-5.94-3.57-10.22-8.08-12.3-5.83-2.67-11.68-5.32-17.66-7.64-5.79-2.24-11.74-4.06-17.64-6.02-.37-.12-.88.19-1.32.3"/>
  <path class="cls-1" d="M140.26,55.88V7.24c-4.99,0-9.99.08-14.99-.02-6.55-.14-13.1-.42-19.65-.65"/>
  <path class="cls-1" d="M87.63,54.54c-4-1.33-8-2.65-11.99-4-6.82-2.31-13.66-4.57-20.97-2.62-2.19.59-4.43,1.44-6.3,2.68-3.76,2.5-4.77,6.66-2.29,10.88,3.3,5.63,7.43,10.51,14.22,12.46,3.36.96,6.46,2.8,9.68,4.25"/>
  <path class="cls-1" d="M102.95,7.24c-21.32-.22-42.63-.42-63.95-.69-3.33-.04-6.66-.42-9.99-.64"/>
  <path class="cls-1" d="M6.37,56.54v68.63"/>
  <path class="cls-1" d="M139.59,60.54v67.3"/>
  <path class="cls-1" d="M138.93,133.17c0,18.1,0,36.2-.01,54.3,0,1.11-.21,2.22-.32,3.33"/>
  <path class="cls-1" d="M26.35,6.57c-6.77-.31-13.54-.61-20.65-.93v35.58"/>
  <path class="cls-1" d="M134.26,99.85c-1.57-7.07-6.9-11.13-12.72-13.85-12.43-5.81-25.24-10.81-37.9-16.14"/>
  <path class="cls-1" d="M7.03,140.5v49.64h12.99c2.78,0,5.55-.02,8.33,0,13.1.1,26.2.14,39.3.35,16.1.25,32.2.65,48.29.98,6.33.13,12.66.24,18.98.32,1,.01,2-.2,3-.32"/>
  <path class="cls-1" d="M136.26,121.17c0,3.66.24,7.35-.05,10.99-.56,7.03-.38,14.17-2.64,20.98-.24.73-.86,1.34-1.31,2.01"/>
  <path class="cls-1" d="M122.27,61.87h-13.99"/>
  <path class="cls-1" d="M120.94,57.88h-13.32"/>
  <path class="cls-1" d="M90.96,56.54c4.88.22,9.77.44,14.65.67"/>
  <path class="cls-1" d="M134.93,57.88c-4.22.22-8.44.44-12.66.67"/>
  <path class="cls-1" d="M7.03,127.17c-.11,3.78-.22,7.55-.33,11.33"/>
  <path class="cls-1" d="M6.37,43.22c-.22,3.78-.44,7.55-.67,11.33"/>
  <path class="cls-1" d="M135.59,105.85c.22,3.78.44,7.55.67,11.33"/>
  <path class="cls-1" d="M86.3,64.54c-2.27.57-4.55,1.14-6.82,1.7-.02.3-.04.6-.06.9.96.69,1.92,1.37,2.88,2.06"/>
  <path class="cls-1" d="M106.95,62.54h-6"/>
  <path class="cls-1" d="M99.62,63.21h-4.66"/>
  <path class="cls-1" d="M92.3,63.87h-4.66"/>
  <path class="cls-1" d="M134.93,101.19v3.33"/>
  <path class="cls-1" d="M91.3,55.54c-.78-.11-1.55-.22-2.33-.33"/>
  <path class="cls-1" d="M134.93,59.21c-.22.67-.44,1.33-.67,2"/>
</svg>