<?xml version="1.0" encoding="UTF-8"?>
<svg id="Layer_1" data-name="Layer 1" xmlns="http://www.w3.org/2000/svg" viewBox="0 0 144 198">
  <defs>
    <style>
      .cls-1 {
        fill: none;
        stroke: #000;
        stroke-linecap: round;
        stroke-linejoin: round;
        stroke-width: 2px;
      }
    </style>
  </defs>
  <path class="cls-1" d="M125.29,141.79c.22,3.66.56,7.33.63,10.99.05,2.66-.26,5.33-.41,8.16h3.37c-.31-6.15-.65-12.15-.91-18.16-.47-10.66-.37-21.38-1.54-31.96-.71-6.41.6-12.46.95-18.67.06-1.14,1.2-2.25,1.92-3.33,3.62-5.46,5.7-11.44,5.98-17.99.23-5.5-2.12-10.03-5.68-13.96-1.68-1.85-3.73-3.38-5.66-5.09-3.44,1.16-5.74,3.74-7.96,6.39-10.6,12.65-16.46,27.77-21.86,43.02-3.11,8.76-4.89,17.98-7.51,26.92-.79,2.68-2.06,5.35-3.67,7.63-2.33,3.28-5.58,5.12-9.92,4.76-4.98-.41-9.99-.46-14.98-.73-.79-.04-1.56-.42-2.24-.61-5.73,3.57-11.44,7.04-17.06,10.67-1.91,1.23-3.73,2.71-5.29,4.35-.91.96-1.21,2.48-1.75,3.67,2.73,2.41,5.53,3.16,8.69,3.3,7.67.34,15.32.91,22.98,1.28,6.44.31,12.89.77,19.31.59,5-.14,8.87-3.04,12-6.89,7.14-8.77,10.55-19.12,12.62-29.99,1.69-8.86,2.96-17.8,4.79-26.63.6-2.9,2.11-5.71,3.69-8.27.56-.92,2.81-1.63,3.8-1.23,1.09.44,2.19,2.21,2.31,3.49.84,8.98,1.52,17.98,2.06,26.98.39,6.65.48,13.32.7,19.99"/>
  <path class="cls-1" d="M64.01,7.2c-19.65-.33-39.3-.66-59.29-.99v62.95"/>
  <path class="cls-1" d="M138.61,58.5c-.22,36.42-.44,72.85-.67,109.27"/>
  <path class="cls-1" d="M136.61,7.86c-2.78-.22-5.55-.63-8.33-.64-16.1-.06-32.2.02-48.29-.06-4.44-.02-8.88-.41-13.32-.64"/>
  <path class="cls-1" d="M137.28,191.76c-9.33,0-18.65.08-27.98-.02-15.32-.16-30.64-.44-45.96-.64-4.44-.06-8.88,0-13.32,0"/>
  <path class="cls-1" d="M5.39,84.49v55.97"/>
  <path class="cls-1" d="M95.31,67.16c.88-5.48-1.33-9.88-4.63-14.02-2.69-3.37-4.9-6.93-6.17-11.26-1.62-5.52-6.92-7.04-11.87-7.94-5.02-.91-10.2-.99-15.3-1.43"/>
  <path class="cls-1" d="M139.28,7.86v45.31"/>
  <path class="cls-1" d="M6.05,155.78v34.65h42.63"/>
  <path class="cls-1" d="M90.65,79.16c-.22-.22-.44-.44-.67-.67-3.89,4.33-7.9,8.55-11.61,13.03-2.82,3.4-4.73,7.32-4.36,11.96.17,2.11.43,4.22.66,6.33"/>
  <path class="cls-1" d="M75.33,111.14c.66,7.51-3.83,13.25-8.99,14.35-4.29.91-8.31-.09-12.33-1.36-4.12-1.3-8.21-2.69-12.33-3.96-.94-.29-1.99-.25-2.99-.36"/>
  <path class="cls-1" d="M32.03,32.52c-2.89-1.33-5.93-2.4-8.63-4.05-5.16-3.16-12.75-2.7-17.35,1.39"/>
  <path class="cls-1" d="M56.01,33.18c-4.11.44-8.21,1.2-12.32,1.24-3.44.03-6.88-.79-10.32-1.24"/>
  <path class="cls-1" d="M137.28,175.77v14.66"/>
  <path class="cls-1" d="M37.36,119.13c-4.54-.01-9.14-.4-13.32,2"/>
  <path class="cls-1" d="M6.05,142.45c-.22,3.78-.44,7.55-.67,11.33"/>
  <path class="cls-1" d="M5.39,71.16c-.11,3.55-.22,7.11-.33,10.66"/>
  <path class="cls-1" d="M16.71,130.46c-.22,3.55-.44,7.11-.67,10.66"/>
  <path class="cls-1" d="M15.38,142.45v10.66"/>
  <path class="cls-1" d="M93.98,71.16l-3,7"/>
  <path class="cls-1" d="M16.71,159.78c.44,2.22.89,4.44,1.33,6.66"/>
  <path class="cls-1" d="M22.71,122.13c.6-.27,1.19-.54,1.79-.81.06.35.12.69.18,1.04-4.45,0-8.95.87-13.29-1.23"/>
  <path class="cls-1" d="M17.38,125.13v4"/>
  <path class="cls-1" d="M16.05,154.45v4"/>
</svg>