<?xml version="1.0" encoding="UTF-8"?>
<svg id="Layer_1" data-name="Layer 1" xmlns="http://www.w3.org/2000/svg" viewBox="0 0 144 198">
  <defs>
    <style>
      .cls-1 {
        fill: none;
        stroke: #000;
        stroke-linecap: round;
        stroke-linejoin: round;
        stroke-width: 2px;
      }
    </style>
  </defs>
  <path class="cls-1" d="M111.15,6.96c9.07-1.52,18.22-.14,27.64-.83v48.8"/>
  <path class="cls-1" d="M4.9,55.6v69.29"/>
  <path class="cls-1" d="M138.13,59.6v67.3"/>
  <path class="cls-1" d="M101.49,6.3c-18.21-1.25-36.42-.39-55.07-.77,1.25,2.1,2.07,3.46,2.88,4.82-.17.22-.34.45-.52.67-.64-.13-1.28-.27-1.92-.4"/>
  <path class="cls-1" d="M26.22,5.63c-7.21-.29-14.43-.58-21.98-.88v35.53"/>
  <path class="cls-1" d="M5.57,140.22v48.64h15.99"/>
  <path class="cls-1" d="M137.46,132.22v58.63h-11.32"/>
  <path class="cls-1" d="M68.19,189.52c-8.88-.11-17.76-.22-26.65-.33"/>
  <path class="cls-1" d="M102.83,192.86c1.18-1.05,2.36-2.09,3.01-2.67h18.97"/>
  <path class="cls-1" d="M25.89,24.62c2.22,1,4.53,1.84,6.64,3.03,3.51,1.98,6.9,4.18,10.34,6.29"/>
  <path class="cls-1" d="M118.48,173.87c-6.17-1.89-11.76-4.93-16.99-8.66"/>
  <path class="cls-1" d="M104.16,146.22c1.78,2.78,3.5,5.59,5.35,8.31.88,1.3,2,2.43,3.22,3.88-.93.51-1.76.97-2.96,1.63,1.1,1.02,2.08,1.93,3.05,2.84"/>
  <path class="cls-1" d="M44.54,34.95c3.11,2,6.12,4.18,9.35,5.96,7.69,4.25,15.49,8.32,23.39,12.54,1.93-2.3,4.05-3.51,6.44-.62-1.26,2.33-3.02,2.54-5.54.44"/>
  <path class="cls-1" d="M83.17,154.54c-5.22-2.89-10.43-5.78-15.67-8.63-.21-.11-.65.19-.98.3"/>
  <path class="cls-1" d="M27.55,4.96c4.44.33,8.88.67,13.32,1"/>
  <path class="cls-1" d="M86.17,174.53c.88,1.1,1.76,2.2,2.75,3.44.74-.83,1.16-1.3,1.46-1.64-.85-1.22-1.68-2.41-2.54-3.64,2.72-2.07,3.11,1.21,4.68,1.21,3.66.32,7.31.79,10.97.89,1.29.04,2.6-.83,3.9-1.29.01-.38.02-.75.03-1.13-1.71-.92-3.42-1.83-5.3-2.84-.78.87-1.41,1.57-2.13,2.37.41.69.79,1.33,1.17,1.96"/>
  <path class="cls-1" d="M43.87,5.96c-.89.22-1.96.2-2.63.71-3.29,2.46-6.47,5.07-9.69,7.62"/>
  <path class="cls-1" d="M91.83,132.56c.72-.48,1.44-.96,2.62-1.74-1.62-.71-2.75-1.21-4.17-1.83-1.15.65-2.36,1.34-3.6,2.04,1.19,1.92,2.24,3.62,3.44,5.56,1.15-.76,2.09-1.4,3.04-2.03"/>
  <path class="cls-1" d="M126.81,175.87c-6.22-.33-12.43-.66-18.65-1.01-.45-.03-.89-.21-1.33-.32"/>
  <path class="cls-1" d="M29.55,38.28c3.55,4.55,7.09,9.12,10.67,13.65,1.27,1.6,2.65,3.12,3.99,4.67"/>
  <path class="cls-1" d="M59.86,183.2c-.72-2.15-2.37-3.01-4.64-1.96-4.5,2.08-8.88,4.45-13.36,6.59-1.35.64-2.87.92-4.32,1.36"/>
  <path class="cls-1" d="M40.54,24.29c-1.18.51-2.35,1.03-3.53,1.54,0,.3-.02.6-.03.91,1.92.94,3.83,1.88,5.96,2.92.63-.94,1.11-1.65,1.92-2.87-1.34-.84-2.67-1.67-4-2.5"/>
  <path class="cls-1" d="M13.23,23.95c4.26,2.25,8.34,4.76,11.66,8.33"/>
  <path class="cls-1" d="M110.15,7.63c-7.22,3.55-14.43,7.11-21.65,10.66"/>
  <path class="cls-1" d="M119.48,166.87c3.73,2.79,6.99,6.29,11.66,7.66"/>
  <path class="cls-1" d="M57.53,157.54c-.58,5.58-1.57,6.82-5.33,6.65-.12,0-.22-.21-.67-.65.78-.78,1.55-1.55,2.33-2.33"/>
  <path class="cls-1" d="M58.19,22.62c.56-.56,1.11-1.11,2.03-2.03-7.29-1.76-13.45,1.01-19.68,3.36"/>
  <path class="cls-1" d="M70.19,26.62c.33.78.45,1.8,1.03,2.29,4.94,4.18,9.85,8.41,14.99,12.31,3.57,2.71,7.51,4.94,11.29,7.38"/>
  <path class="cls-1" d="M86.84,41.28q1.55-5.43,5.21-7.27c.17,1.11.31,2.02.45,2.94"/>
  <path class="cls-1" d="M103.82,175.2c-1.55.67-3.07,1.79-4.67,1.92-6.83.54-11.95,5.05-17.96,7.46-1.36.54-2.46,1.73-3.68,2.61"/>
  <path class="cls-1" d="M74.51,172.53c-.22-.67-.24-1.58-.7-1.96-8.57-7.22-16.5-15.33-26.95-20.02"/>
  <path class="cls-1" d="M63.86,46.94c-1.53,5.11,1.38,9.29,3.1,13.62,1.01,2.55,3.01,4.7,4.56,7.04"/>
  <path class="cls-1" d="M4.9,42.94c-.22,3.55-.44,7.11-.67,10.66"/>
  <path class="cls-1" d="M5.57,126.89c-.22,3.55-.44,7.11-.67,10.66"/>
  <path class="cls-1" d="M26.89,18.29c-1.44.44-3.22.5-4.27,1.4-4.85,4.13-10.59,4.02-16.38,3.93"/>
  <path class="cls-1" d="M109.82,164.21c-.5.62-1.01,1.24-1.79,2.21,1.42.29,2.45.5,3.62.74v2.35c1.32-.82,2.24-1.39,3.16-1.97"/>
  <path class="cls-1" d="M85.84,156.54c.44,1.84.88,3.68,1.44,5.98-4.2-.88-2.97-3.3-2.77-5.31"/>
  <path class="cls-1" d="M72.85,130.89c2.55,4.89,5.36,9.66,7.53,14.71.81,1.87.13,4.39.13,6.61"/>
  <path class="cls-1" d="M63.19,37.61c-.17-.68-.34-1.36-.57-2.25-2.16,1.27-3.04,2.71-1.69,5.41.89-1.11,1.57-1.97,2.26-2.83"/>
  <path class="cls-1" d="M100.49,30.61c-2.22-.78-4.44-1.56-6.66-2.33-1-.35-2-.67-3-1"/>
  <path class="cls-1" d="M80.51,184.53c-1.38-.69-2.76-1.38-4.3-2.15-.9,1.35-1.56,2.35-2.22,3.34,1.97,1.47,3.75,2.8,5.54,4.14h21.3"/>
  <path class="cls-1" d="M49.87,183.2c-.59-1.62-1.19-3.24-1.85-5.05-2.11.54-3.68.95-6.11,1.57,1.26,1.03,1.95,1.58,2.63,2.14"/>
  <path class="cls-1" d="M95.5,161.21c-3.89-2.11-7.64-4.55-11.73-6.15-1.45-.57-3.7.93-5.59,1.49.22.67.44,1.33.67,2"/>
  <path class="cls-1" d="M44.54,57.27c3.77,3.89,7.55,7.77,11.32,11.66"/>
  <path class="cls-1" d="M31.22,163.21c-.46-2.16-1.83-3.11-4.25-2.98-.24.95-.49,1.97-.68,2.72,1.43,1.43,2.77,2.76,4.28,4.27.44-.08,1.21-.21,2.37-.41-.13-.86-.26-1.73-.41-2.71,4.21,1.23,7.88,4.55,13.07,3.6-1.11-2.29-1.27-4.6-4.06-4.49"/>
  <path class="cls-1" d="M136.8,175.2c-3.11.33-6.22.67-9.33,1"/>
  <path class="cls-1" d="M100.16,164.87c.42-1.39.83-2.77,1.46-4.85-2.24.37-3.68.61-5.12.85"/>
  <path class="cls-1" d="M96.16,18.62c1.98-1.47,3.91-2.1,6.16.63-1.7.61-3.06,1.09-5,1.79-.93-1.09-1.9-2.23-2.65-3.11.2-.82.35-1.39.49-1.96"/>
  <path class="cls-1" d="M44.21,34.28c-1.89,1.7-1.2,3.21.5,4.88,1.12-.5,2.31-1.03,3.5-1.55"/>
  <path class="cls-1" d="M44.21,151.55v2.65c-1.29-1.11-2.06-1.78-2.76-2.39.38-1.04.67-1.81.97-2.64,1.14.45,2.3.9,3.92,1.54-.05-.95.07-2.32-.17-2.38-.93-.26-1.97-.11-2.97-.11"/>
  <path class="cls-1" d="M44.54,168.87c2.44.67,4.89,1.3,7.32,2.02.6.18,1.12.64,1.67.98"/>
  <path class="cls-1" d="M87.84,173.87h-10.33"/>
  <path class="cls-1" d="M100.83,47.61c-.27-.53-.55-1.06-1.18-2.28,1.51.5,2.37.79,3.3,1.1-.24,1.31-.44,2.43-.65,3.63-1.36-.54-2.57-1.02-3.78-1.5-.64,2.72-.14,3.16,2.65,2.38"/>
  <path class="cls-1" d="M54.2,182.2c1.67,3.83,3.57,4.56,7.1,2.61-1.38-2.11-2.99-1.94-4.77-.61"/>
  <path class="cls-1" d="M71.18,173.87v4l1.11.49c1.65-1.46,3.29-2.93,5.07-4.51-.26.62-.55,1.32-.85,2.02"/>
  <path class="cls-1" d="M89.17,130.56c4.55,4.66,9.1,9.33,13.66,13.99,2.31,2.36,4.56,2.35,7.63-.61-.55-.24-1.1-.48-1.64-.72"/>
  <path class="cls-1" d="M34.55,188.53c-2.14,1.03-4.26,1.37-6.68.76-1.54-.39-3.31.13-4.97.24"/>
  <path class="cls-1" d="M46.2,5.96c-2.64.03-3.83,1.89-2.63,4.32.41.83,1.18,1.47,1.78,2.2.29-.07.58-.14.87-.21-.12-1.66-.24-3.31-.36-4.97"/>
  <path class="cls-1" d="M66.85,25.28h-7.99"/>
  <path class="cls-1" d="M51.53,24.62c-2.66.11-5.33.22-7.99.33"/>
  <path class="cls-1" d="M73.52,25.28c-.13-1.35-.26-2.7-.45-4.7-1.87,1.2-3.04,1.95-4.21,2.7"/>
  <path class="cls-1" d="M37.54,24.62c-3.77-.11-7.56-.13-11.32-.37-2.67-.17-5.33-.63-8-.97"/>
  <path class="cls-1" d="M40.21,52.94c-1.22,0-2.5-.23-3.65.05-1.83.45-2.71,1.44-.68,2.95"/>
  <path class="cls-1" d="M63.19,162.21q-1.25,2.55,2.66,3.33c.41,4.25-.28,5-4,4.33.49-2.36,1.88-2.91,4-2"/>
  <path class="cls-1" d="M41.21,167.2c.75-3.27.54-3.62-3.09-4.43.28,1.26.52,2.35.76,3.43"/>
  <path class="cls-1" d="M78.51,141.89c-1.94,4.41-2,4.45-5.88,3.97.19-.57.37-1.1.55-1.64"/>
  <path class="cls-1" d="M85.51,21.62c-2.33,1.44-4.66,2.89-6.99,4.33"/>
  <path class="cls-1" d="M59.86,37.28c-.64-.13-1.28-.27-2.81-.58.61,2.46,1.05,4.19,1.48,5.91"/>
  <path class="cls-1" d="M61.53,44.27c2.24.04,4.13-.61,5.57-2.84-.61-.32-1.09-.57-1.58-.83"/>
  <path class="cls-1" d="M83.17,158.21c-2.5-1.66-2.96.75-4.24,1.5.06.26.13.53.19.79.68.12,1.37.25,2.05.37"/>
  <path class="cls-1" d="M76.18,187.86c-1.36,3.22-4.52,1.34-6.66,2.33"/>
  <path class="cls-1" d="M69.19,167.2c-.94,2.25-1.87,4.5-2.5,5.99-3.79,2.52-6.91,4.6-10.41,6.92.35,1.17.63,2.13.91,3.08"/>
  <path class="cls-1" d="M105.16,143.22c2.19.95,3.59.2,4.7-2.58-2.1.48-3.74.85-5.37,1.21-.14-1.41-.28-2.88-.42-4.35-.42-.06-.85-.12-1.27-.19l-1.63,4.9"/>
  <path class="cls-1" d="M56.2,25.62c.8-.27,1.6-.53,2.88-.96-1.54-1.31-2.75-2.33-3.98-3.37-.56.79-.88,1.25-1.1,1.56.81,1.22,1.62,2.42,2.48,3.72-3.74.78-4.75-.55-4.62-5.6"/>
  <path class="cls-1" d="M64.19,13.96c.4,2.38,2.38,2.04,4.25,2.45.7-.98,1.43-2.01,2.35-3.3-1.61-.87-3.11-1.67-4.73-2.54-1.34.53-2.81.99-1.87,3.06"/>
  <path class="cls-1" d="M63.86,13.96c-2.22,1.33-4.44,2.67-6.66,4"/>
  <path class="cls-1" d="M82.84,8.96c-1.08.68-2.17,1.35-3.82,2.39,0,0-.59-.53-1.18-1.05"/>
  <path class="cls-1" d="M126.81,176.53c-3.11,1.44-6.22,2.89-9.33,4.33"/>
  <path class="cls-1" d="M106.16,32.95c3.6.74,5.44,1.83,7.33,4.33,1.24,1.65,3.04,1.79,4.33.33"/>
  <path class="cls-1" d="M79.18,31.61c1.87.24,3.16-.42,3.81-2.46-2.04-.9-3.41-.21-4.58,1.32.2,1.02.38,1.89.6,2.97.84.85,4.2-.01,2.5,3.17"/>
  <path class="cls-1" d="M71.52,54.93c.16-.46.32-.93.49-1.42-2.99-1.52-4.65-.45-5.49,3.75"/>
  <path class="cls-1" d="M87.5,13.96c-1.33-1.32-2.66-1.33-4.26.23.54.59,1.07,1.18,1.6,1.77"/>
  <path class="cls-1" d="M65.19,172.2c-3,0-6-.04-8.99.02-1.14.02-2.27.27-3.62.44.88,1.74,1.49,2.93,2.31,4.54h2.97"/>
  <path class="cls-1" d="M112.82,184.86c-1.89,1.55-3.77,3.11-5.66,4.66"/>
  <path class="cls-1" d="M51.87,159.21c-.84.44-1.68.88-3.22,1.69,1.85.46,2.87.72,3.89.97"/>
  <path class="cls-1" d="M113.48,176.53c-.67.91-1.35,1.82-1.77,2.4.91,1.4,1.51,2.33,2.11,3.26"/>
  <path class="cls-1" d="M87.17,176.53l-2.52,1.32c.07.36.15.72.22,1.09,1.43-.14,2.86-.27,4.29-.41"/>
  <path class="cls-1" d="M89.17,23.95c.55-.23,1.1-.45,1.65-.68-.2-.37-.4-.73-.6-1.1-1.59-.2-3.18-.4-5.4-.68,1.45-1.13,2.39-1.85,3.18-2.46v-2.82c-1.57-.51-3.3-1.74-2.83,1.42"/>
  <path class="cls-1" d="M72.52,141.22c-.84.44-1.68.88-2.82,1.48q4.44,1.65,6.38-2.27c-1.27-.72-2.57-1.45-3.87-2.18l-.87,1.14c.95.83,1.9,1.66,2.85,2.49"/>
  <path class="cls-1" d="M69.85,56.93c1.07.8,2.14,1.6,3.36,2.52q-2.41.99-4.47-.97c.49-3.83,2.77-3.66,6.12-2.26-1.26.72-2.13,1.22-3.01,1.72"/>
  <path class="cls-1" d="M90.17,17.29c-.35-1.17-.69-2.35-1.17-3.97-.94,1.19-1.39,1.75-1.83,2.31"/>
  <path class="cls-1" d="M51.87,64.26c2-1.44,1.9-1.38,3.39.96.46.72,1.58,1.03,2.89,1.82-1.33,1.19-2.38,2.13-3.48,3.11-1.55-.59-2.89-1.11-4.75-1.82,1.18-.78,1.89-1.26,2.61-1.74"/>
  <path class="cls-1" d="M100.83,192.86c1.47-2.56.3-4.39-1.75-6.42-.53.88-.89,1.48-1.25,2.09"/>
  <path class="cls-1" d="M47.54,36.28c.13-.66.26-1.32.53-2.67-1.24.13-2.22.24-3.2.34"/>
  <path class="cls-1" d="M29.55,31.61c.88-.68,1.76-1.36,2.89-2.24.4.94.75,1.75,1.1,2.57"/>
  <path class="cls-1" d="M63.52,37.94c.68.19,1.35.37,2.03.56.12.28.23.56.35.84-1.35.64-2.69,1.28-4.04,1.93"/>
  <path class="cls-1" d="M96.83,163.21v2.38c.92-.13,1.79-.26,2.66-.38"/>
  <path class="cls-1" d="M32.22,34.28v-1.83h4.5c-.97,1.12-1.64,1.89-2.27,2.63-1.35-.3-2.46-.55-3.56-.79"/>
  <path class="cls-1" d="M77.51,26.95c-.78,1.55-1.55,3.11-2.33,4.66"/>
  <path class="cls-1" d="M79.84,26.62c3.44.11,6.88.22,10.33.33"/>
  <path class="cls-1" d="M63.19,148.05c1.12-.61,2.25-1.22,3.73-2.03-2.61-2.02-4.39-1.97-6.34-.24.67.6,1.14,1.02,1.61,1.43"/>
  <path class="cls-1" d="M93.17,190.86c.75,1.59,1.38,3.45,3.66,1.67"/>
  <path class="cls-1" d="M43.21,56.93c-.44,1.51-.87,3.02-1.31,4.53-.44.14-.87.28-1.31.43-.24-.54-.47-1.08-.71-1.62"/>
  <path class="cls-1" d="M24.22,19.62c1.75,2.25,5.28,3.24,8.77,2.2-.64-1.41-1.25-2.77-1.86-4.13-.19.09-.37.18-.56.27.1-.56.21-1.11.31-1.67"/>
  <path class="cls-1" d="M39.88,57.27c-2.4.32-3.47,1.54-2.77,4.05,3.47-1.72,3.53-1.86,2.22-6.07-1.49.53-2.94,1.06-4.4,1.58.07.32.14.64.21.96.69.27,1.38.55,2.07.82"/>
  <path class="cls-1" d="M87.84,18.29c-.88-.04-1.76-.08-3.28-.16.85,1.13,1.23,1.64,1.62,2.16"/>
  <path class="cls-1" d="M82.84,159.21c-.54,1.24-1.08,2.49-1.62,3.73.31.19.62.39.92.58.57-.55,1.13-1.09,1.7-1.64"/>
  <path class="cls-1" d="M74.85,10.29c.24,2.16,1.22,2.64,3,1.33"/>
  <path class="cls-1" d="M112.48,9.63c-.39,2.23-1.87,1.77-3.33,1.33"/>
  <path class="cls-1" d="M26.89,162.54c1.79.39,3.58.79,6.07,1.34-1.5.88-2.46,1.44-3.41,2"/>
  <path class="cls-1" d="M64.86,170.54c.27.69.55,1.38.85,2.14,3.69.29,7.25.58,10.81.86"/>
  <path class="cls-1" d="M92.5,174.53c.11,1.22.22,2.44.33,3.66"/>
  <path class="cls-1" d="M66.85,189.19c-.66-.67-1.31-1.35-1.97-2.02l-.69.35v2"/>
  <path class="cls-1" d="M68.19,23.62c-1.09,2.2.81,2.5,2,2.59,2.87.22,5.77.07,8.89.07.24.85.5,1.76.76,2.67"/>
  <path class="cls-1" d="M69.52,188.19c-1.4-1.76-1.68-1.79-3-.33"/>
  <path class="cls-1" d="M113.48,35.61c1.22.33,2.44.67,3.66,1"/>
  <path class="cls-1" d="M50.53,6.63l1.4,1.4c-1.07.36-1.9.65-2.73.93"/>
  <path class="cls-1" d="M110.49,161.21c-.61.49-1.22.97-1.83,1.46,0,.28,0,.55,0,.83,1.61.35,3.22.7,4.83,1.05"/>
  <path class="cls-1" d="M103.16,31.95c-.8,3.45-.34,4.06,3.34,3.99-.12-.6-.21-1.14-.35-1.66-.16-.58-.38-1.13-.54-1.62q-4.59-1.74-6.53-.66c.61,2.05,1.26,4.02,4.08,3.62"/>
  <path class="cls-1" d="M52.53,156.54c-.57.14-1.15.29-2.65.66,1.87,1.3,3.09,2.15,4.32,3"/>
  <path class="cls-1" d="M48.2,180.53c-1.35.62-2.7,1.23-4.36,1.99.78.9,1.4,1.62,2.03,2.34"/>
  <path class="cls-1" d="M34.88,35.28c.33.33.67.67,1.16,1.16-1.27,1.27-2.55,2.55-3.83,3.83"/>
  <path class="cls-1" d="M70.85,8.29c-.78.89-1.55,1.78-2.33,2.67"/>
  <path class="cls-1" d="M35.21,187.86c.81.13,1.62.27,2.76.46-2.4,3.85-6.12,3.39-9.09,4.54"/>
  <path class="cls-1" d="M104.16,190.52c-.89-.11-1.78-.22-2.66-.33"/>
  <path class="cls-1" d="M70.85,60.93c-.56.56-1.11,1.11-1.67,1.67"/>
  <path class="cls-1" d="M98.5,14.29c.56.89,1.11,1.78,1.67,2.67"/>
  <path class="cls-1" d="M78.18,189.86h-2.66"/>
  <path class="cls-1" d="M114.82,176.53c1,.33,2.06,1.06,2.98.92,1.88-.3,1.92,1,2.34,2.08"/>
  <path class="cls-1" d="M90.5,23.95c.9.79,1.69,1.59.33,2.67"/>
  <path class="cls-1" d="M31.55,36.28c.89.56,1.78,1.11,2.66,1.67"/>
  <path class="cls-1" d="M92.83,39.94c.8-.51,1.61-1.02,2.41-1.53-.02-.23-.03-.46-.05-.69-1.67-.09-3.34-.17-5-.26-.07.22-.13.44-.2.67,1.29,1.13,2.59,2.27,4.2,3.68-1,.2-1.68.33-2.36.47"/>
  <path class="cls-1" d="M96.16,161.54c1.22.89,2.44,1.78,3.66,2.67"/>
  <path class="cls-1" d="M88.84,40.28c1.31,1.16,3.5,1.84,2.33,4.33"/>
  <path class="cls-1" d="M104.82,139.22c.76-.48,1.52-.96,2.66-1.69v3.02"/>
  <path class="cls-1" d="M66.85,11.96c-.78.56-1.55,1.11-2.33,1.67"/>
  <path class="cls-1" d="M115.81,33.28c-.78.22-1.55.44-2.33.67"/>
  <path class="cls-1" d="M57.2,19.62c-.11-.56-.22-1.11-.33-1.67-.89.44-1.78.89-2.66,1.33"/>
  <path class="cls-1" d="M98.5,189.86l-1.61-2.72c-.35.24-.7.48-1.06.72v2.33"/>
  <path class="cls-1" d="M53.2,154.88c.47,1.41.94,2.82,1.41,4.23.08-.08.17-.16.25-.24v2"/>
  <path class="cls-1" d="M114.82,160.87c-.67-.56-1.33-1.11-2-1.67"/>
  <path class="cls-1" d="M62.19,165.21c-.33.33-.67.67-.95.95.43.58.86,1.15,1.28,1.72"/>
  <path class="cls-1" d="M81.84,31.61c.24.54.47,1.08.71,1.62.42,0,.83,0,1.25,0l-1.62.71"/>
  <path class="cls-1" d="M98.5,190.52v1.33"/>
  <path class="cls-1" d="M87.17,179.86c-.11.22-.26.44-.31.67-.02.08.2.22.31.33"/>
  <path class="cls-1" d="M60.86,174.2c.11.33.22.67.33,1"/>
  <path class="cls-1" d="M112.82,166.2c-.33.11-.67.22-1,.33"/>
</svg>