<?xml version="1.0" encoding="UTF-8"?>
<svg id="Layer_1" data-name="Layer 1" xmlns="http://www.w3.org/2000/svg" viewBox="0 0 469.64 546.67">
  <defs>
    <style>
      .cls-1 {
        fill: #000;
        stroke-width: 0px;
      }
    </style>
  </defs>
  <path class="cls-1" d="M346.08,129.83c-13.2-.37-27.3-.37-41.53-.37-1.44,1.5-2.93,3.06-5.46,5.7h-26.25c-2.67,2.67-4.21,4.21-6.87,6.87h-32.6c-2.67,2.67-4.2,4.2-6.37,6.36h-24.93c-2.71,2.17-5.13,4.11-8.36,6.7h-18.22c-2.6,2.22-4.99,4.26-7.86,6.7h-38.27c-2.48,2.24-4.84,4.37-8.35,7.55-5.64-2.62-11.94-5.55-19.62-9.12-2.6-4.54-6.14-10.71-9.86-17.19-9.51,4.85-18.12,9.24-27.38,13.96-1.95-3.62-3.31-6.15-6.07-11.27,4.52-2.61,9.17-5.3,17.01-9.83-.64,0,3.68,0,8.02,0,10.61-13.74,27.57-17.33,41.48-25.74,3.01-1.81,8.07-.22,13.85-.19-6.98,16.4-23.98,18.12-32.62,29.2.72.77,1.41,2.16,2.18,2.21,10.69.63,21.4,1.07,32.81,1.59,2.65,1.83,6,4.14,9.24,6.38,9.05-5.58,19.96-7.01,26.94-16.28-1.74-2.09-3.57-4.3-5.79-6.97v-32.47c2.48-2.6,5.44-5.68,8.86-9.27h26.79c1.94,1.77,5.04,4.6,8.04,7.32,3.2,7.35,1.65,14.73,1.14,22-3.1,3.12-6.16,6.19-9.2,9.25h-10.7c2.28-3.93,4.75-6.98,7.36-10.22-.94-4.58,2.02-10.03-1.87-14.56-5.92-1.38-11.86-3.43-17.26,1.57.53,7.78-2.94,16.15,2.87,23.21h8.9c2.01,5.29-4.02,6.28-5.17,10.24,3.05,4.32,8.25,3.78,11.68,2.51,8.46-3.14,16.39-7.73,26.79-12.85h55.72c1.63-1.63,3.17-3.17,4.7-4.7.85-.57,1.69-1.65,2.55-1.65,23.82-.09,47.64-.07,70.5-.07,3.22-2.74,5.62-4.77,9.03-7.66,3.4,1.97,6.88,3.98,12.42,7.18h17.48c7.04-4.32,14.86-9.11,22.02-13.5,1.78-8.53,2.94-15.09-4.06-21.45-4.17-3.79,1.48-12.25-4.75-17.49-4.6-3.87-3.11-11.88-9.16-15.85-1.66-1.09,1.18-6.39-2.52-8.51-11.72-6.72-9.97-23.91-24.63-28.87,3.81-4.11,6.54-7.06,9.17-9.89.96-.11,2.09-.58,2.44-.24,6.98,6.84,13.88,13.77,19.05,18.95,9.48,19.22,17.94,36.35,28.22,57.18v23.76c2.93,1.52,4.64,3,6.53,3.27,8.38,1.17,17.08-1.74,25.51,1.57-.74,5.95-5.8,8.02-9.09,11.71h-12.72c-1.07,1.91-2.91,3.67-2.92,5.44-.17,31.5-.13,63-.13,94.89-1.9,2.15-4,4.52-6.37,7.19v32.05c-2.27,2.43-4.46,4.78-6.71,7.18v25.78c-2.27,2.46-4.44,4.81-6.71,7.27v12.62c-1.76,1.76-3.3,3.3-5.56,5.57v23.26c-4.14,7.59-7.5,13.73-10.77,19.72h-6.47c-6.26-6.6-1.82-14.54-3.11-22.03,1.97-2.22,4.07-4.6,6.43-7.27v-18.89c1.57-1.73,3-3.31,4.49-4.95.71-1.79,2.02-3.64,2.08-5.53.24-7.59.1-15.18.1-22.71,1.6-1.6,3.14-3.14,4.68-4.68.61-.83,1.76-1.66,1.76-2.5.11-15.14.08-30.29.08-44.99,1.98-1.98,3.52-3.52,5.79-5.79v-92.83q-6.11,1.07-9.38,4.08h-17.18c-7.26,4.03-15.21,8.44-23.72,13.16-6.42,1.21-14.94-4-20.62,3.29-5.46,6.99-15.06-1-20.18,6.74-4.64,7.01-14.69-.94-20.02,6.85-4.5,6.58-14.07-.59-20.21,6.66-4.09,4.83-12.48,5.92-18.8,8.99-6.34,3.08-12.56,6.43-18.73,9.84-6.24,3.44-12.37,7.09-18.6,10.68-.34,3.84-.58,6.92-.91,9.99-.22,2.06-.55,4.11-.84,6.16-1.54,1.54-3.07,3.07-5.76,5.76v26.08c-2.68,2.68-4.22,4.22-6.09,6.09v18.94c-2.25,2.53-4.36,4.91-6.71,7.56v25.52c-2.28,2.44-4.46,4.79-6.71,7.2v12.88c-1.58,1.58-3.11,3.12-5.9,5.9-.28,3.8-.67,8.93-1.03,13.78-2,2.41-3.84,4.62-5.65,6.8,4.94,5.13,10.7,1.67,16.06,2.91,5.07,5.26,10.34,10.73,15.98,16.6v12.18c2.29,2.47,4.47,4.82,6.71,7.24v12.86c1.59,1.59,3.13,3.13,5.86,5.86.32,6.05.71,13.35,1.1,20.66,1.54,1.54,3.07,3.07,5.31,5.31v37.85c2.16,2.76,4.06,5.2,6.6,8.45v53.03c-5.32,4.79-10.92.94-15.44,2.68-3.6-3.6-6.67-6.67-9.88-9.88v-12.75c-7.95-2.95-15.07-6.85-19.7-14.19,4.04-9.51-6.14-15.38-6.22-23.36-.11-10.16-6.69-17.2-10.96-24.82-4.12-7.36,2.47-18.48-9.79-22.94v-47.77c-10.39.36-1.46,13.11-10.36,13.5-2.77,6.46-4.9,13.3-8.5,19.25-3.24,5.35-7.91,9.89-12.28,14.47-4.48,4.7-9.35,9.01-13.16,12.65q-7.28,20.93-29.29,42.94c-3.06.19-7.21.45-13.1.82-6.91,1.26-8.35,14.24-18.94,12.73-5.48,5.12-10.71,10.56-16.51,15.29-6.34,5.18-15.23,6.19-20.5,13.75-4.28,6.14-10.53,10.91-15.92,16.3-2.11.1-4.24.21-6.5.32-2.25,2.09-4.59,4.25-6.92,6.42-3.07-3.07-6.14-6.14-11.12-11.12,4.92-3.97,10.06-7.7,14.69-11.98,6.37-5.9,15.19-11.24,17.76-18.63,3.07-8.85,9.22-13.8,14.56-20.09-2.72-11.85,11.86-13.5,13.77-23.78,1.34-7.21,4.94-15.61,11.57-21.12-.08-9.97,8.5-14.04,13.82-20.34,0-8.69,0-17.37,0-24.1,6.97-13.14,13.14-24.75,19.57-36.86v-16.38c1.62-1.98,3.59-4.39,6.89-8.44v-25.46c2.68-2.68,4.22-4.22,5.95-5.95v-38.75c2.27-2.44,4.46-4.79,6.71-7.21v-19.31c-2.23-2.39-4.42-4.74-6.7-7.17v-16.87c-3.84-7.47-6.62-12.87-9.44-18.37h-52.5c-2.7-3-5.59-6.21-8.84-9.82v-15.35c7.61,1.18,9.86,7.78,15.27,11.55h56.25c10.32,3.8,10.98,13.25,15.24,19.41,3.35.69,6.32,1.3,9.7,1.99v74.2c-2.07,2.07-3.61,3.61-5.54,5.54v44.91c-2.23,2.57-4.3,4.95-6.71,7.72v12.37c-2.27,2.45-4.45,4.8-6.71,7.23v12.77c-2.25,2.41-4.44,4.75-6.54,7,0,3.44,1.26,7.54-.24,9.8-4.52,6.8-7.08,14.59-11.03,21.65-3.7,6.62-2.93,15.51-8.02,22.74-4.54,6.45-6.46,14.88-11.25,21.25-3.2,4.26-1.19,8.26-1.16,11.9-4.15,1.07-9.19.59-4.77,6.29,1.52-1.78,3.03-3.55,4.77-6.29,8.51-1.42,11.43-11.02,18.44-15.72-1.66-8,4.46-12.08,9.33-15.5,13.5-9.48,16.94-26.8,29.73-36.6-1.31-9.28,7.72-11.99,11.31-18.11,3.07-5.23,3.82-11.51,9.26-15.74,7.64-5.95,10.17-15.38,12.04-24.13,3.29-15.37,14.57-26.45,19.95-40.61v-64.81c1.66-1.66,3.19-3.19,5.82-5.82-1.61-9.62,5.08-18.03,8.12-27.69,6.84-6.84,13.74-13.74,18.44-18.44,11.57-5.91,20.52-10.49,31.65-16.18h16.79c4.68-4.47,9.32-8.89,14.04-13.39h6.21c1.67-1.67,3.2-3.2,5.86-5.86h21.2c10.17-4.2,14.95-5.81,19.32-8.18,1.37-.74,1.62-3.53,1.48-5.01,4.15-1.07,9.19-.59,4.77-6.29-1.52,1.78-3.03,3.55-4.77,6.29ZM205.65,369.93c-4,10.66-1.17,21.38-2.18,31.71-.5,5.08,5.53,7.93,5.26,10.53-1.22,12.02,10.24,20.46,8.18,32.58-.34,2.03,3.65,4.8,6.01,7.68v16.06c3.74,5.78,6.39,9.88,9.07,14.02,9.6-9.88.14-12.92-2.48-18.14v-31.65c-2.32-2.57-4.44-4.91-6.62-7.32v-16.65c-3.84-7.52-5.38-14.24-9.59-17.92-6.72-5.89.92-15.28-7.65-20.89Z"/>
  <path class="cls-1" d="M154.72,90.33h-12.92c-3.65-3.12-3.7-3.12-2.47-17.34,4.46-4.49,10.13-1.07,15.19-2.26,5.75,6.49,5.53,13.01.2,19.59Z"/>
  <path class="cls-1" d="M81.48,506.88c-2.65,3.11-4.17,4.88-5.68,6.66-4.42-5.7.62-5.22,5.68-6.66Z"/>
  <path class="cls-1" d="M77.84,508.37c2.65-3.11,4.17-4.88,5.68-6.66,4.42,5.7-.62,5.22-5.68,6.66Z"/>
</svg>