<?xml version="1.0" encoding="UTF-8"?>
<svg id="Layer_1" data-name="Layer 1" xmlns="http://www.w3.org/2000/svg" viewBox="0 0 550.67 540.19">
  <defs>
    <style>
      .cls-1 {
        fill: #000;
        stroke-width: 0px;
      }
    </style>
  </defs>
  <path class="cls-1" d="M250.24,305.63c-8.35,1.73-10.65,12.6-19.31,15.14-7.18-8.16,7.53-11.34,4.23-18.62,3.21-5.03,5.47-11.26,9.87-14.8,5.95-4.78,4.45-13.69,11.38-17.34v-38.15c-1.78-1.92-3.61-3.89-5.41-5.83v-8.19c-3.65-7.61-7.39-15.15-10.81-22.83-.68-1.52-.1-3.59-.1-6.87-3.02-3.02-8.28-6.18-10.09-10.71-1.65-4.13-2.78-8-6.19-11.1-4.03-3.66-7.08-9.28-11.73-11.23-15.62-6.54-24.02-20.92-36.17-31.15-4.72-3.98-8.61-8.54-7.79-14.99h-8.05c-.58-2.36-.51-5.32-1.92-7.12-3.86-4.93-8.34-9.38-12.49-13.92-4.55-.53-8.85-1.04-13.1-1.54-5.18-9.98,5.13-11.92,8.91-18.09v-20.17c4.54-5.4,6.79-10.86,5.9-17.35,5.92-7.75,13.04-13.72,22.15-17.79,6.34-2.83,10.94-3.18,16.96,1.14,6.04,4.33,13.54,6.62,20.36,9.78.18,1.86.35,3.6.78,7.97,4.75,3.74,11.11,8.75,17.88,14.09-2.33,4.54-3.86,7.53-5.8,11.31,1.18,2.45,2.88,5.97,4.68,9.72-4.67,2.89-9.06,5.2-12.97,8.15-3.59,2.71-6.66,6.1-10.26,9.47,2.22,9.95,8.84,15.82,17.29,18.71,6.48,2.22,8.61,8.89,14.47,11.19,5.47,2.14,11.5,3.49,16.24,6.72,5.17,3.51,9.19,8.73,13.63,13.28,3.13,3.2,8.58.95,11.44,5.66,2.29,3.77,6.03,6.8,9.54,9.65,1.86,1.51,4.96,1.49,6.88,2.96,4.13,3.18,9.63,4.14,13.34,7.09,5.47,4.35,10.4,9,17.2,11.43,2.32.83,5.67,3.79,5.55,5.59-.59,9.01,8.54,10.96,11.48,17.87-.64,14.19,10.63,24,16.1,41.18v50.19c-1.28,1.45-3.03,3.44-5.02,5.69v10.43c-1.9,2.04-3.73,4-5.62,6.02v10.65c-1.9,2.06-3.72,4.03-5.82,6.31.67,2.33,1.37,4.76,2.23,7.77,2.54-2.26,4.43-3.95,6.46-5.76h10.71c10.57,7.32,10.64,21.4,19.21,30.27v16.09c1.33,1.33,2.62,2.62,3.91,3.9.5,1.61,1.4,3.21,1.43,4.83.15,8.12.07,16.24.07,21.08-2.68,5.96-5.23,9.03-5.23,12.1,0,8.93-7.87,15.49-6.76,24.56-5.85,5.36-6.01,14.56-13.4,19.1-3.68,2.26-1.74,7.85-5.68,11.31-10.22,8.98-19.47,19.06-29.11,28.69-13.37,3.75-19.72,16.56-29.63,23.41-3.11-2.54-5.85-4.77-7.76-6.34,2.74-5.33,5.09-9.88,7.43-14.43h5.22c1.1-1.45,3.06-2.86,2.95-4.1-.35-4.28,2.12-6.87,5-8.85,3.45-2.36,9.55-3.15,10.66-6.08,1.59-4.19,2.55-8.23,6.31-10.91v-14.88c3.49-6.48,6.32-11.71,10.27-19.03v-37.8c-1.25-1.25-2.53-2.53-4.13-4.13-.52-5.77-1.07-11.87-1.61-17.98-7.65-3.58-2.43-11.62-6.05-17.1-5.46.8-7.54,6.07-11.24,9.14-3.48,2.89-6.37,6.48-9.73,9.54-3.81,3.47-6.53,7.82-13.1,8.27-3.41.23-6.46,5.9-9.67,9.11-3.86,3.86-7.1,9.09-11.75,11.15-3.98,1.76-8.27,2.41-10.93,6.25h-10.93c-2.02,1.88-3.98,3.7-5.91,5.5h-9.09c-4.49.19-6.53,8.22-13.3,5.56-5.17-2.03-7.21,4.51-11.35,5.25-6.73,1.2-14.66-2.79-19.82,4.86-7.19-.37-13.34,2.25-19.38,5.96-1.98,1.22-5.34.19-8.26.19-1.86,1.72-3.82,3.54-5.87,5.43h-16.3c-1.21,1.27-2.46,2.58-3.26,3.42-1.19.96-1.87,1.98-2.56,1.98-12.68.1-25.37.07-37.77.07-1.57,1.57-2.85,2.85-4.8,4.8H17.86c-.55-2.23-1.15-4.69-1.74-7.08,5.51-3.01,10.66-5.81,15.8-8.62,8.24,4.35,12.14-6.74,19.56-5.5,1.77.3,3.63.04,5.63.04,1.87-1.74,3.83-3.57,5.85-5.45h10.69c2.02-1.88,3.98-3.71,6.02-5.62h15.68c2.47-1.98,4.3-4.52,6.63-5.15,15.64-4.21,29.12-10,38.75-18.26,2.95-2.53,5.51-4.39,9.42-3.73,2.67-5.5,9.29-4.33,13.14-7.74,4.54-4.04,8.39-8.25,14.98-10.1,4.58-1.29,8.58-6.73,11.54-11.18,4.76-7.15,13.22-8.22,19.22-13.26,5.25-4.42,8.64-10.47,16.51-12.84,6.15-1.85,10.04-10.19,15.99-14.03,6.02-3.89,1.25-13.51,9.48-14.25,0-3.82,0-6.55-.76-9.05,3.47-.81,7.69-.41,3.99-5.18-1.27,1.49-2.53,2.97-3.99,5.18ZM218.27,128.14c2.94,2.95,5.89,5.89,8.83,8.84,3.21,3.21,6.19,6.7,9.7,9.54,3.18,2.58,2.14,6.98,4.04,9.15,3.08,3.51,3.32,8.77,5.87,11.06,3.68,3.31,5.05,6.07,3.95,11.32,5.51,3.64,11.1,7.32,16.69,11.01-3.77,8.77,6.01,14.01,5.71,22.25-.27,7.29,10.02,13.03,3.95,21.72-1.28,1.28-2.57,2.57-4.2,4.2,0,9.59-.07,19.52.07,29.46.02,1.61.96,3.21,1.48,4.81,1.28,1.28,2.57,2.57,3.84,3.84-1.81,1.95-3.62,3.9-5.51,5.94v15.74c-1.96,2.38-4.46,4.19-5.13,6.52-.96,3.33-.02,7.2-.95,10.55-.65,2.32-3.93,3.94-4.49,6.25-.81,3.31-.21,6.97-.21,9.23-4.34,6.13-10.46,8.45-11.47,16.08-.58,4.33-6.84,7.91-10.59,11.79-4.4,4.56-8.85,9.08-11.69,11.99-4.42,1.65-7.72,1.84-8.97,3.55-3.44,4.68-10.62,2.04-13.36,7.55-3.06,6.17-10.52,5.6-15.1,9.58-3.85,3.35-6.31,7.83-12.95,8.5-5.56.56-7.27,9.82-14.59,10.5-5.12.48-7.75,6.41-13.79,6.45-2.74.02-5.45,4.12-8.85,6.93,8.17,4.1,14.98,3.21,21.35,2.01,1.76-1.76,3.04-3.04,5.28-5.28h22.01c2.07-2.19,3.31-3.51,4.51-4.77h10.86c2.05-1.9,4.01-3.71,6.06-5.61h18.46c2.2-3.22,5.25-7.68,7.34-10.73,5.09,0,8.18.84,10.46-.17,5.39-2.37,10.97-4.93,15.41-8.67,8.7-7.31,16.36-15.41,26.41-21.59,10.53-6.48,18.32-17.41,27.3-26.4,1.93-1.93,3.85-3.85,5.83-5.83v-16.32c3.36-2.96,4.95-6.5,6.22-11.05,1.03-3.68,5.96-6.48,4.71-11.57-1.32-5.39,3.94-7.45,5.09-10.23v-38.54c-2.96-2.96-5.86-5.29-7.98-8.18-1.42-1.94-1.12-5.21-2.63-7-7.78-9.22-8.8-22.55-18.65-30.44-4.41-12.18-14.32-19.98-23.18-28.48-8.84-8.48-16.93-17.42-28.15-23.76-9.9-5.59-17.01-16.12-25.78-24.9-3.7,2.14-8.67-1.9-13.21,3.17ZM365.53,411.74v-36.91c-3.76-6.48-7.14-12.31-11.22-19.34-.63-2.76,2.23-7.54-1.7-11.23-1.73-.23-3.44-.46-6.88-.92-2.24,2.35-5.22,5.46-7.28,7.61v33.91c9.18,4.08,1.4,15.94,9.65,20.36.45,7.84.9,15.68,1.3,22.68-4.84,4.67-8.83,8.45-3.36,13.3,5.98-3.07,7.08-9.51,10.44-14.19,3.54-4.92,2.63-12.36,9.05-15.28ZM166.48,76.35h19.98c5.94-3.09,10.44-5.44,15.46-8.05,0-3.22.24-6.8-.06-10.34-.36-4.35,1.45-8.95-1.36-13.19-2.53-2.3-5.13-4.66-6.72-6.11h-27.9c-2.87,3.02-5.33,5.6-7.35,7.72v22.03c2.81,2.81,5.38,5.38,7.95,7.95Z"/>
  <path class="cls-1" d="M420.06,124.79c-6.17-12.06-11.53-22.51-17.82-34.81,3.39-2.48,6.84-5,10.21-7.47,1.64,1.44,3.62,3.18,6.44,5.66,2.8-1.51,5.75-3.1,11.65-6.28h13.98c2.21-2.21,3.49-3.49,5.02-5.02h33.76c1.8,1.8,3.08,3.08,4.65,4.65h15.79c2.1,1.84,4.08,3.58,6.36,5.58h31.46c3.86,3.01,7.3,5.69,8.83,6.88,1.57,8.46-3.75,10.14-6.46,14.55h-27.32c-5.79,5.52-10.36,9.87-14.8,14.09v16.51c-1.33,1.33-2.61,2.61-4.81,4.81v21.81c-3.48,3.48-6.04,6.04-8.68,8.68h-16.1c-2.01,1.88-3.96,3.71-5.9,5.51h-10.72c-2.04-1.89-3.99-3.71-6.01-5.59h-8.62c-6.25-3.2-10.74-5.51-15.34-7.86v-10.72c-1.88-2-3.71-3.95-5.56-5.93v-25.06ZM451.79,169.06c3.73,0,9.2.29,14.63-.08,6.11-.42,12.53,1.96,19.25-2.31v-22.31c2.25-2.25,3.53-3.53,5.3-5.3,0-6.72.04-13.93-.06-21.13,0-.72-.9-1.42-2-3.05-1.78,1.35-3.52,2.67-6.72,5.09h-51.24c.1,10.62-.07,20.37.08,28.13,3.16,6.15,5.48,10.66,7.07,13.74,4.9,2.58,8.62,4.54,13.7,7.21ZM419.46,95.27c5.1,4.44,9.79,8.53,15.58,13.57h42.13c1.57-1.42,3.54-3.2,5.69-5.14h15.97c2.06-1.89,3.78-4.16,6.07-5.41,2.3-1.25,7.1,1.72,6.84-4.13-35.07-2.57-72.9-2.17-92.28,1.1Z"/>
  <path class="cls-1" d="M338.26,106.34v6.13c2.96,1,6.12,2.07,9.28,3.15,6.55,6.69-2.36,8.97-4.1,14.21v14.78c-2.88,2.98-5.39,5.58-7.82,8.09-7.42,0-14.67,0-21.91,0-4.23-8.24-8.46-16.48-13.55-26.4-.3-5.9.1-13.8-.12-21.87,13.25,0,24.78-.03,36.31.08.65,0,1.28,1.2,1.92,1.84ZM331.06,136.34c4.61-9.89-3.34-11.94-6.93-16.71-2.27.51-4.68,1.05-8.95,2,3.42,5.01-1.81,10.67,4.13,14.7h11.75Z"/>
  <path class="cls-1" d="M11.05,468.95c5.2,2.49,10.44,4.85,15.52,7.51,1.5.79,2.92,2.23,3.73,3.73,2.58,4.73,4.86,9.62,7.3,14.55-2.24.64-3.82,1.09-5.41,1.54-.83-.14-1.94.01-2.44-.47-6.4-6.11-12.71-12.31-18.71-18.16v-8.7Z"/>
  <path class="cls-1" d="M.14,452.64c8.61,2.14,11.78,7.9,10.91,16.36-8.61-2.14-11.78-7.9-10.91-16.36"/>
  <path class="cls-1" d="M183.96,342.43c.72,4.04,1.25,7.04,1.65,9.29-3.96,4.18-6.96,2.8-10.18,1.66.97-5.02,5.03-6.73,8.54-10.95Z"/>
  <path class="cls-1" d="M431.8,538.88c.29-5.55,5.76-6.19,6.92-10.31,4.35,4.1,4.32,7.72.13,11.61"/>
  <path class="cls-1" d="M104.65,406.92c-3.51,2.19-6.87,4.29-10.64,6.65-.33-2.12-.8-5.13-1.18-7.61,4.1-3.21,7.11-3.43,11.82.97Z"/>
  <path class="cls-1" d="M373.71,272.66c3.92,3.65,3.92,7.28,0,10.93-3.92-3.65-3.92-7.28,0-10.93Z"/>
  <path class="cls-1" d="M153.63,3.51c.63-1.14,1.29-2.33,1.94-3.51.61.61,1.81,1.34,1.7,1.79-.29,1.28-1.1,2.45-1.7,3.66-.61-.61-1.21-1.21-1.94-1.94Z"/>
  <path class="cls-1" d="M105.7,377.08c1.14.63,2.33,1.29,3.51,1.94-.61.61-1.34,1.8-1.79,1.71-1.28-.29-2.45-1.1-3.66-1.71.61-.61,1.21-1.21,1.94-1.94Z"/>
  <path class="cls-1" d="M277.82,354.48v8.82c-5.22,3.13-10.03,2.92-14.95.37.73-4.46,4.94-6.13,7.38-9.2,1.77,0,3.53,0,7.57,0Z"/>
  <path class="cls-1" d="M250.88,167.75c.19-2.11.49-5.49,1.21-13.46,4.79,6.43,7.23,9.7,10.08,13.52-.58,1.83-1.35,4.22-2.18,6.82-3.15-2.38-5.77-4.36-9.11-6.88Z"/>
  <path class="cls-1" d="M283.31,313.58c4.47-3.57,7.49-3.76,10.68-.8-2.26,5.92-5.72,4.33-10.68.8Z"/>
  <path class="cls-1" d="M300.1,286.31c-3.65,3.92-7.28,3.92-10.93,0,3.65-3.92,7.28-3.92,10.93,0Z"/>
  <path class="cls-1" d="M289.18,329.94c-1.21.61-2.38,1.42-3.66,1.7-.45.1-1.19-1.1-1.79-1.7,1.21-.61,2.38-1.42,3.66-1.7.45-.1,1.19,1.1,1.79,1.71Z"/>
  <path class="cls-1" d="M294.63,340.85c-1.21.61-2.38,1.42-3.66,1.7-.45.1-1.19-1.1-1.79-1.7,1.21-.61,2.38-1.42,3.66-1.71.45-.1,1.19,1.1,1.79,1.71Z"/>
</svg>