<?xml version="1.0" encoding="UTF-8"?>
<svg id="Layer_1" data-name="Layer 1" xmlns="http://www.w3.org/2000/svg" viewBox="0 0 1944.95 485.21">
  <defs>
    <style>
      .cls-1 {
        fill: #000;
        stroke-width: 0px;
      }
    </style>
  </defs>
  <path class="cls-1" d="M908.54,294.5c3.22-.56,5.53-1.11,7.13,1.45h5.87c.77.69,1.49,1.35,2.28,2.06h4.05c1.51-1.58,3.11-3.27,4.86-5.11v-3.7c.7-.75,1.37-1.47,2.06-2.2,0-1.3,0-2.63,0-3.96,1.18-1.18,2.36-2.36,3.77-3.76v-4.47c-6.11-2.91-12.34-5.57-17.98-9.48,1.65-2,3.44-.96,5.05-1.3.69.63,1.42,1.29,2.19,2h3.39c2.32,1.27,4.23,2.32,4.3,2.36,2.03,1.32,2.29,1.64,2.56,1.64,10.64.03,21.27.02,31.72.02.65-.65,1.12-1.12,1.8-1.8h23.63c.84-.66,1.58-1.25,2.85-2.25h43.78l1.95-1.95c5.11,0,10.41,0,15.71.02.26,0,.53.32.86.53-.09,1.73-1.76,2.3-2.64,3.47h-11.95c-.49.49-.96.96-1.43,1.43-.26.18-.51.53-.77.53-13.97.03-27.95.02-41.78.02-.61.61-1.08,1.08-1.77,1.77h-17.59c-.85.66-1.6,1.24-2.67,2.06h-34.24c-.73.84-1.74,1.99-2.74,3.14,1.5,1.83,3.34.51,5.5,1.55.32.25,1.3,1.02,2.49,1.96,1.22-.95,2.2-1.71,3.27-2.53h17.81c.53-.53,1-1,1.82-1.82h22c.82-.82,1.29-1.29,1.94-1.94h15.42c2.06-1.57,4.01-2.55,6.4-2.18,1.01.73,2.02,1.46,3.35,2.43,1.08-.81,2.07-1.55,3.23-2.42h27.79c.43-.46.88-.94,1.12-1.19.5-.41.75-.78,1-.79,5.98-.03,11.97-.03,17.73-.03.93-.76,1.61-1.53,2.45-1.94.49-.24,1.25.08,2.16.18.2.81.43,1.7.66,2.62-1.76.92-3.4,1.77-5.78,3.01h-14.66c-2.48,1.41-4.65,2.64-7.24,4.12h-3.44c-.71-.66-1.43-1.33-2.09-1.95h-21.99c-.51.51-.98.98-1.5,1.5-1.98-.37-3.63-2.2-6.29-1.44-.46.37-1.2.97-2.18,1.76h-15.6c-.79.68-1.53,1.31-2.4,2.06h-19.76c-.76.69-1.48,1.35-2.25,2.06h-3.88c-.73.67-1.44,1.31-2.15,1.96-.48-.48-.96-.96-1.43-1.43-.26-.17-.52-.48-.79-.49-3.3-.03-6.61-.02-9.79-.02-1.68,2.67-3.98,2.11-6.24,1.69-.47-.47-.94-.94-1.55-1.55h-6.14c-.67.62-1.62,1.5-2.41,2.23-1.45,1.76.44,4.11-1.53,5.61-1.95,1.49-.98,3.52-.7,5.46,1.7.99,1.72-1.49,4.08-1.3.13.07,1.22.64,3.16,1.66h39.6c.58-.58,1.05-1.05,1.87-1.87h18c.82-.82,1.29-1.29,1.85-1.85h17.84c.77-.69,1.49-1.34,2.31-2.09,10.53,0,21.18,0,31.83.03.25,0,.49.39.92.76v2.41c-.39.36-.64.77-.88.78-9.32.03-18.65.03-27.94.03-.5.5-.97.97-1.96,1.96-5.71.14-11.95-.03-18.08.08l-1.74,1.74h-17.6c-.85.66-1.6,1.24-2.65,2.06h-50.88c-2.2,1.1-3.85,1.93-5.65,2.83-.86,2.08-1.27,4.87-2.86,6.52-2.96,3.08-4.31,6.9-6.4,10.37-1.17,1.93-.91,3.67-1.53,7.02-.42.42-1.74,1.74-3.04,3.04,2.08,2.09,3.04-.82,4.7-1.68h19.75c.53-.53,1.01-1,1.71-1.71h10.46c.48.48.95.95,1.59,1.59h24.35c.65-.65,1.12-1.12,1.71-1.71h35.6c1.17-.85,2.18-1.58,3.52-2.54,1.08.81,2.08,1.55,3.23,2.42h9.79c.43-.45.89-.93,1.31-1.37.65-.22,1.23-.59,1.81-.6,8.32-.04,16.63-.03,25.43-.03.14,1.17.27,2.31.45,3.85h-20.88l-2.11,2.11h-40c-.82.82-1.29,1.29-2.1,2.1h-72c-.81.81-1.28,1.28-1.85,1.85h-10.04c-.56-.5-1.28-1.15-2.09-1.87h-9.83c-1.28-1.68-4.33-2.44-2.67-5.53,1.83-.65,3.81-1.25,5.35.4,1.39,1.49,3,.92,4.57,1.11,1.6.19,2.2,2.54,4.17,1.98.29-.08.56-.26,1.32-.61.07-1.32.14-2.89.22-4.5,2.52-1.39,1.71-3.95,2.11-6.09,1.19-1.19,2.37-2.37,3.67-3.67v-3.97c2.85-2.09,4.45-5.16,5.57-9.19-.95-2-4.64-1.65-6.46-3.95-.51.51-.98.98-1.8,1.8-.56-.42-1.19-.88-2.36-1.75h-6.35c-.24-1.21-.43-2.12-.73-3.6Z"/>
  <path class="cls-1" d="M1894.79,186.04c-.55,3.09-4.05,2.28-5.65,4.42-2.56,3.42-5.98,6.21-9.16,9.4h-8.48c-1.29-2.31-.4-4.66-.61-5.9-1.28-2.49-2.13-4.14-3.01-5.86h-10.03c-.61.56-1.33,1.23-2.09,1.93h-4.04c-3.16,5.19-10.48,4.65-13.69,10.01-4.03,0-7.99,0-11.95-.02-.26,0-.53-.31-.79-.48-.3-3.49-1.76-6.55-3.52-9.5-3.32,0-6.65,0-9.66,0-5.55,3.94-12.38,5.2-16.61,9.97-2.2.15-2.79-.78-2.7-2.69,1.96-2.11,3.62-4.77,7.13-5.64,1.11-.28,2.93-1.63,2.18-3.51,2.62-.53,4.92.88,6.6-1.28-2.08-1.38-4.04-1.58-6.6,1.28-.99-.14-2.66-.14-4.32-.14-.47.47-.94.94-1.76,1.76h-10.01l-2,2h-10.2c-1.12-.98-2.11-1.85-3.09-2.71,1.06-1.06,2-2,3-3h7.89c.75-.7,1.47-1.37,2.2-2.06h3.92c.74-.69,1.46-1.36,2.21-2.06h3.45c1.98-1.86,3.68-3.45,5.37-5.04-.56-2.52,1.67-3.38,2.92-4.78,1.55-1.74,3.28-3.32,5-5.05v-5.92c-1.53-1.18-1.82-3.13-2.59-4.83-.9-.23-1.8-.47-2.74-.71-1.16-2.13-.28-4.48-.66-6.62-.69-.78-1.34-1.5-2.09-2.34.83-1.99,1.25-4.32,2.57-5.89,1.8-2.15,3.49-4.84,6.85-5.03,2.58-2.97,7.08-2.66,9.71-5.72,4.19-.04,8.43,0,13.76-.03-2.36-2.26-4.77-2.24-5.95-3.99h-5.02c-1.97-.85-3.8-1.83-6.11-2.21-2.6-.43-4.85-3.34-7.39-3.56-3.07-.27-5.72-1.54-7.74-3.05-2.47-1.85-6.15.05-7.75-3.17-3.42-.61-6.07-2.99-9.31-4.09-1.4-.47-2.45-1.97-3.51-2.87.12-.99.19-1.63.27-2.27,1.36-1.47,3.13-.42,4.68-.76.72-.67,1.45-1.33,2.14-1.97h7.98c.5.5.97.97,1.44,1.44.26.18.52.51.78.51,5.97.03,11.95.02,17.76.02.64.64,1.11,1.11,1.58,1.58,2.53,1.37,5.64-.66,8.26,1.97,1.85,1.85,5.94-1.03,8.03,2.36h9.46c2.51,1.44,4.67,2.68,7.19,4.12h5.5l4.03,4.03c1.37,2.78,2.19,4.43,2.96,5.99-.05.44.03.87-.15,1.06-2.23,2.44-4.5,4.85-6.32,6.81h-14.64c-2.11-2.38-4.35-2.95-7.14-.74,1.34.46,2.5.86,3.66,1.25,1.51,1.76-.69,4.81,2.12,6.12.07,2.89,1.48,5.37,2.46,7.98-2.43,1.75-1.66,4.64-2.52,6.95-.21.57-.9.96-1.43,1.48v4.01c.59.63,1.26,1.35,1.9,2.05-.66.71-1.33,1.43-2.02,2.19v3.88c-2.42,2.42-4.86,4.7-7.11,7.16-2.2,2.4-6.08,2.46-7.47,5.71h-4.04c-1.39.92-2.22,2.13-4.28,3.81h11.7c1.29,1.29,2.24,2.24,3.19,3.19.17,2.9,0,5.83.11,9.19,2.18-.19,4.09.21,5.22-.56,2.37-1.61,4.83-2.8,7.55-3.56,2.96-4.07,8.18-4.63,12.34-7.82h7.34c.83-.67,1.57-1.27,2.46-2,.6.5,1.28,1.07,2.09,1.75h6.06c.74.91,1.57,1.93,2.95,3.62v7.6c2.1,1.62,3.25.57,4.5-.66,1.12-1.09,1.94-2.49,3.94-2.63,1.05-.08,2.03-1.47,2.98-2.35,1.22-1.13,2.36-2.35,3.54-3.52h5.01ZM1804.44,178.04c1.02,0,1.77.2,2.33-.04,1.98-.85,4.34-1.43,5.74-2.89,2.03-2.11,5.56.41,6.93-2.73,3.77.5,4.46-4.73,8.2-4.41.45.04,1.03-.76,1.44-1.25,1.24-1.48,3.13-2.43,3.71-4.41-.36-3.67-3.88-3.75-6.05-5.42v-3.24c-.95-.57-2.68-1.6-3.8-2.27v-6.62c1.48-.92,2.08-2.52,4.02-2.87,1.41-.26,2.6-1.76,3.95-2.75-.19-1.02-.36-1.93-.55-2.92h-10.78c-.66.66-1.24,1.61-1.59,1.53-2.58-.57-3.55,3-6.1,2.28-1.66,1.62-3.38,3.19-4.94,4.91-.34.38-.13,1.26-.18,1.99,1.32,1.39,2.68,2.81,4.06,4.26v3.82c.73.83,1.37,1.56,1.83,2.09v8c-.2.28-2.2,6.05-2.16,5.82-1.75,2.85-4.68,4.18-5.17,6.88-1.55.44-3.1.3-1.74,2.04.46-.54.93-1.09.83-1.82ZM1831.83,124.04h3.92c.73.68,1.45,1.36,2.18,2.04h7.84c.8.72,1.53,1.37,2.09,1.87h4.04c1.3-1.53,3.37-2.47,2.9-4.89l-4.94-4.94c-2.2-.4-4.54.5-6.71-.66-.45-.48-.9-.96-1.32-1.41h-7.99c-.73-.69-1.45-1.36-2.19-2.05h-3.82c-.82-.73-1.55-1.37-2.31-2.04h-9.81l-1.84-1.84h-10l-2.09-2.09h-7.82c-3.94-2.57-6-2.72-6.98-.82,1.65.85,3.3,1.7,5.51,2.84.62,0,2.63-.55,3.15.1,1.74,2.16,4.86,1.73,6.44,3.9,3.24-1.21,5.2,1.99,8.01,2.37.79.11,1.46,1.15,2.03,1.63h5.44c.62.52,1.36,1.13,2.16,1.81,3.27.29,3.53.38,6.94,2.19h3.05c.68.64,1.4,1.31,2.13,2ZM1828.65,149.48c.84.66,1.78,1.55,2.86,2.23.94.59,1.15,2.35,3.07,1.79.31-2.89.34-5.79-.05-8.7-.04-.26-.44-.47-.78-.81-1.57,1.69-3.14,3.37-5.1,5.48Z"/>
  <path class="cls-1" d="M198.82,422.67v-3.58c.62-.68,1.27-1.4,1.91-2.11-1.26-1.68-3.09-.54-4.59-1.08-.81.71-1.54,1.34-2.38,2.08h-4.17c-.65-.79-1.49-1.81-2.66-3.23v-5.45c2.15-2.45,2.43-6.5,5.88-8.1v-2.18c3.56-3.56,7.09-7.09,10-10,4.44-2.24,8.14-4.11,12.03-6.07-2.44-1.63-4.8-.63-7.07-.91-.44-.46-.9-.93-1.69-1.75h-8.04c-.82-.82-1.29-1.29-2.11-2.11h-10c-.82-.82-1.29-1.29-2.12-2.12-6.8,1.25-11.67-4.44-18.47-6.45-1.16-1.19-2.79-2.86-4.5-4.62v-6.06c1.55-1.43,3.25-3.01,5.19-4.81h19.71c.59.54,1.31,1.19,2.09,1.9h3.87c.75.69,1.47,1.36,2.22,2.05h7.91c.5.5.97.97,1.44,1.44,1.85,1,3.85.33,5.7.52,1.46.69,2.9,1.97,4.23,1.87,2.28-.17,3.43,1.62,5.19,2.06,1.57.39,3.31.08,4.37.08,4.63,2.3,8.77,4.35,13.39,6.64.54,1.06,1.39,2.71,2.58,5.02v5.5c-1.5,1.34-3.23,2.89-5.4,4.83-1.98,0-4.62.01-7.25-.02-.27,0-.53-.32-.79-.49-.47-.47-.94-.94-1.41-1.41-2.93,2.39.52,3.72.95,5.68-1.53,3.25-3.44,6.43-4.71,9.92-3.84,3.09-4.29,8.95-9.77,10.73,1.38,1.45,2.25,2.37,3.26,3.43h5.76c.81.68,1.55,1.29,2.46,2.06h4.01c2.06,2.4,4.21,4.91,6.9,8.05v2.95c-2.75,4.07-7.07,6.02-11.71,7.79.61,1,1.19,1.97,1.78,2.93,0,.35.14.82-.02.99-3.62,3.85-7.27,7.67-10.84,11.42-3.02-.37-4.27,1.95-5.63,3.61-1.74,2.13-4.37,2.52-6.43,4.02-1.58,1.15-4.59-.24-6,2.31h-14.23c-.71-.83-1.57-1.83-2.71-3.15v-5.16c4.27-4.27,8.48-8.48,13.56-13.56,1.57-.77,4.35-2.12,8.43-4.1h18.64c1.4-.82,1.41-1.46.45-1.72-2.09-.58-4.7.39-6.11-2.21h-6.1c-2.22-2.36-4.49-4.77-6.97-7.42ZM225.83,380.03c2.2-.27,4.56.71,6.67-.67.1-.66.2-1.28.34-2.2-1.66-1.73-3.44-3.59-5.09-5.31-4.82,1.13-8.29-2.19-12.43-2.35-.49-.02-.94-.88-1.42-1.35-1.58-.09-3.15-.18-4.27-.24-.91-.93-1.38-1.4-1.84-1.87h-5.97c-.74-.69-1.46-1.36-2.21-2.06h-3.8c-.84-.74-1.57-1.37-2.36-2.06h-9.78c-.59-.59-1.06-1.06-1.53-1.53-4.9,0-9.8,0-14.7.03-.22,0-.43.46-.62.67v2.01c1.95.99,3.87,1.98,5.58,2.85,1.49.12,2.75.21,3.58.28.87.88,1.34,1.35,1.8,1.82h7.97c.74.69,1.46,1.36,2.21,2.06h5.89c.53.53,1,1,1.82,1.82h8c.82.82,1.29,1.29,1.87,1.87,2.13.19,4.8-.29,6.49.78,2.13,1.36,4.68,1.82,6.56,3.47h5.1c.69.64,1.4,1.31,2.14,2ZM215.81,388.02c-.48.48-.87,1.13-1.44,1.39-1.69.76-3.52,1.2-4.92,2.59-.35.35-1.23.18-1.86.24-3.51,3.51-7.03,7.03-9.82,9.82-1.29,2.5-2.13,4.13-3.04,5.89.08,1.13.17,2.39.28,3.95,3.3-1.62,6.21-3.04,9.65-4.73,4.25-4.25,8.95-8.93,13.6-13.65.38-.39.37-1.16.6-1.98-.52-1.45-2.07-2.25-3.05-3.51ZM203.76,444.04h-5.92c-.74.69-1.46,1.36-2.2,2.06h-3.16c-2.76,2.69-5.09,4.95-7.42,7.22,1.25,1.43,3.03.39,4.62.73.7-.65,1.42-1.32,2.16-2.01h2.96c3.31-1.59,5.93-2.61,8.3-4.05,2.59-1.57,6-1.99,7.57-5.24-1.41-1.27-3.15-.48-4.74-.75-.72.67-1.44,1.34-2.17,2.03ZM224.79,422.6c-3.11-.91-5.93-3.06-9.31-2.87-.69-.69-1.16-1.16-1.85-1.85-1.99.76-4.36-.64-6.66.93v2.79c2.44,1.5,4.84,2.97,6.77,4.15,3.77,0,7.06.01,10.35-.03.24,0,.47-.44.71-.68v-2.44Z"/>
  <path class="cls-1" d="M215.27,154.04h-4.73c-3.42,1.6-6.28,4.22-9.58,5.85-3.76,1.86-5.61,5.46-9.31,7.95h-10.34c-.6-.9-1.69-2.56-2.38-3.6-3.21-.17-5.45-.29-7.75-.42-.23-1.9-.41-3.47-.56-4.72-1.06-1.19-1.93-2.19-2.68-3.03h-10.17c-2.16,2.16-4.28,4.28-6.4,6.4-.6,2.21-1.38,4.31-3.69,5.31-.19-.28-.6-.74-.86-1.29-1.42-2.95,1.77-4.6,2.16-7.14.19-1.24,1.96-2.78,3.33-3.21,3.76-1.2,5.58-5.26,9.48-6.1h7.28c2.1,2.16,4.85,4.98,7.8,8,2.37,0,3.11-2.73,4.94-4.01h3.95c.74-.69,1.46-1.36,2.14-2,4.98-.31,6.97-1.3,18.91-9.41-.1-.63.04-1.56-.32-1.83-3.74-2.79-4.33-8.07-9.1-10.64h-15.91c-.87,1.11-2.1,2.67-3.11,3.96-3.8-.54-4.57,2.92-6.59,3.8h-4.09c-1.59-1.48-.53-3.25-.86-4.69,2.02-2.24,4.74-4.13,5.77-6.7,1.07-2.68,3.13-4.09,4.78-6,1.96-2.26,4.2-4.27,5.53-5.61,5.09-2.51,9.24-4.56,13.96-6.89h4.14c3.4,1.77,6.69,3.5,9.99,5.2,1.98,1.02,1.19,3.8,2.86,4.77,2.79,1.63,2.68,5.07,4.89,7.03,1.99,1.76,3.79,3.74,4.99,4.94,2.53,4.94,4.65,9.07,7.05,13.76v5.24c.69.74,1.36,1.46,2.06,2.2v9.9c.99.99,1.93,1.93,2.91,2.91h7.45c3.96-3.96,7.69-7.7,11.48-11.49.24-.73.54-1.6.82-2.44h4.24c1.22.85,1.65,2.32.65,3.24-2.17,2.01-3.32,4.64-4.96,6.96-1.52,2.14-3.69,3.82-5.6,5.74h-1.91c-.75.7-1.48,1.36-2.17,2h-16.5c-4.46-4.46-9.15-9.15-13.97-13.97Z"/>
  <path class="cls-1" d="M1643.84,314.04c-2.46,0-4.13,0-5.79,0-2.02,1.01-2.78,3.72-5.34,3.99-2.59.28-3.07,3.73-5.34,3.89-2.86.2-3.57,2.7-5.53,4.03h-7.96c-1.2-.61-1.93-2.66-4-1.91-2.91-2.49-5.04-5.98-9.08-7.01,0-.67,0-1.33,0-2-.53-.33-1.05-.94-1.59-.95-4.99-.07-9.99-.04-14.99-.04-2.75,1.03-2.69,4.22-4.44,5.86-1.92,1.8-2.97,4-4.21,6.14-2.46.36-3.26-1.88-4.77-3,7.06-9.78,7.21-9.93,14.83-14.79h12.37l1.71,1.71h7.73c2.2-1.26,4.37-2.51,6.87-3.94h9.51c1.19-1.5,3.32-2.39,2.97-4.8,2-2.17,4-4.34,6-6.51-.55-3.47,4.35-3.85,4.14-7.34-.05-.92,1.55-1.98,2.46-2.91,2.57-2.61,5.24-5.13,7.75-7.79,3.76-3.99,7.64-7.76,13.19-9.21.56-.15.95-.9,1.44-1.39h27.92c.74-.69,1.47-1.35,2.35-2.17,2.71.23,4.77,3.32,7.84,2.24,1.03,1.03,1.98,1.97,2.92,2.91,0,1.33,0,2.67,0,3.99-1.41,2.93-5.1,2.64-6.97,4.98h-3.98c-.69-.64-1.41-1.31-2.17-2h-5.23c-3.88-2-7.19-3.71-11.29-5.82h-6.84c-2.76,1.43-5.5,2.85-10.05,5.21-.62.65-2.69,2.81-4.78,4.94-2.1,2.14-4.41,4.1-6.3,6.41-1.59,1.93-4.74,2.83-4.4,6.15-2.03,2.14-4.07,4.28-5.88,6.18v4.51c.99.16,2.52.7,2.71.4,1.35-2.14,4.3-1.46,5.99-3.92,3.2-.04,6.79,0,10.3-.02,1.43-2.81,4.14-1.6,6.2-2.29,1.37-2.12.4-4.48.57-5.83,1.25-2.41,2.12-4.08,3-5.79h3.86c.77-.69,1.49-1.35,2.27-2.06h12.05c1.51,1.58,3.11,3.27,4.86,5.11v13.82c-1.26,1.32-2.62,2.75-3.95,4.14.04.71.08,1.36.12,2.01,1.98,2.02,4.49.02,7.09.42,1.86,2.31,3.72,4.62,5.39,6.7,2.72-.98,3.32,1.32,4.82,1.76.63-.1,1.33-.05,1.86-.33.56-.3,1.03-1.36,1.42-1.3,3.39.53,5.76-2.74,9.05-2.35.61.07,1.19.33,1.97.56-1.48,3.93-5.36,4.93-9.07,7.22h-9.38c-1.57-.85-3.63-1.67-5.34-2.96-1.83-1.39-3.33-3.23-4.9-4.8h-6.06c-4.17,5.17-11,5.99-16.21,9.94h-5.69c-1.82-2.28-5.55-1.9-6.95-4.85-2.89-.84-4.98-2.8-7.08-5.12ZM1631.91,310.04h15.92c2.18,3.7,7.14,4.04,9.59,7.61.15.22.54.27.51.25h5.19c5.05-2.57,9.29-4.73,13.64-6.94-2.43-2-5.37.14-7.9-1.78-.18-.21-.62-.69-1.02-1.14h-5.02c-.75-1.06-1.89-2.68-2.75-3.9h-6.26c-.89.76-1.62,1.37-2.39,2.02h-9.74c-.59.59-1.05,1.05-1.52,1.52-2.3,1.31-5.27-1.01-7.33,2.36h-4.99c-.73.69-1.45,1.36-2.19,2.04h-11.19c-2.27,1.16-3.92,2.01-5.92,3.04,2.47,1.27,3.35,4.1,6.04,4.91,1.66,0,3.33,0,4.99,0,1.36-.72,2.1-2.74,4.35-1.93,1.32-1.38,3.2-2.6,3.94-4.31,1.03-2.4,4.88-.54,4.06-3.76ZM1675.89,304.04c2.02-2.51,4.31-4.11,6.8-5v-6.01c-1.06-1.11-1.98-2.06-2.86-2.98h-6c-.74.69-1.46,1.36-2.12,1.98-1.62.36-3.4-.69-4.92,1.04v8.08c1.42,1.3,2.36,2.17,3.16,2.9h5.94ZM1684.43,271.28c11.21,1.18,11.32,1.17,13.99-.53-.21-.23-.43-.68-.65-.69-3.95-.04-7.91-.04-11.86,0-.25,0-.49.39-1.48,1.22Z"/>
  <path class="cls-1" d="M589.83,318.04c-.74.69-1.46,1.36-2.13,1.99-3.89.51-6.55-2.01-10.8-3.81h-9.9c-5.57-2.85-10.53-5.38-15.91-8.13h-7.27c-.82.72-1.55,1.37-2.21,1.95h-2.47c-2.37,2.39-4.44,4.48-5.46,5.5-3.6.74-5.09.61-4.94-1.24,2.66-2.65,4.98-4.96,7.3-7.27,1.22-1.9,4.38.62,5.19-2.86h14.32c2.37,2.34,6.67,2.27,7.95,5.91h4.03c1.27.89,2.28,1.61,3.25,2.29,2.76-1.46,4.19-3.72,6.01-5.49.05-.69.1-1.34.15-2.08,3.25-3.22,6.56-6.5,9.84-9.74v-2.03c-.25-.25-.48-.69-.72-.69-4.62-.04-9.25-.03-14.73-.03-.71.94-1.9,2.51-2.31,3.05-2.14.74-3.06.96-3.88,1.38-.81.41-1.53,1.03-2.43,1.65-.95-.66-1.71-1.19-2.66-1.86-.24.09-.82.13-1.14.44-1.69,1.6-3.32,3.28-5.04,5h-8.07c-.79-.76-1.74-1.66-2.84-2.72v-8.64c1.22-.91,3.07-2.29,5.85-4.36h4.65c2.44-2.42,4.83-5.05,8.29-6.17h10.09c1.08-1.16,2.21-2.37,3.59-3.85h7.63c1.84-1.19,2.87-1.87,3.51-2.28,2.43,2.45,4.5,4.54,6.02,6.08h4.95c3.16,1.36,3,4.91,5.03,7.01.66.68.1,2.53.1,4.04.83.4,1.63.79,2.01.97,2.31-2.33,4.38-4.42,5.9-5.95h13.33c.76.85,1.64,1.84,2.76,3.09v7.7c-2.12,3.06-5.09,5.41-10.43,7.08h-6.6c-.55,3.18-2.9,5.31-4.84,7.07,0,.99-.12,1.4.03,1.64.32.51.79.93,1.38,1.59,3.28-1.51,6.71-2.9,9.95-4.66,1.4-.76,2.39-2.29,3.61-3.5h10.12c2.39,2.53,4.89,5.18,7.37,7.8h8.61c1.73-.53,2.25-3.58,4.81-3.83,2.61-.26,3.33-2.97,5.33-4.01,1.32-.01,2.72-.16,2.79,1.91,0,.21.14.69-.02.85-1.87,1.78-3.52,4.23-5.75,5.04-2.44.89-3.4,2.97-5.26,4.19h-12.19c-1.46-3.09-4.95-3.7-8.08-5.82h-7.47c-1.91,1.07-4.08,2.29-6.75,3.78h-3.33c-.74.7-1.46,1.37-2.2,2.05h-17.92ZM602.79,301.04c-.93-.93-1.87-1.87-2.77-2.77h-6.5c-1.61,1.85-3.5,3.06-4.55,4.95,1.36,1.36,2.52,2.52,3.6,3.6.21,1.01.39,1.91.61,2.99h6.75c.85-1.64,1.71-3.3,2.84-5.47,0-.67,0-1.99,0-3.31ZM579.61,287.85c1.32-.76,2.62-1.5,5.51-3.16-.41.43.5-.52,1.79-1.85-1.79-.58-2.03-3.09-5.3-2.72-1.19,1.43-2.8,3.37-4.42,5.31.65.65,1.58,1.58,2.42,2.42ZM562.64,292.28c2.44-1.3,4.3-2.28,6.27-3.33-.17-.85-.34-1.74-.54-2.74h-4.73c-.88,1.7-1.72,3.33-2.57,4.99.24.16.73.5,1.57,1.08ZM613.35,299.52c1.91-1.54,3.86-3.12,5.36-4.32.34-3.07-1.1-3.33-2.89-3.16-1.01,1.82-2.16,3.59-2.95,5.5-.27.65.39,1.67.48,1.99ZM593.86,283.35c-1.49,3.34-1.43,5.99-.29,8.82,1.1-.19,1.99-.34,3.08-.53-.05-1.11.12-2.08-.19-2.85-.33-.83-1.21-1.44-1.63-2.25-.41-.78-.54-1.7-.97-3.18ZM553.08,295.86c-.33-1.75-.5-2.64-.76-3.95-1.38.26-2.5.47-3.75.7.26,1.34.43,2.23.62,3.25h3.88ZM588.9,311.14c-1.43-1.54-2.75-1.55-4.09-.13,1.14.87,1.73,2.41,3.61,2.72.17-.91.33-1.79.48-2.59Z"/>
  <path class="cls-1" d="M877.79,378.04c.47.47.94.94,1.76,1.76h6c1.29,1.29,2.23,2.23,3.21,3.21v1.98c-.19.21-.37.5-.63.69-.24.18-.56.36-.84.35-2.62-.09-5.23-.21-7.85-.33-1.62-3.08-6.02-.22-7.53-3.59h-10.08c-.62.57-1.34,1.24-2.08,1.93h-5.91c-.74.69-1.46,1.36-2.2,2.06h-3.97c-1.04,1.46-2.38,1.91-4.19,2.06-1.77.15-3.5,1.12-5.16,1.92-1.37.66-2.62,1.57-5.56,3.38-1.01,1.56-5.24,2.97-5.98,7.33-2.86,2.23-3.89,5.74-6.08,8.69v5.55c-.68.83-1.24,1.5-2.07,2.52,1.29.27,2.2.46,3.05.64,1.27-1.3,2.44-2.48,3.81-3.89h6.8c.2.82.42,1.72.66,2.7-1.05.94-2.04,1.82-3.42,3.06-.79,0-2.26-.39-3.35.08-2.27.99-4.34,2.44-6.87,3.91h-3.47c-.74.69-1.46,1.36-2.15,2.01h-3.25c-2.28,1.26-4.72,2.61-7.25,4h-5.79c-.58.76-1.56,2.03-2.66,3.46-.36,2.23,1.9,3.02,3.02,4.52,2.47-1.26,3,2.46,5.89,1.87,4.14-3.29,7.82-8,12.34-11.91h5.51c1.31-.9,2.33-1.61,3.69-2.54,2.32,2.32,4.74,4.16,6.37,6.54,1.41,2.06,2.11,4.61,4.31,6h5.41c2.77-2.58,5.19-4.83,7.49-6.97.08-.87.13-1.51.22-2.42.8-.22,1.7-.47,4.02-1.11,1.06-1.17,3.05-3.36,4.94-5.45,1.84,0,3.51,0,5.17,0,3.31,1.88,6.92,3.34,9.26,6.59,1.37,1.9,4.27,1.22,5.38,3.09,2.19-1.24,4.26-3.19,6.56-3.52,3.9-.56,3.74-3.93,5.36-6.05.65-.04,1.3-.08,1.95-.12,1.95,1.06.89,2.92,1.25,4.84-3.22,3.23-6.13,7.13-12.87,9.05h-6.19c-1.14-.44-1.8-2.63-4.53-1.64-1.78-1.97-3.76-4.16-5.54-6.13h-6.19c-.46,2.59-2.97,4.22-2.82,6.94-2.41,1.52-3.23,5.27-6.94,4.94-1.4,2.47-4.7,1.91-6.34,4h-5.93c-.54-1.25-1.36-3.15-1.4-3.23-3-.77-3.91-1.01-4.94-1.27-.19-.86-.39-1.77-.66-2.96-.74-.2-1.64-.45-2.9-.79-1.12-1.07-2.55-2.43-4.16-3.96-.8.33-1.74.56-2.48,1.07-.81.56-1.41,1.41-2.15,2.07-.46.41-.99.8-1.56,1.04-.82.35-1.71.57-2.51.82v2.47c-1.12.39-2.45.57-3.4,1.25-1.33.96-2.38,2.31-3.54,3.47h-7.39c-1.87-.98-3.23-1.7-6.32-3.32-2.61-2.61-6.6-6.6-10.67-10.68-.82,0-1.82,0-2.82,0-.55.28-1.21.44-1.63.85-2.63,2.55-5.2,5.16-7.78,7.76-.2.21-.33.54-.39.83-.07.32.09.71-.04.99-.27.56-.66,1.05-.99,1.57h-4c-.19-.48-.68-1.16-.52-1.39,1.65-2.31,2.92-4.76,3.86-7.95,1.99-1.96,4.36-4.3,6.74-6.64,2.02.72,2.79-1.23,4.12-2.01,2.74-.58,4.09,3.79,7.16,2,1.91,1.12,3.72,2.52,7.01,1.81.63-1.1,1.63-2.85,2.15-3.77h9.31c1.17-1.82,3.29-1.83,5.04-2.85v-4.58c-1.06-.79-2.64-1.98-3.84-2.89v-8.69c.64-.7,1.31-1.42,1.98-2.14,0-1,0-2,0-3,1.51-3.03,3.02-6.06,4.83-9.67,3.74-3.75,7.96-8,12.19-12.24h3.51c2.53-1.48,4.56-3.33,6.87-3.81,2.09-.43,4.1-.8,5.92-1.86.52.52.99.99,1.57,1.57h17.79c.78.68,1.51,1.32,2.34,2.05h5.75c.55.49,1.03.92,1.52,1.35.57.23,1.13.65,1.71.67,2.33.08,4.66.03,6.99.03ZM810.94,410.31c1.24,1.74,1.99,2.79,2.78,3.91,1.62-1.62.63-3.45,1.14-4.9.5-1.43,1.98-2.24,2.11-4.17.09-1.27,2.39-2.18,1.81-4.11,4.99-4.99,9.92-9.92,14.18-14.18,2.19-1.12,3.56-1.82,5.5-2.81h4.59c2.19-1.13,3.84-1.98,6.04-3.12-1.18-1.16-2.26-2.22-2.8-2.75h-8.99c-4.57,1.48-7.17,3.13-9.95,4.5-2.48,1.22-5.27,2.24-7.04,4.77-1.81,2.59-2.72,5.83-5.52,7.7-.58,3.13-2.27,5.74-3.85,8.1v7.06Z"/>
  <path class="cls-1" d="M211.25,272.04c1.61-1.31,2.62-2.12,3.62-2.93-3.71-3.71-7.24-7.24-10.92-10.92h-6.09c-.44.37-1.18.99-2.09,1.75h-5.7c-.77.69-1.5,1.34-2.3,2.06h-3.83c-.75.7-1.47,1.37-2.21,2.05h-4.15c-1.69,3.37-5.4,4.18-8.38,5.89-3.27,1.88-7.13,2.75-9.2,6.07-.91,0-1.85.27-2.17-.06-.61-.62-.86-1.59-1.2-2.29,2.59-2.47,4.97-4.74,7.89-7.52h2.74c2.53-1.15,3.32-4.56,6.56-4.12,1.45-2.39,4.67-1.94,6.34-3.98,2.44.53,4.16-1.25,6.21-1.84,2.42-.69,5.19-.16,7.43-.16.83-.83,1.3-1.3,1.88-1.89h12.45c.87,1.11,2.09,2.67,3.04,3.88h2.87c.37,1.09.76,2.25,1.16,3.42,1.46,1.13,3.12.38,4.93.5.26-.83.54-1.71,1.02-3.22,1.77-2.84,5.18-4.66,9.45-6.63h13.41c.6.76,1.42,1.79,2.24,2.83,1.23,1.44-.43,3.75,1.61,5.21,1.67,1.19.64,3.05.97,4.67-.63.71-1.27,1.44-2,2.26v4.05c-.91.78-1.92,1.64-3.25,2.78h-3.41c-.8.68-1.53,1.31-2.41,2.06h-9.95c-1.26-1.19-2.67-2.53-4.09-3.88-1.94,1.99-.55,4.44-.96,6.76,2.53,1.58,1.33,5.78,7.19,7.05h21.89c1.15-.33,2.05-3.32,4.45-1.35,2.14,2.89-2.49,4.08-1.65,7,.67,2.35-3.32,4.13-1.98,6.86-3.1,3.1-6.13,6.13-9.59,9.59.16,0-.5.02-1.2.06-.69.64-1.41,1.31-2.13,1.99h-15.29c-2.21-1.14-3.88-2.01-5.5-2.85-.05-.62-.11-1.26-.15-1.72-3.16-3.12-6.22-6.15-9.53-9.42h-6.76c-7.12,3.4-12.32,8.6-19.45,12h-9.23c-.73-.68-1.45-1.35-2.13-1.99-.71-.04-1.36-.07-2.01-.1-2.6-2.6-5.18-5.18-7.84-7.84h-3.88c-.75-.7-1.47-1.36-2.22-2.06h-2.73c-2.29-.22-2.9,3.16-5.33,2.09-1.64,1.64-3.29,3.29-4.92,4.92v6c-.96.96-1.9,1.9-2.97,2.97-.79-.1-1.69-.21-2.79-.34v-6.3c.67-1.33,1.51-2.98,2.64-5.21,2.34-2.34,5.16-5.16,8.06-8.06h13.85c.76-.69,1.48-1.34,2.24-2.04,1.79-.28,3.65.33,5.44-1.3,1.51-1.38,3.79-2.43,5.81-2.59,2.13-.16,3.53-1.76,5.17-1.97,2.32-.29,3.46-3.2,6.17-2.28.64.22,1.67-.63,2.5-1.03,3.33-1.62,6.5-3.97,10-4.68,3.57-.73,6.24-2.72,9.32-4.12,1.07-.49,2.55-.08,3.02-.08ZM211.86,290.08c5.22,5.28,10.56,10.69,15.74,15.93h9.1c4.3-1.65,7.62-3.32,9.38-6.42,1.61-2.84,2.78-5.98,4.41-8.87-1.4-1.36-3.15-.33-4.67-.67-.73.68-1.45,1.35-2.08,1.94h-9.92c-.81-.72-1.54-1.37-2.3-2.05h-4.17c-4.27-1.39-6.91-2.53-8.6-5.15v-2.99c-.88-1.84-1.58-2.91-1.9-4.08-.33-1.19.39-2.65-1.21-3.77-.68.19-1.89.16-2.38.74-1.53,1.79-4.42,1.14-5.63,3.34-6.96-.35-11.33,6.67-18.07,6.25-1.36,1.36-2.53,2.53-3.73,3.73h-5.91c-1.44,1.37-2.87,2.73-4.41,4.2-3.48-1.08-5.72,1.89-8.74,2.81,2.39,2.33,4.76,4.64,7.19,7.02h9.87c1.03-1.28,2.25-1.98,4.05-2.23,1.05-.14,1.79-1.89,2.87-2.63,1.25-.86,2.71-1.41,4.22-2.17-1.45-.68-2.78-1.3-4.36-2.03,3.24-1.98,6.73,0,9.71-1.44.47-.47.94-.94,1.45-1.45h10.11ZM242.79,261.04c-1.64-1.64-3.28-3.28-5-5-1.23,0-3.16-.55-3.74.1-1.98,2.25-5.79,1.59-7.03,4.74v6.46c1.15,1.07,2.1,1.94,2.79,2.59h9.99c1.12-1.07,2.08-1.98,2.99-2.85,0-2.07,0-4.06,0-6.04Z"/>
  <path class="cls-1" d="M1393.45,427.69c-2.52,1.31-4.81,2.3-6.88,3.62-2.99,1.91-4.57,5.31-8.14,6.91-3.04,1.37-5.48,4.21-9.8,5.79h-2.9c-.39-.43-.84-.92-1.25-1.37-2.22-1.19-4.57-.27-6.79-.71-1.89-1.88-4.05-3.57-5.58-5.71-1.65-2.29-4.99-1.66-6.32-4.19h-9.88c-2.4,2.41-4.74,4.77-6.29,6.33-1.98,4.02-3,7.36-5.88,9.66h-2.24c-.23-.82-.96-1.99-.63-2.55,1.58-2.68,3.25-5.29,4.09-8.22,3.05-3.04,6.09-6.09,9.32-9.31h9.85c2.93-4.96,8.38-6.51,12.99-9.27.28-.16.6-.67.72-.61,3.27,1.45,5.17-2.35,8.19-2.11,1.12.09,2.31-.7,5.33-1.72h8.94c.46.09,1.2,1.69,3.03,1.98,1.66.26,3.09,1.9,3.57,4.13.3,1.38,1.81,2.5,2.8,3.76.38-.38.82-.62.82-.86,0-1.85-1.44-4.95-3.74-8.24v-18c2.45-1.04,1.52-4.11,3.5-5.61,2.11-1.59,3.7-3.84,5.74-5.55,1.67-1.39,3.66-2.39,5.5-3.58,2.11-1.37,2.96-4.6,6.24-4.25,1.09-2.37,4.28-1.42,5.54-3.53,1.42-2.38,4.3-2.58,6.35-4.1,1.59-1.18,4.61.28,6.02-2.32h5.95c.75-.7,1.47-1.37,2.2-2.05h3.97c1.76,1.65.99,3.55.48,5.84-2.13.09-4.37.19-6.63.29-2.49,3.54-7.01,4.45-9.83,7.72-2.8,3.26-6.14,6.07-7.86,7.73-1.34,2.84-1.87,3.96-2.93,6.2v9.45l1.58,1.58v5.25c1.26,2.3,1.87,4.81,3.46,5.96,2.37,1.71,2.66,4.36,4.02,6.46,1.19,1.83,1.62,4.16,3.48,5.34,2.19.83,3.04-1.53,4.34-1.66,1.88-.18,2.91-1.2,3.95-2.17h5.21c2.64,1.7,5.79,2.44,7.93,5.09,2.06,2.56,4.61,4.72,6.8,6.91h8c1.35-1.59,3.02-3.56,5.05-5.96.06-.2.33-1.08.62-2.08,1.12.15,2.03.26,2.77.36.28.53.6.88.53,1.07-.91,2.28-1.89,4.53-2.76,6.59-1.02.06-1.67.09-2.32.13-1.18,1.18-2.36,2.36-3.71,3.71h-9.36c-3.33-3.33-6.6-6.6-9.59-9.6h-8.89c-1.96,1.46-4.94,1.91-6.87,4.24-1.68,2.03-3.7,3.78-5.53,5.6-2.22-.81-2.85,1.46-4.33,1.94-1.67,0-3.33,0-5,0-3.3-1.91-6.73-3.54-9.3-6.59-2.32-2.76-5.06-5.15-7.66-7.75ZM1408.79,384.04c-1.38-.05-2.05.62-2,2-1,0-2,0-2.99,0-1.94,1.61-3.31,3.69-6.2,4.39-3.06.74-2.44,5.04-4.73,6.79v10.85c1.17.78,2.82,1.87,4.11,2.73v10.36c1.5,2.02,4.16,2.89,3.77,6.07,3.42,3.34,6.96,6.84,10.57,10.28.4.38,1.17.36,2.31.68.93-.93,2.33-1.89,3.12-3.22.99-1.66,4.52.18,4.02-3.3-.72-2.16-3-3.2-4.33-5.03-1.28-1.76-2.26-3.75-3.58-5.49-1.29-1.69-2.99-6.15-4.19-9.26-.9-2.35-1.42-4.83-2.36-7-.94-2.16-2.02-4.54-3.28-6.22v-5.88c1.41-1.4,2.59-2.58,3.76-3.75v-3c1.38.05,2.05-.62,1.44-1.77,1.55-.44,3.1-.3,1.74-2.04-.46.54-.93,1.09-1.18,1.82ZM1379.79,420.04c-3.98,0-7.96,0-11.94,0-.72.67-1.44,1.33-2.18,2.03h-3.21c-2.23,1.14-4.32,1.61-5.42,2.92-1.8,2.14-4.7-.23-6.22,2.04v1.97c1.4,1.79,3.37,2.62,5.36,3.69,2.21,1.18,3.71,3.68,5.26,5.33h7.7c2.25-1.15,4.01-1.84,5.51-2.89,1.34-.94,2.28-2.43,3.58-3.43,1.42-1.1,3.06-1.93,4.48-2.81v-5.92c-1.03-1.03-1.97-1.97-2.91-2.91Z"/>
  <path class="cls-1" d="M770.79,142.32c1.96-1.4,3.64-2.85,5.31-4.28h5.7c1.37,1.59,3.05,3.54,4.9,5.69v7.41c-1.54,1.28-2.46,3.39-4.9,2.9-1.17,1.7-2.97,2.3-5.07,2.36,2.17,4.01,6.02,5.19,8.89,7.57,2.81,2.33,5.23,5.12,7.99,7.89h9.9c2.53-1.86,6.08-2.6,8.73-4.56,2.33-1.72,3.65-4.8,5.52-7.43,1.09,1.73,3.09,2.24,3.03,4.23-.26.57-.38,1.25-.78,1.67-1.83,1.93-3.75,3.79-5.24,5.29-5.14,2.57-9.83,4.91-14.49,7.23-.94-.82-1.67-1.45-2.52-2.19h-5.79c-.75-.7-1.47-1.36-2.22-2.06h-1.96c-3.99-4.01-7.98-8.02-10.56-10.6-3.02-1.73-4.35-2.5-5.83-3.35h-5.67c-1.93,1.93-3.52,4.7-5.78,5.48-2.72.93-4.23,2.83-6.17,4.47h-5.95c-.74.69-1.45,1.36-2.15,2.01-2.16,0-10.2-4.5-17.9-9.99h-3.95c-.74-.69-1.46-1.36-2.1-1.96h-4.01c-2.87,2.87-5.7,5.7-8.52,8.52.13.09.25.17.38.26-1.22,1.79-2.43,3.59-3.53,5.2-1.07-.05-1.73-.09-2.38-.12-.3-.55-.78-1.06-.86-1.64-.14-.98-.46-2.5.03-2.9,1.87-1.53,1.43-4.22,3.24-5.72,1.27-1.06,2.19-2.9,3.6-3.36,1.6-.52,3.04-.89,4.02-2.28h6.01c.74-.69,1.45-1.36,2.14-2,.7-.03,1.35-.06,2-.09,3.3-3.3,6.6-6.6,9.89-9.89,2.12-2.12,4.01-4.56,6.42-6.26,2.35-1.66,2.18-4.59,4.14-6.36,2.71-2.45,5.2-5.16,7.8-7.73,2.28-2.24,6.1-2.4,7.41-5.66h4.19c.74-.69,1.46-1.36,2.2-2.06h3.83c.82-.73,1.55-1.37,2.09-1.85h16.04c.57.57,1.04,1.04,1.71,1.71h8.42c.86,1.29,1.96,2.94,1.89,2.83,3.23,1.65,4.6,2.35,6.55,3.34h3.21c4.57,3.39,4.28,10.06,9.05,12.94v10.23c-2.17,1.75-2.75-2.95-4.87-1.15-1.19-1.45-2.99-2.27-3.24-4.67-.13-1.21-2.03-3.04-3.28-3.17-2.84-.28-3.56-2.76-5.51-4.09h-7.81c-.76-.69-1.48-1.35-2.26-2.06h-9.92c-1.4,1.33-2.82,2.69-4.27,4.06h-3.86c-1.04,1.03-1.98,1.97-2.92,2.91v3.28c-1.38-.33-2.05.34-2,1.42-.87.64-1.72,1.16-1.94,1.88-.36,1.2-.15,2.57-.5,3.78-.25.85-1.31,1.49-1.5,2.34-.27,1.2-.07,2.5-.07,4.3,3.02,0,5.6.05,8.19-.04.56-.02,1.1-.52,1.88-.91-1.44-.68-2.74-1.3-4.04-1.91v-2.01c-.69-.74-1.36-1.45-2.04-2.17v-5.26c1.38.35,2.05-.32,2-1.42ZM766.79,134.38c4.55.3,5.92-4.17,9.24-5.93,2.68-1.36,5.37-2.73,8.07-4.1,1.11,1.11,2.29,2.29,3.8,3.8h11.8c-.55.22-.73,2.47.86,1.14.03-.73.07-1.63.11-2.36-3.23-1.61-6.26-3.12-9.7-4.83h-20.35c-1.95.9-3.03,1.55-4.2,1.9-1.65.48-7.56,2.97-8.39,3.8-3.07,3.04-6.11,6.1-8.48,8.47-1.3,2.76-2.21,4.7-3.57,7.57-3.69,3.69-8.17,8.14-12.59,12.64-.39.39-.42,1.14-.68,1.92,1.01,2.4,3.47,3.67,5.13,5.64,3.29-.54,3.92,3.12,7.06,4.28,1.68-1.89,4.39-2.51,7.39-2.63,1.75-3.29,6.06-3.4,8.53-6.82v-12.05c3.15-1.46,1.16-4.43,2.48-6.31,1.13-1.13,2.31-2.3,3.48-3.46v-2.66ZM774.6,147.14c.99.89,1.84,1.87,2.9,2.54,1.17.75,2.38.49,3.3-.65-.3-1.52.58-3.18-.59-4.59-2.94-1.58-3.7,1.45-5.61,2.7Z"/>
  <path class="cls-1" d="M403.83,302.04c-.73.69-1.45,1.36-2.19,2.05h-3.9c-2.64,2.64-5.23,5.23-7.08,7.08-2.25,1.17-3.62,1.87-5.53,2.86h-15.45c-4.13-4.16-8.35-8.4-12.54-12.67-.11-.11,0-.46.02-.74,2.14-1.18,4.46-.4,6.7-.52,3.06,2.53,3.99,6.29,5.71,9.79h14.01c2.99-1.88,6.68-3.28,9.08-7.13v-3.03c1.03-2.7,4.44-3.34,4.28-6.65-.04-.9,1.57-2.37,2.68-2.71,1.58-.48,2.81-1.59,4.14-2.04,1.59-.54,2.76-1.39,4.12-2.18,1-.58,2.59-.11,3.9-.11.96-.96,1.9-1.9,2.98-2.98-.09-.78-.19-1.69-.28-2.49-2.49-.76-4.35-.81-6.48.97-1.22,1.02-3.76.48-6.19.68-4.04,4.99-11.15,5.8-16.56,10-.73-.34-1.78-.52-2.35-1.15-1.06-1.16-2.31-.95-3.59-1.06-.87-.08-1.71-.48-2.72-.78,1.4-1.4,2.58-2.58,4.04-4.04.06-.97.13-2.24.21-3.64.26-.42.54-.99.92-1.48,3.26-4.16,8.38-5.43,12.67-7.97,3.23-1.91,7.2-2.62,9.16-6.1h4.22c.51-.51.98-.98,1.45-1.45,1.85-.98,3.85-.32,5.76-.51,1.93,1.01,3.84,2,5.76,3,0,.66,0,1.33,0,2.24,1.09.37,2.25.77,3.41,1.16.53,1.81,1.21,3.55,2.48,4.81v5.77c-.69.86-1.22,1.53-2.04,2.55,1.35.24,2.26.41,3.07.55,1.3-1.3,2.48-2.48,3.87-3.87h9.98c2.03,1.19,4.45,2.62,6.93,4.08-1.07,2.38-1.66,4.64-3.38,6.47-1.81,1.91-4.16,2.87-6.18,4.32-2.51,1.81-5.17.09-7.48,1.16-.59,2.85-3.35,4.85-2.53,8.62.95,1.87,3.25,3.26,4.95,5.08h8.27c1.28-3.3,5.27-3.24,7.39-5.7,3.04.01,4.31-2.6,6.25-4.24h3.95c.73-.69,1.45-1.36,2.11-1.97h7.99c.51.51.98.98,1.8,1.8.9.06,2.17.15,3.58.24.4.22,1.11.39,1.45.84,1.58,2.12,3.84,3.2,6.13,4.25-.04.66-.09,1.31-.13,1.96-1.3,1.58-3.09.55-4.73.89-1.38-1.32-2.81-2.67-4.26-4.05h-3.91c-.5-.5-.97-.97-1.47-1.47-1.47-.96-3.09-.4-4.58-.35-.79.68-1.53,1.3-2.16,1.84h-3.64c-1.88,2.12-4.98,3.38-7.17,5.41-2.22,2.06-5.38,2.22-7.12,4.52h-11.12c-4.83-2.46-8.95-4.55-13.43-6.83-.1-.46-.29-1.37-.52-2.5-1.04-.37-2.24-.7-3.34-1.23-.56-.27-.95-.91-1.4-1.37h-9.98ZM403.35,295.81c-1.55.44-3.1.3-1.74,2.04.46-.54.93-1.09.63-1.59,1.55-.44,3.1-.3,1.74-2.04-.46.54-.93,1.09-.63,1.59ZM414.47,298.04h3.29c.73.68,1.44,1.35,2.14,2.01,1.57-.35,3.35.7,4.66-.76v-6.87c-1.11-.21-2.1-.23-2.91-.6-.76-.35-1.34-1.09-1.91-1.58-.92.73-1.66,1.33-2.48,1.98h-5.71c-1,1.07-1.85,1.98-2.69,2.88,1.8.94,3.44,1.8,5.61,2.93ZM435.56,285.98c-.27,1.47-2.44,1.61-2.42,3.62,1.5.85,3.13.24,4.89.49.27-1.47,2.44-1.61,2.42-3.62-1.5-.85-3.13-.24-4.89-.49ZM389.64,286.21c1.8-1.88,3.55-3.49,5.56-5.67-1.62-.3-2.49-.46-2.28-.42-1.97,1.24-3.3,2.09-4.54,2.87.57,1.45.89,2.27,1.26,3.23ZM419.72,270.42q-.99,7.45.53,9.45c.88-2.6.83-5.03-.53-9.45ZM407.98,276.19c.36-1.53,2.43-1.74,2.5-3.79-.91-.17-1.79-.33-2.88-.53-.36,1.54-2.43,1.74-2.5,3.79.91.17,1.79.33,2.88.53Z"/>
  <path class="cls-1" d="M752.79,307.83h3.59c.22-1.08.41-1.99.63-3.01,1.32-1.32,2.73-2.73,4.15-4.15,2.77-.47,4.63-3.68,7.96-2.51,2.21.71,3.36,2.85,5.09,4.28.6,1.44,1.2,2.86,1.96,4.68-1.01,3.07-2.96,6.17-6.41,8.68-1.14.12-2.72.3-4.25.46-1.38,2.22-.48,4.56-.67,6.81,1.96,1.98,4.41.56,7.15,1.05,1.02-1.32,2.23-2.89,3.16-4.09h2.68c1.15-1.18,2.31-2.37,3.67-3.77h10.56c2.48,3.53,7.29,4.17,9.67,7.76,7.42,0,14.75,0,22.08.03.24,0,.47.44,1.26,1.24-1.25.42-2.51.84-3.77,1.26.33.41.66.83.99,1.24h-22.4c-4.38-1.73-7.98-6.05-13.28-7.83-4.05,2.69-9.31,3.64-12.65,7.96h-11.67c-3.31-3.32-6.58-6.6-9.53-9.55-2.5-.21-4.22-.89-6.11.67-2.36,1.95-5.88,2.33-8.08,4.43-2.16,2.06-5.12,2.54-7.17,4.56-2.58.04-4.16-3.55-6.89-2.14-3.34-3.34-6.61-6.61-9.66-9.66h-6.82c-1.79,1.08-4.37,1.97-5.93,3.76-1.58,1.81-2.04,4.58-4.39,5.96-1.87-1.99-.52-4.43-.89-6.61,3.25-5.23,9.14-6.48,13.96-9.45,2.81,1.45,5.55,2.87,8.11,4.2,2.91-.5,3.34-4.51,6.59-4.04,1.64-2.09,4.94-1.54,6.34-4,1.33,0,2.67,0,4,0,.33-.53.93-1.05.95-1.59.1-2.61.05-5.22.05-7.41.89-.89,1.36-1.36,1.91-1.91v-7.97c2.4-2.24,4.83-4.49,7.59-7.07h7.55c1.71-1.88,3.5-3.85,5.3-5.83h8.59c.28.22,1.03.8,2.04,1.59h6.2c.66-.66,1.13-1.13,1.71-1.71h8.05c.54.49,1.29,1.12,1.96,1.82.43.45.83.98,1.08,1.55.75,1.69,1.41,3.41,2.28,5.54-1.73,1.4-3.53,2.85-6.18,4.99-.06,0-1.4-.21-2.63.07-.86.2-1.56,1.08-2.45,1.74-.59-.51-1.28-1.11-2.05-1.78h-8.07c-1,1.11-2.11,2.34-3.3,3.66-3.58.7-7.21-.02-10.76.48-.94.94-1.89,1.88-2.83,2.83,0,4,0,8,0,12.79ZM729.79,312.04c-1.47,1.47-2.64,2.64-3.61,3.61-1.34.47-2.44.86-3.44,1.21.12,1.11.18,1.75.24,2.32,1.63.86,3.29,1.72,5.48,2.87h2.54c5.53-2.83,10.46-5.36,15.28-7.82h7.68c1.35,1.35,2.52,2.52,3.7,3.7,1.12.05,2.47.69,2.77-.65-1.69-1.95-3.19-3.7-4.57-5.29h-12.06c-.84-.73-1.56-1.37-2.11-1.85-2.29-.81-2.84,1.57-4.37,1.91h-7.53ZM759.11,282.91c.84,1.16,1.77,2.43,2.13,2.92h6.82c1.27-1.67.54-3.33.62-4.91-1.46-1.2-2.37-3.29-4.97-2.86-1.5,1.58-3.1,3.27-4.6,4.84ZM745.81,306.04c.61-3.34,5.09-5.92,2.09-10h-2.1c-.92.92-1.84,1.84-2.8,2.8-.05,2.41-.89,4.95.75,7.2h2.07ZM780.29,278.19c-2.21,1.88-3.9,3.31-6.17,5.24,3.53.96,6.42.51,9.24.55.47,0,.96-.68,1.61-1.18-.78-1.34.67-3.13-1-4.62h-3.68ZM756.48,289.88c-3.63-1.81-3.4-4.04-4.4-5.55-1.82-.16-3.74-1.11-5.29.71,0,.65,0,1.3,0,.79,1.3,2.06,2.16,3.41,2.57,4.06h7.12ZM765.18,309.76c1.86-.36,2.49-1.85,3.58-2.76-1.35-1.4-2.67-1.4-4.07.18.15.79.32,1.67.49,2.58Z"/>
  <path class="cls-1" d="M597.13,162.04c-2.01,0-2.67,0-3.34,0-1.18-1.18-2.35-2.35-3.76-3.77h-5.92c-1.27.65-2.91,1.49-5.22,2.67-2.5,2.5-5.56,5.56-8.64,8.64-.88.22-2.06.17-2.64.74-2.18,2.15-4.43,2.95-6.84.63-1.46-1.41-3.16-.46-4.61-.98-1.41-.5-2.64-1.52-5.24-3.1-2.27-3.98-8.23-5.36-12.94-8.51-.95-.63-2.54-.3-3.89-.41-.75.65-1.48,1.28-2.33,2.02h-3.9c-2.93,3.11-5.87,6.24-9.1,9.67v1.92c-1.09.16-2.22.33-3.14.46-1.31-1.93-.71-3.56-.69-5.14,3.53-3.53,7.06-7.06,10.26-10.26,1.8-.84,3.19-1.49,5.41-2.52h13.39c.83,1,1.89,2.27,3.16,3.8,2.87.27,5.79.11,8.75.08.95-1.47,2.53-1.67,4.02-2.27,1.42-.57,2.41-2.22,3.72-3.54h3.86c1.03-1.83,2.03-3.61,2.81-4.99-.72-1.66-1.34-3.07-1.98-4.55-.49-.18-1.06-.56-1.64-.57-4.32-.05-8.64-.03-12.9-.03-.53.53-1,1-1.49,1.49-4.83.67-9.1,2.49-12.33,6.33-1.58.09-3.2.61-4.71-.34-1.22-1.83.08-2.86,1.11-4.17.71-.9.87-2.24,1.25-3.34h2.19c1.91-1.91,3.79-3.79,5.67-5.67,2.83-.23,4.8-3.46,8.03-2.3,2.58-2.36,6.6-2.67,8.38-6.51,1.4.71,2.5,1.27,4.55,2.3h8.79c1.93,2.36,3.8,4.64,5.05,6.17h5.43c.43-.4.92-.84,1.49-1.37,2.03-1.27,4.37-.36,6.34-.54,2.52,2.41,4.92,4.7,7.2,6.87v8.13c-2.11,1.72-5.93,1.46-5.96,4.85,4,4,7.73,7.73,12.07,12.07-.52-.02.14,0,.84.04.69.64,1.41,1.31,2.12,1.98h5.98c1.05-2.44,4.35-1.34,5.53-3.54,1.17-2.19,3.98-1.85,5.49-3.59v-2.14c1.13-.39,2.29-.8,3.6-1.26.17-.83.37-1.74.56-2.66,1.75-1.33,3.56-1.04,5.43-.2-1.91,4.26-3.79,8.24-8.92,9.95-2.26.75-3.83,3.57-5.7,5.45h-5.96c-.74.69-1.46,1.36-2.08,1.94h-3.93c-.84-.73-1.57-1.37-2.22-1.94h-2.47c-3.1-3.1-5.88-5.89-7.99-8Z"/>
  <path class="cls-1" d="M1137.82,136.03c1.52-.35,3.28.7,4.83-.85-.56-.65-.99-1.53-1.7-1.93-3.23-1.81-6.53-3.49-9.81-5.22-3.4.94-5.65-3.41-9.21-1.98-.7-.65-1.42-1.31-2.18-2.01h-4.41c-.2-1.05-.41-2.18-.57-3.06,1.71-1.49,1.76.38,2.39.49,1.97,1.2,4.01.03,7.57,1.55-.79-.59-.03-.02,1.07.8,2.48.15,5.39.33,8.29.51,1.32,2.77,4.52.7,6.02,2.21,1.29,1.3,3.01,1.06,4.18,2.05,1.52,1.29,2.85,2.79,4.38,4.32v6.05c-1.39.73-2.98,1.58-5.82,3.07-.24,0-1.86-.11-3.45.03-1.55.14-2.24-1.12-3.34-1.62-1.39-.63-3.25-.24-4.61-.9-1.11-.54-1.86-1.81-3.37-1.51-1.86.36-3.15-.51-4.18-1.96h-7.97c-.74-.69-1.46-1.36-2.19-2.05h-3.91c-.75-.69-1.46-1.36-2.3-2.14-.85.24-1.74.48-3.57.99,2.77,2.3,5,4.16,6.69,5.57.67,3.56-3.76,4.89-1.28,8.91,1.46,1.49,3.12,4.11,6.61,5.06,1.67.45,3.05,2.53,4.22,4.11.88,1.2,1.23,2.79,2.38,5.57v9.14c-1.24,1.24-2.41,2.41-3.68,3.68.59.68,1.18,1.37,1.82,2.11-3.63,1.51-6.76,4.14-10.72,4.98-.64.13-1.33.02-2.1.02-1.36,1.3-2.79,2.66-4.2,4h-3.27c-2.24,1.24-4.67,2.59-7.22,4h-4.83c-2.18,1.2-4.36,2.4-7.02,3.87-1.64.1-3.9.59-6.08-.37-.09-.27-.29-.68-.24-.71,2.13-1.43,3.11-4.05,5.96-4.91,2.9-.88,5.46-2.78,8.34-3.93,1.99-.8,4.19-1.73,5.58-3.25,2.24-2.45,5.52-3.09,7.86-5.44,1.93-1.93,1.66-4.95,3.97-6.37v-3.84c-1.71-1.76-3.34-3.42-4.93-5.05h-3.06c-2.77-1.33-5.53-2.71-8.34-3.96-.55-.25-1.31-.04-1.98-.04-3.74-1.75-5.21-5.41-7.25-9.24.15-1.13,1.8-1.73,2.76-2.87,1.07-1.27,2.16-2.67,3.55-3.47,1.32-.76,3.13-.65,4.07-2.2,2.66.23,4.76-1.36,7.11-2.05,2.28-.68,2.54-2.78,4.47-3.1-1.44-5.1-5.47-5.97-8.88-6.95-4.59-1.32-8.36-3.96-13.37-6.12h-3.05c-.73-.69-1.45-1.36-2.2-2.05h-3.49c-3.7-2.57-8.21-2.29-11.36-5.03v-1.94c.95-.95,1.89-1.89,2.9-2.9.69.61,1.38,1.22,2.13,1.89h7.86c.74.69,1.47,1.35,2.22,2.05h5.91l1.79,1.79h8c.82.82,1.29,1.29,2.03,2.03,1.96.09,4.2.19,6.28.28l1.72,1.72h8.42c.77.82,1.81,1.92,3.15,3.34-1.71.61-2.87,1.02-4.08,1.45.06,2.85,4.01.06,4.1,2.8,1.97.86,3.93,1.75,5.93,2.56,1.71.69,2.93,2.13,5.15,2.18,2,.04,4.41,1.04,5.86,2.43,1.77,1.7,3.57,1.29,5.53,1.41.68.64,1.4,1.31,2.13,1.99ZM1110.79,174.04c1.98,0,2.48-2,3.91-2.89v-3.88c.69-.77,1.35-1.49,2.06-2.27v-6c-1.31-.66-2.69-1.32-4.04-2.04-2.7-1.45-6.23-2.09-6.24-6.24-1.3-.9-1.85-2.77-3.89-2.71-1.94.05-1.81-1.43-1.8-2.86,1.28-1.35,2.61-2.76,3.93-4.16-.96-1.39-2.45-1.14-3.63-.89-2.42.51-4.31,2.99-7.2,1.97-.15-.05-.54.34-.72.59-1.37,1.94-4.49,1.11-5.54,3.53-.37.85-.72,1.7-.69,1.62,1.18,1.94,2.04,3.34,2.57,4.22,1.83,0,2.83,0,3.83,0,1.02.71,2.05,1.43,2.87,2h5.45c1.35,1.28,2.77,2.64,4.22,4.03h2.01c.65,1.35,1.31,2.7,1.79,3.7,1.28.39,2.17.66,3.04.93v4.3c-.58.62-1.25,1.34-1.94,2.08,0,1.63,0,3.3.56,4.73-1.55.44-3.1.3-1.74,2.04.46-.54.93-1.09,1.18-1.81ZM1084.5,116.75c-.27-.27-.49-.49-.71-.71-.22.44-.52.87-.63,1.34-.04.16.4.44.63.66.24-.43.48-.87.71-1.29ZM1091.79,118.04c-.22.22-.66.49-.62.66.1.47.4.9.63,1.34.22-.22.66-.49.63-.66-.1-.47-.4-.9-.63-1.34Z"/>
  <path class="cls-1" d="M1414.79,308.04h6.96c.74.69,1.45,1.36,2.2,2.05h4.14c.41,1.15.81,2.31,1.31,3.71h6.15c1.74-.94,3.93-2.12,6.75-3.64h13.8c.78,1.19,1.87,2.87,2.52,3.87h6.62c2.3-1.25,4.22-2.29,6.89-3.74h16.14c.2.78.44,1.68.64,2.46-.32.4-.51.85-.73.87-3.94.23-7.88.41-12.16.62-1.84,1.01-4.01,2.22-6.75,3.72h-5.25c-.76.69-1.49,1.35-2.21,2.01-.69-.63-1.4-1.28-2.12-1.93-1,0-2,0-3,0-.32-.02-.8.09-.95-.08-1.98-2.24-4.93-2.61-7.4-3.88-.53-.27-1.43-.27-1.96,0-3.59,1.83-7.13,3.76-11.2,5.93h-5.57c-1.57-3.39-5.62-3.66-8.24-5.97h-7.58c-1.31,1.31-3.04,2.82-4.49,4.55-1.51,1.81-4.41,1.21-5.57,3.42h-5.96c-3.32-3.32-6.62-6.62-9.94-9.94h-6.09c-2.21,2.29-4.52,4.68-6.94,7.18,0,.44,0,1.11,0,1.78-1.72,1.1-2.47,4.35-5.52,2.49-2.37-3.58,1.15-5.97,2.07-8.75.63-1.9,2.97-3.57,4.94-4.57,1.1-.56,2.31-.9,3.22-1.85.69-.72,1.41-1.42,2.21-2.21h6.07c1.25,1.19,2.67,2.55,4.45,4.25,2.59-1.34,5.33-2.75,8.4-4.34h4.58c3.55-.73,2.99-4.67,5.47-6.94v-8.13c3.69-1.64.56-6.17,3.88-7.67.94-2.27,1.88-4.55,2.91-7.04h9.74c.84-.66,1.59-1.24,2.88-2.24h15.76c.82-.82,1.29-1.29,1.87-1.87h11.8c.78-.68,1.51-1.32,2.3-2.02,2.83-.22,5.73,0,8.81-.12v3.27c-1.46,1.62-3.28.15-5.41,1.38-.08.08-.8.75-1.55,1.44h-3.81c-.84.73-1.57,1.37-2.34,2.05h-21.79l-1.71,1.71h-8.96c-3.69.99-3.72,4.02-5.07,6.06-.5.76-1.29,1.84-1.08,2.48.89,2.7-2.37,3.79-2.12,6.2.17,1.6.03,3.22.03,5.2,1.6.13,2.86.23,4.2.34,2.41-1.33,4.84-2.68,7.38-4.09h5.39c.64-.63,1.98-1.37,2.38-2.46,1.94-5.23,4.86-9.69,9.92-13.35h10.18c.76,1.23,1.99,3.22,3.22,5.21.36-.29.73-.57,1.09-.86v8.17c-1.8,2.85-2.96,6.68-7.09,9.09h-10.05c-.53-1.07-1.43-2.91-2.13-4.33-3.43,1.95-5.56,3.16-8.02,4.56h-5.46c-.79.71-1.52,1.37-2.1,1.9-1.49.09-3.58-.31-3.97.33-1.73,2.82-5.16.67-6.93,2.76-.16.19-.02.65-.02.98-.9,0-1.92-.25-2.67.08-.61.27-.9,1.25-1.33,1.92-.9,0-1.92-.26-2.67.08-.61.27-.9,1.25-.9,2.04-2.92.12-5.41.12-8.37.12.08,1.36.15,2.46.22,3.61h4.76c1.16-1.09,2.08-1.96,3.39-3.72.47-.12,1.49.14,2.24-.2.61-.27.9-1.25,1.33-1.92.9,0,1.92.26,2.67-.08.61-.27.9-1.25,1.33-1.92ZM1445.79,296.04c2,0,4,0,6,0,.94-.94,1.88-1.89,3-3.01,0-2.46.01-5.1-.02-7.74,0-.26-.33-.52-.5-.78-6.41-.7-6.42-.65-7.44.5v3.91c-1.34,1.42-2.65,2.81-3.95,4.2,1.04,1.04,1.98,1.98,2.92,2.92Z"/>
  <path class="cls-1" d="M1580.76,177.07c1.37,1.29,2.32,2.18,3.14,2.95,2.88.32,4.32-3.72,7.05-2.17,3.33-3.33,6.59-6.59,9.58-9.58h17.49c2.88,2.87,6.36,6.35,9.75,9.72h10.14c.96-1.48,2.53-1.69,4.03-2.29,1.42-.56,2.41-2.22,3.72-3.54h6.31c1-1.33,2.19-2.92,3.08-4.11h8.8c2.23,2.3,4.54,4.69,6.95,7.17,0,.47,0,1.14,0,1.8,1.69,1.73,4.99,1.26,5.72,4.05-.93,1.05-1.8,2.03-2.7,3.04-1.41-2.64-5.01-1.84-6.3-4.38-1-1.96-1.32-4.34-3.73-5.62h-9.92c-.56.5-1.28,1.15-2.09,1.87h-3.99c-2.22,3.76-7.22,4.1-9.74,7.88h-8.5c-.81-.18-1.38-2.57-3.52-1.81-3.99-3.15-6.69-7.97-11.89-9.86h-8.06c-1.67.92-3.69,1.79-5.43,3.06-1.59,1.17-3.06,2.62-4.22,4.22-1.62,2.23-4.66,2.12-6.42,4.37h-7.77c-2.6-1.37-5.33-2.8-9.72-5.11-.48-.52-2.26-2.48-3.73-4.09-1.12-.3-1.71-.59-2.32-.6-2.97-.05-5.93-.02-8.57-.02-3.17,2.04-3.05,6.07-6.03,7.89-2.16-1.77-.67-4.19-1.09-6.26,1.93-4.06,6.06-5.39,9.45-7.63h5.56c1.56-1.56,3.28-3.56,5.28-5.2,1.97-1.62,3.19-3.92,5.92-4.97,2.27-.87,3.76-3.63,5.99-4.85,2.26-1.24,4.17-2.87,6.28-4.18,2.17-1.34,4.07-3.3,6.22-4.17,2.58-1.05,4.01-3.37,6.22-4.28,2.28-.94,4.4-2.2,6.72-3.07,2.28-.86,4.34-2.32,6.6-3.57.91.67,1.67,1.23,2.82,2.08h5.03c.86.54,1.42.82,1.91,1.2,1.27.98,2.4,2.17,3.77,2.97,3.38,1.96,8.07,2.34,8.7,7.48,1.93,1.81,3.86,3.63,4.39,4.12,1.33,2.85,1.85,3.96,2.92,6.23v7.37c-.91.95-1.83,1.91-2.71,2.82h-4.06c-.48-.48-.95-.95-1.83-1.83-1.82-.08-4.06-.19-6.33-.29l-9.88-9.88h-1.92c-.75-.69-1.47-1.36-2.09-1.94-3.37-1.33-5.46,1.58-8.14,2.32-2.01.55-2.6,3.51-5.45,3.77-2.16.19-2.83,3.47-5.34,3.87-2.52.4-3.4,2.93-5.25,4.21-1.8,1.24-3.8,2.21-5.48,3.58-1.8,1.46-3.33,3.25-5.31,5.23ZM1640.94,163.18c-1.19-3.79-2.67-6.82-5.26-9.32-4.04-3.91-7.9-8.02-11.67-11.88h-4.2c-.82-.73-1.55-1.37-2.26-2-1.61.33-3.18-.38-4.73.88-1.64,1.34-3.64,2.68-5.66,3.03-2.7.47-3.4,3.68-5.34,3.88-3.15.33-3.97,3.76-6.29,4.08-2.79.38-4.01,2.29-5.33,3.93-1.74,2.16-4.69,1.94-6.37,4.1-1.62,2.08-3.7,3.8-5.59,5.67-.21.21-.53.32-.07.05-1.65.56-2.52.86-3.34,1.13.12,2.46-.63,4.77.8,7.44l6.1-6.1c2.84.4,4.08-1.93,5.44-3.58,1.74-2.11,4.86-1.96,6.24-4.19,1.35-2.18,4.37-1.57,5.51-3.52,1.64-2.82,4.81-3.13,7.18-4.53,2.19-1.29,4.8-3.09,7.92-2.55.54.09,1.28-1,1.94-1.55,1.78,2.28,4.94,2.07,6.38,4.42,2.48,4.05,7.31,5.18,10.49,8.4,1.03,1.04,2.68,1.47,4.06,2.15.82.41,1.68.75,2.72,1.21.57-.51,1.02-.91,1.31-1.17Z"/>
  <path class="cls-1" d="M1213.76,304.04c.74-.69,1.46-1.36,2.21-2.06h3.94c1.41-2.6,4.01-1.71,6.42-2.23.19-.79.4-1.69.58-2.47-1.79-2.45-5.24-3.5-4.22-7.24-2.1,0-3.96-.55-4.63.11-1.47,1.45-3.83,1.3-4.88,2.68-1.75,2.3-4.7,0-6.2,2.06-1.48,2.04-3.76.51-5.42,1.43-.82.45-1.46,1.22-2.05,1.72h-5.19c-2.21,1.24-4.38,2.46-6.6,3.7-1.19-1.34-4.04-2.14-2.3-5.49,1.37-.11,2.95-.23,4.52-.36,1.41-3.04,4.84-1.01,6.88-2.76,1.37-1.18,3.26-1.77,5.63-2.99h6.67c2.51-1.43,4.67-2.67,7.16-4.09h9.55c1.67,1.2.6,3.89,2.82,4.88,1.96.87,2,3.12,3.01,5.17,1.43-.15,3.5.26,4.43-.58,2-1.82,5.55-1.58,6.37-4.83l-1.66-1.66c0-2.05-.04-4.35.01-6.65.03-1.22,3.19-5.46,4.37-6.37,2.75-2.12,5.33-4.48,10.12-5.95h6.6c1.48,1.59,3.06,3.29,4.84,5.2v3.61c.7.75,1.37,1.47,2.06,2.2,0,1.97,0,3.97,0,5.96-2.31,1.84-1.92,6.27-4.98,6.74-3.12.48-3.99,3.21-6.38,4.26h-4.92c-1.94-.96-3.69-2.56-6.15-2.01-1.55.35-2.18,2.49-4.17,2.02-1.81-.43-2.93,1.26-4.28,1.65-2.68.76-4.82,3.6-8.05,2.34-1.44,2.4-4.75,1.84-6.34,4-3.23-1.41-5.32,1.66-8.13,2.2-3.53.68-7.02,2.48-10.04,4.52-1.4.94-3.08.82-4.9,2.48,1.29.96,2.49,1.86,3.75,2.8.9,0,1.9,0,2.9,0,2.68-.43,3.16-3.87,6.32-4.2,2.26-.23,4.33-2.32,6.86-3.8,2.84,0,6.17,0,9.5,0,1.96,1.59,3.17,4.29,6.25,4.22,2.51,2.77,5.02,2.8,7.53.01,3.44.62,5.79-2.17,8.81-2.87.55-.13.95-.89,1.43-1.37,3.33,0,6.66,0,10.21,0,1.46,3.08,4.93,3.72,7.67,5.52,4.94-2.46,10.1-5.03,15.49-7.71.71.56,1.46,1.12,2.17,1.73.5.43.95.94,1.51,1.49-.98.88-1.96,1.75-3.31,2.96-.82,0-2.5-.52-3.36.09-3.32,2.38-7.43,3.28-10.58,5.91h-5c-.31-.05-.74.02-.92-.16-1.91-1.86-3.79-3.75-5.77-5.74h-5.95c-4.1,3.13-9.36,4.44-13.79,7.37-1.12.74-3.24.66-4.6.15-2-.76-4.21-1.88-5.45-3.52-1.55-2.04-4.05-1.75-5.73-3.36-1.46-1.41-3.71-1.37-5.29.08-1.07.98-2.53.77-3.4,1.44-2.09,1.62-3.84,3.68-5.73,5.58-2.18.27-4.69-.38-5.94,1.84-4.71-2.38-9.4-4.75-14.92-7.53h-5.42c-1,.27-1.52,2.76-3.68,1.65-4.27,4.27-8.45,8.45-12.7,12.7-1.17-.73-1.91-1.19-2.61-1.63,4.03-10.16,6.08-10.11,15.09-16.85h3.94c.73-.66,1.43-1.3,2.13-1.94l1.7,1.7h8.48c1.83-1.75,3.36-3.97,6.23-4.23,1.23-2.14,4.48-1.12,5.53-3.53h3.96ZM1252.92,293.24c5.08-.91,7.8-3.45,9.87-6.63,0-3.1.05-6.07-.05-9.03-.02-.53-.63-1.04-.96-1.55h-8.02c-2.22,2.3-4.5,4.66-7.05,7.3.58,1.82-.6,4.13.9,6.71,1.74,1.05,3.87,2.33,5.31,3.2Z"/>
  <path class="cls-1" d="M389.88,144.01c1.23-1.31,2.12-2.26,2.95-3.15-1.23-4.23-3.23-7.77-7.08-10.62h-5.61c-3.29,1.73-6.86,3.59-10.99,5.76h-7.27c-1.04-2.83-3.69-5.13-3.11-8.52,2.43-2.32,4.81-4.59,7.9-7.53.67-.32,2.33-1.12,4-1.91,1.95-.92,4.26-1.45,5.76-2.84,1.78-1.64,3.72-.76,5.37-1.27.83-.71,1.56-1.34,1.45-1.25,5.39-2.32,8.67,2.15,12.89,1.71.48,1.16.63,2.71,1.47,3.36,4.75,3.7,6.48,9.26,9.15,14.23.73,1.36,1.49,2.72,1.96,4.18.29.9.05,1.96.05,2.81.75.84,1.4,1.57,2.09,2.34v7.9c2.74,1.38,1.34,4.17,2.25,6.11.77,1.65,1.87,3.15,2.94,4.91,3.64-.52,4.89-4.12,7.63-5.96h4.87c.1,1.48.19,2.74.26,3.74-.11.58-.06,1-.24,1.18-2.8,2.85-5.63,5.67-8.63,8.67h-14.11c-.38-.31-1.13-.92-2.09-1.7h-5.64c-.77-.69-1.85-1.21-2.14-2.01-1.26-3.48-3.76-5.88-6.4-8.15-3.44,1.08-6.27,2.85-9.05,5.07-2.6,2.08-6,3.15-9.64,4.96h-4.49c-2.23-1.26-4.53-3.41-7.1-3.82-3.9-.61-3.81-3.86-5.42-6.11h-7.74c-4.24,1.91-4.94,6.67-7.95,9.58-1.53.08-1.81-1.51-2.93-2.1.17-2.06,2.28-3.64,1.36-6.43,1.75-1.54,3.68-3.25,5.91-5.22h3.24c.91-.76,1.65-1.38,2.27-1.9h6.12c.72,1.09,1.81,2.75,2.59,3.92h4.99c.58-.53,1.31-1.19,2.11-1.92h1.87c.67,0,1.34.06,1.99-.03.27-.04.46-.46.74-.62,1.88-1.09,3.78-2.15,5.91-3.35h4.27c2.05-.86,4.23-1.15,5.34-2.39,1.65-1.87,3.48-1.51,5.91-1.63ZM406.79,153.04c0-1.75-.3-3.78.08-5.67.47-2.35-2.04-3.29-2.03-5.18.01-2.07-.07-3.95-2.05-5.16.91-2.33-1.84-3.14-2.15-5.14-.21-1.38-1.69-2.66-2.82-3.77-1.41-1.39-.79-3.86-2.79-4.85.17-2.71-1.82-3.92-3.46-5.1h-9.92c-1.31,1.31-2.49,2.49-3.76,3.76h-4.27c-1.07,1.35-2.3,2.9-3.26,4.11h-3.08c-.17,1.08-.34,2.22-.49,3.19,1.93,1.26,4.04,1.32,5.06.54,3.27-2.51,7.44-3.22,10.42-5.74h5.38c4.79,3.34,6.24,9.72,11.18,12.83-.15,3.17.24,6.11-.28,8.89-2.08.24-3.65.43-5.05.59-1.33,1.33-2.51,2.51-3.68,3.68-1.55.37-3.31-.68-4.7.69-.51,1.27-.59,2.43.75,3.2.74-.65,1.47-1.3,2-1.77h6.04c1.52,1.52,3.37,2.71,4.23,4.4,1.01,2.01,1.67,4.13,3.66,5.47,2.22-.21,4.56.7,6.83-.71v-6.45c-.66-.66-1.13-1.13-1.81-1.81ZM379.02,154.94c-4.01-2.53-5.56,3.32-8.76,1.1-1.78,1.04-3.56,2.07-5.35,3.11.97.97,1.9,1.9,3.17,3.17,1.49-.72,3.05-1.74,4.77-2.23,2.78-.79,3.73-3.54,6.18-5.15Z"/>
  <path class="cls-1" d="M1332.79,174.04c0-1.67,0-3.33,0-5,3.03-1.56,6.05-3.12,9.66-4.97h11.53c.36,1.03.76,2.17,1.16,3.33,1.4,1.32,3.16.26,4.63.67.77.7,1.49,1.36,2.1,1.91,2.23.81,2.84-1.48,4.33-1.94,1,0,2,0,3,0,2.56-.62,3.1-4.45,6.34-4,1.67-1.59,3.18-3.42,5.07-4.69,2.35-1.58,1.66-4.98,4.2-6.3,0-2,0-3.99,0-6.27-.81-.23-1.72-.4-2.56-.75-2.66-1.11-3.78,2.82-6.15,1.96-2.52-.91-3.21,2.05-5.86,2.08-.57-.44-1.55-1.2-2.71-2.1-1.84-.67-2.58,1.36-3.95,2.08-2.33,0-4.66,0-6.95,0-1.43-.68-2.77-1.52-4.23-1.94-1.19-.34-2.63.27-3.58-1.04-1.21-1.66-3.02-.8-5.3-1.15-.45-.83-1.21-2.23-1.98-3.65.84-.92,2.62.13,4.18-.22.71-.66,1.44-1.33,2.15-1.99,2.07-.75,2.81,1.27,4.17,1.99,1.67,0,3.33,0,5,0,2.74-1.4,5.36-3.08,8.34-3.97.61-.18,1.32-.03,1.99-.03,2.43-.83,3.07-4.49,6.34-4,1.46-2.36,4.8-1.76,6.28-3.92h8.78c4.64,1.86,7.92,3.83,10.05,7.49,0,1.09-.03,2.45,1.9,2.43.33,0,.81.15.98-.02,3.26-3.32,6.48-6.68,9.56-9.89h10.83c1.21,1.42,2.71,3.18,4.61,5.42v9.81c-1.35,1.09-3.14,2.54-5.59,4.52h-3.13c-2.26,2.26-4.58,4.58-6.91,6.91-.46,4.05-4.11,5.68-6.38,8.34-2.15,2.51-4.5,4.85-6.35,6.83h-9.85c-2.36-1.21-4.03-2.07-5.69-2.91.96-.94,1.91-1.87,2.94-2.89.67.58,1.36,1.18,2.12,1.85h8.07c1.46-1.58,3.04-3.29,4.83-5.22v-3.4c1.92-3.13,5.95-4.49,6.29-8.58,2.15-1.41,3.21-3.9,5.95-4.94,2.35-.89,4.51-2.12,7.11-2.12,1.41-1.4.34-3.16.76-4.93-1.14-.39-2.47-.57-3.42-1.25-1.06-.77-1.86-1.87-3.43-1.49-1.55.53-1.06,2.06-1.42,3.17l-6.58,6.58h-8.41c-1.57-1.57-3.65-3.65-5.74-5.74-3.22.38-4.08-2.91-6.36-4.08-1.49.33-3.52-.82-4.51.94-1,1.76-4.38-.02-4.17,3.08h-5.11c-.89,1.29-2.09,1.95-3.89,2.21-.89.13-2.66,1.43-2.64,3.62,1.03,0,2.08.3,2.77-.07,1.07-.57,1.64-1.96,3.23-1.78.94.11,1.91-.06,3.06-.11.43-1.56,2.72-1.81,2.59-3.86h8.92c1.8,2.34,5.55,1.91,6.99,5.02v3.92c-.54.59-1.2,1.31-1.9,2.09v6.17c-3.39,3.32-7.24,6.53-10.38,10.33-2.97,3.59-7.79,4.6-10.55,8.41h-11.72c-4.56-1.89-4.84-7.44-8.52-9.94-5.39.45-5.5.53-13.7,9.85-1.06-.62-2.11-1.23-3.16-1.84Z"/>
  <path class="cls-1" d="M1629.79,406.04c-1.18-1.18-2.35-2.36-3.76-3.77h-5.42c-1.25-.84-2.29-1.54-3.33-2.23-1.67,0-3.33,0-4.96,0-2.2-1.23-4.38-2.45-7.05-3.95h-3.52c-1.5-1.64-3.06-3.35-4.73-5.18.69-.73,1.55-1.65,2.54-2.69h14.42l1.71,1.71h11.8c.78.69,1.51,1.33,2.33,2.06h11.78c.54.48,1.02.92,1.53,1.37.55.22,1.11.63,1.69.65,2.33.08,4.66.03,6.97.03.49.49.96.96,1.83,1.83,1.82.09,4.06.19,6.3.3.47.47.94.94,1.41,1.42,2.5,1.48,6.07-1.12,8.12,2.12,2.62.15,5.23.3,8.05.46,1.97,1.11,4.15,2.33,6.81,3.82h3.29c1.23,1.01,1.59,2.4.87,3.36-.8,1.05-1.65,2.07-2.24,2.81-3.05-.53-4.84.69-6.89,1.73-1.55.79-3.6.06-5.34,1.7-1.45,1.37-3.93,2.34-5.92,2.27-2.32-.08-3.34,1.73-5.15,2.25-2.05.58-4.65,1.26-5.7,2.79-1.24,1.83-4.55-.2-4.45,2.9-.17,2.07,1.83,2.6,2.79,4.08h8.33c1.38,1.86,2.94,3.94,4.75,6.37.02-.11.12.71-.24,1.09-2.29,2.42-4.61,4.82-7.05,7.08-2.33,2.15-5.96,2.56-7.47,5.64h-4.13l-1.73,1.73c-1.27.12-2.85.27-4.42.42-1.18,1.18-2.36,2.36-3.67,3.68h-5.74c-.8.68-1.54,1.31-2.33,1.99-2.15.11-4.42.64-6.81-.46-.05-.83-.11-1.73-.16-2.52,2.22-1.8,4.66-.16,7.68-1.56-.28.32.06-.39.61-.64,2.82-1.29,5.74-2.3,8.27-4.22.66-.5,1.88-.2,2.79-.47,2.98-.9,5.59-2.6,8.35-3.97.55-.27,1.47-.2,1.72-.6,1.84-2.91,5.65-3.09,7.67-5.65.55-.7.71-1.69,1.2-2.91-3.01-1.52-6-.57-8.55-.84-4.07-2.13-7.9-4.13-12.12-6.34-.92.75-1.88,1.53-2.85,2.32-1.54-.34-3.33.71-4.67-.8,1.49-3.17,4.92-3.56,7.49-5.15,2.36-1.45,4.99-2.46,8.3-4.05h3.02c1.16-1.18,2.34-2.36,3.73-3.77h5.13c2.34-1.26,4.21-2.28,6.09-3.29-.24-.24-.47-.68-.71-.68-5.97-.04-11.93-.03-17.77-.03-.92-.8-1.65-1.44-2.49-2.17h-5.81c-.75-.7-1.47-1.37-2.21-2.06-3.3,0-6.63,0-9.96,0ZM1617.76,396.04c.74.69,1.46,1.36,2.21,2.06h9.97c1.31,3.27,4.71,1.23,6.88,2.77,1.93,1.36,4.56,1.72,9.09,3.29h10.89c2.44,1.17,3.55,1.7,4.56,2.19,1.02-.95,1.74-1.62,2.48-2.32,1.51-.35,3.27.71,4.71-.74-.97-2.78-3.41-.41-4.57-1.18-1-.88-1.73-1.51-2.52-2.2h-9.78l-1.88-1.88h-10l-2.12-2.12h-14l-1.88-1.88c-2.53,0-5.18-.02-7.83.03-.26,0-.5.37-.76.56q1.02,1.35,4.55,1.41ZM1610.79,393.04c-.22-.22-.49-.66-.66-.62-.47.1-.9.4-1.34.63.22.22.49.66.66.62.47-.1.9-.4,1.34-.63Z"/>
  <path class="cls-1" d="M1074.39,477.82c-2.33.25-3.67.22-4.89.59-.86.26-1.48,1.31-2.33,1.57-1.2.37-2.58.19-3.79.54-.86.25-1.55,1.04-2.37,1.51-1.08.61-2.21,1.14-3.9,1.99h-11.65c-2.46-1.38-3.9-2.19-4.73-2.65.34-5.24,4.94-4.62,6.9-7.2h5.79c.8-.68,1.53-1.32,2.4-2.06h15.68c2.46-2.18,5.96-2.71,7.8-5.58,3.57-.5,5.34-3.36,7.42-5.61v-4.22c-1.17-.42-2.55-.57-3.44-1.3-1.08-.9-1.99-1.69-3.46-1.32-1.66-1.68-3.3-3.34-4.99-5.05v-6.08c1.58-1.49,3.26-3.09,5.13-4.85h5.65c1.19-1.79,3.55-1.59,4.82-2.84,1.43-1.42,3.26-.62,4.48-1.32,3.76-2.17,8.41-2.09,11.83-4.97-1.53-2.18-4.7.38-6.13-2.11-.16-.28-.46-.48-.75-.77h-9.86c-1.54-2.35-4.87-1.75-6.39-4.12h-27.13c-2.31-1.19-3.96-2.04-5.64-2.9v-4.13c.89-.81,1.87-1.71,3.07-2.8h13.85c.53.47,1.26,1.11,2.09,1.84h5.82c.75.7,1.47,1.37,2.21,2.06h3.91c.75.7,1.47,1.36,2.18,2.01,3.56-1.42,5.81,2.92,9.22,1.98,2.43,1.88,5.09,2.77,7.96,1.65,1.03.86,1.77,1.47,2.7,2.24h15.75c.96.91,1.91,1.8,2.88,2.71-.34,1.66-1.78,2.38-2.84,3.38-5.46-.19-9.07,3.9-15.62,6.01.37,0-1.33-.26-2.89.08-1.47.31-2.76,1.68-4.2,1.82-2.02.19-2.82,2.97-5.16,2.11-2.59-.94-3.51,3-6.1,2.15-.8,2.32-3.66,1.12-4.83,2.83v2c2.92,4.09,8.65,3.95,11.87,7.85v8.34c-2.95,2.25-4.89,6.37-9.41,7.36-2.14,3.48-7.11,3.35-8.87,7.25ZM1056.24,417.25c4.94.87,4.93.82,6.17-.6-1.78-.92-3.55-1.01-6.17.6Z"/>
  <path class="cls-1" d="M666.32,402.16c.81.75,1.37,1.41,2.07,1.84.5.31,1.2.3,1.81.44,1.41,1.41,2.82,2.82,4.41,4.41v5.29c-3.1,3.1-6.12,6.11-10.41,10.4.34-.2-.91.77-2.32,1.33-1.72.68-3.96-.68-5.4,1.43-.95,1.38-2.89.67-4.23,1.98-1.13,1.1-3.49.94-5.89,1.46,3.71,2.51,4.73,6.2,6.46,9.43q-1.85,3.35-2.26,7.09c-2.82,2.82-5.64,5.64-8.61,8.61h-3.24c-2.71.86-3.23,3.89-5.79,4.14-2.6.26-3.33,2.96-5.25,3.96h-24.18c-.28-.85-.57-1.73-.87-2.65.98-1.04,1.87-1.98,3.11-3.3.94,0,2.42.42,3.46-.07,5.28-2.51,10.45-5.27,15.66-7.92.55-.28,1.29-.35,1.65-.77,1.46-1.7,3.73-2.74,4.32-5.12-.25-.64-.44-1.69-.7-1.71-2.87-.17-4.72-3.72-8.4-2.24-1.36-1.65-2.83-3.43-4.78-5.79v-5.17c.52-.82,1.66-1.83,1.75-2.93.16-2,1.6-3.46,2.76-3.74,3.98-.95,6.7-4.77,11.11-4.6.81.03,1.64-.77,2.48-1.17,1.94-.93,3.96-2.72,5.81-2.56,2.68.23,4-2.52,6.15-2.11,2.95.55,4.42-2.51,7.06-2.35,3.28-4.18,8.5-5.16,12.27-7.62ZM625.67,435.82c2.58-.27,4.68,1.16,7.02,2.09,2,.8,3.1,2.07,4.23,3.85-.16,1.14.09,2.75-.6,3.61-1.97,2.48-2.26,6.15-5.68,7.5.43.43.63.71.91.88.25.16.65.35.87.26,3.36-1.52,6.7-3.08,10.04-4.63,1.41-1.41,2.82-2.82,4.4-4.4-.25-2.73.21-5.65-.19-8.4-3.4-.91-5.89-3.23-9.16-2.82-.97-1.03-1.87-1.97-2.86-3.01.28-.91.56-1.79.8-2.59,1.82-.11,3.39-.2,4.5-.27.91-.91,1.38-1.38,1.86-1.86h5.96c1.13-2.3,4.1-1.6,5.61-3.44.46-.56,1.78-.38,2.7-.58,3.67-.78,6.57-3.34,10.12-4.46,1.19-.38,2.16-1.47,3.33-2.31-1.57-2.66.42-5.17-1.95-7.49-8.21,3.79-16.36,8.06-24.55,12.26h-4.38c-2.95,1.49-5.41,2.78-7.9,3.99-2.82,1.37-5.81,2.47-7.91,5v4.06c.91.87,1.86,1.78,2.87,2.74Z"/>
  <path class="cls-1" d="M542.76,444.04c.85-.85,2.19-2.19,3.53-3.53,1.21,1.14.15,2.91.5,4.44-1.36,2.98-5.07,2.68-6.94,5.04h-7.67c-1.49-.85-2.82-1.61-5.68-3.24l-6.61-6.61h-6.85c-1.21,1.38-3.05,3.29-4.68,5.37-1.66,2.12-4.32,2.62-7.03,4.37h-9.15c-2.17-2.29-4.44-4.67-7.48-7.87.09.35-.14-.55-.42-1.62-.85-.17-1.76-.36-2.86-.59-.39-1.05-.81-2.21-1.23-3.37-4.98-1.91-7.91,3.08-11.94,3.57-3.41,3.42-6.69,6.71-9.88,9.9h-12.36c-2.41-2.23-6.47-2.42-8.11-5.99-.69.69-1.16,1.16-1.88,1.88h-4.26c-1.08-.96-2.05-1.83-3.13-2.8,1.47-.7,2.77-1.32,4.14-1.97-.39-.39-.63-.83-.87-.84-3.98-.04-7.97-.03-12.14-.03-1.94,1.19-2.88,4.34-6.1,4-.88,1.33-2.9,1.84-2.86,3.81.04,2.03-1.77,2.68-2.87,3.78-.45.45-1.72.07-2.94.07-.1-1.51-.19-2.77-.26-3.8.12-.55.07-.96.26-1.15,2.81-2.85,5.64-5.67,8.47-8.5.9-.24,1.89-.31,2.69-.74,1.93-1.02,3.78-2.2,6.06-3.54h11.52c1.38,1.31,2.8,2.66,4.08,3.88h6.15c1.36-3.21,4.68-1.35,6.91-2.75,2-1.26,4.45-2.24,6.53-3.39,1.87-1.03,3.96-1.85,5.83-2.97,2.2-1.32,4.09-3.37,6.23-4.17,2.67-.99,4.2-2.89,6.33-4.52,2.09-.35,4.31.06,6.89-.23v13.57c1.2.27,2.1.48,2.51.57,4.6,2.04,5.22,6.87,8.45,9.84h8.66c1.4-1.75,3.26-4.07,5.12-6.38.23.29.45.58.68.87,1.11-.53,2.23-1.05,4.48-2.11h11.46c2.57,2.57,5.16,5.17,7.76,7.76,3.33,0,6.67,0,10.97,0ZM461.07,436.04h-3.76c-1.01,1.23-2.25,2.74-3.35,4.07h-4.24c-1,1-1.93,1.93-2.98,2.98.13.8.27,1.7.43,2.76h6.81c1.89-1.81,3.66-3.38,6.17-4.44,2.24-.95,3.77-3.57,4.43-4.24,5-2.47,8.55-4.22,12.1-5.98-.04-1.59.6-3.22-.8-5.23-1.3,1.3-2.4,3.35-3.86,3.65-2.51.52-3.71,2.33-5.48,3.61-1.47,1.06-3.25,1.71-5.47,2.83Z"/>
  <path class="cls-1" d="M950.07,163.89h16.96c2.49,1.41,4.66,2.64,7.28,4.12h3.38c.75.69,1.47,1.36,2.16,1.99h4.86c.98-.98,2.37-2.37,3.98-3.98.46.18,1.32.52,2.09.82v2.21c-.95.95-1.9,1.9-2.91,2.91h-3.86c-.76.7-1.48,1.36-2.25,2.06h-5.93c-1.42-2.41-4.54-2.04-6.43-3.88-.67-.65-2.51-.1-3.6-.1-.68-.68-1.15-1.15-1.81-1.81h-11.91c-1.53,1.15-3.14,3.06-5.14,3.67-2.49.75-3.33,3.06-5.21,4.09h-7.15c-2.15-1.02-3.54-1.68-5.47-2.6-2.15-2.16-4.74-4.76-7.31-7.34h-13.75c-2.54,2.43-4.93,4.73-7.3,7v2.57c-1.12.14-2.26.28-3.62.45-.15-1.43-.14-2.39-.36-3.3-.48-1.99,1.78-2.67,1.97-4.18.37-3.01,3.16-4.02,4.69-6.23,1.49-.18,3.06-.36,4.59-.54l1.81-1.81h6.36c.63-3.82,3.41-5.7,5.69-7.99h9.93c2.15-2.15,4.19-4.35,6.41-6.36,2.15-1.95,3.67-4.65,6.66-5.62,3-.97,4.33-3.92,6.74-5.76,1.97-.55,4.62.51,6.02-2.15h4.06c1.21.67,1.97,2.67,4.16,1.88.88.92,1.8,1.89,2.72,2.85,2.07,2.15,4.13,4.29,6.2,6.43-.63,3.52,4.53,3.88,4,7.34,1.98,2.19,3.96,4.38,5.97,6.62v3.87c-2.07,1.59-3.31,4.13-5.27,4.94-1.05,0-1.52.15-1.69-.02-6.12-6.07-12.2-12.16-17.94-17.89-3.83-.46-4.07,3.73-6.97,3.96-3,.24-3.79,3.46-6.04,4.85v4.3c.79.65,1.81,1.49,3.22,2.66ZM952.4,148.04c.96-1.2,2.2-2.74,3.14-3.9h8.69c.25.92.48,1.81.83,3.12,3.71,3.61,7.74,7.53,11.44,11.13.3,1.42.49,2.32.67,3.17,3.27.44,3.26.42,3.67-2.72-1.31-1.24-2.92-2.47-4.15-3.99-1.36-1.68-2.78-3.51-3.44-5.51-.63-1.92-1.48-3.42-2.9-4.79-2.87-2.75-5.65-5.61-8.46-8.43-1.88.06-3.57-.15-5.49,1.07-2.14,1.36-4.07,3.15-6.21,4.17-2.41,1.16-4.3,2.64-6.11,4.42-2.36,2.33-4.73,4.65-7,7.07-.35.37-.19,1.23-.27,1.86,1.28,1.36,1.97,3.48,5.04,3.29,1.26-1.26,3.37-2.61,4.32-4.53,1-2.03,1.78-4.04,3.67-5.43h2.58ZM944.92,166.96c-.17-.85-.35-1.76-.82-4.15-1.57,2.54-2.56,4.14-3.43,5.55-1.92-1.45-3.16-2.39-3.78-2.86-.11-2.27-.17-3.55-.15-3.18-2.2-2.94-3.57-4.78-4.62-6.18h-8.43c-1.28,1.53-3.35,2.45-2.89,4.89,2.29,1.61,3.55,4.22,6.71,5.25,2.52.82,4.34,3.78,6.46,5.78,4.45.07,7.83-2.06,10.95-5.1Z"/>
  <path class="cls-1" d="M1808.7,290.04h3.05c.74.69,1.45,1.36,2.19,2.05h15.2c3.63,1.87,6.64,3.43,9.88,5.1-.33.86-.42,1.95-1.02,2.56-2.77,2.84-5.67,5.54-8.53,8.29-4.4.05-5.06,5.79-9.49,6.16-1.28.11-2.38,2.14-3.61,3.23-2.13,1.9-3.82,4.09-6.87,5.14-2.58.89-3.7,4.72-6.73,5.39-2.98.66-3.71,4.45-7.22,4.48-1.19.01-2.22,2.36-3.57,3.29-1.24.85-2.8,1.23-5.16,2.2-1.17.03-3.45.62-5.62-.42-.15-.64-.3-1.25-.56-2.35,1.65-1.65,3.47-3.51,5.34-5.33,1.82-1.78,3.82-3.17,6.11-4.45,3.07-1.73,5.3-4.97,7.89-7.55,3.53-3.53,7.06-7.06,10.6-10.6-.54-1.7-1.98-1.16-3.12-1.17-3.66-.05-7.32-.02-10.96-.02-1.93-1.02-3.83-2.03-5.73-3.04v-11.98c2.44-1.05,1.44-4.21,3.48-5.62.54-.37.31-1.8.52-2.72.62-2.72,2.48-5.03,2.46-8.01,0-.7,1.31-1.41,2.01-2.12.26-.17.52-.49.78-.5,2.64-.04,5.28-.02,7.73-.02l1.8,1.8h6.46c.65.9,1.58,2.18,2.49,3.43-2.17,1.73-2.16,5.05-4.71,6.95-1.98,1.48-4.29,3.09-5.12,5.82-1.29-.05-1.96.62-1.91,2-3.1-.32-5.22.84-5.72,3.89-1.27.33-2.82.18-1.46,1.93.46-.54.93-1.09,1.46-1.93.64.11,1.55.11,2.49.11,1.25-1.19,3.02-1.96,3.24-4,1.38.05,2.05-.62,1.91-2ZM1800.79,324.04c1.38.05,2.05-.62,2-2,1.38.05,2.05-.62,2-2,.9,0,1.92.26,2.67-.08.61-.27.9-1.25,1.33-1.92,1.38.05,2.05-.62,2-2,1.38.05,2.05-.62,2-2h3c2.79-2.79,5.56-5.62,8.39-8.38,2.58-2.51,6.92-2.98,8.44-7.62-3.06-.03-5.96.02-8.81-.03-.74-.69-1.45-1.35-2.18-2.03h-3.77c-.86-.72-1.58-1.37-2.36-1.93-.22-.16-.64-.02-.97-.02-2.56,1.68-5.94,2.12-7.89,5.5,2.31.97,5.51-.42,6.95,2.23,2.99.96,6.29-.68,9.37,1.16-3.61,3.59-6.89,6.85-10.13,10.14-.17.17-.02.64-.02.97-1.38-.05-2.05.62-2,2-1.38-.05-2.05.62-2,2-.9,0-1.92-.25-2.67.08-.61.27-.9,1.25-1.33,1.92-1.38-.05-2.05.62-2,2-1.38-.05-2.05.62-1.44,1.77-1.55.44-3.1.3-1.74,2.04.46-.54.93-1.09,1.18-1.82ZM1797.58,292.25c3.47-3.47,6.67-6.8,10.04-9.94.79-.73,2.58.06,3.25-1.8-.18-.63-.44-1.51-.65-2.24h-9.39c.79,3.54-1.61,5.98-2.32,8.97-.2.84-1.44,1.43-1.63,2.26-.18.78.41,1.73.7,2.74Z"/>
  <path class="cls-1" d="M155.95,25.62c-2.8,1.27-5.32,2.41-7.82,3.54v6.06c-.7.75-1.37,1.47-2.04,2.19,0,3.57-.02,7.15.05,13.11,2.01-4.32,3.36-6.33,3.85-8.52.49-2.19.11-4.57.11-6.63.94-.94,1.64-1.64,2.8-2.8.97-.84,2.69,0,4.27-.17,1.31-.14,2.65-.03,3.93-.03.98.98,1.92,1.92,3,3,0,4.49,0,9.13-.02,13.76,0,.26-.34.52-.66.99-.74.05-1.64.11-2.41.16-.38-.38-.82-.62-.82-.86-.04-3.32-.03-6.63-.03-10.1-.94-.84-1.92-1.72-2.96-2.64-.28.23-1.08.64-1.04.9.73,4.32-4.26,7.53-1.72,11.43-1.96,2.06-3.73,1.01-5.27,1.36-.72.67-1.44,1.33-2.13,1.97h-3.99c-1.95-2-.56-4.44-.95-6.63-.6-1.77-3.76-2.21-1.53-5.12-2.3-.13-3.57-.2-4.67-.27-3.19.81-3.37,3.73-4.58,5.85-1.24,2.19-1.9,4.77-4.24,6.19h-2c-1.69-1.25-.71-3.05-1.01-4.72.58-.68,1.2-1.41,2.03-2.39,0-2.36.01-4.99-.02-7.63,0-.26-.33-.52-.53-.82-3.81.66-2.97,5.07-5.53,6.84v6.1c-.9.26-1.79.51-2.5.72-2.89-1.38-.06-4.66-2.39-6.06-.7.65-1.42,1.3-2.09,1.92h-2.09c-1.91-2.94.04-6.43-1.32-9.43-3.05,2.09-3.33,2.5-6.41,9.43-.85-.08-1.75-.17-2.69-.26-.34-2.03-.65-3.86-.99-5.84-2.25,1.3-1.14,3.12-1.7,5.71-.51.38-1.8,1.33-3.27,2.41-.33-.02-.97-.07-1.62-.12-.24-.24-.67-.47-.67-.71-.05-2.64-.03-5.28-.03-8.18.45-.5,1.11-1.22,1.82-2v-3.87c1.88-2.23,4.36-.68,6.48-1.1,1.62.23,2.07,2.84,4.79,1.53,1.1-.95,2.78-2.39,4.09-3.51,2.71-.18,2.98,2.13,4.5,2.56.14,2.45.26,4.68.39,7.01,2.4.16,1.52-1.51,1.93-2.81,1.44-1.32,3.14-2.89,5.21-4.78,2.12,0,4.75-.01,7.39.02.26,0,.52.33.87.56.3,1.76.62,3.58.98,5.7,1.77-1.67,3.17-3.01,4.6-4.36h5.89c1.01-1.01,1.95-1.95,3.2-3.2-.82-1.79-1.7-3.71-2.53-5.49,2.17-2.3,5.82.09,7.12-3.18h4.32c.66.8,1.51,1.81,2.68,3.21Z"/>
  <path class="cls-1" d="M1082.72,484.97q-1.74-2.29-1.96-5.9c2.01-2.01,4-4.88,6.73-6.48,2.63-1.54,5.36-3.06,9.75-4.48h4.44c3.13,3.25,6.36,6.6,9.44,9.79h6.42c1.56-1.92,4.92-1.35,6.22-3.86,1.19-2.32,4.29-1.44,5.71-3.76h9.71c2.12.94,3.54,1.56,5.02,2.21.79,1.94,1.26,4.24,3.79,5.58.63-.16,1.64-.2,2.37-.66,2.9-1.81,6.13-3.01,10.04-5.15h11.09c2.54,1.66,6.1,2.6,8.09,5.71h6.12c2.32-2.06,5.85-2.56,7.62-5.72h9.46c2.13,2.14,4.2,4.23,5.68,5.73h11.26c.43-.39.91-.83,1.87-1.7,2-.47,4.47-.51,7.09.2-2.23,4.76-7.84,3.99-10.77,7.44h-7.92c-2-2.42-6.28-1.83-7.3-5.41-2.88-.98-5.54-.23-8.63-.56-2.56,2.86-6.94,3.15-10.19,5.75-.9.72-3.66.5-4.46-.35-1.3-1.37-3.38-.69-4.21-2.02-1.86-3-5.74-2.81-7.48-5.32h-6.2c-.62,1.27-1.53,3.11-1.92,3.92h-5.57c-.77.69-1.49,1.35-2.27,2.06h-8.34c-1.06-1.6-2.26-3.41-3.8-5.75-.45-.19-1.81-.41-2.68-1.18-1.75-1.56-3.68-1.37-5.42-.64-1.1.46-1.8,1.88-3.34,1.59-2.65,3.36-7.26,4.12-10.08,7.75h-8.55c-1-1-2.45-2.8-4.24-4.15-1.95-1.47-2.06-3.91-3.49-5.6h-5.98c-.72.68-1.44,1.35-2.19,2.04h-3.84c-3.03,1.46-2.73,5.11-4.93,6.98.66.72,1.31,1.45,1.94,2.14"/>
  <path class="cls-1" d="M331.75,446.09h-6.01c-1.23,1.23-2.41,2.41-3.82,3.82-1.04.05-2.32.11-3.65.18-1.94,2.12-3.93,4.3-5.43,5.94h-17c-2.22-2.27-4.4-4.42-5.84-7.51-1.19-2.55-4.04-4.32-6.48-6.75-1.79.84-3.73,1.74-6.48,3.02-1.91,1.91-4.49,4.49-6.48,6.48-2.1,1.05-3.48,1.74-5.47,2.74h-11.36c-2.21-2.29-4.51-4.68-6.94-7.2,0-.42.07-1.09-.03-1.74-.04-.25-.46-.45-.92-.87h-6.39c-.67,1.13-1.71,2.85-2.28,3.8h-4.42c-2.17,2.27-4.88,5.11-7.65,8.01-.46-.09-1.07-.22-1.7-.35-1.19-1.45-.37-3.13-.53-4.64,1.66-1.69,3.29-3.34,4.91-4.99h2.11c1.91-2.64,4.54-4.41,7.56-5.82h12.92c.21,1.03.4,1.94.54,2.64,2.43,2.43,4.77,4.77,7.23,7.23,2.53.51,3.94-3.66,7.41-1.8,1.96-1.96,4.03-4.03,6.11-6.11,3.21.31,4.18-2.76,6.21-4.09h9.07c2.96,2.7,5.41,4.93,7.86,7.16.06,3.5,3.39,4.55,5.05,6.77h7.79c1.62-1.41,2.95-3.45,4.62-3.78,2.3-.46,3.08-2.29,4.68-3.28,1.58-.97,3.29-1.73,5.52-2.88h13.27c.68.63,1.4,1.3,2.11,1.96h9.97c.48-.48.95-.95,1.42-1.43,1.85-.75,3.67-1.13,5.33.22-2.32,2.26-4.66,4.53-7.38,7.17h-11.34c-1.33-1.27-2.76-2.63-4.09-3.9Z"/>
  <path class="cls-1" d="M179.21,40.24c-2,2-3.88,3.88-5.94,5.94h-4.37c-.37-.41-.78-.65-.78-.89-.04-3.32-.03-6.64-.03-9.89,1.44-2.99,5.13-2.7,6.97-5.01.72.66,1.43,1.31,2.1,1.93h3.89c.77-.67,1.46-1.27,2.13-1.85.91,1.75,1.77,3.4,2.91,5.57,0,2.66-.01,5.99.03,9.31,0,.23.45.46.71.72,1.92-.2,1-1.83,1.4-2.84,3.5-3.5,7.03-7.03,10.56-10.56.9-.23,1.8-.47,2.7-.7,1.35-2.14.06-4.49.88-6.84-3.65-1.36-3.63-5.29-5.98-7.51-2.08-1.97-4.49-3.76-4.9-6.9-.96-.25-1.86-.48-3.03-.79-.16-.79-.35-1.7-.56-2.74-1.66-1.41-4.74-1.23-5.42-3.82.94-1.14,1.78-2.15,2.78-3.36,2.1.96,4.05,1.85,6.39,2.91,1.09,1.09,2.47,2.53,3.92,3.9,1.43,1.34,2.34,2.82,2.95,4.79.62,2.01,3.95,2.57,3.58,5.49,1.56,1.27,1.48,3.64,2.73,4.79,1.58,1.45.97,3.63,2.6,5.07.9.8.58,2.97.78,4.32-8,8-15.77,15.77-23.52,23.53-.98,2.26-1.96,4.51-2.99,6.89-2.61,1.24-5.4,2.55-8.74,4.13-1.23-.62-3.12-1.39-4.81-2.48-1.65-1.06-3.09-2.45-3.86-3.08-.55-3.66,1.69-4.4,3.02-6.06.45,1.29.65,2.58,1.3,3.58.69,1.06,1.81,1.83,2.6,2.59h3.27c3.6-.67,3.02-4.64,5.42-6.9.62-3.11-.15-6.74.37-10.17.61-.75,1.16-1.42,1.99-2.44-1.31-.26-2.22-.45-3.04-.61ZM173.53,38.59c1.55-.44,3.1-.3,1.74-2.04-.46.54-.93,1.09-.63,1.59-1.55.44-3.1.3-1.74,2.04.46-.54.93-1.09.63-1.59Z"/>
  <path class="cls-1" d="M1809.87,268.11l-4.03-4.03h-5.9c-.73-.69-1.45-1.36-2.18-2.04h-3.97c-.45-.46-.92-.94-1.43-1.46-2.09-1.09-4.43-.21-6.64-.62-.47-.47-.94-.94-1.41-1.41-.26-.17-.52-.48-.79-.49-2.63-.04-5.26-.02-6.89-.02-2.51-1.29-4.16-2.13-5.82-2.98v-2c.21-.23.44-.67.66-.67,6.88-.04,13.76-.03,20.65-.03.46.46.93.93,1.73,1.73h12l1.84,1.84h18c1.12-.54,2.15-2.82,3.82-1.81,2.93,1.75,5.97,3.2,9.01,4.71.85.42,1.43,1.36,2.2,2.14v3.72c-3.76,3.76-7.49,7.49-11.41,11.41-3.41-.08-4.18-2.98-5.28-6.07-2.46,0-5.19.48-7.63-.15-2.04-.52-3.76-2.33-6.54-1.78ZM1825.82,268.04h4.06c1.55-1.58,3.18-3.23,4.76-4.9.04-.05-.28-.44-.64-.99h-12.11c-.78-.78-1.25-1.25-2.03-2.03h-10l-1.77-1.77c-2.83,0-5.72-.02-8.6.03-.24,0-.47.43-.69.66.9,1.35,2.35.74,3.53,1.07,1.45.41,2.78,1.24,4.28,1.94h4.7c2.27,1.28,4.41,2.5,7,3.97h5.36c.72.68,1.43,1.35,2.16,2.03Z"/>
  <path class="cls-1" d="M953.62,324.03c-.65-.04-1.3-.08-1.98-.12-1.79-2.01-.49-4.43-.87-6.71.62-.69,1.28-1.41,1.99-2.2v-3.2c1.14-2.21,1.99-3.86,2.85-5.53h4.44c2.13,2.41-.65,3.44-.95,5.01.25.26.47.72.7.72,4,.04,7.99.03,11.93.03.73-.66,1.43-1.3,2.12-1.93.53.53,1,1,1.7,1.7h6.18c.26-.2,1.01-.78,2.08-1.6h60.54c.43.5,1.44,1.66,2.48,2.85-1.87.97-3.5,1.83-5.71,2.98h-3.29c-.74-.69-1.46-1.36-2.08-1.94h-30.03c-1.85,2.96-4.76,1.66-7.53,1.97-.59-.45-1.35-1.03-2.42-1.85h-6.15c-.65.65-1.12,1.12-1.71,1.71h-13.79c-.79.69-1.52,1.33-2.35,2.06h-13.79c-1.04,2.36-2.08,4.65-4.35,6.06Z"/>
  <path class="cls-1" d="M666.8,402.04c.13-1.96-1.24-1.97-2.75-2.02-.65.55-1.39,1.17-2.28,1.93h-3.92c-.57-.51-1.29-1.17-2.12-1.91-1.2,0-3.17.55-3.73-.1-1.78-2.1-4.9-1.69-6.51-3.98h-5.79c-.55-.55-1.03-1.02-1.92-1.92h-7.67c-.57-.45-1.32-1.04-2.35-1.85h-13.27c-2.66-1.62-5.06-3.08-7.42-4.52.42-1.9,1.84-2.63,3.17-3.86,1.57.71,3.41,2.32,4.89,2.04,3.01-.56,4.25,2.96,7.22,2.28,2.21-.51,4.64-.1,6.97-.1h6.46c.84.84,1.31,1.31,1.89,1.89h5.8c.78.69,1.51,1.33,2.33,2.06h3.83c.74.7,1.46,1.37,2.2,2.06h3.95c.48.48.95.95,1.84,1.84,1.13.07,2.7.18,4.19.27.74.62,1.42,1.19,2.14,1.8,1.59-2.25.51-4.63.84-6.96,2.31-2.26,4.68-4.58,7.11-6.95,1.22,0,2.55,0,3.88,0,1.65,1.65,3.3,3.3,4.97,4.97v9.98c-1.32,2.93-5.03,2.62-6.9,4.98-.7-.64-1.4-1.28-2.12-1.94h-4.94ZM676.82,392.8c-1.42-.29-1.59-2.42-2.93-2.43-1.3,1.06-2.29,1.86-3.16,2.57.41,1.76-.62,3.46.76,4.79.61.1,1.21.2,2.4.4.37-1.62,2.9-1.79,2.93-5.33Z"/>
  <path class="cls-1" d="M689.96,442.18h4.04c.99,1.76,1.04,3.86,2.84,5.04v3.86c.99.99,1.93,1.93,2.91,2.91h4.36c.89-.97,1.86-2.4,3.17-3.35,1.21-.88,2.79-1.24,5.58-2.39h8.75c1.26,1.05,2.26,1.88,3.26,2.7-1.1,1.1-2.04,2.04-3.03,3.03h-9.84c-3.13,2.77-7.46,3.32-10.49,6.15-3.22-1.39-6.76-2.07-8.8-5.49v-3.69c-1.03-1.03-1.97-1.97-2.92-2.92-1.64,1.65-3.28,3.3-4.96,4.99v2.07c-3.05.5-4.86,2.81-6.97,4.87h-4.04c-4.57-3.46-4.73-9.81-8.49-13.93-5.63,1.01-5.76,7.32-9.6,9.96h-1.99c-1.69-1.31-.64-3.12-.91-4.42,3.14-3.13,6.19-6.16,9.56-9.51h7.42c2.03,4.01,4.09,8.06,6.08,11.98.66,0,1.13.14,1.31-.02,4.34-3.99,8.66-8.01,12.77-11.83Z"/>
  <path class="cls-1" d="M1879.8,334.04c.46-.47.93-.94,1.89-1.91,2.38-.23,5.3-.09,8.22-.02,1.4,2.56,4.59,1.05,5.96,2.3,2.09,1.9,4.18,1.41,6.38,1.66,2.18.25,4.63-1.1,6.54.99-1.96,2.02-4.41.59-6.59.98-1.75,1.61-3.79,2.3-6.27,1.98-.65-.59-1.38-1.25-2.16-1.96h-3.86c-.75-.69-1.47-1.36-2.17-2h-3.97l-1.79,1.79c-1.87.1-4.1.22-6.4.34-.99,1.46-2.46,2.44-4.15,1.79-4.59-1.77-9.62-2.55-13.83-5.9h-5.7c-1.11.45-1.47,1.94-3.11,2.06-1.11.08-2.16,1.16-3.3,1.84h-11.74l-5.82-5.82h-10.58c-1.44,1.77-3.31,4.07-4.81,5.92-1.52-.07-2.45.16-2.76-.18-.59-.64-.82-1.62-1.13-2.29,2.17-3.8,5.76-5.43,9.04-7.33,1.01-.59,2.57-.22,4.04-.3.6-.55,1.32-1.21,2.09-1.9,2.72-.84,4.74,1.05,7.09,1.9,2.8,1.02,1.82,4.72,5.07,5.86h5.59c1.8-.99,3.98-2.18,6.74-3.69h13.79c.92,1.16,2.15,2.7,3.1,3.9h14.61Z"/>
  <path class="cls-1" d="M1764.98,446.23c-1.7-1.85-3.69-4.03-5.67-6.2-3.94.9-6.87,4.63-12.14,3.9-1.54,1.93-3.39,4.25-4.87,6.11-1.82,0-2.86-.18-3.81.04-1.8.42-2.95,2.73-5.16,1.94-2.03-.72-4.55-1.11-5.86-2.54-2.26-2.48-5.45-3.3-7.77-5.39h-7.24c-2.27,1.16-4.07,1.81-5.53,2.92-1.77,1.33-4.44,1.22-5.56,3.48-1,2.02-3.48,1.23-4.91,2.75-1.44,1.53-3.86,1.53-5.23.06-1.44-1.55-3.74-.83-4.98-2.69-1.09-1.63-2.62-3.05-4.21-4.22-1.19-.88-2.78-1.23-5.56-2.37-2.06-.27-5.69.4-9.05-.21-1.85-3.33,1.25-4.09,2.44-5.73h5.41c5.36,3.11,11.13,4.79,14.25,9.94h10.2c4.51-5.1,11.37-6.32,16.67-10.01,5.55,2.58,11.35,4.56,15.02,9.88h6.12c2.46-2.08,6.47-2.42,8.09-5.84h4.2c1.18-1.18,2.36-2.36,3.76-3.76h8.15c1.72,1.36,3.07,3.12,4.8,3.63,2.06.61,3.07,1.82,4.04,3.41-1.44,1.44-3.2.38-5.56.93Z"/>
  <path class="cls-1" d="M853.86,419.97h-10c-1.8-1.74-3.46-3.34-5.08-4.9v-4c-.69-.74-1.36-1.46-2-2.14,1.02-4.57,3.53-8.09,7.15-10.88.65-.03,1.37.11,1.92-.14.56-.25.96-.89,1.5-1.43,2.75-1.17,5.7.15,8.3-.56,2.37,2.37,4.47,4.47,6.75,6.75.92,1.3.22,2.98.36,4.56.11,1.3.02,2.61.02,3.83-2.9,2.9-5.7,5.7-8.93,8.93ZM857.14,407.26c-1.92-1.69-3.83-3.36-5.9-5.18h-3.49c-1.66,1.66-3.27,3.27-4.98,4.98,2.34,2.22,4.69,4.43,7.32,6.92,1.02-1.29,2.2-2.77,3.12-3.94h2.74c.32-.75.67-1.57,1.19-2.78Z"/>
  <path class="cls-1" d="M500.84,391.8c-2.82,1.52-4.73,2.54-7.58,4.08h-7.54c-1.46,3.45-4.77,1.56-6.98,2.98-1.98,1.27-4.39,2.24-6.5,3.37-1.87,1.01-4.59,1.12-5.62,3.12-1.4,2.71-4.59,2.16-6.32,4.14-1.73,1.98-3.7,3.75-4.54,4.59-1.12,2.37-1.64,3.48-2.78,5.91v8.94c-2.06,1.66-3.88,1.28-5.94.45v-10.06c.79-1.51,1.49-3.69,2.88-5.24,1.53-1.7,3-3.27,3.39-5.6.93-.23,1.83-.45,2.73-.68,1.88-1.87,3.75-3.75,4.99-4.99,1.86-.94,2.93-1.52,4.04-2.02,1.11-.51,2.29-.89,3.39-1.42,1.09-.53,2.13-1.17,4.55-2.52.03-.03,1.2-1.2,2.37-2.37,1.86-1.18,4.38.38,6.23-1.98,1.2-1.53,4.62.52,5.99-2.33h7.83c.78-.66,1.51-1.28,2.41-2.04h3.67c1.17.86,2.37,1.76,3.59,2.66-1.99,1.93-3.73.9-4.23,1.01Z"/>
  <path class="cls-1" d="M498.65,430.01c-3.2-3.2-6.21-6.21-9.76-9.76v-2.75c3.06-3.05,6.09-6.06,9.47-9.43h7.64c1.28,1.51,2.77,3.26,4.67,5.51v7.24c-1.35,2.19-2.82,4.57-4.3,6.97-3.16-.37-5.52,1.37-7.74,2.21ZM496.75,419.03c1.78.88,3.59,1.78,5.41,2.69.93-1.39,2.93-1.94,2.65-3.99q-2.83-3.68-4.1-3.68c-3.24,2.27-3.21,2.3-3.96,4.99Z"/>
  <path class="cls-1" d="M1431.9,400.04h3.13c1.89.95,3.53,1.77,5.17,2.59.8,1.59,1.63,3.24,2.59,5.15v4.04c-2.59,2.59-4.9,4.89-8.04,8.01h-8.76c-3.28-1.56-4.78-5.18-6.65-8.78,1.56-4.9,4.92-8.68,12.56-11.02ZM1426.67,409.16c.22,2.96,2.07,4.37,4.68,4.99,3.02-1.81,3.98-4.71,5.01-7.59-2.23-.99-4.5-.49-6.74-.35-.95.95-1.89,1.89-2.95,2.95Z"/>
  <path class="cls-1" d="M57.08,50.36c-1.62-1.64-3.25-3.28-4.99-5.05,0-3.16-.01-6.46.02-9.76,0-.25.35-.51.54-.76,2.99-1.57,3.78,1.34,5.24,2.54-.73,1.01-1.45,2.02-1.9,2.65.31,2.49,2.31,2.94,3.01,4.62,1.47-2.94,2.83-5.64,4.11-8.21,2.66-.39,3.46,1.83,4.96,2.95v5.94c1.6,1.35,2.61,3.91,5.07,2.98,2-1.87-.25-4.39,1.79-5.75,2.09-1.4.58-3.69,1.53-5.71.69-.17,1.59-.38,2.38-.57.38.33.83.53.84.75.22,3.26.38,6.52.55,9.49-2.31,4.62-6.76,5.81-10.62,8.61-2.03-2.28-3.74-4.2-5.35-6.01-.31-.95-.6-1.82-1.03-3.15-.83,1.8-1.45,3.14-2.05,4.43h-4.11Z"/>
  <path class="cls-1" d="M1690.79,395.07c.69-.74,1.36-1.46,2.06-2.2v-3.92c1.71-.88,3.37-1.73,5.02-2.58,3.1-1.77,5.05,1.98,7.98,1.73,1.44,2.44,3.92,1.87,6.1,2.11.95.95,1.9,1.89,2.83,2.83.74,2.07-1.17,2.86-1.99,4.18,0,1,0,2,0,3.12-.85,2.56-3.58,3.6-4.8,5.68h-9.49c-2.01-1-3.39-1.69-5.04-2.51-.67-1.28-1.52-2.92-2.67-5.13v-3.29ZM1696.79,392.21v6.78c.28-.27.55-.54.83-.81.74,1.47,1.48,2.95,2.08,4.16,2.17-.62,3.98.41,5.09-1.41v-5.85l-.83.81c-.74-1.47-1.48-2.95-1.98-3.94-2.07.1-3.32.17-5.2.26ZM1710.08,393.75c.27-.27.49-.49.71-.71-.44-.22-.87-.52-1.34-.63-.16-.04-.44.4-.66.63.43.24.87.48,1.29.71Z"/>
  <path class="cls-1" d="M25.53,12.35c2.66.02,2.56,1.42,2.56,2.47-7.4,7.4-14.67,14.67-21.84,21.84v6.86c3.67,3.67,7.76,7.76,11.85,11.85-3.36,3.09-4.51-2.49-7.18-1.18-3.53-3.53-7.05-7.05-10.37-10.37-1.8-3.36,1.34-5.48,1.68-8.17,7.7-7.7,15.43-15.43,23.3-23.3Z"/>
  <path class="cls-1" d="M32.92,56.48c-.35-.91-.67-1.78-.93-2.45,2.13-4.64,7.33-5.36,10.1-8.57.01-1.65.05-2.72-1.78-3.19-2.05-.52-3.99-1.61-5.87-2.64-.84-.46-1.43-1.37-2.24-2.18v-8.33c.84-.3,1.95-.69,3.3-1.17.97-.97,2.14-2.14,3.41-3.41,2.97.69,5.17-1.73,7.94-2.33,1.02.97,1.96,1.87,2.96,2.81-.26.45-.46,1.21-.79,1.28-4.05.79-7.21,3.49-10.86,5.12-.99.44-2.31,1.42-2.09,2.84.44,3.1,4.25,1.53,4.96,4.05h4.15c.77.92,1.62,1.94,2.78,3.33v3.06c-3.09,3.09-6.12,6.12-9.6,9.6h-3.1c-.74.69-1.46,1.37-2.33,2.18Z"/>
  <path class="cls-1" d="M1875.79,100.03c.94.94,1.88,1.89,2.91,2.92v6.12c-2.23,2.07-4.65,4.32-7.44,6.91h-3.31c-.75.7-1.47,1.37-2.17,2.02-.7-.66-1.42-1.33-2.17-2.02h-3.89c-.3-.3-.73-.53-.74-.77-.05-3.31-.03-6.61-.03-10.29,2.14-1.99,4.57-4.24,7.36-6.83h5.4c1.22.77,2.01,2.68,4.07,1.94ZM1868.3,102.54c-2.25,2.68-3.74,4.43-5.19,6.21-.1.12.05.45.1.73.92.86,1.86,1.75,2.6,2.45h4.1c1.3-1.53,3.37-2.46,2.89-4.91-1.11-1.11-2.23-2.23-4.49-4.49Z"/>
  <path class="cls-1" d="M1432.53,164.87c.2.77.44,1.68.67,2.58.25.2.5.56.76.56,3.98.04,7.96.03,13,.03.61-1.04,1.58-2.67,2.91-4.94q.84,3.97-4.08,8.94h-12.2c-1.46-3.08-4.92-3.72-8.13-5.82h-11.95c-.89,2.24-1.38,4.52-3.82,5.82-1.76,0-3.74.02-5.72-.03-.26,0-.51-.36-.86-.64.72-1.75,1.79-3.14,3.85-3.32,1.18-.1,1.68-.64,1.85-1.77.47-3.13,2.5-3.93,5.46-4.39,3.06-.47,5.76-2.88,8.17-2.06,3.93,1.96,6.97,3.47,10.09,5.02Z"/>
  <path class="cls-1" d="M1137.25,403.67c2.12,2.71,5.83,2.28,7.42,5.36v5.98c-.44,1.14-2.63,1.79-1.85,3.95-2.99,1.54-6,3.08-9.08,4.67-1.74-1.84-5.21-1.62-6.84-4.57v-5.78c1.98-1.54,1.4-4.87,3.89-6.24,1.9-1.04,3.83-2.01,6.46-3.38ZM1140.07,410.04h-2.93c-2.73,2.14-4.74,3.7-6.76,5.29.61,1.24.99,2.02,1.33,2.71h6.29c.36-1.07.48-2.39,1.17-3.28.98-1.27,2.28-2.25.89-4.72Z"/>
  <path class="cls-1" d="M243.79,358.04h10c1.92,1.57.76,3.71.95,5.58.2,1.92.04,3.88.04,5.42-1.11,1.11-1.82,1.82-2.76,2.76h-10.3c-1.06-.97-2.03-1.87-2.91-2.67v-6.12c1.68-1.68,3.32-3.32,4.97-4.97ZM247.44,368.54c1.17-1.67,2.77-2.24,2.99-3.91-1.17-.89-2.27-.96-3.69.4.18.89.4,2,.7,3.52Z"/>
  <path class="cls-1" d="M1150.79,121.04c.94-.94,1.88-1.88,2.91-2.91h3.7c1.11-.83,2.11-1.58,2.79-2.09q1.95,0,6.52,6.96v6.02c-.75.79-1.65,1.73-2.7,2.84h-12.47c-1.35-1.92-.58-3.94-.73-5.84-.12-1.65-.03-3.32-.03-4.98ZM1156.79,127.24c.76.3,1.59.63,3.05,1.22.82-1.21,1.7-2.5,2.58-3.81-2.92-3.09-2.97-3.02-5.63-1.47v4.07Z"/>
  <path class="cls-1" d="M247.79,128.04c1.64,1.64,3.28,3.28,5.26,5.26-.71,1.48-1.87,3.05-2.16,4.76-.34,1.95-2.12,2.41-2.83,3.75h-10.6c-1.16-2.06-.46-4.05-.67-5.96,1.54-2.7,2.22-5.95,5.04-7.81h5.96Z"/>
  <path class="cls-1" d="M1843.79,244.04h10.11c1.41,1.58,2.94,3.28,4.48,5-1.66,1.83-1.81,4.98-4.29,6.68-1.89.92-4.69-.71-6.02,2.09-2.35-1.37-4.68-2.72-7.07-4.11v-6.87c.92-.92,1.85-1.85,2.78-2.78ZM1847.07,248.42c.36,1.86,1.85,2.49,2.76,3.58,1.4-1.35,1.4-2.67-.18-4.07-.79.15-1.67.32-2.58.49Z"/>
  <path class="cls-1" d="M428.79,147c-1.59,3.26-5.77,2.48-6.98,4.89-2.45.4-2.92-1.21-4.01-1.77-.77-.4-1.79-.33-2.84-.48v-10.6c1.15-3.16,4.63-2.46,6.46-4.58,2.64,1.11,5.57,1.92,7.36,4.63,0,2.64,0,5.28,0,7.91ZM420.79,145.16c1.36,1.14,2.7,1.41,4.01-.18-.36-1.54.68-3.27-1.04-4.99-.85.18-1.96.42-2.96.64v4.53Z"/>
  <path class="cls-1" d="M86.76,48.03c-.77-.77-1.47-1.47-2.47-2.47v-14.65c-2.05-.34-3.87-.64-5.89-.97-.1-.93-.2-1.82-.28-2.6,1.07-1.07,2-2,2.97-2.97,3.26,0,6.55-.01,9.85.03.25,0,.5.37.95.73v2.8c-.92.2-1.82.39-2.97.64-1.97,1.75-.56,3.16,1.06,4.68-.56.67-1.13,1.34-1.63,1.94v8.44c.72.72,1.18,1.18,1.85,1.85-1.03.77-2.06,1.54-3.43,2.57Z"/>
  <path class="cls-1" d="M1175.76,192.04h-2.01c-.68-1.35-1.26-2.79-2.09-4.07-.51-.79-1.39-1.34-2.03-1.92-2.02-.13-4.19.67-5.55-1.8h-6.38c-.8.63-1.46,1.14-2.47,1.94-.22-1.39-.37-2.29-.49-3.1.36-.36.59-.8.83-.8,4.61-.04,9.22-.03,13.65-.03,3.23,3.23,6.48,6.48,9.56,9.56h6.65c2.39-1.25,5.11-2.67,7.51-3.93,2.11.72,1.99,1.97,1.7,3.32-1.27,1.6-3.09.36-5.16,1.25-.2.18-.92.83-1.71,1.54h-9.92c-.65-.61-1.36-1.28-2.09-1.97Z"/>
  <path class="cls-1" d="M918.43,279.4c1.3-1.3,2.25-2.24,3.22-3.22,1.56-.16,3.16-.39,4.91.27v12.84c-1.73,1.42-3.78.55-5.68.71-1.65.14-3.33.03-5.5.03-.21-1.02-.44-2.14-.66-3.19,2.49-.98,4.77-1.48,5.9-3.58-.77-1.37-1.51-2.68-2.18-3.87Z"/>
  <path class="cls-1" d="M1892.67,186.04c3.46-1.71,4.97-2.19,6.15-3.1,1.78-1.38,3.88-1.46,5.28-.36,1.34,1.05,2.79,1.3,4.52,2,.1,1.48.2,3.03.3,4.59l2.83,2.83h3.77c1.44.82,1.54,1.97.96,3.39-1.97,1.44-4.32.34-6.79.7-1.39-1.6-2.88-3.33-4.76-5.5-.09-.85-.26-2.4-.42-3.85-.36-.3-.61-.67-.85-.67-2.95-.04-5.91-.03-10.99-.03Z"/>
  <path class="cls-1" d="M1139.83,192.04c-.71-.67-1.42-1.34-2.13-2h-3.11c-1.81-.91-4.19-1.45-5.52-2.93-1.86-2.07-4.64.13-6.21-2,1.79-2.18,4.21-.66,6.29-1.08,2.16,1.18,4.32,2.35,7.12,3.87h11.47c1.3-.38,2.58-3.83,4.91-.74-1.39,2.91-5.07,2.58-6.89,4.87-1.98,0-3.96,0-5.94,0Z"/>
  <path class="cls-1" d="M334.43,309.39c3.37-3.34,6.4-6.33,9.46-9.36h1.87c.72-.68,1.43-1.35,2.09-1.99h6.42c.18,1.06.37,2.18.54,3.2-2.54,1.36-4.85.52-7.02.81-.73.68-1.43,1.35-2.1,1.97-.71.03-1.35.06-1.99.09-1.63,1.63-3.25,3.25-4.9,4.9v1.92c-2.76,1.44-2.76,1.43-4.38-1.54Z"/>
  <path class="cls-1" d="M906.83,311c1.62-1.62,3.24-3.24,4.73-4.73,1.25.93,2.5,1.85,3.18,2.36.21,3.74-3.12,4.29-3.61,6.27-.51,2.06-1.48,3.43-3.3,4.93h-4.25c-.89-.47-.91-.89-.2-1.41.52-.38,1.42-1.13,1.33-1.34-1.24-2.75,3.46-3.37,2.11-6.07Z"/>
  <path class="cls-1" d="M1197.31,188.04c1.15,0,1.81,0,2.48,0,1.18,1.18,2.35,2.36,3.88,3.88h8.55c.28,1.19.5,2.09.69,2.91-1.98,2.34-4.46.79-6.29,1.15-3.27-1.63-6.31-3.15-9.82-4.91.14-.84.34-1.97.52-3.03Z"/>
  <path class="cls-1" d="M400.79,321.03c2.7-.66,4.69-2.74,7.66-3.17,2.61-.38,5.01-2.24,7.99-3.68.87.16,2.59-.78,4.17.64-2.84,2.18-6.47,2.9-9.15,5.21-2.9-1.22-4.64,1.68-7.11,1.99-.65.08-1.36.14-1.97-.03-.57-.16-1.06-.63-1.58-.96Z"/>
  <path class="cls-1" d="M789.6,418.04c-3.12.01-3.12-.03-4.44-1.28.22-.24.43-.69.65-.69,3.59-.04,7.18-.05,10.76,0,.58,0,1.16.32,1.74.5.09.23.27.65.24.67-1.88.96-3.78,1.89-6.12,3.03-.8-.63-1.76-1.38-2.84-2.22Z"/>
  <path class="cls-1" d="M1100.23,460.07c-1.23-.06-1.88-.09-2.69-.13-1.19-2.39-.86-4.88-.4-7.35.74-.21,1.33-.38,1.97-.57,1.81.26,2.28,2.23,3.63,2.81.52,1.8-1.48.89-1.66,1.9-.16.91-.45,1.8-.85,3.34Z"/>
  <path class="cls-1" d="M1114.17,191.96c-3.14.2-3.39-.97-3.39-2.84,1.57-.87,3.34-1.84,5.42-2.99,1.09.17,2.74-.65,4.16.47q-.67,1.22-2.71,1.47c-1.13,1.26-2.42,2.69-3.49,3.89Z"/>
  <path class="cls-1" d="M826.76,412.04c.32,0-.32,0-.97,0-.23-.23-.57-.42-.66-.69-.18-.57-.24-1.19-.48-2.55.95-.63,2.27-1.5,4.17-2.76-.32,0,.32,0,1.17,0,.3.76.63,1.59,1.22,3.05-1.23.82-2.55,1.69-4.45,2.95Z"/>
  <path class="cls-1" d="M1174.44,275.3c.96-.84,1.2-1.23,1.45-1.24,3.95-.04,7.91-.04,11.86,0,.24,0,.48.42.71.64-2.56,1.74-2.69,1.75-14.02.6Z"/>
  <path class="cls-1" d="M536.51,299.66c-.9.13-1.81.34-2.71.36-2.23.05-4.46.02-7.41.02q2.57-2.07,10.13-.38Z"/>
  <path class="cls-1" d="M1118.63,400.39v4.87c-1.69,1.04-3.86.87-5.17,3.42-.33-1.67-.54-2.77-.73-3.73,1.9-1.18,4.08-1,5.9-4.56Z"/>
  <path class="cls-1" d="M1418.11,333.22c3.16-1.8,5.47-1,7.68-1.15.89-.06,1.81.22,3.01.39-2.44,1.87-2.44,1.93-10.69.77Z"/>
  <path class="cls-1" d="M1368.03,128.74c-2.24,1.32-3.52,2.07-5.46,3.2.24.05-.63-.13-3.01-.61,2.24-1.32,3.52-2.07,5.46-3.2-.24-.05.64.13,3.01.61Z"/>
  <path class="cls-1" d="M1332.79,174.03c0,.93,0,1.87,0,2.8-1.06,1.72-2.34,1.62-3.76.46.87-1.54,1.82-2.96,3.76-3.26Z"/>
  <path class="cls-1" d="M185.9,347.93c.8.15,1.68.31,2.59.48-.31,1.88-1.85,2.48-2.72,3.61-1.42-1.34-1.41-2.67.13-4.09Z"/>
  <path class="cls-1" d="M211.18,349.76c-.17-.91-.34-1.79-.49-2.58,1.4-1.58,2.73-1.58,4.07-.18-1.1.91-1.73,2.4-3.58,2.76Z"/>
  <path class="cls-1" d="M1651.08,435.67c-.42,2.22-.63,3.32-.88,4.7-1.44-1.34-2.42-2.38-3.91-3.82,1.72-.32,2.6-.48,4.79-.88Z"/>
  <path class="cls-1" d="M1102.52,454.69c3,3.23,2.8,5.19,1.42,7.27-2.16-1.67-.76-3.98-1.42-7.27Z"/>
  <path class="cls-1" d="M1078.41,458.31c.17.91.34,1.79.49,2.58-1.4,1.58-2.73,1.58-4.07.18,1.1-.91,1.73-2.4,3.58-2.76Z"/>
  <path class="cls-1" d="M1365.19,333.45c1.76-1.72,3.53-1.82,5.6-.55-1.84,2.28-3.89.21-5.6.55Z"/>
  <path class="cls-1" d="M1815.07,200.42c.89-.13,1.78-.37,2.65-.31.28.02.58.79.71,1.26.04.15-.42.64-.64.64-.89-.03-1.78-.2-2.67-.32-.02-.42-.04-.84-.05-1.27Z"/>
  <path class="cls-1" d="M1078.79,323.04c1.34-1.44,2.67-1.44,4.01,0-1.34,1.44-2.67,1.44-4.01,0Z"/>
  <path class="cls-1" d="M1944.95,183.04c-1.64,1.31-2.75,1.38-3.92.29.83-2.17,2.1-1.59,3.92-.29Z"/>
  <path class="cls-1" d="M1350.64,177.04c1.64-1.31,2.75-1.38,3.92-.29-.83,2.17-2.1,1.59-3.92.29Z"/>
  <path class="cls-1" d="M1470.79,352.04c1.28.37,3.09-.97,3.83,1.17q-2.65.88-3.83-1.17Z"/>
  <path class="cls-1" d="M218.5,355.32c-.27.27-.49.49-.71.71-.22-.44-.52-.87-.63-1.34-.04-.16.4-.44.63-.66.24.43.48.87.71,1.29Z"/>
  <path class="cls-1" d="M1437.35,233.81c-.81.95-1.28,1.5-1.74,2.04-1.36-1.75.19-1.6,1.74-2.04Z"/>
  <path class="cls-1" d="M1436.79,234.04c-.05-1.38.62-2.05,2-2,.05,1.38-.62,2.05-2,2Z"/>
  <path class="cls-1" d="M1438.23,232.26c.81-.95,1.28-1.5,1.74-2.04,1.36,1.75-.19,1.6-1.74,2.04Z"/>
  <path class="cls-1" d="M1449.08,338.75c.27-.27.49-.49.71-.71.22.44.52.87.62,1.34.04.16-.4.44-.63.66-.24-.43-.48-.87-.71-1.29Z"/>
  <path class="cls-1" d="M1457.79,342.04c.22.44.52.87.63,1.34.04.16-.4.44-.63.66-.22-.44-.52-.87-.63-1.34-.04-.16.4-.44.63-.66Z"/>
  <path class="cls-1" d="M1283.5,434.32c.42.23.85.47,1.29.71-.22.22-.49.66-.66.63-.47-.1-.9-.4-1.34-.63.22-.22.44-.44.71-.71Z"/>
  <path class="cls-1" d="M185.08,432.75c.27-.27.49-.49.71-.71.22.44.52.87.63,1.34.04.16-.4.44-.63.66-.24-.43-.48-.87-.71-1.29Z"/>
  <path class="cls-1" d="M201.5,346.32c.42.23.85.47,1.29.71-.22.22-.49.66-.66.63-.47-.1-.9-.4-1.34-.63.22-.22.44-.44.71-.71Z"/>
  <path class="cls-1" d="M788.5,411.32c-.27.27-.49.49-.71.71-.22-.44-.52-.87-.63-1.34-.04-.16.4-.44.63-.66.24.43.48.87.71,1.29Z"/>
  <path class="cls-1" d="M1469.02,350.59c-.95-.81-1.5-1.28-2.04-1.74,1.75-1.36,1.6.19,2.04,1.74Z"/>
  <path class="cls-1" d="M1422.5,396.75c-.23.42-.47.85-.71,1.29-.22-.22-.66-.49-.63-.66.1-.47.4-.9.63-1.34.22.22.44.44.71.71Z"/>
  <path class="cls-1" d="M1468.79,350.04c1.38-.05,2.05.62,2,2-1.38.05-2.05-.62-2-2Z"/>
  <path class="cls-1" d="M1334.79,141.04c-.44.22-.87.52-1.34.62-.16.04-.44-.4-.66-.63.44-.22.87-.52,1.34-.63.16-.04.44.4.66.63Z"/>
  <path class="cls-1" d="M182.5,388.75c-.23.42-.47.85-.71,1.29-.22-.22-.66-.49-.63-.66.1-.47.4-.9.63-1.34.22.22.44.44.71.71Z"/>
  <path class="cls-1" d="M806.5,110.75c-.23.42-.47.85-.71,1.29-.22-.22-.66-.49-.63-.66.1-.47.4-.9.63-1.34.22.22.44.44.71.71Z"/>
  <path class="cls-1" d="M158.08,353.75c-.42-.23-.85-.47-1.29-.71.22-.22.49-.66.66-.63.47.1.9.4,1.34.63-.22.22-.44.44-.71.71Z"/>
  <path class="cls-1" d="M1661.79,448.04c.22.44.52.87.63,1.34.04.16-.4.44-.63.66-.22-.44-.52-.87-.63-1.34-.04-.17.4-.44.63-.66Z"/>
</svg>