<?xml version="1.0" encoding="UTF-8"?>
<svg id="Layer_1" data-name="Layer 1" xmlns="http://www.w3.org/2000/svg" viewBox="0 0 395.27 291.35">
  <defs>
    <style>
      .cls-1 {
        stroke-linecap: round;
      }

      .cls-1, .cls-2 {
        fill: none;
        stroke: #010101;
        stroke-miterlimit: 10;
        stroke-width: 2px;
      }

      .cls-3 {
        fill: #010101;
        font-family: CourierPrime, 'Courier Prime';
        font-size: 73.25px;
      }
    </style>
  </defs>
  <text class="cls-3" transform="translate(0 261.38)"><tspan x="0" y="0">SANTORINI</tspan></text>
  <g>
    <path class="cls-2" d="M4.82,184.34l252.08-.22c3.34,0,6.06-2.69,6.09-6.03l.72-69.49c.04-3.57,2.93-6.46,6.51-6.49l17.41-.13c3.6-.03,6.54-2.89,6.66-6.49l1.35-39.27c.1-2.96,1.78-5.63,4.4-7.01l15.66-8.22c2.25-1.18,3.68-3.48,3.74-6.02l.26-11.12c.04-1.72-1.32-3.15-3.05-3.19l-5.4-.12c-1.31-.03-2.35-1.11-2.33-2.42l.03-1.64c.03-1.59,1.32-2.87,2.91-2.89l6.09-.07c1.05-.01,1.91-.86,1.92-1.92l.08-8c.01-1.43,1.17-2.59,2.6-2.6l3.42.04"/>
    <path class="cls-2" d="M311.07,103.45l26.57-.02c2.02,0,3.64-1.64,3.6-3.66-.24-10.84-2.23-42.02-17.33-41.6-15.01.42-16.54,30.72-16.61,41.51-.01,2.09,1.68,3.77,3.77,3.77Z"/>
    <path class="cls-2" d="M281.73,184.35l31.5-.03c2.2,0,3.97-1.79,3.92-3.99-.31-14.62-2.59-64.47-19.46-64.64-18.12-.19-19.49,51.05-19.52,65.12,0,1.97,1.59,3.54,3.56,3.54Z"/>
    <path class="cls-1" d="M18.11,97.13c2.62-2.15,6.48-13.73,22.98-12.48,14.87,1.13,23.02,26.45,40.41,11.71,17.28-14.65,30.03-14.26,43.33-5.01,6.2,4.31,13.23,11.84,21.13,8.99,6.87-2.48,13.8-9.32,20-13.09,9.65-5.87,23.18-2.85,30.95,3.99,25.65,22.59,37.51-3.89,37.51-3.89"/>
    <path class="cls-1" d="M18.57,127.73c2.62-2.15,6.48-13.73,22.98-12.48,14.87,1.13,23.02,26.45,40.41,11.71,17.28-14.65,30.03-14.26,43.33-5.01,6.2,4.31,13.23,11.84,21.13,8.99,6.87-2.48,13.8-9.32,20-13.09,9.65-5.87,23.18-2.85,30.95,3.99,25.65,22.59,37.51-3.89,37.51-3.89"/>
    <path class="cls-1" d="M383.78,185.22l-1.23-75.39c.04-3.57-2.8-6.52-6.37-6.62l-17.4-.49c-3.6-.1-6.48-3.02-6.53-6.62l-.53-39.29c-.04-2.96-1.66-5.67-4.26-7.1l-15.48-8.54c-2.22-1.23-3.6-3.56-3.61-6.09l-.03-11.13c0-1.72,1.39-3.12,3.11-3.13h5.4c1.31-.01,2.37-1.07,2.38-2.38v-1.64c0-1.59-1.25-2.89-2.84-2.95l-6.09-.19c-1.05-.03-1.89-.9-1.88-1.96l.08-8c.01-1.43-1.12-2.61-2.55-2.66l-3.42-.04"/>
    <path class="cls-2" d="M335.53,185.07l31.5-.03c2.2,0,3.97-1.79,3.92-3.99-.31-14.62-2.59-64.47-19.46-64.64-18.12-.19-19.49,51.05-19.52,65.12,0,1.97,1.59,3.54,3.56,3.54Z"/>
  </g>
</svg>