<?xml version="1.0" encoding="UTF-8"?>
<svg id="Layer_1" data-name="Layer 1" xmlns="http://www.w3.org/2000/svg" viewBox="0 0 306.53 316.47">
  <defs>
    <style>
      .cls-1 {
        fill: #231f20;
        font-family: Georgia, Georgia;
        font-size: 54.64px;
      }

      .cls-2 {
        fill: #000;
        stroke-width: 0px;
      }
    </style>
  </defs>
  <path class="cls-2" d="M208.78,48.89c-3.79-4.5-8.2-8.41-13.05-11.65-.72-.49-1.41-.95-2.12-1.38-.11-.46-1.23-4.56.2-10.47,1.41-5.77,5.59-14.46,17.53-23.24.09-.09.17-.14.2-.26.06-.09.06-.17.06-.29v-.17c-.03-.06-.06-.11-.09-.17,0-.06-.06-.09-.09-.11-.06-.09-.14-.14-.23-.17-.06-.06-.14-.06-.26-.06l-14-.83c-7.09-.4-13.77.49-19.88,2.64-4.82,1.72-8.92,4.05-12.14,6.91-10.13,8.98-19.34,16.24-19.42,16.29-16.3,1.72-28.98,6.43-37.87,14-2.47,2.12-4.65,4.48-6.54,7.06-.43.63-.86,1.23-1.26,1.86-.4.63-.8,1.23-1.18,1.89-.34.6-.69,1.23-1,1.89-.34.6-.63,1.26-.92,1.89-.29.63-.55,1.26-.8,1.89-.23.63-.46,1.26-.69,1.92-.2.6-.4,1.23-.57,1.86-.2.63-.34,1.26-.52,1.89-.14.6-.29,1.23-.4,1.84-.11.6-.23,1.2-.32,1.81-.11.6-.2,1.2-.26,1.78-.09.57-.14,1.18-.2,1.75-.06.55-.09,1.12-.11,1.66-.06.66-.06,1.32-.09,1.98-.03.75-.03,1.52,0,2.27,0,.72.03,1.41.09,2.12.03.63.09,1.29.14,1.92.06.57.11,1.12.17,1.69.06.49.14.98.23,1.46.06.43.11.83.2,1.23.06.32.11.63.17.92l.09.43c.03.14.06.32.09.46l1.41-.17.2-.03c.6-.06,1.38-.11,2.07.26.92.49,1.55,1.46,1.84,2.87.14.72.46.89.54.92.54.26,1.49.11,2.73-.49,1.41-.66,2.44-1.98,2.78-3.5.14-.72-.06-1.46-.32-2.32-.09-.34-.2-.75-.29-1.12-.69-3.21,3.33-4.7,3.53-4.79.03,0,2.44-.8,3.3-3.13.37-1.06.2-1.81.03-2.61-.23-.95-.46-2.01.54-3.24.98-1.15,2.64-1.66,4.27-1.23.89.2,2.09.34,2.9-.26.57-.46.89-1.35.89-2.61,0-2.07,1.2-2.93,2.24-3.27,1.81-.6,3.84.09,5.05,1.69.75.98,1.69,1.41,2.73,1.29,1.12-.14,1.84-.86,2.58-1.64,1.03-1.06,2.21-2.27,4.45-1.75,1.75.37,2.52,1.43,3.13,2.3.66.95,1.18,1.64,3.07,1.46,1.69-.17,2.32-.92,3.01-1.75.83-1,1.78-2.09,4.33-1.64,1.81.32,2.58,1.12,3.07,1.98.09.09.14.17.2.32.06.09.09.17.14.32.03.09.09.2.14.32.03.09.09.17.14.32.11.14.23.29.34.43.14.17.34.34.6.49.09.06.2.11.29.17.26.11.55.23.89.32,1.78.49,2.52.06,3.5-.52.95-.57,2.12-1.23,4.3-1.09.26,0,.52.06.77.09.26.03.46.2.54.43.11.29,2.61,6.94.49,15.84-.29,1.18-.66,2.35-1.06,3.5-.26.6-.49,1.23-.75,1.84-.89,2.01-1.98,3.99-3.27,5.85-6.34,9.09-8.38,18.13-9.01,22.92,2.15-3.76,6.23-9.64,12.02-11.5.09-.03.17-.06.26-.09,2.15-.75,4.42-2.27,6.54-4.04,2.09-1.78,4.07-3.84,5.68-5.65.57-.69,1.12-1.38,1.64-2.07,2.47-3.21,4.39-6.77,5.68-10.61,1.18-3.44,1.84-6.08,1.98-7.86,0-.09.03-.2.06-.26.11-.14.26-.26.4-.32.11-.06.17-.06.29-.06s.23.06.32.14c.06,0,.09.06.11.09.14.11.2.32.2.52-.06.77.2,1.32.75,1.78.98.77,2.95.92,4.93.37,1.52-.43,2.9-.2,3.76.57.95.86,1.2,2.35.83,4.42-.23,1.21-.06,2.21.54,2.93,1.06,1.43,3.33,1.55,3.36,1.55.26.03,4.85.83,6.17,3.76.63,1.41.37,3.04-.72,4.82-3.3,5.28-.69,7.32-.57,7.37.17.14,3.76,2.9,4.16,6.43.17,1.58-.29,3.04-1.41,4.39-3.1,3.73-2.15,7.55-2.12,7.69.09.2,2.12,6.23-.09,10.47-.92,1.78-2.44,2.95-4.53,3.56-4.68,1.35-5.68,4.16-5.74,6.28,0,1.98-.77,3.96-2.09,5.59-1.89,2.35-4.53,4.68-7.8,6.91-6.34,4.3-5.31,10.47-4.65,12.74.14.49.26.83.29.89.09.17.09.37,0,.52,1.86-1.15,3.39-1.72,3.61-1.81,33.39-17.33,38.53-59.27,38.56-59.7,1.69-22.09-3.64-40.62-15.92-55.11ZM192.23,25.37c-1.32,5.51-.43,9.52-.43,9.52-3.18-2.3-9.04-4.5-9.04-4.5-.17-3.04.83-5.94,2.52-8.69l.26-.43c.06-.14.14-.32.26-.46.03-.09.09-.17.17-.26.6-.92,1.32-1.84,2.09-2.7.29-.34.6-.72.92-1.06,6.66-6.97,16.44-12.02,18.99-13.28.09-.03.11.06.06.11-9.87,6.91-13.83,14.57-15.49,20.57-.11.4-.23.77-.32,1.18Z"/>
  <path class="cls-2" d="M117.52,77.49c2.01,0,3.64-.66,4.91-1.58.2-.14.4-.32.6-.49,2.61-2.21,3.61-5.45,3.64-5.51.06-.17,0-.4-.09-.57-.11-.14-.29-.26-.46-.29-2.9-.49-5.08-.03-6.71.83-.54.17-1.03.49-1.41.89-.54.46-.98.92-1.35,1.38-1.58,2.01-1.95,4.22-1.98,4.3-.06.34.17.69.52.77.83.17,1.61.26,2.32.26ZM125.07,70.29c-.23.55-.6,1.32-1.15,2.12-.14-.86-.66-1.61-1.38-2.07.75-.14,1.61-.14,2.52-.06ZM117.15,73.79c.23.95.83,1.78,1.69,2.24-.8.14-1.69.14-2.67,0,.17-.55.46-1.38.98-2.24Z"/>
  <path class="cls-2" d="M101.89,205.82l-.29-.09s-3.72-1.25-5.21-10.2c-.36-2.1-1.36-3.94-2.81-5.15-.93-.77-1.93-1.18-2.95-1.23-.53-.03-1.06.06-1.59.23-.58.15-1.16.39-1.72.77-1.89,1.29-3.08,3.37-3.3,5.71-.24,2.36.56,4.64,2.19,6.29,1.36,1.38,3.25,2.59,5.59,3.61,4.29,1.84,6.68,2.56,8.08,2.71.2.02.38.03.54.03.28,0,.49-.04.67-.09.53-.08.82-.29,1.02-.53.45-.56.31-1.31-.04-1.81l-.2-.25Z"/>
  <path class="cls-2" d="M208.83,192.5c-.75-.5-1.52-.81-2.28-.9-.64-.08-1.28-.02-1.9.18-.71.18-1.41.53-2.07,1.07-1.45,1.22-2.45,3.05-2.81,5.17-1.47,8.8-5.08,10.12-5.21,10.18l-.31.07-.18.27c-.34.51-.49,1.25-.04,1.81.19.23.43.43.9.52.15.03.33.04.54.04.36,0,.83-.06,1.41-.18,1.45-.27,3.73-1.02,7.47-2.62,2.34-1.02,4.21-2.23,5.59-3.61,1.61-1.63,2.43-3.94,2.2-6.29-.22-2.34-1.43-4.43-3.3-5.71Z"/>
  <path class="cls-2" d="M121.38,214.67l-.2-.07s-2.41-.82-3.39-6.62c-.24-1.38-.87-2.56-1.83-3.36-.93-.78-1.95-.98-2.96-.64-.4.1-.8.25-1.19.52-1.23.83-2.01,2.2-2.16,3.72-.15,1.52.38,3.03,1.43,4.08.89.91,2.1,1.71,3.63,2.36,3.19,1.38,4.77,1.78,5.61,1.78.29,0,.48-.05.63-.12.27-.06.46-.16.58-.3.29-.36.2-.85-.02-1.18l-.13-.16Z"/>
  <path class="cls-2" d="M182.71,204.77c-.74-.5-1.5-.67-2.24-.57-.66.03-1.32.29-1.93.8-.94.78-1.6,1.98-1.83,3.36-.96,5.73-3.3,6.6-3.39,6.62l-.2.05-.11.18c-.24.33-.33.82-.04,1.18.16.2.4.36.94.36.24,0,.58-.05.97-.13.94-.16,2.43-.63,4.9-1.7,1.52-.65,2.76-1.45,3.65-2.36,1.05-1.07,1.58-2.56,1.41-4.1-.14-1.52-.93-2.87-2.14-3.7Z"/>
  <path class="cls-2" d="M176.07,171.76c.34-.56.71-1.09,1.11-1.6.42-.53.87-1.03,1.34-1.47-.07-.4-.25-1.56-.27-1.61-.16-.89-.36-2.7-.56-5.44-.38-4.88,1.4-9.65,4.72-12.75.91-.83,1.9-1.58,3.01-2.2,5.59-3.16,6.11-6.57,6.46-8.82.04-.31.07-.6.13-.83l.07-.31c.4-2.12,1.02-5.32,7.75-9.03,4.44-2.43,3.28-5.9,2.16-9.25-.44-1.31-.83-2.52-.83-3.59,0-1.41.78-2.76,1.54-4.05,1.49-2.58,2.29-4.26-.04-6.29-4.08-3.57-3.54-5.7-2.54-9.54.16-.67.36-1.41.54-2.25.69-2.96-.42-3.25-2.85-3.86-.96-.25-2.05-.53-3.1-1.07-1.83-.91-2.1-2.72-2.32-4.19-.29-1.83-.45-2.45-1.98-2.3-2.59.25-4.21,0-5.1-.25-1.16,3.27-2.72,6.33-4.68,9.16-.15.22-.31.42-.45.63-.13.16-.24.33-.36.49,5.93,4.81,11.27,12.01,11.52,22.51.31,12.32-3.3,17.76-10.5,28.61-1.23,1.87-2.58,3.9-4.03,6.13-3.77,5.88-8.05,9.34-13.06,10.58-2.34.58-4.93.73-7.69.89-4.7.25-10.03.56-15.24,3.16-13.1,6.55-18.68,27.83-20.08,34.18-.07.34.18.8.51.89.34.11.82-.11.94-.44,1.74-4.5,8.4-19.21,20.7-20.24,8.22-.69,13.17-2.52,16-4.08-1.03,2.21-2.05,5.62-2.05,10.54,0,8.91-12.86,24.58-14.33,26.34-.22.25-.22.73,0,.98.14.15.38.24.6.24.13,0,.25-.02.36-.09,5.35-3.16,31.93-19.48,30.75-31.22-.34-3.41.49-6.22,1.87-8.53Z"/>
  <path class="cls-2" d="M164.77,65.1c-.09,0-.14-.03-.2-.03-1.84-.14-2.7.34-3.61.89-1.06.63-2.15,1.29-4.42.72-.23-.06-.49.11-.66.26-.17.11-.32.2-.54.34l-.95.83c-.75.54-.86.8-2.12,1.55-1.03.57-1.55.11-2.32-.55-.09-.09-.17-.14-.23-.2-.92-.77-2.21-1.84-4.56-1.43-2.58.43-2.73,1.86-2.87,3.04-.11,1.06-.2,2.09-2.04,2.95-2.04,1-3.21.66-4.42.32-1.12-.34-2.38-.72-4.16.11-2.27,1.03-2.95,2.81-3.7,4.68-.46,1.12-.95,2.3-1.81,3.41-.83,1.09-1.95,1.58-3.33,1.43-2.87-.23-5.74.6-8.15,2.35-.95.69-1.87,1.43-2.75,2.3-1.49,1.41-2.81,3.13-3.99,5.16-.23.4-.49.83-.75,1.38-1.86,3.44-4.96,9.21-13.02,14.26-5.8,3.61-8.41,6.4-8.03,8.49.09.47.33.82.63,1.14-1.95.65-3.68.35-3.69.35-.29-.57,0-1.42.24-2.02.89-2.16,2.41-3.79,4.02-5.52.67-.73,1.35-1.45,1.98-2.22,2.26-2.75,3.42-6.22,4.16-8.93.76-2.75,1.32-5.75,1.7-9.16.19-1.7.31-3.25.36-4.48l-1.45.2c-.04,1.19-.15,2.47-.33,4.13-.38,3.33-.92,6.26-1.66,8.94-.71,2.57-1.79,5.86-3.89,8.4-.61.75-1.27,1.45-1.92,2.15-1.63,1.75-3.31,3.55-4.29,5.95-.35.86-.76,2.12-.18,3.23.07.14.63,1.06,2.24,1.06.54,0,3.2-.74,4.01-1.01.14.09,1.06-.32,1.23-.4.49-.2.95-.43,1.41-.63.89-.43,1.78-.89,2.64-1.38,1.58-.89,3.1-1.89,4.56-2.98,2.52-1.89,4.82-4.07,7.03-6.34.49-.52.98-1,1.43-1.52,1-1.06,1.92-2.04,2.84-2.93,1.23-1.18,2.24-2.52,3.21-3.82,1.26-1.69,2.47-3.27,4.04-4.5,16.24-12.54,31.04-14,39.1-13.57.14,0,.26.03.43.03.34.03.63.06.92.06-.03,2.01-.6,6.86-5.05,13.08-3.93,5.51-5.28,12.97-5.71,16.81,1.55-1.98,3.99-4.59,6.2-4.39,1.32-4.76,3.67-10.61,7.83-16.61,1.52-2.18,2.75-4.5,3.67-6.91.09-.2.14-.4.23-.57.09-.32.29-.95.49-1.55.2-.69.4-1.35.49-1.69,1.72-7.34.17-13.17-.29-14.66Z"/>
  <text class="cls-1" transform="translate(0 299.9)"><tspan x="0" y="0">SANTORINI</tspan></text>
</svg>