<?xml version="1.0" encoding="UTF-8"?>
<svg id="Layer_1" data-name="Layer 1" xmlns="http://www.w3.org/2000/svg" viewBox="0 0 1479.59 316.47">
  <defs>
    <style>
      .cls-1, .cls-2, .cls-3 {
        fill: #010101;
      }

      .cls-1, .cls-4 {
        stroke-width: 0px;
      }

      .cls-2 {
        font-family: NovelSansGr-Medium, 'Novel Sans Gr';
        font-size: 68.58px;
        font-weight: 500;
      }

      .cls-5 {
        letter-spacing: -.02em;
      }

      .cls-6 {
        fill: #231f20;
        font-family: Georgia, Georgia;
        font-size: 54.64px;
      }

      .cls-7 {
        stroke-linecap: round;
      }

      .cls-7, .cls-8 {
        fill: none;
        stroke: #010101;
        stroke-miterlimit: 10;
        stroke-width: 2px;
      }

      .cls-4 {
        fill: #000;
      }

      .cls-3 {
        font-family: CourierPrime, 'Courier Prime';
        font-size: 64.84px;
      }
    </style>
  </defs>
  <g>
    <path class="cls-4" d="M208.78,48.89c-3.79-4.5-8.2-8.41-13.05-11.65-.72-.49-1.41-.95-2.12-1.38-.11-.46-1.23-4.56.2-10.47,1.41-5.77,5.59-14.46,17.53-23.24.09-.09.17-.14.2-.26.06-.09.06-.17.06-.29v-.17c-.03-.06-.06-.11-.09-.17,0-.06-.06-.09-.09-.11-.06-.09-.14-.14-.23-.17-.06-.06-.14-.06-.26-.06l-14-.83c-7.09-.4-13.77.49-19.88,2.64-4.82,1.72-8.92,4.05-12.14,6.91-10.13,8.98-19.34,16.24-19.42,16.29-16.3,1.72-28.98,6.43-37.87,14-2.47,2.12-4.65,4.48-6.54,7.06-.43.63-.86,1.23-1.26,1.86-.4.63-.8,1.23-1.18,1.89-.34.6-.69,1.23-1,1.89-.34.6-.63,1.26-.92,1.89-.29.63-.55,1.26-.8,1.89-.23.63-.46,1.26-.69,1.92-.2.6-.4,1.23-.57,1.86-.2.63-.34,1.26-.52,1.89-.14.6-.29,1.23-.4,1.84-.11.6-.23,1.2-.32,1.81-.11.6-.2,1.2-.26,1.78-.09.57-.14,1.18-.2,1.75-.06.55-.09,1.12-.11,1.66-.06.66-.06,1.32-.09,1.98-.03.75-.03,1.52,0,2.27,0,.72.03,1.41.09,2.12.03.63.09,1.29.14,1.92.06.57.11,1.12.17,1.69.06.49.14.98.23,1.46.06.43.11.83.2,1.23.06.32.11.63.17.92l.09.43c.03.14.06.32.09.46l1.41-.17.2-.03c.6-.06,1.38-.11,2.07.26.92.49,1.55,1.46,1.84,2.87.14.72.46.89.54.92.54.26,1.49.11,2.73-.49,1.41-.66,2.44-1.98,2.78-3.5.14-.72-.06-1.46-.32-2.32-.09-.34-.2-.75-.29-1.12-.69-3.21,3.33-4.7,3.53-4.79.03,0,2.44-.8,3.3-3.13.37-1.06.2-1.81.03-2.61-.23-.95-.46-2.01.54-3.24.98-1.15,2.64-1.66,4.27-1.23.89.2,2.09.34,2.9-.26.57-.46.89-1.35.89-2.61,0-2.07,1.2-2.93,2.24-3.27,1.81-.6,3.84.09,5.05,1.69.75.98,1.69,1.41,2.73,1.29,1.12-.14,1.84-.86,2.58-1.64,1.03-1.06,2.21-2.27,4.45-1.75,1.75.37,2.52,1.43,3.13,2.3.66.95,1.18,1.64,3.07,1.46,1.69-.17,2.32-.92,3.01-1.75.83-1,1.78-2.09,4.33-1.64,1.81.32,2.58,1.12,3.07,1.98.09.09.14.17.2.32.06.09.09.17.14.32.03.09.09.2.14.32.03.09.09.17.14.32.11.14.23.29.34.43.14.17.34.34.6.49.09.06.2.11.29.17.26.11.55.23.89.32,1.78.49,2.52.06,3.5-.52.95-.57,2.12-1.23,4.3-1.09.26,0,.52.06.77.09.26.03.46.2.54.43.11.29,2.61,6.94.49,15.84-.29,1.18-.66,2.35-1.06,3.5-.26.6-.49,1.23-.75,1.84-.89,2.01-1.98,3.99-3.27,5.85-6.34,9.09-8.38,18.13-9.01,22.92,2.15-3.76,6.23-9.64,12.02-11.5.09-.03.17-.06.26-.09,2.15-.75,4.42-2.27,6.54-4.04,2.09-1.78,4.07-3.84,5.68-5.65.57-.69,1.12-1.38,1.64-2.07,2.47-3.21,4.39-6.77,5.68-10.61,1.18-3.44,1.84-6.08,1.98-7.86,0-.09.03-.2.06-.26.11-.14.26-.26.4-.32.11-.06.17-.06.29-.06s.23.06.32.14c.06,0,.09.06.11.09.14.11.2.32.2.52-.06.77.2,1.32.75,1.78.98.77,2.95.92,4.93.37,1.52-.43,2.9-.2,3.76.57.95.86,1.2,2.35.83,4.42-.23,1.21-.06,2.21.54,2.93,1.06,1.43,3.33,1.55,3.36,1.55.26.03,4.85.83,6.17,3.76.63,1.41.37,3.04-.72,4.82-3.3,5.28-.69,7.32-.57,7.37.17.14,3.76,2.9,4.16,6.43.17,1.58-.29,3.04-1.41,4.39-3.1,3.73-2.15,7.55-2.12,7.69.09.2,2.12,6.23-.09,10.47-.92,1.78-2.44,2.95-4.53,3.56-4.68,1.35-5.68,4.16-5.74,6.28,0,1.98-.77,3.96-2.09,5.59-1.89,2.35-4.53,4.68-7.8,6.91-6.34,4.3-5.31,10.47-4.65,12.74.14.49.26.83.29.89.09.17.09.37,0,.52,1.86-1.15,3.39-1.72,3.61-1.81,33.39-17.33,38.53-59.27,38.56-59.7,1.69-22.09-3.64-40.62-15.92-55.11ZM192.23,25.37c-1.32,5.51-.43,9.52-.43,9.52-3.18-2.3-9.04-4.5-9.04-4.5-.17-3.04.83-5.94,2.52-8.69l.26-.43c.06-.14.14-.32.26-.46.03-.09.09-.17.17-.26.6-.92,1.32-1.84,2.09-2.7.29-.34.6-.72.92-1.06,6.66-6.97,16.44-12.02,18.99-13.28.09-.03.11.06.06.11-9.87,6.91-13.83,14.57-15.49,20.57-.11.4-.23.77-.32,1.18Z"/>
    <path class="cls-4" d="M117.52,77.49c2.01,0,3.64-.66,4.91-1.58.2-.14.4-.32.6-.49,2.61-2.21,3.61-5.45,3.64-5.51.06-.17,0-.4-.09-.57-.11-.14-.29-.26-.46-.29-2.9-.49-5.08-.03-6.71.83-.54.17-1.03.49-1.41.89-.54.46-.98.92-1.35,1.38-1.58,2.01-1.95,4.22-1.98,4.3-.06.34.17.69.52.77.83.17,1.61.26,2.32.26ZM125.07,70.29c-.23.55-.6,1.32-1.15,2.12-.14-.86-.66-1.61-1.38-2.07.75-.14,1.61-.14,2.52-.06ZM117.15,73.79c.23.95.83,1.78,1.69,2.24-.8.14-1.69.14-2.67,0,.17-.55.46-1.38.98-2.24Z"/>
    <path class="cls-4" d="M101.89,205.82l-.29-.09s-3.72-1.25-5.21-10.2c-.36-2.1-1.36-3.94-2.81-5.15-.93-.77-1.93-1.18-2.95-1.23-.53-.03-1.06.06-1.59.23-.58.15-1.16.39-1.72.77-1.89,1.29-3.08,3.37-3.3,5.71-.24,2.36.56,4.64,2.19,6.29,1.36,1.38,3.25,2.59,5.59,3.61,4.29,1.84,6.68,2.56,8.08,2.71.2.02.38.03.54.03.28,0,.49-.04.67-.09.53-.08.82-.29,1.02-.53.45-.56.31-1.31-.04-1.81l-.2-.25Z"/>
    <path class="cls-4" d="M208.83,192.5c-.75-.5-1.52-.81-2.28-.9-.64-.08-1.28-.02-1.9.18-.71.18-1.41.53-2.07,1.07-1.45,1.22-2.45,3.05-2.81,5.17-1.47,8.8-5.08,10.12-5.21,10.18l-.31.07-.18.27c-.34.51-.49,1.25-.04,1.81.19.23.43.43.9.52.15.03.33.04.54.04.36,0,.83-.06,1.41-.18,1.45-.27,3.73-1.02,7.47-2.62,2.34-1.02,4.21-2.23,5.59-3.61,1.61-1.63,2.43-3.94,2.2-6.29-.22-2.34-1.43-4.43-3.3-5.71Z"/>
    <path class="cls-4" d="M121.38,214.67l-.2-.07s-2.41-.82-3.39-6.62c-.24-1.38-.87-2.56-1.83-3.36-.93-.78-1.95-.98-2.96-.64-.4.1-.8.25-1.19.52-1.23.83-2.01,2.2-2.16,3.72-.15,1.52.38,3.03,1.43,4.08.89.91,2.1,1.71,3.63,2.36,3.19,1.38,4.77,1.78,5.61,1.78.29,0,.48-.05.63-.12.27-.06.46-.16.58-.3.29-.36.2-.85-.02-1.18l-.13-.16Z"/>
    <path class="cls-4" d="M182.71,204.77c-.74-.5-1.5-.67-2.24-.57-.66.03-1.32.29-1.93.8-.94.78-1.6,1.98-1.83,3.36-.96,5.73-3.3,6.6-3.39,6.62l-.2.05-.11.18c-.24.33-.33.82-.04,1.18.16.2.4.36.94.36.24,0,.58-.05.97-.13.94-.16,2.43-.63,4.9-1.7,1.52-.65,2.76-1.45,3.65-2.36,1.05-1.07,1.58-2.56,1.41-4.1-.14-1.52-.93-2.87-2.14-3.7Z"/>
    <path class="cls-4" d="M176.07,171.76c.34-.56.71-1.09,1.11-1.6.42-.53.87-1.03,1.34-1.47-.07-.4-.25-1.56-.27-1.61-.16-.89-.36-2.7-.56-5.44-.38-4.88,1.4-9.65,4.72-12.75.91-.83,1.9-1.58,3.01-2.2,5.59-3.16,6.11-6.57,6.46-8.82.04-.31.07-.6.13-.83l.07-.31c.4-2.12,1.02-5.32,7.75-9.03,4.44-2.43,3.28-5.9,2.16-9.25-.44-1.31-.83-2.52-.83-3.59,0-1.41.78-2.76,1.54-4.05,1.49-2.58,2.29-4.26-.04-6.29-4.08-3.57-3.54-5.7-2.54-9.54.16-.67.36-1.41.54-2.25.69-2.96-.42-3.25-2.85-3.86-.96-.25-2.05-.53-3.1-1.07-1.83-.91-2.1-2.72-2.32-4.19-.29-1.83-.45-2.45-1.98-2.3-2.59.25-4.21,0-5.1-.25-1.16,3.27-2.72,6.33-4.68,9.16-.15.22-.31.42-.45.63-.13.16-.24.33-.36.49,5.93,4.81,11.27,12.01,11.52,22.51.31,12.32-3.3,17.76-10.5,28.61-1.23,1.87-2.58,3.9-4.03,6.13-3.77,5.88-8.05,9.34-13.06,10.58-2.34.58-4.93.73-7.69.89-4.7.25-10.03.56-15.24,3.16-13.1,6.55-18.68,27.83-20.08,34.18-.07.34.18.8.51.89.34.11.82-.11.94-.44,1.74-4.5,8.4-19.21,20.7-20.24,8.22-.69,13.17-2.52,16-4.08-1.03,2.21-2.05,5.62-2.05,10.54,0,8.91-12.86,24.58-14.33,26.34-.22.25-.22.73,0,.98.14.15.38.24.6.24.13,0,.25-.02.36-.09,5.35-3.16,31.93-19.48,30.75-31.22-.34-3.41.49-6.22,1.87-8.53Z"/>
    <path class="cls-4" d="M164.77,65.1c-.09,0-.14-.03-.2-.03-1.84-.14-2.7.34-3.61.89-1.06.63-2.15,1.29-4.42.72-.23-.06-.49.11-.66.26-.17.11-.32.2-.54.34l-.95.83c-.75.54-.86.8-2.12,1.55-1.03.57-1.55.11-2.32-.55-.09-.09-.17-.14-.23-.2-.92-.77-2.21-1.84-4.56-1.43-2.58.43-2.73,1.86-2.87,3.04-.11,1.06-.2,2.09-2.04,2.95-2.04,1-3.21.66-4.42.32-1.12-.34-2.38-.72-4.16.11-2.27,1.03-2.95,2.81-3.7,4.68-.46,1.12-.95,2.3-1.81,3.41-.83,1.09-1.95,1.58-3.33,1.43-2.87-.23-5.74.6-8.15,2.35-.95.69-1.87,1.43-2.75,2.3-1.49,1.41-2.81,3.13-3.99,5.16-.23.4-.49.83-.75,1.38-1.86,3.44-4.96,9.21-13.02,14.26-5.8,3.61-8.41,6.4-8.03,8.49.09.47.33.82.63,1.14-1.95.65-3.68.35-3.69.35-.29-.57,0-1.42.24-2.02.89-2.16,2.41-3.79,4.02-5.52.67-.73,1.35-1.45,1.98-2.22,2.26-2.75,3.42-6.22,4.16-8.93.76-2.75,1.32-5.75,1.7-9.16.19-1.7.31-3.25.36-4.48l-1.45.2c-.04,1.19-.15,2.47-.33,4.13-.38,3.33-.92,6.26-1.66,8.94-.71,2.57-1.79,5.86-3.89,8.4-.61.75-1.27,1.45-1.92,2.15-1.63,1.75-3.31,3.55-4.29,5.95-.35.86-.76,2.12-.18,3.23.07.14.63,1.06,2.24,1.06.54,0,3.2-.74,4.01-1.01.14.09,1.06-.32,1.23-.4.49-.2.95-.43,1.41-.63.89-.43,1.78-.89,2.64-1.38,1.58-.89,3.1-1.89,4.56-2.98,2.52-1.89,4.82-4.07,7.03-6.34.49-.52.98-1,1.43-1.52,1-1.06,1.92-2.04,2.84-2.93,1.23-1.18,2.24-2.52,3.21-3.82,1.26-1.69,2.47-3.27,4.04-4.5,16.24-12.54,31.04-14,39.1-13.57.14,0,.26.03.43.03.34.03.63.06.92.06-.03,2.01-.6,6.86-5.05,13.08-3.93,5.51-5.28,12.97-5.71,16.81,1.55-1.98,3.99-4.59,6.2-4.39,1.32-4.76,3.67-10.61,7.83-16.61,1.52-2.18,2.75-4.5,3.67-6.91.09-.2.14-.4.23-.57.09-.32.29-.95.49-1.55.2-.69.4-1.35.49-1.69,1.72-7.34.17-13.17-.29-14.66Z"/>
    <text class="cls-6" transform="translate(0 299.9)"><tspan x="0" y="0">SANTORINI</tspan></text>
  </g>
  <g>
    <polygon class="cls-1" points="656.52 143.03 656.48 150.46 621.94 167.98 621.97 157.85 656.52 143.03"/>
    <polygon class="cls-1" points="656.55 134.44 656.52 141.89 621.97 156.7 621.98 146.54 656.55 134.44"/>
    <polygon class="cls-1" points="656.59 125.82 656.56 133.31 621.98 145.43 622.01 135.23 656.59 125.82"/>
    <polygon class="cls-1" points="656.63 117.2 656.59 124.73 622.01 134.16 622.02 123.93 656.63 117.2"/>
    <polygon class="cls-1" points="656.67 108.57 656.63 116.13 622.02 122.87 622.05 112.64 656.67 108.57"/>
    <polygon class="cls-1" points="656.69 99.95 656.67 107.53 622.05 111.6 622.06 101.36 656.69 99.95"/>
    <polygon class="cls-1" points="656.73 91.31 656.71 98.91 622.06 100.31 622.09 90.06 656.73 91.31"/>
    <polygon class="cls-1" points="656.77 82.67 656.73 90.27 622.09 89.02 622.1 78.78 656.77 82.67"/>
    <polygon class="cls-1" points="656.8 74.02 656.77 81.62 622.1 77.72 622.13 67.49 656.8 74.02"/>
    <polygon class="cls-1" points="656.84 65.36 656.84 65.37 656.81 72.95 622.13 66.44 622.14 56.22 656.84 65.36"/>
    <polygon class="cls-1" points="656.87 56.69 656.84 64.29 622.14 55.14 622.15 44.95 656.87 56.69"/>
    <polygon class="cls-1" points="656.91 48.03 656.91 48.04 656.87 55.6 622.17 43.85 622.18 33.67 656.91 48.03"/>
    <polygon class="cls-1" points="622.18 32.55 622.19 22.43 656.94 39.36 656.91 46.91 622.18 32.55"/>
    <polygon class="cls-1" points="656.95 38.2 622.21 21.25 622.22 11.54 656.98 32.21 656.95 38.2"/>
    <polygon class="cls-1" points="767.48 37.54 767.45 31.57 802.21 10.88 802.24 20.6 767.48 37.54"/>
    <polygon class="cls-1" points="767.52 46.27 767.48 38.71 802.24 21.77 802.25 31.91 767.52 46.27"/>
    <polygon class="cls-1" points="802.27 43.2 767.56 54.96 767.52 47.4 767.52 47.39 802.25 33.03 802.27 43.2"/>
    <polygon class="cls-1" points="767.6 63.63 767.56 56.05 802.27 44.31 802.29 54.5 767.6 63.63"/>
    <polygon class="cls-1" points="767.62 72.31 767.61 69.8 767.6 64.71 802.29 55.58 802.31 65.78 767.62 72.31"/>
    <polygon class="cls-1" points="767.66 80.97 767.62 73.38 802.31 66.85 802.33 77.08 767.66 80.97"/>
    <polygon class="cls-1" points="767.7 89.63 767.66 82.02 802.33 78.12 802.34 88.36 767.7 89.63"/>
    <polygon class="cls-1" points="802.37 99.66 767.74 98.26 767.7 90.67 802.34 89.42 802.37 99.66"/>
    <polygon class="cls-1" points="802.38 110.94 767.77 106.88 767.74 99.31 802.37 100.7 802.38 110.94"/>
    <polygon class="cls-1" points="802.41 122.22 767.81 115.49 767.77 107.93 802.38 112 802.41 122.22"/>
    <polygon class="cls-1" points="802.42 133.51 767.84 124.09 767.81 116.56 802.41 123.28 802.42 133.51"/>
    <polygon class="cls-1" points="802.45 144.79 767.87 132.67 767.84 125.17 802.42 134.59 802.45 144.79"/>
    <polygon class="cls-1" points="802.46 156.07 767.91 141.25 767.87 133.79 802.45 145.9 802.46 156.07"/>
    <polygon class="cls-1" points="767.95 149.61 767.91 142.39 802.46 157.19 802.49 167.34 767.95 149.81 767.95 149.61"/>
    <path class="cls-1" d="M768.28,99.64l-.04-8.64-.04-8.65-.04-8.65v-3.05s-.08-5.6-.08-5.6l-.1-8.65-1.02.35.1,8.56.1,8.57.1,8.57.1,8.57.1,8.57v1.12s.03,1.03.03,1.03l.08,6.42.72.09-.03-8.63ZM740.16,76.05v.51h.03v.52l-.03,23.62v.03h1.03v-24.68h-1.03ZM767.72,133.85l.69.25-.03-8.61-.04-8.6-.04-8.61-.72-.09.1,8.57.03,1.97h-42.42v-16.99h15.9v-1h-1.03v-.03h-15.9v19.05h43.45v14.1ZM740.09,149.45h0s6.49.01,6.49.01h0s-6.49-.01-6.49-.01ZM740.16,76.56v24.14l.03-23.62v-.52h-.03ZM656.48,94.98v1.03l-.03,3.9v4.56s-.01,21.28-.01,21.28l1.03-.29v-30.47h-.99ZM656.64,56.62l-.04,8.69-.03,8.65h0s-.04,8.66-.04,8.66l-.04,8.64.98.04v-34.4l-.83-.29ZM740.09,149.45h0s6.49.01,6.49.01h0s-6.49-.01-6.49-.01ZM740.16,100.73v-.03h-15.9v17.56c.31-.57.65-1.13,1.03-1.68v-14.85h15.9v-1h-1.03ZM740.16,76.56v24.14l.03-23.62v-.52h-.03ZM656.48,94.98v1.03l-.03,3.9v4.56s-.01,21.28-.01,21.28l1.03-.29v-30.47h-.99ZM656.64,56.62l-.04,8.69-.03,8.65h0s-.04,8.66-.04,8.66l-.04,8.64.98.04v-34.4l-.83-.29ZM740.16,76.05v.51h.03v.52l-.03,23.62v.03h1.03v-24.68h-1.03ZM740.09,149.45h0s6.49.01,6.49.01h0s-6.49-.01-6.49-.01ZM740.16,100.73v-.03h-15.9v17.56c.31-.57.65-1.13,1.03-1.68v-14.85h15.9v-1h-1.03ZM740.16,76.56v24.14l.03-23.62v-.52h-.03ZM656.48,94.98v1.03l-.03,3.9v4.56s-.01,21.28-.01,21.28l1.03-.29v-30.47h-.99ZM656.64,56.62l-.04,8.69-.03,8.65h0s-.04,8.66-.04,8.66l-.04,8.64.98.04v-34.4l-.83-.29ZM740.16,76.05v.51h.03v.52l-.03,23.62v.03h1.03v-24.68h-1.03ZM740.09,149.45h0s6.49.01,6.49.01h0s-6.49-.01-6.49-.01ZM741.19,101.73v-1h-1.03v-.03h-15.9v17.56c.31-.57.65-1.13,1.03-1.68v-14.85h15.9ZM740.19,76.56h-.03v24.14l.03-23.62v-.52ZM656.48,96.01l-.03,3.9v4.56s-.01,21.28-.01,21.28l1.03-.29v-30.47h-.99v1.03ZM656.6,65.31l-.03,8.65h0s-.04,8.66-.04,8.66l-.04,8.64.98.04v-34.4l-.83-.29-.04,8.69ZM740.16,76.05v.51h.03v.52l-.03,23.62v.03h1.03v-24.68h-1.03ZM768.72,116.96l-.1-8.66-.1-8.65-.1-8.64h0s-.12-8.66-.12-8.66l-.1-8.65-.04-3.04-.07-5.6-.1-8.65-.1-8.64-.1-8.65h0s-.09-7.31-.09-7.31h-111.24v118.67h112.31v-31.24l-.03-2.27ZM657.47,32.83h109.19l.08,6.77.1,8.57.12,8.57.1,8.56.1,8.57.1,8.57.1,8.57.1,8.57v1.12s.03,1.03.03,1.03l.08,6.42.1,8.57.03,1.97h-42.42v-16.99h15.9v-32.83h-32.86v-23.31h-50.86v-12.76ZM767.72,149.45h-110.25V46.62h49.83v23.31h32.86v30.77h-15.9v19.05h43.45v29.71ZM740.16,76.05v.51h.03v.52l-.03,23.62v.03h1.03v-24.68h-1.03ZM656.64,56.62l-.04,8.69-.03,8.65h0s-.04,8.66-.04,8.66l-.04,8.64.98.04v-34.4l-.83-.29ZM656.48,94.98v1.03l-.03,3.9v4.56s-.01,21.28-.01,21.28l1.03-.29v-30.47h-.99ZM740.16,76.56v24.14l.03-23.62v-.52h-.03ZM740.16,100.73v-.03h-15.9v17.56c.31-.57.65-1.13,1.03-1.68v-14.85h15.9v-1h-1.03ZM740.09,149.45h0s6.49.01,6.49.01h0s-6.49-.01-6.49-.01ZM740.16,76.05v.51h.03v.52l-.03,23.62v.03h1.03v-24.68h-1.03ZM656.64,56.62l-.04,8.69-.03,8.65h0s-.04,8.66-.04,8.66l-.04,8.64.98.04v-34.4l-.83-.29ZM656.48,94.98v1.03l-.03,3.9v4.56s-.01,21.28-.01,21.28l1.03-.29v-30.47h-.99ZM740.16,76.56v24.14l.03-23.62v-.52h-.03ZM740.16,100.73v-.03h-15.9v17.56c.31-.57.65-1.13,1.03-1.68v-14.85h15.9v-1h-1.03ZM740.09,149.45h0s6.49.01,6.49.01h0s-6.49-.01-6.49-.01ZM740.16,76.05v.51h.03v.52l-.03,23.62v.03h1.03v-24.68h-1.03ZM768.28,99.64l-.04-8.64-.04-8.65-.04-8.65v-3.05s-.08-5.6-.08-5.6l-.1-8.65-1.02.35.1,8.56.1,8.57.1,8.57.1,8.57.1,8.57v1.12s.03,1.03.03,1.03l.08,6.42.72.09-.03-8.63ZM656.64,56.62l-.04,8.69-.03,8.65h0s-.04,8.66-.04,8.66l-.04,8.64.98.04v-34.4l-.83-.29ZM656.48,94.98v1.03l-.03,3.9v4.56s-.01,21.28-.01,21.28l1.03-.29v-30.47h-.99ZM740.16,76.56v24.14l.03-23.62v-.52h-.03ZM740.09,149.45h0s6.49.01,6.49.01h0s-6.49-.01-6.49-.01ZM767.72,133.85l.69.25-.03-8.61-.04-8.6-.04-8.61-.72-.09.1,8.57.03,1.97h-42.42v-16.99h15.9v-1h-1.03v-.03h-15.9v19.05h43.45v14.1Z"/>
    <rect class="cls-1" x="707.31" y="32.32" width="1.03" height="13.78"/>
    <rect class="cls-1" x="656.93" y="78.49" width="32.1" height="1.03"/>
    <polygon class="cls-1" points="768.09 101.76 730.68 101.76 730.68 96.01 656.45 96.01 656.45 94.98 731.71 94.98 731.71 100.73 768.09 100.73 768.09 101.76"/>
    <rect class="cls-1" x="668.65" y="95.95" width="1.03" height="12.99"/>
    <path class="cls-1" d="M720.35,126.86v10.14h-9.29c.34-3.78,1.09-19.07-7.17-28.4-4.22-4.77-10.14-7.19-17.59-7.19-6.96,0-12.53,2.1-16.62,6.23-.31.3-.61.61-.9.95-.04.05-.09.1-.13.16-8.91,10.45-6.59,28.09-6.49,28.85l.07.44h58.12v11.69h1.02v-21.82h25.21v21.58h-6.49c.01-.2.01-.42.01-.68.03-3.28-.2-12.22-3.24-15.39-.42-.44-.9-.76-1.39-.95-.17-.08-.34-.12-.51-.16-.1-.03-.21-.04-.31-.05-.12-.01-.23-.01-.36-.01h-.03c-.23,0-.47.03-.69.08-.21.04-.42.1-.63.2-.13.04-.25.1-.36.18-.33.18-.63.43-.9.72-.08.09-.17.18-.25.27-2.7,3.31-2.83,11.62-2.76,14.94,0,.18.01.34.01.48,0,.13,0,.25.01.35,0,.12,0,.22.01.3,0,.13.01.22.01.25h0s.03.47.03.47v.03h18.87v-23.63h-27.26ZM710.03,137h-46.9c-.3-2.84-1.56-18.55,6.44-27.74,3.95-4.53,9.58-6.83,16.74-6.83s12.81,2.31,16.82,6.84c7.95,8.99,7.19,24.26,6.91,27.73ZM729.7,149.02c-.01-.56-.03-1.33-.01-2.24,0-.27.01-.55.01-.83.09-3.79.57-9.22,2.49-11.6.01-.04.04-.07.08-.09.05-.05.09-.1.14-.16.14-.16.29-.29.43-.38.14-.12.3-.2.46-.27.13-.07.29-.1.43-.14.01,0,.03,0,.04-.01.26-.05.51-.07.77-.03.16.01.3.04.44.09.4.14.79.39,1.15.76,2.12,2.21,2.72,7.91,2.89,11.83.01.26.03.51.03.76.01.26.01.51.01.74.03.87.01,1.58,0,2.01h0s-9.34.01-9.34.01h0c0-.13-.01-.29-.01-.44Z"/>
    <g>
      <path class="cls-1" d="M720.86,125.88s3.06-15.07,12.93-15.07,13.3,15.07,13.3,15.07h-26.24Z"/>
      <path class="cls-1" d="M747.59,125.77c-.05-.26-.69-2.94-2.14-6.02-.16-.34-.33-.69-.51-1.03-2.11-4.09-5.65-8.42-11.15-8.42-3.7,0-6.48,1.97-8.49,4.49-.38.44-.72.91-1.03,1.39-2.79,4.22-3.84,9.22-3.92,9.58l-.12.63h27.5l-.14-.63ZM721.51,125.36c.31-1.25,1.17-4.22,2.76-7.1.31-.57.65-1.13,1.03-1.68,1.94-2.87,4.69-5.26,8.49-5.26,4.73,0,7.93,3.71,9.95,7.4.2.35.36.69.53,1.03,1.17,2.37,1.86,4.57,2.15,5.62h-24.92Z"/>
    </g>
    <path class="cls-1" d="M712.32,74.11c-2.58-2.74-5.93-4.13-9.97-4.13s-7.44,1.39-10.06,4.14c-1.38,1.46-2.45,3.18-3.27,5-.07.13-.12.26-.17.39-2.79,6.46-2.66,14.03-2.61,15.47,0,.12.01.18.01.22l.03.48,31.88.26.03-.48c0-.05.01-.22.01-.48.1-2.57.17-14.42-5.89-20.87ZM693.05,74.83c2.41-2.53,5.54-3.82,9.3-3.82s6.84,1.28,9.21,3.8c5.69,6.06,5.69,17.6,5.63,20.1l-9.15-.08h-.51l-10.63-.1h-.52l-9.12-.08c-.04-2.46.08-13.81,5.78-19.83Z"/>
    <path class="cls-1" d="M740.19,76.48v.6l-.03,23.62v1.03h16.78s6.81.01,6.81.01v-25.26h-23.57ZM747.16,100.7h-5.97l.03-23.2h21.51v23.22h-15.57Z"/>
    <g>
      <path class="cls-1" d="M737.94,76.56h27.85s-2.13-16.8-14.67-16.8-13.18,16.8-13.18,16.8Z"/>
      <path class="cls-1" d="M766.3,76.49s-.13-.95-.47-2.36c-1.16-4.72-4.79-14.88-14.71-14.88-6.97,0-10.41,5.02-12.09,9.64-.13.35-.25.69-.35,1.03-1.11,3.52-1.25,6.55-1.25,6.62l-.03.53h28.98l-.08-.59ZM740.13,68.9c1.62-4.22,4.79-8.61,11-8.61,10.64,0,13.55,12.86,14.07,15.76h-26.71c.09-1.04.39-3.47,1.26-6.12.12-.34.23-.68.38-1.03Z"/>
    </g>
    <g>
      <polygon class="cls-1" points="746.66 101.23 746.44 84.85 756.44 84.85 756.44 101.23 746.66 101.23"/>
      <path class="cls-1" d="M745.92,84.34l.21,16.36v1.03s.01.01.01.01h10.8v-17.41h-11.02ZM755.92,100.71h-8.76s-.2-15.35-.2-15.35h8.95v15.35Z"/>
    </g>
    <g>
      <rect class="cls-1" x="696.9" y="85.07" width="10.63" height="9.99"/>
      <path class="cls-1" d="M696.39,84.56v11.02h11.66v-11.02h-11.66ZM707.02,94.55h-9.6v-8.96h9.6v8.96Z"/>
    </g>
    <g>
      <rect class="cls-1" x="680.74" y="120.36" width="11.27" height="16.8"/>
      <path class="cls-1" d="M680.23,119.85v17.82h12.3v-17.82h-12.3ZM691.5,136.65h-10.24v-15.78h10.24v15.78Z"/>
    </g>
    <g>
      <rect class="cls-1" x="662.03" y="58.91" width="9.99" height="10.63"/>
      <path class="cls-1" d="M661.52,58.4v11.66h11.02v-11.66h-11.02ZM671.52,69.03h-8.96v-9.6h8.96v9.6Z"/>
    </g>
    <g>
      <rect class="cls-1" x="716.46" y="48.07" width="11.91" height="21.26"/>
      <path class="cls-1" d="M715.96,47.56v22.29h12.92v-22.29h-12.92ZM727.85,68.82h-10.88v-20.23h10.88v20.23Z"/>
    </g>
    <g>
      <rect class="cls-1" x="676.07" y="58.91" width="9.99" height="10.63"/>
      <path class="cls-1" d="M675.56,58.4v11.66h11.02v-11.66h-11.02ZM685.55,69.03h-8.96v-9.6h8.96v9.6Z"/>
    </g>
    <rect class="cls-1" x="739.43" y="47.22" width="9.14" height="8.93"/>
    <path class="cls-1" d="M680.11,113.56l12.29-.06s-1.23-6.53-6.12-6.53-6.17,6.59-6.17,6.59Z"/>
    <g>
      <path class="cls-1" d="M729.22,149.98s-1.06-17.2,5.03-17.24c6.1-.04,5.3,17.24,5.3,17.24h-10.34Z"/>
      <path class="cls-1" d="M736.93,133.42c-.44-.46-.94-.78-1.47-.96-.17-.08-.34-.12-.51-.16-.1-.03-.21-.04-.31-.05-.12-.01-.23-.01-.36-.01h-.03c-.23,0-.47.03-.69.08-.21.04-.42.1-.63.2-.13.04-.25.1-.36.18-.35.18-.68.44-.98.77-.07.07-.13.14-.17.22-2.78,3.32-2.87,11.61-2.76,14.94,0,.18.01.34.01.48,0,.13,0,.25.01.35,0,.12,0,.22.01.3,0,.13.01.22.01.25h0s.03.47.03.47v.03h11.31v-.03l.03-.47c0-.05.01-.23.01-.53h0c.01-.2.01-.42.01-.68.05-3.3-.12-12.21-3.17-15.37ZM739.06,149.45h0s-9.34.01-9.34.01h0c0-.13-.01-.29-.01-.44-.03-.56-.03-1.33-.01-2.24,0-.27.01-.55.01-.83.05-3.78.52-9.24,2.49-11.6.01-.04.04-.07.08-.09.03-.04.05-.08.08-.1.03-.03.04-.05.07-.05.14-.16.29-.29.43-.38.14-.12.3-.2.46-.27.13-.07.29-.1.43-.14.01,0,.03,0,.04-.01.17-.03.33-.04.49-.04h.01c.09,0,.18,0,.26.01.16.01.3.04.44.09.43.13.83.38,1.21.77,2.11,2.23,2.7,7.9,2.83,11.82.01.26.03.51.03.76.01.26.01.51.01.74.03.87.01,1.58,0,2.01Z"/>
    </g>
    <text class="cls-2" transform="translate(514.45 273.22)"><tspan class="cls-5" x="0" y="0">S</tspan><tspan x="38.47" y="0">ANTORINI</tspan></text>
  </g>
  <g>
    <text class="cls-3" transform="translate(1129.67 260.22)"><tspan x="0" y="0">SANTORINI</tspan></text>
    <g>
      <path class="cls-8" d="M1133.93,192.02l223.16-.2c2.96,0,5.36-2.38,5.39-5.34l.64-61.52c.03-3.16,2.6-5.72,5.76-5.74l15.41-.11c3.19-.02,5.79-2.56,5.9-5.74l1.19-34.76c.09-2.62,1.58-4.99,3.9-6.21l13.86-7.28c1.99-1.04,3.25-3.08,3.31-5.33l.23-9.85c.04-1.53-1.17-2.79-2.7-2.82l-4.78-.11c-1.16-.03-2.08-.98-2.06-2.14l.03-1.45c.03-1.41,1.17-2.54,2.57-2.55l5.39-.06c.93-.01,1.69-.77,1.7-1.7l.07-7.08c.01-1.27,1.04-2.29,2.3-2.3l3.03.04"/>
      <path class="cls-8" d="M1405.05,120.41l23.52-.02c1.79,0,3.23-1.45,3.19-3.24-.21-9.59-1.97-37.2-15.34-36.82-13.29.37-14.65,27.19-14.71,36.75-.01,1.85,1.49,3.34,3.34,3.33Z"/>
      <path class="cls-8" d="M1379.08,192.03l27.89-.02c1.94,0,3.51-1.59,3.47-3.53-.27-12.94-2.29-57.07-17.23-57.22-16.05-.17-17.25,45.19-17.28,57.65,0,1.74,1.41,3.13,3.15,3.13Z"/>
      <path class="cls-7" d="M1145.71,114.82c2.32-1.9,5.74-12.16,20.34-11.05,13.17,1,20.38,23.42,35.77,10.36,15.3-12.97,26.58-12.62,38.36-4.44,5.48,3.81,11.71,10.48,18.71,7.96,6.08-2.19,12.22-8.25,17.71-11.59,8.54-5.19,20.52-2.52,27.4,3.53,22.71,20,33.21-3.45,33.21-3.45"/>
      <path class="cls-7" d="M1146.11,141.9c2.32-1.9,5.74-12.16,20.34-11.05,13.17,1,20.38,23.42,35.77,10.36,15.3-12.97,26.58-12.62,38.36-4.44,5.48,3.81,11.71,10.48,18.71,7.96,6.08-2.19,12.22-8.25,17.71-11.59,8.54-5.19,20.52-2.52,27.4,3.53,22.71,20,33.21-3.45,33.21-3.45"/>
      <path class="cls-7" d="M1469.42,192.8l-1.08-66.74c.03-3.16-2.48-5.77-5.64-5.86l-15.4-.43c-3.19-.09-5.74-2.68-5.78-5.86l-.47-34.78c-.04-2.62-1.47-5.02-3.77-6.29l-13.71-7.56c-1.97-1.08-3.19-3.15-3.2-5.39l-.03-9.85c0-1.53,1.23-2.77,2.76-2.77h4.78c1.16,0,2.1-.95,2.1-2.11v-1.45c0-1.41-1.11-2.56-2.51-2.61l-5.39-.17c-.93-.03-1.67-.8-1.66-1.73l.07-7.08c.01-1.27-.99-2.31-2.25-2.35l-3.03-.04"/>
      <path class="cls-8" d="M1426.71,192.67l27.89-.02c1.94,0,3.51-1.59,3.47-3.53-.27-12.94-2.29-57.07-17.23-57.22-16.05-.17-17.25,45.19-17.28,57.65,0,1.74,1.41,3.13,3.15,3.13Z"/>
    </g>
  </g>
</svg>