<?xml version="1.0" encoding="UTF-8"?>
<svg id="Layer_1" data-name="Layer 1" xmlns="http://www.w3.org/2000/svg" viewBox="0 0 409.51 304.89">
  <defs>
    <style>
      .cls-1 {
        stroke-width: 0px;
      }

      .cls-1, .cls-2 {
        fill: #010101;
      }

      .cls-3 {
        letter-spacing: -.02em;
      }

      .cls-2 {
        font-family: NovelSansGr-Medium, 'Novel Sans Gr';
        font-size: 70.95px;
        font-weight: 500;
      }
    </style>
  </defs>
  <polygon class="cls-1" points="146.98 136.72 146.94 144.4 111.21 162.53 111.23 152.05 146.98 136.72"/>
  <polygon class="cls-1" points="147.01 127.83 146.98 135.54 111.23 150.86 111.25 140.35 147.01 127.83"/>
  <polygon class="cls-1" points="147.05 118.92 147.02 126.67 111.25 139.2 111.27 128.65 147.05 118.92"/>
  <polygon class="cls-1" points="147.09 109.99 147.05 117.78 111.27 127.54 111.29 116.96 147.09 109.99"/>
  <polygon class="cls-1" points="147.13 101.07 147.09 108.89 111.29 115.86 111.31 105.27 147.13 101.07"/>
  <polygon class="cls-1" points="147.16 92.15 147.13 99.99 111.31 104.2 111.33 93.6 147.16 92.15"/>
  <polygon class="cls-1" points="147.2 83.21 147.17 91.07 111.33 92.52 111.36 81.92 147.2 83.21"/>
  <polygon class="cls-1" points="147.24 74.27 147.2 82.13 111.36 80.84 111.37 70.24 147.24 74.27"/>
  <polygon class="cls-1" points="147.26 65.32 147.24 73.18 111.37 69.15 111.4 58.57 147.26 65.32"/>
  <polygon class="cls-1" points="147.3 56.36 147.3 56.37 147.28 64.22 111.4 57.48 111.41 46.91 147.3 56.36"/>
  <polygon class="cls-1" points="147.34 47.4 147.3 55.25 111.41 45.79 111.42 35.25 147.34 47.4"/>
  <polygon class="cls-1" points="147.38 38.43 147.38 38.45 147.34 46.26 111.44 34.11 111.45 23.58 147.38 38.43"/>
  <polygon class="cls-1" points="111.45 22.42 111.46 11.95 147.41 29.47 147.38 37.27 111.45 22.42"/>
  <polygon class="cls-1" points="147.43 28.27 111.48 10.73 111.49 .68 147.45 22.07 147.43 28.27"/>
  <polygon class="cls-1" points="261.77 27.58 261.74 21.4 297.71 0 297.73 10.06 261.77 27.58"/>
  <polygon class="cls-1" points="261.81 36.61 261.77 28.79 297.73 11.27 297.75 21.76 261.81 36.61"/>
  <polygon class="cls-1" points="297.76 33.44 261.85 45.6 261.81 37.78 261.81 37.77 297.75 22.91 297.76 33.44"/>
  <polygon class="cls-1" points="261.89 54.58 261.85 46.73 297.76 34.59 297.79 45.13 261.89 54.58"/>
  <polygon class="cls-1" points="261.92 63.55 261.91 60.95 261.89 55.7 297.79 46.25 297.8 56.8 261.92 63.55"/>
  <polygon class="cls-1" points="261.96 72.52 261.92 64.66 297.8 57.91 297.83 68.49 261.96 72.52"/>
  <polygon class="cls-1" points="262 81.47 261.96 73.6 297.83 69.57 297.84 80.16 262 81.47"/>
  <polygon class="cls-1" points="297.87 91.85 262.04 90.4 262 82.55 297.84 81.25 297.87 91.85"/>
  <polygon class="cls-1" points="297.88 103.52 262.07 99.31 262.04 91.48 297.87 92.92 297.88 103.52"/>
  <polygon class="cls-1" points="297.91 115.19 262.11 108.22 262.07 100.41 297.88 104.61 297.91 115.19"/>
  <polygon class="cls-1" points="297.92 126.86 262.15 117.12 262.11 109.33 297.91 116.28 297.92 126.86"/>
  <polygon class="cls-1" points="297.95 138.54 262.18 126 262.15 118.24 297.92 127.98 297.95 138.54"/>
  <polygon class="cls-1" points="297.96 150.21 262.22 134.87 262.18 127.16 297.95 139.68 297.96 150.21"/>
  <polygon class="cls-1" points="262.26 143.52 262.22 136.06 297.96 151.37 297.99 161.87 262.26 143.73 262.26 143.52"/>
  <path class="cls-1" d="M262.6,91.83l-.04-8.94-.04-8.95-.04-8.95v-3.15s-.08-5.8-.08-5.8l-.11-8.95-1.05.36.11,8.86.11,8.87.11,8.87.11,8.87.11,8.87v1.16s.03,1.06.03,1.06l.08,6.65.74.09-.03-8.92ZM233.51,67.42v.53h.03v.54l-.03,24.44v.03h1.06v-25.53h-1.06ZM262.02,127.22l.71.26-.03-8.91-.04-8.9-.04-8.91-.74-.09.11,8.87.03,2.04h-43.89v-17.58h16.44v-1.04h-1.06v-.03h-16.44v19.71h44.95v14.58ZM233.43,143.36h0s6.71.01,6.71.01h0s-6.71-.01-6.71-.01ZM233.51,67.95v24.98l.03-24.44v-.54h-.03ZM146.94,87.01v1.06l-.03,4.03v4.72s-.01,22.01-.01,22.01l1.06-.3v-31.53h-1.02ZM147.1,47.32l-.04,8.99-.03,8.95h0s-.04,8.96-.04,8.96l-.04,8.94,1.01.04v-35.58l-.86-.3ZM233.43,143.36h0s6.71.01,6.71.01h0s-6.71-.01-6.71-.01ZM233.51,92.95v-.03h-16.44v18.17c.32-.59.67-1.17,1.06-1.74v-15.37h16.44v-1.04h-1.06ZM233.51,67.95v24.98l.03-24.44v-.54h-.03ZM146.94,87.01v1.06l-.03,4.03v4.72s-.01,22.01-.01,22.01l1.06-.3v-31.53h-1.02ZM147.1,47.32l-.04,8.99-.03,8.95h0s-.04,8.96-.04,8.96l-.04,8.94,1.01.04v-35.58l-.86-.3ZM233.51,67.42v.53h.03v.54l-.03,24.44v.03h1.06v-25.53h-1.06ZM233.43,143.36h0s6.71.01,6.71.01h0s-6.71-.01-6.71-.01ZM233.51,92.95v-.03h-16.44v18.17c.32-.59.67-1.17,1.06-1.74v-15.37h16.44v-1.04h-1.06ZM233.51,67.95v24.98l.03-24.44v-.54h-.03ZM146.94,87.01v1.06l-.03,4.03v4.72s-.01,22.01-.01,22.01l1.06-.3v-31.53h-1.02ZM147.1,47.32l-.04,8.99-.03,8.95h0s-.04,8.96-.04,8.96l-.04,8.94,1.01.04v-35.58l-.86-.3ZM233.51,67.42v.53h.03v.54l-.03,24.44v.03h1.06v-25.53h-1.06ZM233.43,143.36h0s6.71.01,6.71.01h0s-6.71-.01-6.71-.01ZM234.58,93.99v-1.04h-1.06v-.03h-16.44v18.17c.32-.59.67-1.17,1.06-1.74v-15.37h16.44ZM233.54,67.95h-.03v24.98l.03-24.44v-.54ZM146.94,88.07l-.03,4.03v4.72s-.01,22.01-.01,22.01l1.06-.3v-31.53h-1.02v1.06ZM147.06,56.32l-.03,8.95h0s-.04,8.96-.04,8.96l-.04,8.94,1.01.04v-35.58l-.86-.3-.04,8.99ZM233.51,67.42v.53h.03v.54l-.03,24.44v.03h1.06v-25.53h-1.06ZM263.06,109.75l-.11-8.96-.11-8.95-.11-8.94h0s-.12-8.96-.12-8.96l-.11-8.95-.04-3.14-.07-5.8-.11-8.95-.11-8.94-.11-8.95h0s-.09-7.56-.09-7.56h-115.08v122.77h116.19v-32.32l-.03-2.35ZM147.96,22.71h112.97l.08,7.01.11,8.87.12,8.87.11,8.86.11,8.87.11,8.87.11,8.87.11,8.87v1.16s.03,1.06.03,1.06l.08,6.65.11,8.87.03,2.04h-43.89v-17.58h16.44v-33.97h-33.99v-24.11h-52.62v-13.2ZM262.02,143.36h-114.06V36.97h51.56v24.11h33.99v31.84h-16.44v19.71h44.95v30.73ZM233.51,67.42v.53h.03v.54l-.03,24.44v.03h1.06v-25.53h-1.06ZM147.1,47.32l-.04,8.99-.03,8.95h0s-.04,8.96-.04,8.96l-.04,8.94,1.01.04v-35.58l-.86-.3ZM146.94,87.01v1.06l-.03,4.03v4.72s-.01,22.01-.01,22.01l1.06-.3v-31.53h-1.02ZM233.51,67.95v24.98l.03-24.44v-.54h-.03ZM233.51,92.95v-.03h-16.44v18.17c.32-.59.67-1.17,1.06-1.74v-15.37h16.44v-1.04h-1.06ZM233.43,143.36h0s6.71.01,6.71.01h0s-6.71-.01-6.71-.01ZM233.51,67.42v.53h.03v.54l-.03,24.44v.03h1.06v-25.53h-1.06ZM147.1,47.32l-.04,8.99-.03,8.95h0s-.04,8.96-.04,8.96l-.04,8.94,1.01.04v-35.58l-.86-.3ZM146.94,87.01v1.06l-.03,4.03v4.72s-.01,22.01-.01,22.01l1.06-.3v-31.53h-1.02ZM233.51,67.95v24.98l.03-24.44v-.54h-.03ZM233.51,92.95v-.03h-16.44v18.17c.32-.59.67-1.17,1.06-1.74v-15.37h16.44v-1.04h-1.06ZM233.43,143.36h0s6.71.01,6.71.01h0s-6.71-.01-6.71-.01ZM233.51,67.42v.53h.03v.54l-.03,24.44v.03h1.06v-25.53h-1.06ZM262.6,91.83l-.04-8.94-.04-8.95-.04-8.95v-3.15s-.08-5.8-.08-5.8l-.11-8.95-1.05.36.11,8.86.11,8.87.11,8.87.11,8.87.11,8.87v1.16s.03,1.06.03,1.06l.08,6.65.74.09-.03-8.92ZM147.1,47.32l-.04,8.99-.03,8.95h0s-.04,8.96-.04,8.96l-.04,8.94,1.01.04v-35.58l-.86-.3ZM146.94,87.01v1.06l-.03,4.03v4.72s-.01,22.01-.01,22.01l1.06-.3v-31.53h-1.02ZM233.51,67.95v24.98l.03-24.44v-.54h-.03ZM233.43,143.36h0s6.71.01,6.71.01h0s-6.71-.01-6.71-.01ZM262.02,127.22l.71.26-.03-8.91-.04-8.9-.04-8.91-.74-.09.11,8.87.03,2.04h-43.89v-17.58h16.44v-1.04h-1.06v-.03h-16.44v19.71h44.95v14.58Z"/>
  <rect class="cls-1" x="199.52" y="22.18" width="1.06" height="14.25"/>
  <rect class="cls-1" x="147.4" y="69.94" width="33.21" height="1.06"/>
  <polygon class="cls-1" points="262.4 94.02 223.7 94.02 223.7 88.07 146.91 88.07 146.91 87.01 224.76 87.01 224.76 92.96 262.4 92.96 262.4 94.02"/>
  <rect class="cls-1" x="159.53" y="88.01" width="1.06" height="13.44"/>
  <path class="cls-1" d="M213.01,119.99v10.49h-9.61c.35-3.91,1.13-19.73-7.41-29.38-4.37-4.93-10.49-7.44-18.2-7.44-7.2,0-12.97,2.17-17.2,6.44-.32.31-.63.63-.93.98-.04.05-.09.11-.13.16-9.22,10.81-6.82,29.06-6.71,29.84l.07.46h60.13v12.09h1.05v-22.58h26.08v22.32h-6.71c.01-.2.01-.43.01-.7.03-3.4-.2-12.64-3.36-15.92-.43-.46-.93-.78-1.44-.98-.18-.08-.35-.12-.53-.16-.11-.03-.22-.04-.32-.05-.12-.01-.24-.01-.38-.01h-.03c-.24,0-.49.03-.71.08-.22.04-.43.11-.65.2-.13.04-.26.11-.38.19-.34.19-.65.44-.93.74-.08.09-.18.19-.26.28-2.79,3.42-2.93,12.02-2.86,15.46,0,.19.01.35.01.5,0,.13,0,.26.01.36,0,.12,0,.23.01.31,0,.13.01.23.01.26h0s.03.49.03.49v.03h19.52v-24.45h-28.2ZM202.34,130.48h-48.52c-.31-2.94-1.62-19.19,6.66-28.7,4.08-4.69,9.91-7.06,17.32-7.06s13.25,2.39,17.4,7.08c8.22,9.3,7.44,25.1,7.14,28.68ZM222.69,142.92c-.01-.58-.03-1.37-.01-2.32,0-.28.01-.57.01-.86.09-3.92.59-9.54,2.57-12,.01-.04.04-.07.08-.09.05-.05.09-.11.15-.16.15-.16.3-.3.44-.39.15-.12.31-.2.47-.28.13-.07.3-.11.44-.15.01,0,.03,0,.04-.01.27-.05.53-.07.8-.03.16.01.31.04.46.09.42.15.82.4,1.19.78,2.2,2.29,2.82,8.18,2.99,12.24.01.27.03.53.03.78.01.27.01.53.01.77.03.9.01,1.63,0,2.08h0s-9.66.01-9.66.01h0c0-.13-.01-.3-.01-.46Z"/>
  <g>
    <path class="cls-1" d="M213.54,118.97s3.17-15.59,13.38-15.59,13.76,15.59,13.76,15.59h-27.14Z"/>
    <path class="cls-1" d="M241.2,118.86c-.05-.27-.71-3.05-2.21-6.23-.16-.35-.34-.71-.53-1.06-2.18-4.23-5.85-8.71-11.54-8.71-3.83,0-6.7,2.04-8.79,4.65-.39.46-.74.94-1.06,1.44-2.88,4.37-3.98,9.54-4.06,9.91l-.12.65h28.45l-.15-.65ZM214.21,118.44c.32-1.29,1.21-4.37,2.86-7.35.32-.59.67-1.17,1.06-1.74,2.01-2.97,4.85-5.45,8.79-5.45,4.89,0,8.21,3.84,10.3,7.66.2.36.38.71.55,1.06,1.21,2.45,1.93,4.73,2.22,5.81h-25.79Z"/>
  </g>
  <path class="cls-1" d="M204.71,65.41c-2.67-2.83-6.13-4.27-10.31-4.27s-7.7,1.44-10.41,4.29c-1.43,1.51-2.53,3.29-3.38,5.18-.07.13-.12.27-.18.4-2.88,6.69-2.75,14.52-2.7,16,0,.12.01.19.01.23l.03.5,32.98.27.03-.5c0-.05.01-.23.01-.5.11-2.66.18-14.92-6.09-21.59ZM184.77,66.16c2.49-2.61,5.73-3.95,9.62-3.95s7.08,1.32,9.53,3.94c5.89,6.27,5.89,18.21,5.82,20.8l-9.46-.08h-.53l-11-.11h-.54l-9.44-.08c-.04-2.55.08-14.29,5.98-20.52Z"/>
  <path class="cls-1" d="M233.54,67.87v.62l-.03,24.44v1.06h17.36s7.05.01,7.05.01v-26.14h-24.38ZM240.75,92.92h-6.17l.03-24.01h22.25v24.02h-16.11Z"/>
  <g>
    <path class="cls-1" d="M231.21,67.95h28.82s-2.2-17.38-15.18-17.38-13.64,17.38-13.64,17.38Z"/>
    <path class="cls-1" d="M260.55,67.88s-.13-.98-.49-2.44c-1.2-4.88-4.96-15.39-15.22-15.39-7.21,0-10.77,5.19-12.51,9.97-.13.36-.26.71-.36,1.06-1.15,3.64-1.29,6.78-1.29,6.85l-.03.55h29.98l-.08-.61ZM233.47,60.02c1.67-4.37,4.96-8.91,11.38-8.91,11.01,0,14.02,13.3,14.56,16.31h-27.63c.09-1.08.4-3.59,1.31-6.34.12-.35.24-.7.39-1.06Z"/>
  </g>
  <g>
    <polygon class="cls-1" points="240.23 93.47 240.01 76.53 250.35 76.53 250.35 93.47 240.23 93.47"/>
    <path class="cls-1" d="M239.47,75.99l.22,16.93v1.06s.01.01.01.01h11.17v-18.01h-11.4ZM249.81,92.94h-9.06s-.2-15.88-.2-15.88h9.26v15.88Z"/>
  </g>
  <g>
    <rect class="cls-1" x="188.76" y="76.75" width="11" height="10.34"/>
    <path class="cls-1" d="M188.22,76.22v11.4h12.06v-11.4h-12.06ZM199.22,86.56h-9.93v-9.27h9.93v9.27Z"/>
  </g>
  <g>
    <rect class="cls-1" x="172.04" y="113.26" width="11.66" height="17.38"/>
    <path class="cls-1" d="M171.51,112.74v18.44h12.72v-18.44h-12.72ZM183.17,130.11h-10.59v-16.32h10.59v16.32Z"/>
  </g>
  <g>
    <rect class="cls-1" x="152.68" y="49.69" width="10.34" height="11"/>
    <path class="cls-1" d="M152.15,49.16v12.06h11.4v-12.06h-11.4ZM162.49,60.16h-9.27v-9.93h9.27v9.93Z"/>
  </g>
  <g>
    <rect class="cls-1" x="208.99" y="38.48" width="12.32" height="22"/>
    <path class="cls-1" d="M208.47,37.94v23.06h13.37v-23.06h-13.37ZM220.78,59.94h-11.26v-20.93h11.26v20.93Z"/>
  </g>
  <g>
    <rect class="cls-1" x="167.2" y="49.69" width="10.34" height="11"/>
    <path class="cls-1" d="M166.67,49.16v12.06h11.4v-12.06h-11.4ZM177.01,60.16h-9.27v-9.93h9.27v9.93Z"/>
  </g>
  <rect class="cls-1" x="232.75" y="37.6" width="9.46" height="9.24"/>
  <path class="cls-1" d="M171.38,106.23l12.71-.06s-1.27-6.76-6.33-6.76-6.38,6.82-6.38,6.82Z"/>
  <g>
    <path class="cls-1" d="M222.19,143.91s-1.1-17.79,5.21-17.83c6.31-.04,5.49,17.83,5.49,17.83h-10.69Z"/>
    <path class="cls-1" d="M230.17,126.77c-.46-.47-.97-.81-1.52-1-.18-.08-.35-.12-.53-.16-.11-.03-.22-.04-.32-.05-.12-.01-.24-.01-.38-.01h-.03c-.24,0-.49.03-.71.08-.22.04-.43.11-.65.2-.13.04-.26.11-.38.19-.36.19-.7.46-1.01.8-.07.07-.13.15-.18.23-2.87,3.44-2.97,12.01-2.86,15.46,0,.19.01.35.01.5,0,.13,0,.26.01.36,0,.12,0,.23.01.31,0,.13.01.23.01.26h0s.03.49.03.49v.03h11.7v-.03l.03-.49c0-.05.01-.24.01-.55h0c.01-.2.01-.43.01-.7.05-3.41-.12-12.63-3.28-15.91ZM232.37,143.36h0s-9.66.01-9.66.01h0c0-.13-.01-.3-.01-.46-.03-.58-.03-1.37-.01-2.32,0-.28.01-.57.01-.86.05-3.91.54-9.56,2.57-12,.01-.04.04-.07.08-.09.03-.04.05-.08.08-.11.03-.03.04-.05.07-.05.15-.16.3-.3.44-.39.15-.12.31-.2.47-.28.13-.07.3-.11.44-.15.01,0,.03,0,.04-.01.18-.03.34-.04.51-.04h.01c.09,0,.19,0,.27.01.16.01.31.04.46.09.44.13.86.39,1.25.8,2.18,2.3,2.79,8.17,2.93,12.23.01.27.03.53.03.78.01.27.01.53.01.77.03.9.01,1.63,0,2.08Z"/>
  </g>
  <text class="cls-2" transform="translate(0 271.4)"><tspan class="cls-3" x="0" y="0">S</tspan><tspan x="39.8" y="0">ANTORINI</tspan></text>
</svg>