<?xml version="1.0" encoding="UTF-8"?>
<svg id="Layer_1" data-name="Layer 1" xmlns="http://www.w3.org/2000/svg" viewBox="0 0 436.69 100.37">
  <defs>
    <style>
      .cls-1 {
        fill: #fff;
        stroke-width: 0px;
      }
    </style>
  </defs>
  <path class="cls-1" d="M59.16,70.1c0,9.13-2.71,16.38-8.13,21.77-5.42,5.39-12.74,8.08-21.97,8.08-4.09,0-8.98-.73-14.67-2.2-5.19-1.38-9.44-2.06-12.74-2.06-.28-7.8-.83-15.59-1.65-23.39,0-.73.69-1.1,2.06-1.1.96,0,1.56.37,1.79,1.1,2.48,8.53,5.65,14.54,9.51,18.02,3.86,3.49,9.27,5.23,16.23,5.23,5.54,0,9.84-1.6,12.89-4.82,3.05-3.21,4.57-7.7,4.57-13.48,0-3.71-1.33-7.17-3.99-10.35-2.66-3.19-8.32-7.3-16.99-12.35-9.95-5.73-16.46-10.59-19.54-14.58-3.07-3.99-4.61-8.42-4.61-13.28,0-7.47,2.77-13.79,8.3-18.95C15.76,2.58,22.77,0,31.27,0c3.21,0,6.91.44,11.09,1.31,3.9.78,7.28,1.17,10.13,1.17.55,8.07,1.29,15.18,2.2,21.33,0,.73-.6,1.1-1.79,1.1-1.28,0-2-.37-2.13-1.1-1.52-6.88-3.81-11.83-6.89-14.86-3.08-3.03-7.34-4.54-12.77-4.54s-9.26,1.51-12.3,4.54c-3.04,3.03-4.56,7.11-4.56,12.25,0,3.26,1.28,6.36,3.83,9.32,2.55,2.96,8.08,6.91,16.6,11.87,10.07,5.87,16.68,10.78,19.8,14.72,3.13,3.94,4.69,8.28,4.69,13Z"/>
  <path class="cls-1" d="M130.98,93.25c0,.98-.37,1.52-1.1,1.61-8.35.91-14.06,2.49-17.13,4.76-.64.5-1.28.75-1.93.75-.92,0-1.38-.37-1.38-1.1l.55-8.67c-6.79,6.15-12.93,9.22-18.44,9.22-6.28,0-11.18-1.78-14.69-5.34-3.51-3.56-5.26-8.39-5.26-14.5v-25.76c0-4.09-.53-6.79-1.58-8.13-1.06-1.33-3.14-2-6.26-2-.6,0-1.26.02-2,.07-.69,0-1.03-.59-1.03-1.76,0-1.44.37-2.16,1.1-2.16,5.3,0,12.25-1.03,20.85-3.1.82,0,1.23.57,1.23,1.72v37.84c0,5.18.99,8.95,2.97,11.32,1.98,2.36,5.08,3.54,9.31,3.54,2.71,0,5.1-.5,7.17-1.51,2.07-1.01,4.28-2.8,6.62-5.37v-30.45c0-4.04-.54-6.74-1.62-8.09-1.08-1.35-3.22-2.03-6.43-2.03-.55,0-1.19.02-1.93.07-.69,0-1.03-.59-1.03-1.76,0-1.44.37-2.16,1.1-2.16,5.32,0,12.29-1.03,20.91-3.1.83,0,1.24.57,1.24,1.72v43.89c0,3.16.45,5.29,1.34,6.36.89,1.08,2.99,1.85,6.29,2.3.73,0,1.1.61,1.1,1.83Z"/>
  <path class="cls-1" d="M181.27,99.27c-2.55,0-4.78-.63-6.67-1.89-1.89-1.26-3.18-2.97-3.86-5.12-4.91,5.04-11.33,7.57-19.26,7.57-4.13,0-7.5-1.27-10.11-3.82-2.61-2.54-3.92-5.72-3.92-9.53,0-9.4,11.14-17.01,33.43-22.84l.41-10.73v-.34c0-3.3-.81-5.93-2.44-7.88-1.63-1.95-3.8-2.92-6.5-2.92s-5,.65-6.88,1.96c-1.88,1.31-2.84,2.95-2.89,4.92-.05,2.94-.81,5.23-2.3,6.88-1.49,1.65-3.47,2.48-5.95,2.48-1.47,0-2.66-.44-3.58-1.31-.92-.87-1.38-2.04-1.38-3.51,0-3.53,3.21-7.23,9.63-11.11,6.42-3.88,12.38-5.81,17.89-5.81,4.95,0,8.97,1.47,12.04,4.4,3.07,2.94,4.61,6.88,4.61,11.83v.83l-1.03,31.09v.48c0,4.82,1.56,7.22,4.68,7.22,1.51,0,3.28-.92,5.3-2.75l.48-.14c.37,0,.71.24,1.03.72.32.48.48,1,.48,1.55,0,1.33-1.39,2.96-4.16,4.88-2.78,1.93-5.79,2.89-9.04,2.89ZM170.74,68.24c-13.35,3.04-20.02,8.05-20.02,15.04,0,6.53,2.51,9.79,7.54,9.79,2.42,0,4.81-.61,7.16-1.83s3.94-2.72,4.77-4.52l.55-18.49Z"/>
  <path class="cls-1" d="M312.52,72.44c-2.16,8.07-3.85,16.51-5.09,25.32-17.57-.55-30.06-.83-37.49-.83s-19.67.28-37.01.83c-.73,0-1.1-.64-1.1-1.93,0-1.15.37-1.76,1.1-1.86,5.55-.64,9.32-1.67,11.32-3.1s2.99-4.27,2.99-8.54V17.55c0-3.21-.4-5.47-1.2-6.78-.8-1.31-2.21-2.34-4.23-3.1-2.02-.76-4.98-1.37-8.87-1.82-.73,0-1.1-.63-1.1-1.89s.37-1.89,1.1-1.89c3.07,0,6.74.14,11.01.41,4.08.28,7.52.41,10.32.41s6.21-.14,10.25-.41c4.22-.27,7.87-.41,10.94-.41.73,0,1.1.63,1.1,1.89s-.37,1.89-1.1,1.89c-3.85.46-6.79,1.07-8.81,1.82-2.02.76-3.42,1.78-4.2,3.06-.78,1.29-1.17,3.56-1.17,6.82v66.85c0,5.42,2.66,8.12,7.98,8.12h13.62c5.64,0,10.41-1.5,14.31-4.51,3.9-3,7.75-8.61,11.56-16.82.18-.37.62-.55,1.31-.55.6,0,1.16.18,1.69.55.53.37.79.78.79,1.24Z"/>
  <path class="cls-1" d="M372.3,58.68c0,1.28-.83,1.93-2.48,1.93h-37.7c-.28,2.48-.41,5.05-.41,7.71,0,7.38,1.75,13.06,5.26,17.03,3.51,3.97,8.5,5.95,14.96,5.95,3.26,0,6.54-.87,9.84-2.61,3.3-1.74,5.96-3.97,7.98-6.67l.34-.14c.41,0,.81.25,1.2.76.39.5.58,1.1.58,1.79,0,.96-1.47,2.97-4.4,6.02-2.94,3.05-6.12,5.38-9.56,6.98s-7.04,2.41-10.8,2.41c-8.26,0-15.2-3.03-20.84-9.08-5.64-6.05-8.46-13.48-8.46-22.29s2.76-16.6,8.29-22.84c5.53-6.24,12.53-9.36,21.02-9.36,7.11,0,13.08,2.33,17.92,6.98,4.84,4.66,7.26,9.8,7.26,15.44ZM359.78,52.63c0-3.44-1.18-6.29-3.54-8.56-2.36-2.27-5.4-3.4-9.11-3.4s-6.59,1.48-9.18,4.44c-2.59,2.96-4.35,6.84-5.26,11.66l19.12-.55c2.89-.05,4.94-.32,6.16-.83,1.21-.5,1.82-1.42,1.82-2.75Z"/>
  <path class="cls-1" d="M436.69,58.68c0,1.28-.83,1.93-2.48,1.93h-37.7c-.28,2.48-.41,5.05-.41,7.71,0,7.38,1.75,13.06,5.26,17.03,3.51,3.97,8.5,5.95,14.96,5.95,3.26,0,6.54-.87,9.84-2.61,3.3-1.74,5.96-3.97,7.98-6.67l.34-.14c.41,0,.81.25,1.2.76.39.5.58,1.1.58,1.79,0,.96-1.47,2.97-4.4,6.02-2.94,3.05-6.12,5.38-9.56,6.98s-7.04,2.41-10.8,2.41c-8.26,0-15.2-3.03-20.84-9.08-5.64-6.05-8.46-13.48-8.46-22.29s2.76-16.6,8.29-22.84c5.53-6.24,12.53-9.36,21.02-9.36,7.11,0,13.08,2.33,17.92,6.98,4.84,4.66,7.26,9.8,7.26,15.44ZM424.17,52.63c0-3.44-1.18-6.29-3.54-8.56-2.36-2.27-5.4-3.4-9.11-3.4s-6.59,1.48-9.18,4.44c-2.59,2.96-4.35,6.84-5.26,11.66l19.12-.55c2.89-.05,4.94-.32,6.16-.83,1.21-.5,1.82-1.42,1.82-2.75Z"/>
</svg>