<?xml version="1.0" encoding="UTF-8"?>
<svg id="Layer_1" data-name="Layer 1" xmlns="http://www.w3.org/2000/svg" viewBox="0 0 351.24 565.81">
  <defs>
    <style>
      .cls-1 {
        fill: #000;
        stroke-width: 0px;
      }
    </style>
  </defs>
  <path class="cls-1" d="M175.64,506.41c-2.73,7.84-2.73,11.39-2.73,14.87-4.63,2.38-9.09,4.68-15.13,7.78h-14.1c-2.03,1.88-3.98,3.68-6.02,5.55h-15.81c-2.12,1.92-4.08,3.69-6.15,5.55h-26.56c-1.51,1.51-2.78,2.78-4.61,4.61H1.49c-.53-2.49-1.04-4.95-1.49-7.04,4.28-6.68,12.01-.47,17.07-5.9,3.72-4,9.9-6.5,15.42-7.82,6.01-1.43,7.78-7.1,12.31-9.52,5.11-2.72,10.93-4.18,15.91-7.1,4.48-2.63,8.23-6.49,12.79-10.21,7.73,2.69,13.31-5.58,21.46-6.32,7.39-4.85,11.24-15.44,22.23-16.52,6.99-6.99,13.99-13.99,20.98-20.98,6.36-6.36,12.72-12.72,19.08-19.08,6.99-6.99,13.99-13.99,20.98-20.98-3.4-7.34,9.15-9.16,5.72-16.52,6.8-3.81,3.17-11.91,6.21-16.17,3.45-4.83,3.49-9.43,4.88-14.36,1.56-5.56,6.13-10,5.22-16.77-.81-6.05-.17-12.29-.17-17.42,2.29-2.29,3.56-3.56,4.74-4.74v-76.9c-1.93-1.93-3.2-3.2-4.61-4.61v-37.52c-1.87-2.01-3.69-3.95-5.55-5.94,0-10.7,0-21.49,0-32.28-1.28-1.27-2.55-2.54-4.77-4.77v-16.2c-2.22-2.22-4.6-3.51-4.59-4.76.12-10.47-7.91-18.59-7.38-29.65.33-6.89-6.11-13.63-5.72-22.04-2.79-.28-5.23-.53-7.79-.79-5.09,7.8.24,16.16-3.78,25.73-.08.08-1.89,2.02-3.75,4.02,0,1.7,0,3.5,0,5.3-4.45,4.45-8.9,8.9-13.42,13.42h-21.56c-7.01-4.24-8.92-12.28-13.46-20.63v-8.58c-1.88-2.01-3.69-3.96-5.55-5.95v-21.37c-1.87-2.01-3.68-3.95-5.22-5.61v-10.99c7.05-3.81,4.57-10.84,5.85-16.51,1.94-1.94,3.85-3.85,6.72-6.72,2.92-2.42,7.55-.25,11.82-.68,3.54-.36,7.14-.07,9.33-.07,7.35,6.86,13.89,12.96,20.27,18.91v11.06c5.62,4.92,12.14,1.45,18.09,2.43,4.17-6.03,12.61-4.89,17.43-10.53,1.51-1.76,6.82-.27,10.01-.27,2.27-2.03,4.23-3.79,6.02-5.4h14.74c1.42-1.06,3.46-2.58,7.07-5.28h15.83c4.27-6.66,1.66-13.03,2.41-18.92,1.87-2.02,3.68-3.96,5.56-5.99v-10.48c3.35-3.35,6.53-6.53,9.71-9.71.64-2.43,1.27-4.87,1.9-7.31,1.56-.57,3.12-1.6,4.69-1.63,9.86-.15,19.73-.08,29.41-.08,2.73,2.73,5.27,5.27,7.96,7.96v21.32c1.88,2.01,3.69,3.95,5.53,5.92,0,5.33,0,10.72,0,16.11-1.28,1.27-2.55,2.54-4.98,4.97-.2,3.03-.47,7.29-.75,11.55-5.09,5.09-10.18,10.17-14.63,14.63-5.12,9.24,4.34,14.78,4.17,22.43,9.43,3.95,1.41,15.79,9.26,20.45,1.1,7.53,8.86,12.9,6.94,21.41,8.77,8.48,3.57,19.97,6.23,29.56,1.44,1.44,2.71,2.71,3.91,3.91v29.48c-3.04.29-5.48.53-7.75.75-4.69-5.93-1.48-12.41-2.4-18.38-6.23-4.04-4.56-13.07-10.76-17.02-.26-7.92.48-15.85-.66-24.31-2.26,1.21-3.44,1.53-3.46,1.9-.72,15.02-1.34,30.05-1.94,44.2-2.71,3.16-5,5.83-7.29,8.5-2.91-2.91-5.45-5.45-8.14-8.14v-26.72c-1.87-2.01-3.67-3.95-5.48-5.88,1.24-1.24,2.51-2.51,3.79-3.78.52-1.58,1.47-3.16,1.48-4.75.13-11.64.07-23.29.07-34.6-1.61-1.61-2.88-2.88-4.77-4.77v-14.65c-2.26-3.36-5.58-6.09-5.71-8.96-.25-5.43-4.1-7.64-7.08-10.62-2.65-2.65-3.63-5.41-4.39-9.09-.61-2.98-4.48-5.29-6.84-7.82q-12.31-.44-27.86,9.98h-19.59c-6,3.1-10.52,5.43-14.05,7.26,6.49,6.49,13.29,13.29,17.16,17.15,5.69,13.48,9.92,22.39,16.65,30.47,5.7,6.85,8.39,16.21,13.3,26.25v11.31c3.08,5.9,6.18,11.83,10.36,19.85v13.43c1.83,2.2,3.49,4.19,6.23,7.48v21.13c2.22,2.22,3.49,3.49,4.89,4.89v15.78c3.87,5.82,12.1,8.5,11.32,17.13,4.03,3.07,6.15,9.32,13.02,7.8.49-.11,1.89,1.21,1.83,1.73-1.28,10.19,13.05,12.05,11.76,22.16,5.01,2.94,4.81,8.81,7.36,13.15,2.55,4.33,4.73,8.87,8.26,15.57v46.19c-1.37,3-4.78,6.94-4.44,10.54.58,6.22-5.17,9.1-5.57,14-.44,5.41.11,10.73-5.37,14.03,1.03,8.72-7.77,11.07-11.02,17.02,0,2.7,0,5.39,0,8.09-2.29,4.42-4.57,8.85-8.03,15.55-3.83,3.83-9.55,9.55-15.92,15.91-2.79.14-6.25.31-10.32.51-7.44,2.07-6.87,10.86-11.42,15.53-4.7,4.83-8,12.31-16.69,11.59-4.45,4.45-8.42,9.58-13.48,13.17-5.38,3.82-11.78,6.19-16.94,8.79-7.56-4.03-2.15-10.65-5.78-15.37-1.12-.46-3.04-4.88-4.22,1.17-.43,2.2-3.44,3.89-2.6,1.61,4.1-9.83,7.99-12.92,12.94-15.08,5.33-2.32,10.96-4.19,15.82-7.27,4.98-3.15,8.03-8.22,14.86-9.98,5.24-1.35,8.99-8.34,13.54-12.68,1.17-1.11,2.88-1.66,4.35-2.46,2.7,0,5.39,0,8.09,0,9.69-5.35,10.12-18.14,19.26-23.93-2.21-6.32,4.13-9.11,6.11-13.63,5.71-13.02,10.36-26.89,20.69-35.4v-57.4c-4.65-9.37-7.97-16.07-11.3-22.77-3.42-8-12.29-11.41-15.48-20.64-3.21-9.3-11.76-14.51-21.17-17.76v-10.59c-1.89-2.04-3.69-3.99-5.54-5.99v-21.28c-1.9-2.07-3.68-4.02-5.54-6.05v-21.22c-1.46-1.46-3.42-2.52-3.89-4.04-1.95-6.37-.55-13.91-6.72-18.79,1.79-6.71-3.77-11.13-5.07-16.7-1.18-5.08.06-10.67-5.44-13.97,2.71-7.09-8.28-9.24-6.01-16.6.39-1.28-3.76-3.56-4.94-5.83-1.19-2.28,1.36-6.9-4.18-6.52-.52,2.02-1.15,3.62-1.32,5.27-.92,8.87,7.62,15.26,6.49,24.34-.14,1.1,2.35,2.52,4.55,4.72v32.4c2.2,2.2,3.47,3.47,5.12,5.12,0,8.55-.03,17.48.06,26.41,0,.7.93,1.38,1.43,2.08,1.27,1.27,2.54,2.54,3.91,3.91,0,6.18-.12,12.46.08,18.73.05,1.57,1.1,3.1,1.68,4.61,1.24,1.34,2.45,2.63,3.58,3.86v59.11c-1.91,2.09-3.68,4.04-5.53,6.07v37.14c-2.01,2.33-3.71,4.3-5.2,6.04,0,4.91.2,9.41-.06,13.89-.25,4.38-6.61,5.89-5.4,11.25,1.08,4.78-1.84,7.91-4.43,11.69-2.17,3.17-.12,9.73-2.55,12.12-3.58,3.52-2.43,8.38-5.42,11.41-3.12,3.16-6.68,5.89-9.02,7.92-.22,3.55-.33,5.3-.44,7.05-4.45,4.45-8.89,8.89-13.34,13.34-3.81,3.81-7.23,8.17-11.53,11.3-5.35,3.89-6.28,10.06-9.5,15.01-1.44,2.21-4.12,5.74-5.57,5.44-6.35-1.32-8.42,5.83-13.93,5.99-7,.21-8.43,8.59-14.39,10.7-17.31,6.15-32.5,16.78-49.94,23.65.14,2.41.29,4.84.45,7.59,4.59,1.88,8.91,1.1,13.13.8,1.35-1.35,2.62-2.62,4.83-4.83h21.6c2.21-2.21,3.48-3.48,5.67-5.68h43.23c5.98-6,11.05-11.08,16.12-16.16,2.72,0,5.41,0,5.28,4.27ZM146.08,94.59c-1.85-1.96-3.66-3.88-5.5-5.83v-8.09c-4.82-8.54-6.16-16.91-13.55-21.29-2.33,2.52-4.73,5.11-7.44,8.05v38.49c6.08,4.74,5.41,13.36,11.85,17.04,1.39.8,3.21.85,6.09,1.55,2.56-4.55,5.3-9.4,8.56-15.19v-14.73ZM286.45,64.25v-12.84c1.86-1.99,3.67-3.93,5.24-5.62v-8.89c-3.19-6.2-5.48-10.67-7.82-15.21h-11.19c-2.14,2.34-4.55,4.99-7.19,7.89v16.97c1.91,1.91,3.18,3.18,4.45,4.45.25,4.26.5,8.51.78,13.26h15.73ZM203.54,497.52c-1.13.62-2.3,1.27-3.48,1.92.6.6,1.33,1.79,1.77,1.69,1.27-.28,2.42-1.09,3.62-1.69-.6-.6-1.2-1.2-1.92-1.92Z"/>
  <path class="cls-1" d="M351.24,448.15v39.12c-4.46,8.97-12.06,16.71-10.72,29.51-2.55,2.21-6.73,4.6-9.08,8.19-3.14,4.8-4.37,10.81-7.3,15.79-5.44,9.24-8.69,20.31-18.89,25.05-2.97-2.45-5.72-4.71-7.84-6.46v-11.47c6.19-6.35,13.36-11.7,15.73-20.81v-59.46c-6.77-8.12-9.27-19.17-15.51-28.25-1.7-2.47-2.1-8.51,1.74-12.41,1.65-1.68,2.18-4.44,3.3-6.67.76-1.49,1.67-2.91,2.56-4.44h5.2c3.94-3.74,7.79-7.39,12.1-11.49,2.24.99,4.65,1.78,6.76,3.06,1.49.91,3.01,2.26,3.78,3.78,2.63,5.18,4.85,10.58,7.4,15.81,2.94,6.01,6.06,11.92,10.77,21.16ZM313.18,434.12c3.84,4.01,7.49,7.84,11.18,11.69v15.77c1.94,2.17,3.69,4.12,5.29,5.9,0,8.34-.12,16.4.08,24.44.05,2.14.16,5.46,5.32,2.78v-54.76c-6.61-5.18-5.59-15.21-13.82-18.44-2.3,3.45-7.31,4.99-8.04,12.62Z"/>
  <path class="cls-1" d="M278.66,216.08h21.44c2.32,4.54,4.6,8.99,7.78,15.2v20.28c-4,3.5-8.67,7.59-14.49,12.69h-15.92c-2.87-3.6-6.73-8.44-12.14-15.22v-25.62c3.41-1.4,6.55-2.49,9.49-3.99,1.51-.77,2.64-2.27,3.84-3.33ZM275.76,241.53c3.55,3.22,8.03,7.34,12.58,11.36.32.28,1.2-.06,2.29-.16,2.03-6.48,2.03-13.01,0-19.49q-12.19-1.15-14.88,1.54v6.75Z"/>
</svg>